<?xml version="1.0" encoding="utf-8"?>
<!-- Generator: Adobe Illustrator 23.0.2, SVG Export Plug-In . SVG Version: 6.00 Build 0)  -->
<svg version="1.1" id="Capa_1" xmlns="http://www.w3.org/2000/svg" xmlns:xlink="http://www.w3.org/1999/xlink" x="0px" y="0px"
	 viewBox="0 0 89.5 89.5" style="enable-background:new 0 0 89.5 89.5;" xml:space="preserve">
<style type="text/css">
	.st0{fill:#D7282F;}
</style>
<path id="Trazado_231" class="st0" d="M44.8,79.8C25,79.8,8.9,63.7,8.9,43.9c0.1-0.7,0.7-1.3,1.4-1.2c0.6,0.1,1.2,0.6,1.2,1.2l0,0
	c0,18.3,14.9,33.2,33.2,33.1c18.3,0,33.2-14.9,33.1-33.2c0-18.3-14.9-33.2-33.2-33.1C32,10.7,20.5,18,14.9,29.3
	c-0.3,0.7-1.1,0.9-1.8,0.6c-0.7-0.3-0.9-1.1-0.6-1.8l0,0l0,0c8.7-17.8,30.2-25.1,48-16.4s25.1,30.2,16.4,48
	C70.9,72,58.4,79.8,44.8,79.8z"/>
<g>
	<path class="st0" d="M49,61.6c-0.2,0.2-0.4,0.3-0.7,0.3h-6.4c-0.3,0-0.5-0.1-0.7-0.3S41,61.2,41,60.9V34.2l-5.4,2.2
		c-0.2,0.1-0.4,0.1-0.6,0.1c-0.4,0-0.5-0.2-0.5-0.6v-5.5c0-0.3,0.2-0.5,0.5-0.7l7.9-3.6c0.3-0.1,0.7-0.2,1.1-0.2h4.4
		c0.6,0,0.9,0.3,0.9,0.9v34C49.2,61.2,49.2,61.4,49,61.6z"/>
</g>
</svg>
