<?xml version="1.0" encoding="utf-8"?>
<!-- Generator: Adobe Illustrator 23.0.2, SVG Export Plug-In . SVG Version: 6.00 Build 0)  -->
<svg version="1.1" id="Capa_1" xmlns="http://www.w3.org/2000/svg" xmlns:xlink="http://www.w3.org/1999/xlink" x="0px" y="0px"
	 viewBox="0 0 89.5 89.5" style="enable-background:new 0 0 89.5 89.5;" xml:space="preserve">
<style type="text/css">
	.st0{fill:#D7282F;}
</style>
<path id="Trazado_231" class="st0" d="M44.8,79.8C25,79.8,8.9,63.7,8.9,43.9c0-0.7,0.6-1.3,1.3-1.3s1.3,0.6,1.3,1.3c0,0,0,0,0,0
	c0,18.3,14.9,33.2,33.2,33.2s33.2-14.9,33.2-33.2S63,10.7,44.7,10.7C32,10.7,20.5,18,14.9,29.3c-0.3,0.7-1.1,0.9-1.8,0.6
	c-0.7-0.3-0.9-1.1-0.6-1.8l0,0c8.7-17.8,30.2-25.1,48-16.4s25.1,30.2,16.4,48C70.9,72,58.4,79.8,44.8,79.8z"/>
<path id="Trazado_232" class="st0" d="M49.3,61.7c-0.2,0.2-0.4,0.3-0.7,0.3h-6.4c-0.3,0-0.5-0.1-0.7-0.3c-0.2-0.2-0.3-0.4-0.3-0.7
	V34.2l-5.4,2.2c-0.2,0.1-0.4,0.1-0.6,0.1c-0.4,0-0.5-0.2-0.5-0.6v-5.5c0-0.3,0.2-0.6,0.5-0.7l7.9-3.6c0.4-0.1,0.7-0.2,1.1-0.2h4.4
	c0.5,0,0.8,0.3,0.9,0.8c0,0,0,0.1,0,0.1v34.3C49.6,61.3,49.5,61.5,49.3,61.7z"/>
<text transform="matrix(1 0 0 1 118.2312 39.7226)" style="font-family:'MyriadPro-Regular'; font-size:35.6696px;">1</text>
</svg>
