<?xml version="1.0" encoding="utf-8"?>
<!-- Generator: Adobe Illustrator 23.0.2, SVG Export Plug-In . SVG Version: 6.00 Build 0)  -->
<svg version="1.1" id="Capa_1" xmlns="http://www.w3.org/2000/svg" xmlns:xlink="http://www.w3.org/1999/xlink" x="0px" y="0px"
	 viewBox="0 0 89.5 89.5" style="enable-background:new 0 0 89.5 89.5;" xml:space="preserve">
<style type="text/css">
	.st0{fill:#D7282F;}
</style>
<path id="Trazado_231" class="st0" d="M44.8,79.8C25,79.8,8.9,63.7,8.9,43.9c0-0.7,0.6-1.3,1.3-1.3s1.3,0.6,1.3,1.3c0,0,0,0,0,0
	c0,18.3,14.9,33.2,33.2,33.2s33.2-14.9,33.2-33.2S63,10.7,44.7,10.7C32,10.7,20.5,18,14.9,29.3c-0.3,0.7-1.1,0.9-1.8,0.6
	c-0.7-0.3-0.9-1.1-0.6-1.8l0,0c8.7-17.8,30.2-25.1,48-16.4s25.1,30.2,16.4,48C70.9,72,58.4,79.8,44.8,79.8z"/>
<g>
	<path class="st0" d="M57.3,35.3c0,2-0.5,3.7-1.4,5.2c-1,1.5-2.4,2.8-4.2,4l-4.2,2.8c-1,0.7-2,1.3-2.9,2c-0.9,0.6-1.6,1.3-2.3,1.9
		c-0.6,0.7-1.1,1.3-1.5,2.1c-0.3,0.7-0.5,1.5-0.5,2.4v0.2h15.5c0.3,0,0.5,0.1,0.7,0.3c0.2,0.2,0.3,0.4,0.3,0.7v5
		c0,0.3-0.1,0.5-0.3,0.7c-0.2,0.2-0.4,0.3-0.7,0.3H34.1c-0.3,0-0.5-0.1-0.7-0.3c-0.2-0.2-0.3-0.4-0.3-0.7v-5c0-2.7,0.6-5.1,1.9-7.3
		c1.3-2.1,2.9-3.9,4.7-5.2l4.5-3.2c1.1-0.8,1.9-1.4,2.6-1.8c0.7-0.5,1.2-0.9,1.5-1.3c0.4-0.4,0.6-0.8,0.7-1.1
		c0.1-0.4,0.2-0.9,0.2-1.4c0-1-0.4-1.8-1.1-2.3c-0.7-0.5-2.1-0.7-4.1-0.7c-1.5,0-3.1,0.1-4.8,0.2c-1.7,0.1-3.3,0.3-4.8,0.4h-0.1
		c-0.3,0-0.5-0.1-0.6-0.3c-0.2-0.2-0.2-0.4-0.2-0.7v-3.8c0-0.3,0.1-0.5,0.3-0.6c0.2-0.1,0.4-0.3,0.7-0.3c1.4-0.4,3-0.8,4.9-1.1
		c1.9-0.3,3.7-0.4,5.6-0.4c4.5,0,7.7,0.8,9.6,2.3C56.3,29.8,57.3,32.2,57.3,35.3z"/>
</g>
</svg>
