<svg xmlns="http://www.w3.org/2000/svg" width="89.445" height="89.461" viewBox="0 0 89.445 89.461">
  <g id="Capa_1" data-name="Capa 1" transform="translate(0 0)">
    <path id="Trazado_233" data-name="Trazado 233" d="M44.727,89.455A44.771,44.771,0,0,1,0,44.728a1.652,1.652,0,1,1,3.3,0A41.391,41.391,0,1,0,7.51,26.515a1.652,1.652,0,1,1-2.962-1.464,44.727,44.727,0,1,1,40.179,64.4Z" transform="translate(0 0.006)" fill="#d7282f"/>
    <path id="Trazado_234" data-name="Trazado 234" d="M56.2,32.856a11.308,11.308,0,0,1-1.784,6.386,18.774,18.774,0,0,1-5.175,5l-5.153,3.446c-1.288.848-2.466,1.663-3.535,2.455a21.351,21.351,0,0,0-2.786,2.389,9.547,9.547,0,0,0-1.817,2.577,6.607,6.607,0,0,0-.639,2.907v.242H54.447a1.222,1.222,0,0,1,.848.33,1.1,1.1,0,0,1,.363.826v6.232a1.1,1.1,0,0,1-.363.848,1.167,1.167,0,0,1-.848.363H27.491a1.167,1.167,0,0,1-.848-.363,1.1,1.1,0,0,1-.363-.848v-6.21a16.935,16.935,0,0,1,2.4-8.963A21.582,21.582,0,0,1,34.516,44.1l5.572-3.931c1.332-.936,2.411-1.685,3.215-2.279a13.213,13.213,0,0,0,1.872-1.575,3.491,3.491,0,0,0,.881-1.387,6.188,6.188,0,0,0,.209-1.839A3.017,3.017,0,0,0,44.911,30.3c-.914-.573-2.6-.848-5.065-.848-1.85,0-3.843.077-5.957.242s-4.107.341-5.968.54H27.8a.991.991,0,0,1-.793-.363,1.288,1.288,0,0,1-.3-.848V24.278a.947.947,0,0,1,.33-.76,2.07,2.07,0,0,1,.815-.385A42.757,42.757,0,0,1,33.889,21.8a44.331,44.331,0,0,1,6.871-.551q8.357,0,11.9,2.874T56.2,32.856Z" transform="translate(2.657 2.155)" fill="#d7282f"/>
  </g>
</svg>
