<svg id="Capa_1" data-name="Capa 1" xmlns="http://www.w3.org/2000/svg" viewBox="0 0 89.5 89.52"><defs><style>.cls-1{fill:#fff;}</style></defs><title>3</title><path id="Trazado_231" data-name="Trazado 231" class="cls-1" d="M44.75,79.81A35.9,35.9,0,0,1,8.89,43.94a1.33,1.33,0,0,1,2.65,0h0a33.18,33.18,0,1,0,3.37-14.6,1.32,1.32,0,0,1-2.37-1.17h0A35.86,35.86,0,1,1,44.75,79.81Z"/><path class="cls-1" d="M56.18,57.28a8.9,8.9,0,0,1-2.62,3.38,11.41,11.41,0,0,1-4.05,2,20,20,0,0,1-5.19.63,39.91,39.91,0,0,1-5.56-.38,31.58,31.58,0,0,1-4.59-1,1.68,1.68,0,0,1-.66-.31.75.75,0,0,1-.27-.61V57.08a.84.84,0,0,1,.89-.88h.09c1.73.16,3.46.28,5.17.34s3.25.1,4.59.1a5.29,5.29,0,0,0,3.74-1.06,4.14,4.14,0,0,0,1.11-3.13v-.89a7.62,7.62,0,0,0-.17-1.6A3.48,3.48,0,0,0,48,48.61a2.92,2.92,0,0,0-1.22-.94,4.92,4.92,0,0,0-2-.34H36.23a.85.85,0,0,1-.66-.3,1,1,0,0,1-.27-.68V42.18a.82.82,0,0,1,.93-.93h8.43a4.71,4.71,0,0,0,2-.37,3.71,3.71,0,0,0,1.3-1,3.44,3.44,0,0,0,.68-1.38,6.58,6.58,0,0,0,.2-1.58v-.69a5.28,5.28,0,0,0-.22-1.53,2.56,2.56,0,0,0-.76-1.15,3.76,3.76,0,0,0-1.5-.74A8.83,8.83,0,0,0,44,32.58c-.85,0-1.66,0-2.43.05s-1.53.07-2.28.12-1.53.1-2.33.17-1.67.15-2.62.24h-.1a.84.84,0,0,1-.88-.88V28.39a.72.72,0,0,1,.3-.61,1.85,1.85,0,0,1,.68-.31,39.57,39.57,0,0,1,4.51-1A31.11,31.11,0,0,1,44.32,26a24.4,24.4,0,0,1,5.37.54,10.73,10.73,0,0,1,4,1.74,7.87,7.87,0,0,1,2.53,3.11A11.07,11.07,0,0,1,57.11,36v.68a9,9,0,0,1-4.36,7.5,8,8,0,0,1,3.21,3,8.33,8.33,0,0,1,1.15,4.34v.88A11.74,11.74,0,0,1,56.18,57.28Z"/></svg>