<svg id="Capa_1" data-name="Capa 1" xmlns="http://www.w3.org/2000/svg" viewBox="0 0 89.5 89.52"><defs><style>.cls-1{fill:#d7282f;}</style></defs><title>4</title><path id="Trazado_231" data-name="Trazado 231" class="cls-1" d="M44.75,79.81A35.9,35.9,0,0,1,8.89,43.94a1.33,1.33,0,0,1,2.65,0h0a33.18,33.18,0,1,0,3.37-14.6,1.32,1.32,0,0,1-2.37-1.17h0A35.86,35.86,0,1,1,44.75,79.81Z"/><path class="cls-1" d="M55.51,52.62a.94.94,0,0,1-.68.29H51.59v7.21a1,1,0,0,1-.27.68.85.85,0,0,1-.66.3H44.14a.85.85,0,0,1-.66-.3,1,1,0,0,1-.27-.68V52.91H29.05a1,1,0,0,1-1-1V47.18a2.68,2.68,0,0,1,.54-1.52L44.09,25.37a1.83,1.83,0,0,1,.54-.51,1.4,1.4,0,0,1,.74-.18h5.24a1,1,0,0,1,.69.3.94.94,0,0,1,.29.68V46.44h3.24a1,1,0,0,1,1,1v4.51A1,1,0,0,1,55.51,52.62Zm-12-17c0-.19-.07-.29-.2-.29s-.08,0-.15.1L35.42,46a.4.4,0,0,0-.1.3c0,.13.1.19.29.19h7.85Z"/></svg>