<svg id="Capa_1" data-name="Capa 1" xmlns="http://www.w3.org/2000/svg" viewBox="0 0 89.5 89.52"><defs><style>.cls-1{fill:#d7282f;}</style></defs><title>5</title><path id="Trazado_231" data-name="Trazado 231" class="cls-1" d="M44.75,79.81A35.9,35.9,0,0,1,8.89,43.94a1.33,1.33,0,0,1,2.65,0h0a33.18,33.18,0,1,0,3.37-14.6,1.32,1.32,0,0,1-2.37-1.17h0A35.86,35.86,0,1,1,44.75,79.81Z"/><path class="cls-1" d="M54,58.45q-3.37,3.09-9.83,3.09a34.11,34.11,0,0,1-4.92-.37,29.49,29.49,0,0,1-4.73-1,2,2,0,0,1-.69-.32.89.89,0,0,1-.29-.75V55.21a.85.85,0,0,1,.24-.63.9.9,0,0,1,.64-.25h.1c.78.1,1.59.18,2.43.25l2.45.17,2.23.12c.68,0,1.25.05,1.71.05a8.85,8.85,0,0,0,2.84-.37,4.06,4.06,0,0,0,1.72-1.06,3.61,3.61,0,0,0,.86-1.67A10.92,10.92,0,0,0,49,49.55v-.39a6.08,6.08,0,0,0-.32-2.09,2.86,2.86,0,0,0-1.13-1.4,5.48,5.48,0,0,0-2.13-.79A18.45,18.45,0,0,0,42,44.63h-7.6a.63.63,0,0,1-.49-.22.69.69,0,0,1-.19-.47v0l1.51-18.28a1.14,1.14,0,0,1,.32-.67.9.9,0,0,1,.66-.27h19a1,1,0,0,1,.68.27.86.86,0,0,1,.3.67v4.9a.85.85,0,0,1-.3.66,1,1,0,0,1-.68.27H42l-.59,6.76h1.42a31.16,31.16,0,0,1,5.85.51,13.2,13.2,0,0,1,4.61,1.77,8.39,8.39,0,0,1,3,3.36,11.53,11.53,0,0,1,1.08,5.29v.39Q57.35,55.37,54,58.45Z"/></svg>