<?xml version="1.0" encoding="utf-8"?>
<!-- Generator: Adobe Illustrator 25.0.0, SVG Export Plug-In . SVG Version: 6.00 Build 0)  -->
<svg version="1.1" id="Capa_1" xmlns="http://www.w3.org/2000/svg" xmlns:xlink="http://www.w3.org/1999/xlink" x="0px" y="0px"
	 viewBox="0 0 89.5 89.5" style="enable-background:new 0 0 89.5 89.5;" xml:space="preserve">
<style type="text/css">
	.st0{fill:#D7282F;}
</style>
<path id="Trazado_231" class="st0" d="M44.8,79.8C25,79.8,8.9,63.7,8.9,43.9c0-0.7,0.6-1.3,1.3-1.3s1.3,0.6,1.3,1.3l0,0
	c0,18.3,14.9,33.2,33.2,33.2s33.2-14.9,33.2-33.2S63,10.7,44.7,10.7C32,10.7,20.5,18,14.9,29.3c-0.3,0.7-1.1,0.9-1.8,0.6
	s-0.9-1.1-0.6-1.8l0,0c8.7-17.8,30.2-25.1,48-16.4s25.1,30.2,16.4,48C70.9,72,58.4,79.8,44.8,79.8z"/>
<g>
	<path class="st0" d="M60.2,59.1c0,0.5-0.3,0.8-0.8,0.8h-6.7c-0.3,0-0.5-0.1-0.6-0.2c-0.2-0.2-0.3-0.4-0.3-0.6L50,51.2h-9.8L38.6,59
		c-0.1,0.3-0.2,0.5-0.3,0.6c-0.2,0.2-0.4,0.2-0.6,0.2H31c-0.5,0-0.8-0.3-0.8-0.8c0,0,0-0.1,0-0.1c0,0,0-0.1,0-0.1l7.1-29.5
		c0.3-1.1,0.7-2.1,1.2-2.8c0.5-0.7,1.2-1.2,1.9-1.6c0.7-0.4,1.5-0.6,2.3-0.7c0.8-0.1,1.6-0.2,2.5-0.2s1.6,0.1,2.5,0.2
		c0.8,0.1,1.6,0.4,2.3,0.7c0.7,0.4,1.3,0.9,1.9,1.6c0.5,0.7,1,1.6,1.2,2.8l7.1,29.5C60.1,59,60.1,59,60.2,59.1
		C60.2,59.1,60.2,59.1,60.2,59.1z M45.8,31.6c-0.1-0.3-0.1-0.4-0.2-0.5c-0.1-0.1-0.2-0.2-0.4-0.2c-0.3,0-0.6,0.2-0.7,0.7l-2.9,13.1
		h7.1L45.8,31.6z"/>
</g>
</svg>
