<?xml version="1.0" encoding="utf-8"?>
<!-- Generator: Adobe Illustrator 25.0.0, SVG Export Plug-In . SVG Version: 6.00 Build 0)  -->
<svg version="1.1" id="Capa_1" xmlns="http://www.w3.org/2000/svg" xmlns:xlink="http://www.w3.org/1999/xlink" x="0px" y="0px"
	 viewBox="0 0 1024 407.5" style="enable-background:new 0 0 1024 407.5;" xml:space="preserve">
<style type="text/css">
	.st0{fill:#ECECEC;}
	.st1{fill:#E1E1E1;}
	.st2{fill:#D7282F;}
	.st3{opacity:0.2;}
	.st4{fill:#1A2E35;}
	.st5{fill:#F5F5F5;}
	.st6{fill:#EBEBEB;}
	.st7{fill:#E0E0E0;}
	.st8{opacity:0.24;}
	.st9{opacity:0.3;}
</style>
<g>
	<g>
		<g>
			<path class="st0" d="M159.9,279.8c0,0,6.7-3.9,13.6,12c6.9,15.9,9.4,24.9,9.4,24.9s1.9,3.3,4.2,1.4c2.3-2,5.7-7.8,9.4-6.5
				c3.8,1.4,4.9,5.8,3.7,12.1c-1.1,6.4-3.1,20.4-3.3,21.6c-0.2,1.2,0.4,3.1,2.2,2c1.8-1.1,12.5-11.6,17.2-6.3
				c4.7,5.4-1.4,22.5-2,24.4c-0.6,1.9-0.3,2.7,0.6,3.3c0.9,0.5,4.1-3.3,7.3-6.2c3.2-2.9,7.3-5.6,9.8-2.3c2.4,3.3,2.5,16.5-11.3,37.1
				l-7,9.1l-11.5-1.3c-24.4-4.3-33.8-13.5-34.5-17.6c-0.7-4.1,4.2-5.1,8.5-5.4c4.3-0.3,9.3,0.1,9.5-0.9c0.2-1-0.2-1.8-1.9-2.7
				c-1.8-0.9-18.4-8.4-19-15.5c-0.6-7.1,14.4-7.5,16.4-8c2-0.5,1.1-2.3,0.1-3c-1-0.8-12.5-9.1-17.9-12.7c-5.4-3.6-7.8-7.4-6.2-11.1
				c1.6-3.6,8.2-2,11.2-2.3c3-0.3,1.9-4,1.9-4s-4.8-8-11.5-24c-6.6-16,1-18.1,1-18.1"/>
		</g>
	</g>
	<g>
		<g>
			<g>
				<path class="st1" d="M213.4,404.1c-4.9-11.7-11.8-27.8-19.5-45.6c-7.7-17.8-14.7-33.9-19.6-45.6c-2.5-5.8-4.5-10.6-5.9-13.8
					c-0.7-1.6-1.2-2.9-1.6-3.8c-0.2-0.4-0.3-0.7-0.4-1c-0.1-0.2-0.2-0.3-0.2-0.3s0,0.1,0.1,0.3c0.1,0.2,0.2,0.6,0.4,1
					c0.4,0.9,0.9,2.2,1.5,3.8c1.3,3.3,3.3,8,5.8,13.9c4.9,11.7,11.8,27.8,19.5,45.6c7.7,17.8,14.7,33.9,19.6,45.6"/>
			</g>
		</g>
	</g>
	<g>
		<g>
			<g>
				<path class="st1" d="M192.1,319.9c0,0-0.1,0.3-0.3,0.8c-0.2,0.5-0.5,1.2-0.8,2.1c-0.6,1.8-1.4,4.3-2.3,7.1
					c-0.8,2.7-1.5,5.2-2.1,7.1c-0.3,0.8-0.5,1.6-0.7,2.2c-0.2,0.5-0.2,0.8-0.2,0.8c0,0,0.1-0.3,0.3-0.8c0.2-0.5,0.5-1.2,0.8-2.1
					c0.6-1.8,1.4-4.3,2.2-7.1c0.8-2.7,1.6-5.2,2.2-7.1c0.3-0.8,0.5-1.6,0.7-2.2C192.1,320.2,192.1,319.9,192.1,319.9z"/>
			</g>
		</g>
	</g>
	<g>
		<g>
			<g>
				<path class="st1" d="M184.7,340.1c0-0.1-5.1-2-11.4-4.2c-6.3-2.2-11.5-4-11.5-3.9c0,0.1,5.1,2,11.4,4.2
					C179.5,338.5,184.6,340.2,184.7,340.1z"/>
			</g>
		</g>
	</g>
	<g>
		<g>
			<g>
				<path class="st1" d="M197.7,366.9c0,0-0.3-0.1-0.8-0.1c-0.6,0-1.4-0.1-2.3-0.1c-1.9-0.1-4.6-0.3-7.6-0.6c-3-0.3-5.6-0.6-7.5-0.9
					c-0.9-0.1-1.7-0.2-2.3-0.3c-0.5-0.1-0.8-0.1-0.8-0.1c0,0,0.3,0.1,0.8,0.2c0.5,0.1,1.3,0.3,2.3,0.4c1.9,0.3,4.6,0.7,7.6,1
					c3,0.3,5.7,0.4,7.6,0.5c1,0,1.8,0,2.3,0C197.4,366.9,197.7,366.9,197.7,366.9z"/>
			</g>
		</g>
	</g>
	<g>
		<g>
			<g>
				<path class="st1" d="M208.5,350.1c0,0-0.2,0.2-0.5,0.6c-0.3,0.4-0.7,1-1.2,1.7c-1,1.5-2.4,3.5-3.9,5.8c-1.5,2.3-2.9,4.4-3.8,5.9
					c-0.5,0.8-0.9,1.4-1.1,1.8c-0.3,0.4-0.4,0.7-0.4,0.7c0,0,0.2-0.2,0.5-0.6c0.3-0.4,0.7-1,1.2-1.7c1-1.5,2.4-3.5,3.9-5.8
					c1.5-2.3,2.9-4.4,3.8-5.9c0.5-0.8,0.9-1.4,1.1-1.8C208.4,350.3,208.5,350.1,208.5,350.1z"/>
			</g>
		</g>
	</g>
	<g>
		<g>
			<g>
				<path class="st1" d="M223,372.2c0,0-0.2,0.3-0.6,0.8c-0.4,0.6-0.9,1.3-1.6,2.2c-1.3,1.9-3.1,4.5-5.1,7.5c-2,2.9-3.7,5.6-5,7.5
					c-0.6,0.9-1.1,1.7-1.5,2.3c-0.3,0.5-0.5,0.9-0.5,0.9c0,0,0.2-0.3,0.6-0.8c0.4-0.6,0.9-1.3,1.6-2.2c1.3-1.9,3.1-4.5,5.1-7.5
					c2-2.9,3.7-5.6,5-7.5c0.6-0.9,1.1-1.7,1.5-2.3C222.9,372.6,223,372.3,223,372.2z"/>
			</g>
		</g>
	</g>
	<g>
		<g>
			<g>
				<path class="st1" d="M209,392.8c0,0-0.4-0.1-1.1-0.1c-0.8-0.1-1.7-0.2-2.9-0.3c-2.5-0.2-5.9-0.6-9.6-1c-3.7-0.5-7.1-1-9.6-1.4
					c-1.2-0.2-2.1-0.3-2.9-0.5c-0.7-0.1-1.1-0.1-1.1-0.1c0,0,0.4,0.1,1,0.3c0.7,0.1,1.7,0.3,2.9,0.6c2.4,0.5,5.8,1,9.6,1.5
					c3.7,0.5,7.2,0.8,9.6,0.9c1.2,0.1,2.2,0.1,2.9,0.2C208.6,392.8,209,392.8,209,392.8z"/>
			</g>
		</g>
	</g>
</g>
<g>
	<g>
		<g>
			<path class="st2" d="M214.7,376.5c1.4,2,4.1,1.3,5.4,0.1c1.3-1.2,1.8-3,2.3-4.7c1.1-3.8,2.2-7.9,1.4-11.8
				c-0.2-1.2-0.7-2.3-1.5-3.2c-0.8-0.9-2.1-1.4-3.2-1.1c-1.4,0.4-2.2,1.7-2.8,3c-1.8,3.7-2.8,7.9-2.8,12
				C213.4,372.8,213.6,374.9,214.7,376.5"/>
		</g>
	</g>
	<g class="st3">
		<g>
			<path d="M214.7,376.5c1.4,2,4.1,1.3,5.4,0.1c1.3-1.2,1.8-3,2.3-4.7c1.1-3.8,2.2-7.9,1.4-11.8c-0.2-1.2-0.7-2.3-1.5-3.2
				c-0.8-0.9-2.1-1.4-3.2-1.1c-1.4,0.4-2.2,1.7-2.8,3c-1.8,3.7-2.8,7.9-2.8,12C213.4,372.8,213.6,374.9,214.7,376.5"/>
		</g>
	</g>
	<g>
		<g>
			<path class="st2" d="M219.9,386.5c2.3-1.2,5-1.3,7.5-0.9c1.4,0.2,2.8,0.6,3.7,1.7c0.9,1,1.1,2.8,0,3.7c-0.6,0.5-1.5,0.6-2.3,0.6
				c-2,0-4.2-0.4-5.8,0.8c-0.9,0.7-1.5,1.8-2.6,2.1c-1.1,0.3-2.2-0.3-2.8-1.2c-0.6-1-0.6-2.1-0.3-3.2
				C217.3,390,217.6,387.7,219.9,386.5z"/>
		</g>
	</g>
	<g>
		<g>
			<path class="st2" d="M210.9,379.3c1.5-1.8,1.8-4.4,1.1-6.7c-0.7-2.2-2.2-4.2-3.9-5.7c-2.1-1.8-4.5-3.3-7.1-4.2
				c-1-0.4-2.1-0.6-3.2-0.5c-1.1,0.1-2.2,0.7-2.7,1.6c-0.7,1.4,0,3.1,0.7,4.5c1.4,2.5,2.9,4.8,4.6,7.1c1.4,1.8,3,3.6,5.1,4.4
				c2.1,0.8,4.3,0.7,5.4-0.8"/>
		</g>
	</g>
	<g>
		<g>
			<g>
				<path class="st4" d="M214.6,406.5c0,0,0.1-0.3,0.1-0.9c0.1-0.7,0.1-1.5,0.2-2.5c0.1-1,0.3-2.3,0.6-3.6c0.3-1.3,0.7-2.8,1.3-4.3
					c0.6-1.5,1.3-2.8,2.2-3.9c0.8-1.1,1.8-1.8,2.8-2.3c0.9-0.5,1.7-0.6,2.3-0.7c0.6-0.1,0.9-0.1,0.9-0.1c0,0-0.3,0-0.9,0
					c-0.6,0-1.4,0.2-2.4,0.6c-1,0.4-2,1.2-2.9,2.3c-0.9,1.1-1.7,2.4-2.3,3.9c-0.6,1.5-1,3-1.3,4.3c-0.3,1.4-0.4,2.6-0.5,3.7
					c-0.1,1-0.1,1.9-0.1,2.5C214.6,406.1,214.6,406.5,214.6,406.5z"/>
			</g>
		</g>
	</g>
	<g>
		<g>
			<g>
				<path class="st4" d="M214.8,404.6c0,0,0-0.1,0-0.4c0-0.3,0-0.7,0-1.2c0-1,0-2.5,0.1-4.4c0.1-3.7,0.4-8.9,1-14.5
					c0.6-5.6,1.4-10.7,2.2-14.4c0.2-0.9,0.4-1.7,0.5-2.5c0.2-0.7,0.3-1.3,0.4-1.8c0.1-0.5,0.2-0.9,0.3-1.2c0.1-0.3,0.1-0.4,0.1-0.4
					c0,0-0.1,0.1-0.1,0.4c-0.1,0.3-0.2,0.7-0.3,1.1c-0.2,0.5-0.3,1.1-0.5,1.8c-0.2,0.7-0.4,1.5-0.6,2.4c-0.8,3.6-1.7,8.7-2.3,14.4
					c-0.6,5.7-0.9,10.8-0.9,14.5c0,1.9,0,3.4,0.1,4.4c0,0.5,0.1,0.9,0.1,1.2C214.7,404.4,214.8,404.6,214.8,404.6z"/>
			</g>
		</g>
	</g>
	<g>
		<g>
			<g>
				<path class="st4" d="M214.8,394.6c0,0,0-0.4,0-1.3c0-0.8-0.2-2-0.4-3.4c-0.2-1.4-0.6-3.1-1.1-4.9c-0.5-1.8-1.2-3.8-2.1-5.9
					c-1.7-4.1-4-7.4-6.1-9.5c-0.5-0.5-1-0.9-1.4-1.3c-0.2-0.2-0.4-0.4-0.6-0.5c-0.2-0.1-0.4-0.3-0.6-0.4c-0.7-0.5-1-0.7-1.1-0.7
					c-0.1,0.1,1.5,1,3.5,3.1c2,2.1,4.2,5.4,5.9,9.4c0.9,2,1.6,4,2.1,5.8c0.5,1.8,0.9,3.5,1.2,4.9c0.3,1.4,0.4,2.6,0.5,3.4
					C214.7,394.2,214.8,394.6,214.8,394.6z"/>
			</g>
		</g>
	</g>
</g>
<g id="Background_Complete">
	<polygon class="st5" points="192.1,379.2 192.1,406.7 151.8,406.7 107.4,406.7 107.4,379.2 	"/>
	<polygon class="st6" points="195.7,371.5 195.7,379.2 104.4,379.2 104.4,371.5 151.8,371.5 	"/>
	<polygon class="st7" points="150.1,406.7 107.4,406.7 107.4,379.2 104.4,379.2 104.4,371.5 151.8,371.5 151.8,378.5 	"/>
	<rect x="163.1" y="383.6" class="st7" width="17.2" height="4.1"/>
	<rect x="160.4" y="392.9" class="st7" width="22.1" height="8.8"/>
	<path class="st5" d="M109.7,292.6c-1.2,0.2-2.5,0.5-4,0.6s-3.1,0.4-4.9,0.5c-1.8,0.1-3.6,0.1-5.6,0.2c-4.3-0.1-8.6-0.5-12.8-1.3
		c-4.2-0.8-8.4-2-12.4-3.5c-1.8-0.8-3.6-1.4-5.2-2.2c-1.6-0.8-3-1.5-4.4-2.3c-1.3-0.7-2.5-1.5-3.5-2.1c-1-0.6-1.9-1.2-2.6-1.7
		l-1.3-0.9h60.7v11.8l-1.2,0.3C111.9,292.2,110.9,292.4,109.7,292.6z"/>
	<path class="st5" d="M73.5,403.2c4.4-0.1,8.7,0.5,12.9,1.7c2.6,0.7,5.1,1.8,7.4,3.2H44.1c4.2-0.9,8.7-1.9,13.4-2.9
		C62.8,404,68.1,403.4,73.5,403.2z"/>
	<path class="st5" d="M12.3,395.1c5.6-0.9,12.4-0.2,19.9,0.5c4,0.4,8,0.5,12,0.3c4.1-0.2,8.4-0.6,12.7-1.2
		c8.7-1.1,16.9-2.2,24.5-1.9c6.7,0.2,13.2,1.7,19.4,4.3c4.1,1.8,8,4.1,11.6,6.8c0.6,0.4,1.1,0.8,1.5,1.2v2.8H94.4
		c-2.4-1.6-5.1-2.9-7.8-3.7c-4.2-1.3-8.7-1.9-13.1-1.9c-5.4,0.1-10.8,0.7-16.1,1.9c-5.6,1.1-10.9,2.5-15.8,3.4l-1.6,0.3H0.4v-8.6
		C4,397.2,8.1,395.7,12.3,395.1z"/>
	<path class="st5" d="M101,396.7c-6.2-2.8-12.8-4.3-19.6-4.6c-7.6-0.4-15.9,0.7-24.6,1.8c-4.3,0.5-8.6,1-12.7,1.2
		c-3.9,0.2-7.9,0.1-11.8-0.3c-7.5-0.7-14.4-1.3-20.1-0.3c-4.2,0.6-8.3,2.1-11.8,4.5v-15c3.3-0.9,6.7-1.4,10.1-1.3
		c11.3-0.4,26.3,5.8,43.7,5.3c8.2,0,16.3-1,24.2-2.9c7.3-1.8,13.6-4.3,19-5.7c4.3-1.3,8.7-1.9,13.1-1.8c1.1,0,2.3,0.2,3.4,0.3v27
		c-0.4-0.3-0.8-0.7-1.3-1.1C109.1,400.9,105.2,398.5,101,396.7z"/>
	<path class="st5" d="M113.9,327.8v-10c-0.9-0.2-2.1-0.5-3.6-0.8c-4.4-0.9-8.9-1.3-13.5-1.3c-4.5,0.1-9,0.6-13.4,1.6
		c-3.4,0.8-5.4,1.4-5.5,1.3c0.4-0.3,0.9-0.5,1.4-0.6c1.3-0.5,2.6-1,4-1.3c8.9-2.4,18.2-2.5,27.2-0.3c1.4,0.3,2.7,0.7,3.5,1V292
		l-1.1,0.3c-1,0.3-2,0.6-3,0.8c-1.2,0.3-2.5,0.6-4,0.8c-1.6,0.3-3.3,0.5-4.9,0.6c-1.8,0.2-3.7,0.2-5.7,0.2c-4.4-0.1-8.7-0.5-13-1.3
		c-4.3-0.8-8.5-2-12.6-3.6c-1.8-0.8-3.6-1.5-5.2-2.3c-1.5-0.7-2.9-1.5-4.3-2.4c-1.3-0.7-2.4-1.5-3.4-2.2c-0.9-0.6-1.7-1.2-2.5-1.8
		l-1.4-1.1H0.4v10.6c2-1.1,4-2.1,6.1-2.9c6.5-2.5,13.5-3.5,20.5-2.9c4.1,0.3,8.1,1.3,12,2.7c4.1,1.7,8,3.7,11.8,6
		c3.7,2.3,7.6,4.2,11.7,5.8c3.8,1.3,7.8,2.1,11.8,2.4c7.7,0.5,14.8-0.2,20.7-0.2c4.7-0.2,9.4,0.2,13.9,1.2c0.8,0.2,1.5,0.3,2.1,0.5
		l1.5,0.5c0.4,0.1,0.8,0.3,1.2,0.5c-0.5-0.1-0.9-0.2-1.3-0.3l-1.5-0.5c-0.6-0.2-1.3-0.3-2.1-0.5c-4.6-0.8-9.2-1.1-13.9-0.9
		c-5.9,0.1-12.9,0.9-20.7,0.4c-4.1-0.2-8.2-1-12.1-2.4c-4.1-1.6-8-3.6-11.8-5.9c-3.7-2.3-7.6-4.3-11.6-5.9
		c-3.8-1.5-7.7-2.4-11.8-2.7c-6.8-0.5-13.7,0.4-20.2,2.8c-2.2,0.8-4.3,1.8-6.3,2.9v16.6l1-0.9c2.4-2.2,5-4.1,7.7-5.9
		c4-2.7,8.7-4.4,13.6-4.7c5.6-0.2,11.4,1.9,17,4.6c5.3,2.6,10.4,5.5,15.3,8.7c2.2,1.5,4.6,2.8,5.7,5.3c0.5,1.2,0.3,2.6-0.6,3.6
		c-0.8,0.8-1.7,1.4-2.7,1.8c-3,1.4-6.2,2.1-9.4,2.2c-0.9,0-1.8,0-2.7-0.1c-0.3,0-0.6-0.1-0.9-0.2c0,0,1.3,0.1,3.5-0.1
		c3.2-0.2,6.3-1.1,9.2-2.5c0.9-0.4,1.8-1,2.5-1.7c0.7-0.8,0.9-2,0.4-2.9c-0.9-2.1-3.3-3.4-5.5-4.9c-4.9-3.2-10-6.1-15.2-8.6
		c-5.6-2.7-11.2-4.8-16.6-4.6c-4.7,0.3-9.3,1.8-13.3,4.4c-2.7,1.7-5.3,3.6-7.8,5.6l-1.2,1v19.9c0.7-0.1,1.6-0.3,2.7-0.4
		c4.2-0.5,8.5-0.5,12.7-0.2c6.3,0.5,12.5,1.5,18.6,3c6.9,1.5,14.5,3.5,22.5,4.9c7.5,1.5,15.2,2,22.8,1.4c3.3-0.3,6.6-0.8,9.8-1.7
		c2.8-0.9,5.5-1.9,8.1-3.1c4.9-2.2,9-3.7,12.1-4C111,327.6,112.5,327.6,113.9,327.8z M39.9,313.4c-0.3,0.7-1,1.2-1.7,1.3
		c-0.7,0.2-1.2,0.3-1.8,0.4l-6.9,1.3l-11.7,2.3l-7.9,1.4l-2.2,0.3c-0.2,0.1-0.5,0.1-0.8,0.1c0.2-0.1,0.5-0.2,0.7-0.2l2.1-0.5
		l7.8-1.7l11.6-2.4l6.9-1.4c1.1-0.3,2.7-0.3,2.9-1.2c0.1-0.5-0.1-1-0.5-1.2c-0.4-0.4-1-0.7-1.5-0.8c-4.6-1.4-9.4-1.9-14.2-1.6
		c-3.9,0.3-7.8,1.1-11.5,2.4c-3.4,1.3-6.6,3-9.7,4.9c0,0,0.2-0.2,0.6-0.5c0.4-0.3,1-0.8,1.8-1.3c2.2-1.5,4.6-2.7,7.1-3.7
		c8.3-3.2,17.5-3.6,26.1-1c0.7,0.2,1.3,0.5,1.8,1c0.3,0.2,0.5,0.6,0.7,0.9C40,312.5,40.1,313,39.9,313.4z M92.6,320.6
		c-0.7,0.6-1.5,1.1-2.2,1.6c-2.2,1.3-4.4,2.4-6.8,3.4c-7.8,3.1-16.2,4.2-24.5,3.1c-4.5-0.6-9-1.9-13.1-3.7
		c-3.4-1.5-6.8-2.8-10.3-3.9c-2.4-0.7-4.9-1-7.3-1c-1.8,0-2.7,0.3-2.7,0.2c0.2-0.1,0.4-0.2,0.7-0.2c0.7-0.1,1.3-0.2,2-0.3
		c2.5-0.2,5.1,0.1,7.5,0.7c6.3,1.3,13.9,6.2,23.5,7.3c8.1,1.1,16.4,0.1,24.1-2.8c2.3-0.9,4.6-1.9,6.8-3.1
		C90.9,321.4,91.7,321,92.6,320.6L92.6,320.6z"/>
	<path class="st5" d="M110.6,377.3c1.1,0.1,2.2,0.2,3.3,0.5v-10l-0.3,0.2l-2.9,1.7c-3.7,2-7.4,3.8-11.3,5.3c-20,8-42,9.8-63,5.1
		c-6.8-1.5-13-2.9-18.2-3.5c-4.1-0.6-8.3-0.6-12.4-0.2l-1.9,0.3L2.3,377c-0.4,0.1-0.8,0.2-1.2,0.2c0.4-0.2,0.7-0.3,1.1-0.4l1.3-0.4
		l2-0.4c4.2-0.6,8.4-0.6,12.5-0.1c10.6,1,24.6,6,40.7,5.8c13.7,0.1,27.4-2.5,40.2-7.4c3.9-1.5,7.7-3.2,11.4-5.1l3-1.6l0.4-0.2v-11.6
		c-0.3-0.3-0.6-0.7-0.9-1c-2.2-2.1-6.3-4-11.5-5.3c-5.3-1.3-11.7-1.8-18.9-2.7c-7.8-1.2-15.4-3-22.9-5.4c-7.4-2.4-15-4.3-22.7-5.7
		c-6.3-1-12.7-1.4-19-1.2c-4.3,0.1-8.6,0.6-12.8,1.2c-1.5,0.3-2.7,0.4-3.5,0.6c-0.4,0.1-0.8,0.2-1.2,0.2c0.4-0.1,0.8-0.3,1.2-0.3
		c0.8-0.2,1.9-0.5,3.4-0.7c4.2-0.8,8.5-1.3,12.8-1.5c6.4-0.3,12.8,0.1,19.2,1c7.7,1.4,15.3,3.3,22.8,5.7c7.4,2.4,15,4.2,22.7,5.4
		c7.1,0.9,13.7,1.4,19,2.9c5.3,1.4,9.4,3.4,11.6,5.6c0.2,0.2,0.5,0.5,0.7,0.7v-27.5c-1.4-0.1-2.9-0.1-4.3,0.2c-3,0.4-7,1.9-11.8,4.2
		c-2.7,1.3-5.4,2.3-8.2,3.3c-3.2,1-6.6,1.6-9.9,1.9c-7.7,0.6-15.4,0.2-23-1.3c-8.1-1.4-15.6-3.5-22.5-5c-6.1-1.5-12.3-2.5-18.5-3.1
		c-4.2-0.4-8.4-0.4-12.6,0c-1.1,0.1-2,0.2-2.7,0.3v39l3.4,0.3c4.8,0.3,11.5,1.2,18.9,1.3c3.5,0.1,6.9-0.1,10.3-0.7
		c2.8-0.5,5.5-1.2,8.2-2.2c2.4-1,4.7-2.2,6.9-3.6c0,0-0.1,0.2-0.4,0.4c-0.4,0.3-0.8,0.7-1.2,0.9c-1.6,1.1-3.3,2-5.1,2.8
		c-2.7,1.1-5.4,1.9-8.2,2.4c-3.5,0.6-7,0.8-10.5,0.7c-7.5-0.2-14.1-1.1-18.9-1.6l-3.4-0.4v16.1c3.3-1,6.7-1.5,10.1-1.6
		c11.5-0.5,26.5,5.5,43.7,5.1c8.1,0,16.1-1,24-2.9c7.3-1.7,13.5-4.1,19-5.5C101.6,377.6,106.1,377.1,110.6,377.3z M48.2,346.5
		c-10.7-2.8-21.8-3.6-32.8-2.3c-2.1,0.3-4,0.5-5.6,0.8s-3.1,0.5-4.2,0.9l-2.7,0.6c-0.3,0.1-0.6,0.1-1,0.2c0.3-0.1,0.6-0.3,0.9-0.3
		l2.7-0.8c1.1-0.4,2.6-0.6,4.2-1s3.6-0.7,5.7-1c17.2-2.2,34.7,0.8,50.2,8.6c4.5,2.3,8.7,4.9,12.7,8c0.9,0.6,1.5,1.6,1.6,2.7
		c-0.1,1-0.8,1.9-1.8,2.2c-1.4,0.5-2.9,0.5-4.4,0.2c-0.9-0.2-1.8-0.2-2.7,0c-0.6,0.1-0.9,0.3-0.9,0.3c0.3-0.2,0.5-0.3,0.9-0.4
		c0.9-0.2,1.8-0.3,2.7-0.1c1.4,0.3,2.8,0.2,4.1-0.3c0.8-0.3,1.4-1,1.5-1.8c-0.1-0.9-0.5-1.8-1.3-2.3c-4-2.9-8.3-5.5-12.8-7.7
		C59.7,350.2,54,348,48.2,346.5L48.2,346.5z M52.2,363.5c0-0.1,1,0,2.6-0.3c1-0.2,1.8-0.8,2.3-1.6c0.3-0.5,0.3-1.1,0.1-1.6
		c-0.3-0.6-0.8-1.1-1.3-1.5c-2.7-2.2-5.7-4-9-5.3c-4-1.6-8.2-2.5-12.5-2.8c-7.8-0.4-15.6,0.8-23,3.4c-2.9,0.9-5.1,1.8-6.6,2.5
		c-0.8,0.4-1.6,0.7-2.5,0.9c0,0,0.2-0.1,0.6-0.4c0.4-0.2,1-0.5,1.8-0.9c1.5-0.7,3.8-1.7,6.6-2.7c7.4-2.8,15.3-4.1,23.1-3.7
		c4.4,0.3,8.7,1.3,12.7,2.9c3.3,1.3,6.4,3.2,9.1,5.6c0.6,0.4,1.1,1,1.5,1.7c0.2,0.7,0.2,1.4-0.2,2.1c-0.6,1-1.6,1.6-2.7,1.7
		c-0.6,0.1-1.3,0.1-2,0.1C52.6,363.6,52.4,363.6,52.2,363.5L52.2,363.5z"/>
	<path class="st6" d="M109.6,328.1c-3,0.4-7,1.9-11.8,4.2c-2.7,1.3-5.4,2.3-8.2,3.3c-3.2,1-6.6,1.6-9.9,1.9
		c-7.7,0.6-15.4,0.2-23-1.3c-8.1-1.4-15.6-3.5-22.5-5c-6.1-1.5-12.3-2.5-18.5-3.1c-4.2-0.4-8.4-0.4-12.6,0c-1.1,0.1-2,0.2-2.7,0.3
		v-0.2c0.7-0.1,1.6-0.3,2.7-0.4c4.2-0.5,8.5-0.5,12.7-0.2c6.3,0.5,12.5,1.5,18.6,3c6.9,1.5,14.5,3.5,22.5,4.9
		c7.5,1.5,15.2,2,22.8,1.4c3.3-0.3,6.6-0.9,9.7-1.8c2.8-0.9,5.5-1.9,8.1-3.1c4.9-2.2,9-3.7,12.1-4c1.4-0.2,2.9-0.2,4.4,0.1v0.1
		C112.5,327.8,111,327.9,109.6,328.1z"/>
	<path class="st6" d="M109.8,293.1c-1.2,0.3-2.5,0.6-4,0.8c-1.6,0.3-3.3,0.5-4.9,0.6c-1.8,0.2-3.7,0.2-5.7,0.2
		c-4.4-0.1-8.7-0.5-13-1.3c-4.3-0.8-8.5-2.1-12.5-3.6c-1.8-0.8-3.6-1.5-5.2-2.3c-1.5-0.7-2.9-1.5-4.3-2.4c-1.3-0.7-2.4-1.5-3.4-2.2
		c-0.9-0.6-1.7-1.2-2.5-1.8l-1.4-1.1h0.3l1.3,0.9c0.7,0.5,1.5,1.1,2.6,1.7s2.1,1.4,3.5,2.1s2.7,1.5,4.4,2.3s3.3,1.5,5.2,2.2
		c4,1.5,8.2,2.7,12.4,3.6c4.2,0.8,8.5,1.2,12.8,1.3c2,0,3.9,0,5.6-0.2s3.4-0.3,4.9-0.5s2.8-0.4,4-0.6c1.2-0.2,2.2-0.4,3-0.6l1.2-0.3
		v0.3l-1.1,0.3C111.8,292.7,110.8,292.9,109.8,293.1z"/>
	<path class="st6" d="M27,284.7c4.1,0.3,8.1,1.3,12,2.7c4.1,1.7,8,3.7,11.8,6c3.7,2.3,7.6,4.2,11.7,5.8c3.8,1.3,7.8,2.1,11.8,2.4
		c7.7,0.5,14.8-0.2,20.7-0.2c4.7-0.2,9.4,0.2,13.9,1.2c0.8,0.2,1.5,0.3,2.1,0.5l1.5,0.5c0.4,0.1,0.8,0.3,1.2,0.5
		c-0.5-0.1-0.9-0.2-1.3-0.3l-1.5-0.5c-0.6-0.2-1.3-0.3-2.1-0.5c-4.6-0.8-9.2-1.1-13.9-0.9c-5.9,0.1-12.9,0.9-20.7,0.4
		c-4.1-0.2-8.2-1-12.1-2.4c-4.1-1.6-8-3.6-11.8-5.9c-3.7-2.3-7.6-4.3-11.6-5.9c-3.8-1.5-7.7-2.4-11.8-2.7
		c-6.8-0.5-13.7,0.4-20.2,2.7c-2.2,0.8-4.3,1.8-6.3,2.9v-0.6c2-1.1,4-2.1,6.1-2.9C13.1,285.1,20.1,284.1,27,284.7z"/>
	<path class="st6" d="M9.1,300.9c4-2.8,8.7-4.4,13.6-4.7c5.6-0.2,11.4,1.9,17,4.6c5.3,2.6,10.4,5.5,15.3,8.7
		c2.2,1.5,4.6,2.8,5.7,5.3c0.5,1.2,0.3,2.6-0.6,3.6c-0.8,0.8-1.7,1.4-2.7,1.8c-3,1.4-6.2,2.1-9.4,2.2c-0.9,0-1.8,0-2.7-0.1
		c-0.3,0-0.6-0.1-0.9-0.2c0,0,1.3,0.1,3.5-0.1c3.2-0.2,6.3-1.1,9.2-2.5c0.9-0.4,1.8-1,2.5-1.7c0.7-0.8,0.9-2,0.4-2.9
		c-0.9-2.1-3.3-3.4-5.5-4.9c-4.9-3.2-10-6.1-15.2-8.6c-5.6-2.7-11.2-4.8-16.6-4.6c-4.7,0.3-9.3,1.8-13.3,4.4
		c-2.7,1.7-5.3,3.6-7.8,5.6l-1.2,1v-0.3l1-0.9C3.8,304.6,6.4,302.7,9.1,300.9z"/>
	<path class="st6" d="M38.1,314.7c-0.7,0.2-1.2,0.3-1.8,0.4l-6.9,1.3l-11.7,2.3l-7.9,1.4l-2.2,0.3c-0.2,0.1-0.5,0.1-0.8,0.1
		c0.2-0.1,0.5-0.2,0.7-0.2l2.1-0.5l7.8-1.7l11.7-2.4l6.9-1.4c1.1-0.3,2.7-0.3,2.9-1.2c0.1-0.5-0.1-1-0.5-1.2c-0.4-0.4-1-0.7-1.5-0.8
		c-4.6-1.4-9.4-1.9-14.2-1.6c-3.9,0.3-7.8,1.1-11.5,2.4c-3.4,1.3-6.6,3-9.7,4.9c0,0,0.2-0.2,0.6-0.5c0.4-0.3,1-0.8,1.8-1.3
		c2.2-1.5,4.6-2.7,7.1-3.7c8.3-3.2,17.5-3.6,26.1-1c0.7,0.2,1.3,0.5,1.8,1c0.3,0.2,0.5,0.6,0.7,0.9c0.2,0.4,0.2,0.8,0,1.2
		C39.5,314.1,38.9,314.6,38.1,314.7z"/>
	<path class="st6" d="M96.9,315.8c-4.5,0.1-9,0.6-13.4,1.6c-3.4,0.8-5.4,1.4-5.5,1.3c0.4-0.3,0.9-0.5,1.4-0.6c1.3-0.5,2.6-1,4-1.3
		c8.9-2.4,18.2-2.5,27.2-0.3c1.4,0.3,2.7,0.7,3.5,1v0.4c-0.9-0.2-2.1-0.5-3.6-0.8C105.9,316.1,101.4,315.7,96.9,315.8z"/>
	<path class="st6" d="M101.5,349.7c-5.3-1.3-11.7-1.8-18.9-2.7c-7.8-1.2-15.4-3-22.9-5.4c-7.4-2.4-15-4.3-22.7-5.7
		c-6.3-1-12.7-1.4-19-1.2c-4.3,0.1-8.6,0.6-12.8,1.2c-1.5,0.3-2.7,0.4-3.5,0.6c-0.4,0.1-0.8,0.2-1.2,0.2c0.4-0.1,0.8-0.3,1.2-0.3
		c0.8-0.2,1.9-0.5,3.4-0.7c4.2-0.8,8.5-1.3,12.8-1.5c6.4-0.3,12.8,0.1,19.2,1c7.7,1.4,15.3,3.3,22.8,5.7c7.4,2.4,15,4.2,22.7,5.4
		c7.1,0.9,13.7,1.4,19,2.9c5.3,1.4,9.4,3.4,11.6,5.6c0.2,0.2,0.5,0.5,0.7,0.7v0.5c-0.3-0.3-0.6-0.7-0.9-1
		C110.8,352.9,106.8,351,101.5,349.7z"/>
	<path class="st6" d="M90.3,322.2c-2.1,1.3-4.4,2.4-6.7,3.4c-7.8,3.1-16.2,4.2-24.5,3.1c-4.5-0.6-9-1.9-13.1-3.7
		c-3.4-1.5-6.8-2.8-10.3-3.9c-2.4-0.7-4.9-1-7.3-1c-1.8,0-2.7,0.3-2.7,0.2c0.2-0.1,0.4-0.2,0.7-0.2c0.7-0.1,1.3-0.2,2-0.3
		c2.5-0.2,5.1,0.1,7.5,0.7c6.3,1.3,13.9,6.2,23.5,7.3c8.1,1.1,16.4,0.1,24.1-2.8c2.3-0.9,4.6-1.9,6.8-3.1c0.8-0.5,1.6-1,2.4-1.3
		C91.8,321.2,91.1,321.8,90.3,322.2z"/>
	<path class="st6" d="M15.3,344.2c-2.1,0.3-4,0.5-5.6,0.8s-3.1,0.5-4.2,0.9l-2.7,0.6c-0.3,0.1-0.6,0.1-1,0.2
		c0.3-0.1,0.6-0.3,0.9-0.3l2.7-0.8c1.1-0.4,2.6-0.6,4.2-1s3.6-0.7,5.7-1c17.2-2.2,34.7,0.8,50.2,8.6c4.5,2.3,8.7,4.9,12.7,8
		c0.9,0.6,1.5,1.6,1.6,2.7c-0.1,1-0.8,1.9-1.8,2.2c-1.4,0.5-2.9,0.5-4.4,0.2c-0.9-0.2-1.8-0.2-2.7,0c-0.6,0.1-0.9,0.3-0.9,0.3
		c0.3-0.2,0.5-0.3,0.9-0.4c0.9-0.2,1.8-0.3,2.7-0.1c1.4,0.3,2.8,0.2,4.1-0.3c0.8-0.3,1.4-1,1.5-1.8c-0.1-0.9-0.5-1.8-1.3-2.3
		c-4-2.9-8.3-5.5-12.8-7.7C49.7,345.2,32.4,342.2,15.3,344.2z"/>
	<path class="st6" d="M57,361.6c0.3-0.5,0.3-1.1,0.1-1.6c-0.3-0.6-0.8-1.1-1.3-1.5c-2.7-2.2-5.7-4-9-5.3c-4-1.6-8.2-2.5-12.5-2.8
		c-7.8-0.4-15.6,0.8-23,3.4c-2.9,0.9-5.1,1.8-6.6,2.5c-0.8,0.4-1.6,0.7-2.5,0.9c0,0,0.2-0.1,0.6-0.4c0.4-0.2,1-0.5,1.8-0.9
		c1.5-0.7,3.8-1.7,6.6-2.7c7.4-2.8,15.3-4.1,23.2-3.7c4.4,0.3,8.7,1.3,12.7,2.9c3.3,1.3,6.4,3.2,9.1,5.6c0.6,0.4,1.1,1,1.5,1.7
		c0.2,0.7,0.2,1.4-0.2,2.1c-0.6,1-1.6,1.6-2.7,1.7c-0.6,0.1-1.3,0.1-2,0.1c-0.2,0-0.5,0-0.7-0.1c0-0.1,1,0,2.6-0.3
		C55.7,363,56.5,362.4,57,361.6z"/>
	<path class="st6" d="M110.7,369.6c-3.7,2-7.4,3.8-11.3,5.3c-20,8-42,9.8-63,5.1c-6.8-1.5-13-2.9-18.2-3.5
		c-4.1-0.6-8.3-0.6-12.4-0.2l-1.9,0.3L2.3,377c-0.4,0.1-0.8,0.2-1.2,0.2c0.4-0.2,0.7-0.3,1.1-0.4l1.3-0.4l2-0.4
		c4.2-0.6,8.4-0.6,12.5-0.1c10.6,1,24.6,6,40.7,5.8c13.7,0.1,27.4-2.5,40.2-7.4c3.9-1.5,7.7-3.2,11.4-5.1l3-1.6l0.4-0.2v0.1
		l-0.3,0.2L110.7,369.6z"/>
	<path class="st6" d="M22.7,368.8c3.5,0.1,6.9-0.1,10.3-0.7c2.8-0.4,5.6-1.2,8.3-2.2c2.4-1,4.7-2.2,6.9-3.6c0,0-0.1,0.2-0.4,0.4
		c-0.4,0.3-0.8,0.7-1.2,0.9c-1.6,1.1-3.3,2-5.1,2.8c-2.7,1.1-5.4,1.9-8.2,2.4c-3.5,0.6-7,0.8-10.5,0.7c-7.5-0.2-14.1-1.1-18.9-1.6
		l-3.4-0.4v-0.4l3.4,0.3C8.7,367.7,15.4,368.6,22.7,368.8z"/>
	<path class="st6" d="M97.4,379.4c-5.4,1.4-11.7,4-19,5.7c-7.9,1.9-16,2.9-24.2,2.9c-17.5,0.4-32.4-5.7-43.7-5.3
		c-3.4,0-6.8,0.4-10.1,1.3v-0.4c3.3-1,6.7-1.5,10.1-1.6c11.5-0.5,26.5,5.5,43.7,5.1c8.1,0,16.1-1,24-2.9c7.3-1.7,13.5-4.1,19-5.5
		c4.3-1.2,8.8-1.8,13.3-1.6c1.1,0.1,2.2,0.2,3.3,0.5v0.2c-1.1-0.2-2.2-0.3-3.4-0.3C106.1,377.5,101.7,378.1,97.4,379.4z"/>
	<path class="st6" d="M100.8,397.2c-6.1-2.6-12.7-4.1-19.4-4.3c-7.5-0.3-15.8,0.8-24.5,1.9c-4.3,0.5-8.6,1-12.7,1.2
		c-4,0.2-8,0.1-12-0.3c-7.5-0.7-14.3-1.3-19.9-0.5c-4.3,0.5-8.4,2-12,4.4v-0.4c3.5-2.4,7.6-4,11.8-4.5c5.7-1,12.6-0.4,20.1,0.3
		c3.9,0.4,7.9,0.5,11.8,0.3c4.1-0.2,8.3-0.6,12.7-1.2c8.6-1.1,17-2.2,24.6-1.8c6.8,0.2,13.4,1.8,19.6,4.6c4.2,1.8,8.1,4.2,11.6,7.1
		c0.5,0.4,0.9,0.8,1.3,1.1v0.4c-0.4-0.4-0.9-0.8-1.5-1.2C108.8,401.3,104.9,399,100.8,397.2z"/>
	<path class="st6" d="M57.4,404.4c5.3-1.2,10.7-1.8,16.1-1.9c4.4,0,8.9,0.6,13.1,1.9c2.8,0.9,5.4,2.1,7.8,3.7h-0.6
		c-2.3-1.4-4.8-2.4-7.4-3.2c-4.2-1.2-8.6-1.8-12.9-1.7c-5.4,0.1-10.7,0.8-15.9,2c-4.7,1-9.2,2-13.4,2.9h-4.2l1.6-0.3
		C46.4,406.9,51.7,405.5,57.4,404.4z"/>
	<rect x="31.8" y="320.9" class="st7" width="82.1" height="1.6"/>
	<rect x="31.8" y="363.2" class="st7" width="82.2" height="1.6"/>
	<rect x="63.5" y="321.7" class="st7" width="17.4" height="3.7"/>
	<rect x="63.5" y="279.9" class="st7" width="17.4" height="3.7"/>
	<rect x="63.5" y="363.8" class="st7" width="17.4" height="3.7"/>
	<rect x="0.4" y="279.9" class="st6" width="31.4" height="128.2"/>
	<rect x="30.8" y="201.5" class="st6" width="11.1" height="52.8"/>
	<rect x="17.5" y="206.9" class="st6" width="7.7" height="47.4"/>
	<rect x="25.2" y="206.9" class="st7" width="5.6" height="47.4"/>
	<rect x="11.8" y="212.3" class="st5" width="5.7" height="42"/>
	<rect x="-0.3" y="198" class="st6" width="12.1" height="56.4"/>
	<path class="st6" d="M63.2,255l1.1,4.8l-1.1,1.7v2.8l1.1,2.7l-1.1,1v6.6l1.1,0.8l-1.1,1v3.6h-61v-4.4l1.1-2.1l-1.1-9.5l0.9-4.6
		c0.4-0.8,0.7-1.6,1-2.5c0-0.6-0.2-1.9-0.2-1.9H63.2z"/>
	<g class="st8">
		<polygon class="st7" points="31.8,279.9 33.2,273 31.8,270.2 31.8,267.5 33.2,266 31.8,263.9 31.8,255 3.9,255 4.1,256.9 
			3.1,259.4 2.2,263.9 3.3,273.4 2.2,275.5 2.2,279.9 		"/>
	</g>
</g>
<g>
	<g>
		<g>
			<g>
				<g>
					<path class="st5" d="M98.4,263.8c-1.1,9.7-9.9,16.6-19.5,15.4c-9.7-1.1-16.6-9.9-15.5-19.5c1.1-9.7,9.9-16.6,19.5-15.4
						C92.6,245.4,99.5,254.1,98.4,263.8z"/>
				</g>
			</g>
		</g>
		<g>
			<g>
				<g>
					<g class="st9">
						<path class="st1" d="M94.3,262.9c-0.1,0-0.1-0.6-0.2-1.6c-0.1-1-0.3-2.6-1.1-4.3c-0.4-0.9-0.9-1.7-1.5-2.6
							c-0.6-0.9-1.4-1.7-2.4-2.5c-0.5-0.4-1-0.8-1.5-1.1c-0.5-0.3-1.1-0.6-1.7-0.9c-0.6-0.2-1.2-0.5-1.9-0.6c-0.7-0.2-1.3-0.3-2-0.3
							c-0.7-0.1-1.4-0.1-2.1,0c-0.7,0-1.3,0.2-2,0.3c-0.6,0.1-1.3,0.3-1.9,0.6c-0.6,0.2-1.2,0.5-1.7,0.8c-1.1,0.6-2,1.3-2.8,2.1
							c-0.8,0.8-1.4,1.6-1.9,2.3c-1,1.6-1.5,3-1.8,4c-0.3,1-0.4,1.6-0.4,1.6c-0.1,0-0.1-0.6,0-1.7c0.2-1.1,0.6-2.6,1.5-4.3
							c0.5-0.8,1.1-1.7,1.9-2.6c0.8-0.8,1.8-1.6,2.9-2.3c0.6-0.3,1.2-0.6,1.8-0.9c0.6-0.3,1.3-0.5,2-0.6c0.7-0.2,1.4-0.3,2.1-0.3
							c0.7-0.1,1.5-0.1,2.2,0c0.8,0.1,1.5,0.2,2.2,0.4c0.7,0.2,1.4,0.4,2.1,0.7c0.7,0.3,1.3,0.6,1.9,1c0.6,0.4,1.1,0.8,1.6,1.2
							c1,0.8,1.8,1.8,2.5,2.7c0.6,1,1.1,1.9,1.5,2.9c0.7,1.8,0.8,3.4,0.8,4.5C94.5,262.3,94.3,262.9,94.3,262.9z"/>
					</g>
				</g>
			</g>
		</g>
	</g>
	<g>
		<path class="st1" d="M84.3,270.5c-0.2,0-0.4,0-0.7-0.1c-0.3,0-0.6-0.1-0.9-0.1c-0.3-0.1-0.6-0.1-1-0.2c-0.3-0.1-0.6-0.1-0.9-0.2
			c-0.7-0.2-1.3-0.4-1.9-0.7c-0.6-0.3-1.1-0.6-1.5-1.1c-0.4-0.4-0.6-1-0.8-1.6c-0.1-0.7-0.1-1.4,0.2-2.4l2.7-10.7
			c0-0.1,0.1-0.2,0.2-0.3s0.2-0.1,0.3-0.1l2.7,0.7c0.1,0,0.2,0.1,0.3,0.2c0.1,0.1,0.1,0.2,0.1,0.3l-2.7,10.7c-0.1,0.5-0.1,0.9,0,1.2
			c0.1,0.3,0.5,0.4,1,0.6l3.6,0.9c0.1,0,0.2,0.1,0.3,0.2c0.1,0.1,0.1,0.2,0.1,0.3l-0.5,1.9C84.8,270.4,84.6,270.5,84.3,270.5z"/>
	</g>
</g>
</svg>
