<svg id="Layer_1" data-name="Layer 1" xmlns="http://www.w3.org/2000/svg" viewBox="0 0 438.91 435.91"><defs><style>.cls-1{fill:#f5f5f5;}.cls-2{fill:#ebebeb;}.cls-3{fill:#e0e0e0;}.cls-10,.cls-4{fill:#fff;}.cls-5{opacity:0.24;}.cls-6{opacity:0.29;}.cls-7{fill:#263238;}.cls-8{fill:#d7282f;}.cls-9{opacity:0.3;}.cls-10,.cls-12,.cls-9{isolation:isolate;}.cls-10{opacity:0.5;}.cls-11{fill:#455a64;}.cls-12,.cls-13{opacity:0.2;}.cls-14{fill:#ffbe9d;}.cls-15{fill:#eb996e;}.cls-16{fill:#e21e30;}</style></defs><title>arteUnoFondo-movil</title><g id="Background_Complete" data-name="Background Complete"><polygon class="cls-1" points="361.11 365.24 361.11 385.99 391.44 385.99 424.91 385.99 424.91 365.24 361.11 365.24"/><polygon class="cls-2" points="358.43 359.44 358.43 365.24 427.14 365.24 427.14 359.44 391.44 359.44 358.43 359.44"/><polygon class="cls-3" points="392.78 385.99 424.91 385.99 424.91 365.24 427.14 365.24 427.14 359.44 391.44 359.44 391.44 364.7 392.78 385.99"/><rect class="cls-3" x="370.03" y="368.59" width="12.94" height="3.12"/><rect class="cls-3" x="368.36" y="375.61" width="16.61" height="6.59"/><path class="cls-2" d="M438.91,435.91,437.39,113h-6.25v63.59H415l-.3-63.59h-6.25v63.59H352.88l-.3-63.59h-6.25v63.59H330.27L329.93,113h-6.25V435.91h7.77l-.2-43.34h15.08v43.34h7.78l-.21-43.34h54.54v43.34h7.77l-.2-43.34h15.13v43.34ZM338.38,349.78l-5.59-23.93h11.48Zm7.95-22.47v56.54l-6.77-29Zm0-82.18-6.77-29,6.77-27.54Zm-1.21,5.19h-14l7.16-29.13Zm-6.74-39.26L332,183.65h13.14Zm-1.24,5.06L330.54,243l-.27-56.28ZM331,328.31l6.19,26.53-6,24.23Zm7.37,31.6,6,25.6H332Zm-7.17-41.12v-.22l-.2.05-.29-61.24h15.72v61.41Zm22.12-61.41h55.18v61.41h-54.9Zm69.43-36.19,6.8,29.13h-14Zm-7.43,20.21-.25-53,6.47,27.69Zm15.85,5.6-7.21-30.87,7.21-29.32Zm0,3.22v.1h-.44Zm0,78.77v53.1l-6.36-27.24Zm-7.54,20.79L418,325.85h11.47Zm-.85-138.72-6.4-27.41h13.14Zm8.39,46.32v61.41H416.37l-.05-.22-.66.16-.29-61.35Zm-8.78,97.46-6.41,26.06-.25-54.6Zm1.18,5.07,6,25.6H417.27Zm-15.1-176.26v66.67H353.27L353,183.65ZM354.87,385.51h-1l-.28-59.66h54.85v59.66Z"/><polygon class="cls-3" points="354.86 250.65 354.86 243.36 406.33 243.36 406.5 250.65 354.86 250.65"/><path class="cls-4" d="M406.36,244.55s-45.65.33-48.61,1c-.64.15-1.28,2.95,0,3.21s48.61.64,48.61.64Z"/><polygon class="cls-2" points="360.84 243.07 360.84 235.78 401.61 235.78 401.74 243.07 360.84 243.07"/><path class="cls-4" d="M401.63,237s-36.16.34-38.5,1c-.51.15-1,2.95,0,3.21s38.5.65,38.5.65Z"/><polygon class="cls-3" points="360.66 235.87 360.66 228.58 401.43 228.58 401.56 235.87 360.66 235.87"/><path class="cls-4" d="M401.45,229.77s-36.16.34-38.5,1c-.51.15-1,3,0,3.21s38.5.64,38.5.64Z"/><rect class="cls-3" x="398.11" y="128.34" width="10.33" height="48.13"/><path class="cls-4" d="M405.53,164.92a2,2,0,1,1-2-2A2.06,2.06,0,0,1,405.53,164.92Z"/><rect class="cls-4" x="401.81" y="141.09" width="3.16" height="19.67"/><rect class="cls-2" x="387.62" y="128.34" width="10.33" height="48.13"/><circle class="cls-4" cx="392.99" cy="164.92" r="2.05"/><rect class="cls-4" x="391.32" y="141.09" width="3.16" height="19.67"/><rect class="cls-1" x="377.63" y="128.34" width="10.33" height="48.13"/><path class="cls-4" d="M385.05,164.92a2,2,0,1,1-2-2A2.06,2.06,0,0,1,385.05,164.92Z"/><rect class="cls-4" x="381.33" y="141.09" width="3.16" height="19.67"/><rect class="cls-3" x="398.11" y="270.79" width="10.33" height="48.13"/><path class="cls-4" d="M405.53,307.37a2,2,0,1,1-2-2A2.06,2.06,0,0,1,405.53,307.37Z"/><rect class="cls-4" x="401.81" y="283.54" width="3.16" height="19.67"/><rect class="cls-2" x="387.62" y="270.79" width="10.33" height="48.13"/><path class="cls-4" d="M395,307.37a2,2,0,1,1-2-2A2.06,2.06,0,0,1,395,307.37Z"/><rect class="cls-4" x="391.32" y="283.54" width="3.16" height="19.67"/><rect class="cls-1" x="377.63" y="270.79" width="10.33" height="48.13"/><path class="cls-4" d="M385.05,307.37a2,2,0,1,1-2-2A2.06,2.06,0,0,1,385.05,307.37Z"/><rect class="cls-4" x="381.33" y="283.54" width="3.16" height="19.67"/><polygon class="cls-3" points="364.86 175.74 377.27 133.4 372.99 131.52 360.26 174.21 364.86 175.74"/><polygon class="cls-2" points="72.36 178.2 22.82 178.2 22.82 242.79 72.36 244.03 72.36 178.2"/><polygon class="cls-4" points="69.1 180.49 25.76 180.49 25.76 239.07 69.1 240.54 69.1 180.49"/><polygon class="cls-2" points="61.51 191.14 32.75 190.04 32.75 230.99 61.51 230.99 61.51 191.14"/><polygon class="cls-1" points="32.75 230.99 61.51 209.95 32.75 190.04 32.75 230.99"/><path class="cls-1" d="M114,426.43c-1.18-1-3.82-4.21-1.78-7.94.74-1.36,2.33-2,3.76-2.64a15,15,0,0,0,4.13-2.13c2.24-1.9,2.86-5.05,4.35-7.58,1.71-2.91,4.89-5.08,8.26-4.93,3.85.17,7.07,3.31,8.53,6.88s1.51,7.54,1.53,11.4c0,2.13-.07,4.54-1.65,6s-3.63,1.35-5.6,1.29l-21.07-.65"/><path class="cls-2" d="M150.86,376.4H100.49l9.08,53.86a6,6,0,0,0,4.3,4.79l.17.05.45.12a5.57,5.57,0,0,0,1,.11v.06h22.78a6.41,6.41,0,0,0,1.23-.12,6,6,0,0,0,5.1-5.27L149,392.89l.2-1.47h0l1.73-14.7Zm-9.5,34.36h-5.17l.52-15.63h6Zm1.84-15.63h5l-1.93,15.63h-4.45Zm-14.76,32.95-.32-13.57h7.45l-.46,13.57Zm-8-13.57h7.23l.32,13.57H121.5Zm.56,13.57h-6.07c-.57-3.66-1.32-8.43-2.13-13.57h7.14Zm-.85-17.32-1.22-15.63h8.29l.37,15.63Zm7.94,0-.37-15.63h8.54l-.52,15.63Zm-.45-19.38-.37-14.48h9.57l-.48,14.48Zm-.5,0h-8.51L117.5,376.9h9.3Zm-9,0h-9c-.31-2-.62-3.89-.89-5.6-.94-5.85-1.29-8-1.49-8.88H117Zm.29,3.75,1.23,15.63h-7.45q-.37-2.38-.75-4.8c-.59-3.69-1.17-7.38-1.72-10.83Zm-6.72,15.63h-4.86l-2.64-15.63h5c.73,4.87,1.58,10.2,2.44,15.63Zm.59,3.75,2.14,13.57h-4.67l-2.29-13.57Zm23.37,13.57.46-13.57h5L140,428.08Zm1.23-36.7.48-14.48h7l-1.25,14.48ZM106.27,376.9c.2,1.05,1.12,6.75,2.35,14.48h-5.06l-2.44-14.48Zm38,51.18h-3.89l1.16-13.57h4.33Zm4.33-36.7h-5.07l1.24-14.48h5.5Z"/><path class="cls-1" d="M3.27,348.66c.89.15,1.89.38,3,.49s2.35.3,3.68.35,2.74.11,4.23.12a54.18,54.18,0,0,0,19-3.66c1.38-.57,2.7-1.08,3.88-1.68s2.3-1.15,3.28-1.71,1.85-1.1,2.61-1.57,1.41-.9,1.92-1.27l1-.66H.08V348l.9.2C1.59,348.35,2.35,348.52,3.27,348.66Z"/><path class="cls-1" d="M30.54,431.93a33.76,33.76,0,0,0-9.74,1.26,25.45,25.45,0,0,0-5.55,2.38h37.4c-3.18-.64-6.56-1.43-10.11-2.16A64.65,64.65,0,0,0,30.54,431.93Z"/><path class="cls-1" d="M76.57,425.82c-4.25-.66-9.37-.16-15,.37a66,66,0,0,1-9,.24c-3.11-.12-6.31-.47-9.57-.87-6.53-.82-12.75-1.64-18.42-1.4A40.12,40.12,0,0,0,10,427.42a41,41,0,0,0-8.75,5.12l-1.15.9v2.13H14.77a23,23,0,0,1,5.9-2.8,32.41,32.41,0,0,1,9.88-1.42,61.74,61.74,0,0,1,12.12,1.44c4.23.87,8.22,1.86,11.88,2.56l1.24.22H85.55v-6.44A21.16,21.16,0,0,0,76.57,425.82Z"/><path class="cls-1" d="M9.8,427a40,40,0,0,1,14.75-3.43c5.74-.28,12,.54,18.51,1.36,3.26.4,6.45.74,9.53.88a66,66,0,0,0,8.89-.21c5.66-.49,10.85-1,15.15-.23a21.13,21.13,0,0,1,8.92,3.43V417.5a27.58,27.58,0,0,0-7.61-1.06c-8.5-.29-19.79,4.34-32.93,4a79.07,79.07,0,0,1-18.19-2.21C21.32,416.92,16.6,415,12.5,414a32.1,32.1,0,0,0-9.88-1.37c-.85,0-1.7.12-2.54.24v20.34c.3-.26.62-.54,1-.85A39.05,39.05,0,0,1,9.8,427Z"/><path class="cls-1" d="M3.37,375.09c2.27.2,5.4,1.33,9.07,3a53.82,53.82,0,0,0,6.11,2.35,39.38,39.38,0,0,0,7.37,1.37,64.58,64.58,0,0,0,17.16-1.07c6-1.07,11.69-2.57,16.91-3.7a100.46,100.46,0,0,1,14-2.22,50.06,50.06,0,0,1,9.56.16c.81.09,1.48.2,2,.3V360.21l-.89-.71a59.68,59.68,0,0,0-5.87-4.26,20.42,20.42,0,0,0-10-3.32c-4-.13-8.31,1.44-12.49,3.48a99,99,0,0,0-11.48,6.5c-1.66,1.12-3.43,2.11-4.13,3.69a2,2,0,0,0,.3,2.19,5.61,5.61,0,0,0,1.89,1.3,19.08,19.08,0,0,0,6.94,1.85c1.7.12,2.66,0,2.66.08a3.11,3.11,0,0,1-.68.11,16.64,16.64,0,0,1-2,.06,18.59,18.59,0,0,1-7.11-1.7,5.82,5.82,0,0,1-2.07-1.39,2.54,2.54,0,0,1-.41-2.7c.81-1.84,2.65-2.84,4.29-4A97.84,97.84,0,0,1,56,354.81c4.21-2.05,8.6-3.66,12.79-3.49A20.5,20.5,0,0,1,79,354.85a48.93,48.93,0,0,1,5.8,4.44l.73.65V347.49a35.1,35.1,0,0,0-20-4.24,31.75,31.75,0,0,0-8.86,2.06,62.79,62.79,0,0,0-8.76,4.47,58,58,0,0,1-8.89,4.43A33.68,33.68,0,0,1,30,356c-5.91.34-11.19-.25-15.62-.32a46.75,46.75,0,0,0-10.43.7c-.61.13-1.15.23-1.61.35l-1.16.33a7,7,0,0,1-1,.25,5.3,5.3,0,0,1,.93-.37l1.15-.39c.46-.14,1-.26,1.6-.41a44.08,44.08,0,0,1,10.5-.91c4.45,0,9.74.56,15.57.19a33.24,33.24,0,0,0,8.93-1.78,57.72,57.72,0,0,0,8.79-4.4,62.9,62.9,0,0,1,8.85-4.5,32.08,32.08,0,0,1,9-2.06,35.62,35.62,0,0,1,15.43,2.22,34.87,34.87,0,0,1,4.63,2.18v-8H46l-1.06.86a20.84,20.84,0,0,1-1.87,1.37c-.75.5-1.59,1.11-2.59,1.66s-2.06,1.21-3.27,1.78-2.51,1.17-3.9,1.76a51.8,51.8,0,0,1-19.17,3.7A34.63,34.63,0,0,1,9.88,350c-1.34-.17-2.57-.27-3.7-.44s-2.13-.4-3-.58a21.66,21.66,0,0,1-2.24-.58l-.84-.26v19.17c.67-.23,1.55-.48,2.62-.75a41.4,41.4,0,0,1,20.45.24,26.12,26.12,0,0,1,3,.95,4.15,4.15,0,0,1,1,.47c0,.1-1.58-.41-4.13-1a49.17,49.17,0,0,0-10.11-1.2,48.55,48.55,0,0,0-10.13,1c-1.12.22-2,.44-2.72.6v7.52A11,11,0,0,1,3.37,375.09Zm52.5-11.74a1.9,1.9,0,0,1,.52-.67,4,4,0,0,1,1.38-.75,30.28,30.28,0,0,1,19.71.8,27.14,27.14,0,0,1,5.38,2.78,14.09,14.09,0,0,1,1.33,1c.33.25.45.37.43.38a42.41,42.41,0,0,0-7.29-3.72,30.89,30.89,0,0,0-8.66-1.82A30.12,30.12,0,0,0,58,362.57a3.35,3.35,0,0,0-1.15.61c-.32.28-.49.62-.37.91.23.63,1.36.69,2.21.89L63.82,366l8.76,1.83,5.9,1.28,1.59.38a1.78,1.78,0,0,1,.55.18,2.2,2.2,0,0,1-.57,0l-1.62-.27-5.94-1.09-8.79-1.69-5.18-1c-.46-.1-.89-.16-1.38-.29a1.76,1.76,0,0,1-1.3-1A1.26,1.26,0,0,1,55.87,363.35ZM18,370.74a41.08,41.08,0,0,0,5.09,2.34,37.71,37.71,0,0,0,18.16,2.11c7.22-.84,13-4.5,17.67-5.53a18.17,18.17,0,0,1,5.64-.56,9.74,9.74,0,0,1,1.53.23,1.52,1.52,0,0,1,.51.16c0,.06-.73-.11-2.05-.14a19.05,19.05,0,0,0-5.52.75,65.51,65.51,0,0,0-7.78,2.9,37.55,37.55,0,0,1-9.9,2.79A36.81,36.81,0,0,1,23,373.47a34.25,34.25,0,0,1-5.06-2.55,13.34,13.34,0,0,1-1.69-1.21,13.31,13.31,0,0,1,1.8,1Z"/><path class="cls-1" d="M12.62,413.55c4.14,1,8.88,2.88,14.34,4.15A80.77,80.77,0,0,0,45,419.84c13,.33,24.27-4.22,32.93-3.84a27.53,27.53,0,0,1,7.6,1.19V405.1l-2.54.3c-3.64.37-8.64,1.08-14.25,1.2a42.41,42.41,0,0,1-7.88-.56,29.24,29.24,0,0,1-6.21-1.8,21.41,21.41,0,0,1-3.82-2.08,9.36,9.36,0,0,1-.94-.72c-.21-.17-.31-.27-.3-.29a37.91,37.91,0,0,0,5.23,2.68A30.33,30.33,0,0,0,61,405.47a45,45,0,0,0,7.78.5c5.55-.12,10.57-.76,14.21-1l2.59-.19V375.43c-.54-.07-1.22-.15-2-.22a53.71,53.71,0,0,0-9.49,0,109.17,109.17,0,0,0-13.91,2.35c-5.19,1.15-10.85,2.68-16.92,3.75a63.74,63.74,0,0,1-17.33,1,41.16,41.16,0,0,1-7.46-1.45,48.48,48.48,0,0,1-6.14-2.45c-3.65-1.7-6.69-2.87-8.93-3.14a14.75,14.75,0,0,0-3.25-.13V396c.15-.18.32-.37.5-.55,1.65-1.68,4.75-3.21,8.74-4.25s8.91-1.46,14.28-2.15A110.64,110.64,0,0,0,40.75,385a125.26,125.26,0,0,1,17.17-4.28,73.35,73.35,0,0,1,14.43-.77A68.2,68.2,0,0,1,82,381c1.13.22,2,.41,2.59.56a4.72,4.72,0,0,1,.89.25,4.64,4.64,0,0,1-.91-.13c-.6-.11-1.48-.26-2.61-.44a80,80,0,0,0-9.65-.93,76.25,76.25,0,0,0-14.32.9,133.83,133.83,0,0,0-17.08,4.31,106.13,106.13,0,0,1-17.22,4.06c-5.4.67-10.28,1-14.24,2s-7,2.41-8.67,4a7.72,7.72,0,0,0-.68.72V405l.31.16,2.26,1.21a92.48,92.48,0,0,0,8.57,3.83,83.65,83.65,0,0,0,30.29,5.55c12.16.15,22.7-3.61,30.67-4.34a35.45,35.45,0,0,1,9.43.08l1.46.26,1,.28a5.31,5.31,0,0,1,.86.26,5.32,5.32,0,0,1-.89-.14l-1.06-.22-1.45-.2a37.51,37.51,0,0,0-9.35.12c-3.94.47-8.55,1.54-13.69,2.63a81,81,0,0,1-47.48-3.87,77,77,0,0,1-8.53-4L.37,405.3l-.25-.15v7.55a19.49,19.49,0,0,1,2.53-.35A31.39,31.39,0,0,1,12.62,413.55ZM36.81,394a68.27,68.27,0,0,0-9.55,5.8,2.14,2.14,0,0,0-1,1.7,1.64,1.64,0,0,0,1.1,1.34,5.44,5.44,0,0,0,3.12.2,5.21,5.21,0,0,1,2.08.09,1.78,1.78,0,0,1,.64.33,3.48,3.48,0,0,0-.68-.21,5.6,5.6,0,0,0-2,0,5.79,5.79,0,0,1-3.3-.12,2.05,2.05,0,0,1-1.35-1.65A2.57,2.57,0,0,1,27,399.41a63.71,63.71,0,0,1,9.57-6A65.89,65.89,0,0,1,74.43,387c1.59.24,3,.43,4.26.73s2.33.48,3.18.76l2,.59a4.23,4.23,0,0,1,.68.24,2.85,2.85,0,0,1-.71-.12l-2-.47c-.86-.24-1.94-.41-3.18-.65s-2.68-.43-4.26-.64a67.89,67.89,0,0,0-37.5,6.47Zm9.25,8.15a6.74,6.74,0,0,1-1.49-.07,2.75,2.75,0,0,1-2-1.31,1.8,1.8,0,0,1-.15-1.55,3.49,3.49,0,0,1,1.11-1.3,24.56,24.56,0,0,1,6.85-4.18,30.87,30.87,0,0,1,9.57-2.2,43.48,43.48,0,0,1,17.53,2.75c2.15.76,3.84,1.5,5,2,.58.27,1,.49,1.32.65s.45.24.44.26a13.67,13.67,0,0,1-1.85-.68c-1.18-.46-2.89-1.13-5-1.84a45.84,45.84,0,0,0-17.34-2.55,31.67,31.67,0,0,0-9.4,2.11,25.19,25.19,0,0,0-6.78,4,3.22,3.22,0,0,0-1,1.11,1.47,1.47,0,0,0,.09,1.23,2.5,2.5,0,0,0,1.72,1.24c1.21.25,1.94.17,1.93.24a1.28,1.28,0,0,1-.55.06Z"/><path class="cls-2" d="M3.33,375.34c2.24.27,5.28,1.44,8.93,3.14a48.48,48.48,0,0,0,6.14,2.45,41.16,41.16,0,0,0,7.46,1.45,63.74,63.74,0,0,0,17.33-1c6.07-1.07,11.73-2.6,16.92-3.75A109.17,109.17,0,0,1,74,375.28a53.71,53.71,0,0,1,9.49,0c.82.07,1.5.15,2,.22v-.16c-.53-.1-1.2-.21-2-.3a50.06,50.06,0,0,0-9.56-.16,100.46,100.46,0,0,0-14,2.22c-5.22,1.13-10.88,2.63-16.91,3.7a64.58,64.58,0,0,1-17.16,1.07,39.38,39.38,0,0,1-7.37-1.37,53.82,53.82,0,0,1-6.11-2.35c-3.67-1.66-6.8-2.79-9.07-3a10.68,10.68,0,0,0-3.29.06v.06A14.48,14.48,0,0,1,3.33,375.34Z"/><path class="cls-2" d="M3.16,349c.89.18,1.89.44,3,.58s2.36.35,3.7.44,2.77.14,4.28.17a51.8,51.8,0,0,0,19.17-3.7c1.39-.59,2.72-1.12,3.9-1.76s2.29-1.2,3.27-1.78,1.84-1.16,2.59-1.66a20.84,20.84,0,0,0,1.87-1.37l1.06-.86h-.25l-1,.66c-.51.37-1.14.81-1.92,1.27s-1.6,1.05-2.61,1.57-2.07,1.16-3.28,1.71-2.5,1.11-3.88,1.68a54.18,54.18,0,0,1-19,3.66c-1.49,0-2.91,0-4.23-.12s-2.55-.21-3.68-.35-2.12-.34-3-.49-1.64-.31-2.25-.47L0,348v.18l.84.26A20.7,20.7,0,0,0,3.16,349Z"/><path class="cls-2" d="M65.49,342.67a32.08,32.08,0,0,0-9,2.06,62.9,62.9,0,0,0-8.85,4.5,57.72,57.72,0,0,1-8.79,4.4,33.24,33.24,0,0,1-8.93,1.78c-5.83.37-11.12-.17-15.57-.19a44.08,44.08,0,0,0-10.5.91c-.6.15-1.14.27-1.6.41l-1.15.39a5.3,5.3,0,0,0-.93.37,7,7,0,0,0,1-.25l1.16-.33c.46-.12,1-.22,1.61-.35a46.75,46.75,0,0,1,10.43-.7c4.43.07,9.71.66,15.62.32a33.68,33.68,0,0,0,9.1-1.78A58,58,0,0,0,48,349.78a62.79,62.79,0,0,1,8.76-4.47,31.75,31.75,0,0,1,8.86-2.06,35.1,35.1,0,0,1,20,4.24v-.42A34.87,34.87,0,0,0,81,344.89,35.52,35.52,0,0,0,65.49,342.67Z"/><path class="cls-2" d="M79,354.87a20.5,20.5,0,0,0-10.22-3.53c-4.19-.17-8.58,1.44-12.79,3.49a97.84,97.84,0,0,0-11.52,6.58c-1.64,1.14-3.48,2.14-4.29,4a2.54,2.54,0,0,0,.41,2.7,5.82,5.82,0,0,0,2.07,1.39,18.59,18.59,0,0,0,7.11,1.7,16.64,16.64,0,0,0,2-.06,3.11,3.11,0,0,0,.68-.11c0-.06-1,0-2.66-.08a19.08,19.08,0,0,1-6.94-1.85A5.61,5.61,0,0,1,41,367.8a2,2,0,0,1-.3-2.19c.7-1.58,2.47-2.57,4.13-3.69a100.36,100.36,0,0,1,11.46-6.52c4.18-2,8.46-3.61,12.49-3.48a20.42,20.42,0,0,1,10,3.32,59.68,59.68,0,0,1,5.87,4.26l.89.71V360l-.73-.65A48.94,48.94,0,0,0,79,354.87Z"/><path class="cls-2" d="M57.14,365.27c.49.13.92.19,1.38.29l5.18,1,8.79,1.69,5.94,1.09,1.62.27a2.2,2.2,0,0,0,.57.05,1.78,1.78,0,0,0-.55-.18l-1.59-.38-5.9-1.28L63.82,366l-5.18-1c-.85-.2-2-.26-2.21-.89-.12-.29,0-.63.37-.91a3.35,3.35,0,0,1,1.15-.61,30.12,30.12,0,0,1,10.72-1.22,30.89,30.89,0,0,1,8.66,1.82,42.41,42.41,0,0,1,7.29,3.72,4.37,4.37,0,0,0-.43-.38c-.3-.24-.72-.59-1.33-1a27.14,27.14,0,0,0-5.38-2.78,30.28,30.28,0,0,0-19.71-.8,4,4,0,0,0-1.38.75,1.9,1.9,0,0,0-.52.67,1.25,1.25,0,0,0,0,.93A1.73,1.73,0,0,0,57.14,365.27Z"/><path class="cls-2" d="M12.93,366.06A49.17,49.17,0,0,1,23,367.26c2.55.58,4.1,1.09,4.13,1a4.15,4.15,0,0,0-1-.47,26.12,26.12,0,0,0-3-1,41.4,41.4,0,0,0-20.45-.24c-1.07.27-1.95.52-2.62.75v.29c.69-.16,1.6-.38,2.72-.6A48.34,48.34,0,0,1,12.93,366.06Z"/><path class="cls-2" d="M9.43,391.62c4-1,8.84-1.35,14.24-2a106.13,106.13,0,0,0,17.22-4.06A133.83,133.83,0,0,1,58,381.25a76.25,76.25,0,0,1,14.32-.9,80.18,80.18,0,0,1,9.65.93c1.13.18,2,.33,2.61.44a4.64,4.64,0,0,0,.91.13,4.72,4.72,0,0,0-.89-.25c-.58-.15-1.46-.34-2.59-.56a68.2,68.2,0,0,0-9.67-1.13,73.35,73.35,0,0,0-14.43.77A125.26,125.26,0,0,0,40.71,385a110.49,110.49,0,0,1-17.11,4c-5.37.69-10.28,1.08-14.28,2.15S2.23,393.72.58,395.4c-.18.18-.35.37-.5.55v.34a6.64,6.64,0,0,1,.68-.72C2.4,394,5.47,392.59,9.43,391.62Z"/><path class="cls-2" d="M17.89,371A34.25,34.25,0,0,0,23,373.55a36.81,36.81,0,0,0,18.4,2.32A37.74,37.74,0,0,0,51.27,373a65.17,65.17,0,0,1,7.79-2.93,19.05,19.05,0,0,1,5.52-.75c1.32,0,2,.2,2,.14a1.52,1.52,0,0,0-.51-.16,9.74,9.74,0,0,0-1.53-.23,18.17,18.17,0,0,0-5.64.56c-4.72,1-10.45,4.69-17.67,5.53a37.79,37.79,0,0,1-18.15-2.11A41.08,41.08,0,0,1,18,370.71a14,14,0,0,0-1.82-1A14,14,0,0,0,17.89,371Z"/><path class="cls-2" d="M74.27,387.5c1.58.21,3,.37,4.26.64s2.32.41,3.18.65l2,.47a2.85,2.85,0,0,0,.71.12,4.23,4.23,0,0,0-.68-.24l-2-.59c-.85-.28-1.93-.48-3.18-.76s-2.67-.49-4.26-.73a65.89,65.89,0,0,0-37.82,6.39,63.71,63.71,0,0,0-9.57,6,2.57,2.57,0,0,0-1.17,2.07,2.05,2.05,0,0,0,1.35,1.65,5.79,5.79,0,0,0,3.3.12,5.6,5.6,0,0,1,2,0c.45.1.67.24.68.21a1.78,1.78,0,0,0-.64-.33,5.21,5.21,0,0,0-2.08-.09,5.44,5.44,0,0,1-3.12-.2,1.64,1.64,0,0,1-1.1-1.34,2.14,2.14,0,0,1,1-1.7,67.15,67.15,0,0,1,47-12.27Z"/><path class="cls-2" d="M42.91,400.57a1.47,1.47,0,0,1-.09-1.23,3.22,3.22,0,0,1,1-1.11,25.19,25.19,0,0,1,6.78-4,31.67,31.67,0,0,1,9.4-2.11,45.84,45.84,0,0,1,17.34,2.55c2.15.71,3.86,1.38,5,1.84a13.67,13.67,0,0,0,1.85.68,2.82,2.82,0,0,0-.44-.26c-.3-.15-.74-.38-1.32-.65a50.06,50.06,0,0,0-5-2,43.48,43.48,0,0,0-17.53-2.75,30.87,30.87,0,0,0-9.57,2.2,24.56,24.56,0,0,0-6.85,4.18,3.49,3.49,0,0,0-1.11,1.3,1.8,1.8,0,0,0,.15,1.55,2.75,2.75,0,0,0,2,1.31,6.74,6.74,0,0,0,1.49.07,1.41,1.41,0,0,0,.5-.07c0-.07-.72,0-1.93-.24A2.54,2.54,0,0,1,42.91,400.57Z"/><path class="cls-2" d="M2.53,406.62a77,77,0,0,0,8.53,4,81,81,0,0,0,47.48,3.87c5.14-1.09,9.75-2.16,13.69-2.63a37.51,37.51,0,0,1,9.35-.12l1.45.2,1.06.22a5.32,5.32,0,0,0,.89.14,5.31,5.31,0,0,0-.86-.26l-1.05-.28-1.46-.26a35.45,35.45,0,0,0-9.43-.08c-8,.73-18.51,4.49-30.67,4.34a83.36,83.36,0,0,1-30.24-5.52,92.48,92.48,0,0,1-8.57-3.83L.44,405.2.13,405v.12l.25.15Z"/><path class="cls-2" d="M68.75,406a45,45,0,0,1-7.78-.5,30.33,30.33,0,0,1-6.13-1.64,37.91,37.91,0,0,1-5.23-2.68,1.88,1.88,0,0,0,.3.29,9.36,9.36,0,0,0,.94.72,21.41,21.41,0,0,0,3.82,2.08,29.24,29.24,0,0,0,6.21,1.8,42.41,42.41,0,0,0,7.88.56c5.61-.12,10.61-.83,14.25-1.2l2.54-.3v-.33L83,405C79.32,405.21,74.27,405.85,68.75,406Z"/><path class="cls-2" d="M12.5,414c4.1,1.08,8.82,3,14.32,4.28A79.07,79.07,0,0,0,45,420.49c13.14.32,24.43-4.31,32.93-4a27.58,27.58,0,0,1,7.61,1.06v-.32A27.53,27.53,0,0,0,78,416c-8.66-.38-19.93,4.17-32.93,3.84A80.77,80.77,0,0,1,27,417.74c-5.46-1.27-10.2-3.12-14.34-4.15a31.57,31.57,0,0,0-10-1.19,19.49,19.49,0,0,0-2.53.35v.14c.84-.12,1.69-.2,2.54-.24A32.32,32.32,0,0,1,12.5,414Z"/><path class="cls-2" d="M10,427.42a40.12,40.12,0,0,1,14.59-3.26c5.67-.24,11.89.58,18.42,1.4,3.26.4,6.46.75,9.57.87a66,66,0,0,0,9-.24c5.67-.53,10.79-1,15-.37a21.16,21.16,0,0,1,9,3.31v-.32a21.13,21.13,0,0,0-8.92-3.43c-4.3-.73-9.49-.26-15.15.23a66,66,0,0,1-8.89.21c-3.08-.14-6.27-.48-9.53-.88-6.51-.82-12.77-1.64-18.51-1.36A40,40,0,0,0,9.8,427a39.13,39.13,0,0,0-8.72,5.33c-.38.31-.7.59-1,.85v.25l1.15-.9A41,41,0,0,1,10,427.42Z"/><path class="cls-2" d="M42.67,432.79a61.74,61.74,0,0,0-12.12-1.44,32.41,32.41,0,0,0-9.88,1.42,23,23,0,0,0-5.9,2.8h.5a25.45,25.45,0,0,1,5.55-2.38,33.76,33.76,0,0,1,9.74-1.26,64.65,64.65,0,0,1,12,1.48c3.55.73,6.93,1.52,10.11,2.16h3.14l-1.24-.22C50.89,434.65,46.9,433.66,42.67,432.79Z"/><rect class="cls-3" x="0.08" y="369.94" width="61.85" height="1.21"/><rect class="cls-3" x="0.08" y="401.78" width="61.86" height="1.21"/><rect class="cls-3" x="24.98" y="370.54" width="13.07" height="2.77"/><rect class="cls-3" x="24.98" y="339.07" width="13.07" height="2.77"/><rect class="cls-3" x="24.98" y="402.21" width="13.07" height="2.77"/><rect class="cls-2" x="61.93" y="339.07" width="23.62" height="96.55"/><rect class="cls-2" x="0.08" y="299.31" width="8.34" height="39.75"/><rect class="cls-2" x="12.66" y="303.36" width="5.82" height="35.71"/><rect class="cls-3" x="8.42" y="303.36" width="4.24" height="35.71"/><rect class="cls-1" x="18.47" y="307.46" width="4.3" height="31.61"/><rect class="cls-2" x="22.77" y="296.64" width="9.1" height="42.43"/><path class="cls-2" d="M38.27,320.33l-.86,3.57.86,1.29v2.15l-.86,2,.86.72v5l-.86.58.86.71v2.72h46v-3.29l-.86-1.58.86-7.15-.72-3.43a8.74,8.74,0,0,1-.72-1.86c0-.43.15-1.43.15-1.43Z"/><g class="cls-5"><polygon class="cls-3" points="61.93 339.07 60.83 333.88 61.93 331.75 61.93 329.7 60.83 328.63 61.93 326.98 61.93 320.33 82.94 320.33 82.79 321.76 83.51 323.62 84.23 327.05 83.37 334.2 84.23 335.78 84.23 339.07 61.93 339.07"/></g></g><g id="Floor"><g class="cls-6"><path class="cls-7" d="M448.83,435.65c0,.14-102.72.26-229.42.26s-229.3-.26-229.44-.26c-564.7,0,102.71-.26,229.44-.26S448.83,435.5,448.83,435.65Z"/></g></g><g id="Graphics"><rect class="cls-4" x="96.99" y="144.4" width="34.03" height="42.97" transform="translate(-0.67 0.46) rotate(-0.23)"/><path class="cls-7" d="M97.09,187.39h2.47l6.91-.08,24.65-.22-.21.22c-.07-12.28-.14-27.06-.22-43-.06-.06.49.49.25.26h-34l.23-.24v39.92c0-2.06,0-5-.1-8.76,0-7.6-.14-18.36-.24-31.13v-.24H97l16.22-.09h17.81c-.23-.24.33.31.27.26,0,15.9.09,30.68.13,43v.22H97.82Z"/><rect class="cls-7" x="111.96" y="186.36" width="4.72" height="1.15" transform="translate(-0.72 0.44) rotate(-0.22)"/><rect class="cls-7" x="112.46" y="143.74" width="4.72" height="0.98" transform="translate(-0.58 0.46) rotate(-0.23)"/><circle class="cls-8" cx="205.76" cy="118.28" r="22.84"/><path class="cls-4" d="M216.27,119a20,20,0,0,1-3,.17c-1.89,0-4.51.08-7.47.08h-.26V117.5c0-3.3,0-6.3.07-8.47a24.08,24.08,0,0,1,.19-3.5A25.57,25.57,0,0,1,206,109c.05,2.17.08,5.17.08,8.47V119l-.26-.26c3,0,5.58,0,7.47.08A18.81,18.81,0,0,1,216.27,119Z"/><path class="cls-4" d="M205.83,99.2c.14,0,.26.85.26,1.91S206,103,205.83,103s-.26-.86-.26-1.92S205.68,99.2,205.83,99.2Z"/><path class="cls-4" d="M216.27,102.28c.11.1-.41.78-1.15,1.52s-1.42,1.25-1.52,1.15.41-.78,1.15-1.52S216.13,102.17,216.27,102.28Z"/><path class="cls-4" d="M222.32,108.92c.06.13-.64.61-1.52,1.15s-1.63.94-1.71.82.54-.72,1.44-1.26S222.27,108.8,222.32,108.92Z"/><path class="cls-4" d="M225.88,118.79a13.16,13.16,0,0,1-5.23,0A13.16,13.16,0,0,1,225.88,118.79Z"/><path class="cls-4" d="M189.61,118.44a11.75,11.75,0,0,1-4.94,0A11.75,11.75,0,0,1,189.61,118.44Z"/><path class="cls-4" d="M192.17,125.78c.1.11-.71.91-1.79,1.78a6.18,6.18,0,0,1-2.11,1.38c-.08-.12.72-.91,1.8-1.78A6.55,6.55,0,0,1,192.17,125.78Z"/><path class="cls-4" d="M198.5,131.46a8.1,8.1,0,0,1-1.17,2.26c-.72,1.19-1.31,2.16-1.45,2.1a5.67,5.67,0,0,1,1-2.37C197.61,132.24,198.39,131.38,198.5,131.46Z"/><path class="cls-4" d="M205.83,138.79a13.33,13.33,0,0,1,0-5.24,13.33,13.33,0,0,1,0,5.24Z"/><path class="cls-4" d="M217.1,135.3a5.21,5.21,0,0,1-2.23-1.39c-1.1-1-1.79-1.93-1.68-2a8.61,8.61,0,0,1,2,1.63C216.19,134.48,217.19,135.18,217.1,135.3Z"/><path class="cls-4" d="M222.4,129.6c-.11.1-.92-.54-1.82-1.44s-1.54-1.71-1.44-1.82.91.55,1.81,1.45S222.5,129.5,222.4,129.6Z"/><path class="cls-4" d="M191.93,111.4c-.1.11-.82-.45-1.61-1.24s-1.34-1.5-1.24-1.6.83.45,1.61,1.24S192,111.3,191.93,111.4Z"/><path class="cls-4" d="M198.46,104.52c-.1.11-.81-.43-1.58-1.2s-1.31-1.48-1.21-1.58.81.44,1.58,1.21S198.57,104.42,198.46,104.52Z"/><rect class="cls-4" x="210.36" y="164.37" width="30.12" height="20.3" transform="translate(-15.48 22.07) rotate(-5.42)"/><path class="cls-7" d="M241.37,183.22a2.32,2.32,0,0,1-.06-.38l-.12-1.08c-.1-1-.25-2.34-.43-4.07-.36-3.53-.87-8.55-1.49-14.66l.2.16-30,2.89.2-.24h0v.66l.06.67a12.15,12.15,0,0,0,.13,1.34c.08.89.16,1.77.25,2.64.16,1.75.32,3.48.48,5.17.32,3.38.62,6.63.91,9.71l-.22-.18,21.56-1.94,6.19-.54,1.66-.13h.59a3.33,3.33,0,0,1-.54.07l-1.61.18-6.14.64-21.67,2.16h-.21v-.21c-.29-3.08-.61-6.33-.93-9.71-.16-1.69-.33-3.41-.5-5.16-.08-.88-.16-1.76-.25-2.65a12.15,12.15,0,0,0-.13-1.34l-.06-.67v-.65h0l.2-.25,30-2.8h.18V163c.54,6.17,1,11.23,1.31,14.79q.21,2.59.33,4.05a8.93,8.93,0,0,0,.08,1C241.36,183.08,241.37,183.23,241.37,183.22Z"/><path class="cls-7" d="M239.45,163a9.1,9.1,0,0,1-.91,1.14c-.67.77-1.55,1.79-2.63,3-2.23,2.55-5.35,6.05-8.85,9.94l-.13.14-.16-.1-.79-.51c-4.6-2.93-8.74-5.6-11.73-7.55l-3.52-2.33-1-.65a1.48,1.48,0,0,1-.31-.25.7.7,0,0,1,.36.17l1,.58,3.6,2.22c3,1.88,7.2,4.51,11.8,7.43l.79.51h-.28c3.5-3.88,6.66-7.35,8.95-9.84l2.73-2.93A11,11,0,0,1,239.45,163Z"/><rect class="cls-8" x="264.28" y="72.15" width="44.24" height="65.84"/><rect class="cls-9" x="264.28" y="72.15" width="44.24" height="65.84"/><path class="cls-7" d="M309,138.51H263.76V71.64H309Zm-44.24-1H308V72.66H264.79Z"/><rect class="cls-4" x="268.73" y="76.21" width="35.41" height="57.68"/><rect class="cls-8" x="272.88" y="89.63" width="28.06" height="33.22"/><path class="cls-4" d="M155.07,234l-25.51-13.77h0a22.22,22.22,0,0,0,7.1-8l9.35-17.9a11.1,11.1,0,0,1,8.86-5.81h0l23.65,12.77h0a14.4,14.4,0,0,0-6.55,6.2l-10.58,19.59a19.49,19.49,0,0,1-6.32,7Z"/><path class="cls-7" d="M155.07,234a2.69,2.69,0,0,1,.28-.23c.19-.14.47-.35.83-.64a20.6,20.6,0,0,0,2.86-2.82,19.62,19.62,0,0,0,1.69-2.37c.54-.91,1.06-1.95,1.66-3,1.18-2.2,2.51-4.71,4-7.48s3.11-5.8,4.85-9a25,25,0,0,1,1.43-2.46,15.69,15.69,0,0,1,1.92-2.23,15,15,0,0,1,2.41-1.86c.44-.27.89-.51,1.36-.74h0v.41l-.08-.05-.17-.09-.34-.18-.68-.37-11.48-6.18-6.07-3.27-3.1-1.67-1.57-.85-.1,0h0s.26,0,.12,0h-.22l-.43,0c-.29.06-.58.09-.86.17a10.86,10.86,0,0,0-5.82,3.55,13.16,13.16,0,0,0-1.82,2.89l-1.58,3c-2.1,4-4.12,7.86-6,11.55a38.4,38.4,0,0,1-3.07,5.26,22.15,22.15,0,0,1-4,4.15c-.36.3-.73.57-1.11.84l-.13.1h-.07v-.35h0l.3.17.59.32,2.3,1.25,4.33,2.36,13,7.14,3.54,2,.91.52a1.49,1.49,0,0,1,.31.2,1,1,0,0,1-.33-.15l-.94-.48-3.52-1.87-13.13-7-4.35-2.33L130.43,221l-.59-.31-.3-.16h0v-.37h.07l.14-.1c.37-.26.73-.53,1.08-.82a22.61,22.61,0,0,0,3.91-4.09,35.11,35.11,0,0,0,3-5.22l6-11.56,1.58-3a13.47,13.47,0,0,1,1.87-3,11.39,11.39,0,0,1,6.1-3.73c.29-.08.6-.12.9-.18l.45-.05h.4l.1.05,1.57.85,3.1,1.68,6.06,3.27,11.46,6.21.69.37.34.18.16.09h.09v.44h0a14,14,0,0,0-1.32.71,15.1,15.1,0,0,0-2.34,1.79,14.79,14.79,0,0,0-1.87,2.16,22.17,22.17,0,0,0-1.41,2.4l-4.91,9c-1.51,2.75-2.87,5.25-4.07,7.44-.6,1.09-1.13,2.12-1.7,3a20,20,0,0,1-1.74,2.37,18.75,18.75,0,0,1-3,2.77c-.37.28-.66.48-.86.61Z"/><path class="cls-7" d="M166.94,208c0,.09-4.23-2.1-9.35-4.89s-9.22-5.12-9.17-5.21,4.23,2.1,9.35,4.89S167,208,166.94,208Z"/><path class="cls-7" d="M165.54,211.6c0,.08-4.37-2.18-9.66-5.06s-9.53-5.3-9.48-5.39,4.37,2.18,9.66,5.07S165.59,211.51,165.54,211.6Z"/><path class="cls-7" d="M163.85,214.7c0,.09-4.38-2.18-9.66-5.06s-9.53-5.29-9.49-5.38,4.38,2.18,9.66,5.06S163.89,214.61,163.85,214.7Z"/><path class="cls-7" d="M162.15,217.8c0,.09-4.37-2.17-9.66-5.05s-9.53-5.3-9.48-5.39,4.37,2.18,9.66,5.06S162.2,217.72,162.15,217.8Z"/><path class="cls-7" d="M160.46,220.91c-.05.09-4.37-2.18-9.66-5.06s-9.53-5.29-9.48-5.38,4.37,2.18,9.66,5.06S160.51,220.82,160.46,220.91Z"/><path class="cls-7" d="M149.56,219a6.41,6.41,0,0,1-1.51-.68c-.92-.46-2.17-1.12-3.54-1.87s-2.61-1.44-3.49-2a7.15,7.15,0,0,1-1.4-.91,7.67,7.67,0,0,1,1.52.68c.92.47,2.17,1.13,3.54,1.87s2.61,1.45,3.49,2A7.92,7.92,0,0,1,149.56,219Z"/><path class="cls-7" d="M155.59,227a5,5,0,0,0,.2-.7,3,3,0,0,0-.21-1.89,2.88,2.88,0,0,0-2.18-1.62,2.83,2.83,0,1,0,0,5.6,3,3,0,0,0,1.71-.84c.33-.33.45-.57.48-.55a1.5,1.5,0,0,1-.38.64,2.94,2.94,0,0,1-1.77,1,3.1,3.1,0,0,1-2.82-1,3.13,3.13,0,0,1,.24-4.43,3.11,3.11,0,0,1,4.95,1.07,3,3,0,0,1,.12,2A1.6,1.6,0,0,1,155.59,227Z"/><rect class="cls-7" x="153.11" y="192.81" width="1.21" height="8.41" transform="translate(-92.85 237.62) rotate(-61.39)"/><polygon class="cls-8" points="130.91 118.28 124.37 111.34 124.37 134.36 138.26 118.78 130.91 118.28"/><polygon class="cls-10" points="130.91 118.28 124.37 111.34 124.37 134.36 138.26 118.78 130.91 118.28"/><polyline class="cls-8" points="124.52 134.19 132.65 118.4 130.91 118.28 129.84 117.15 124.52 134.19"/><path class="cls-7" d="M130.91,118.28a13,13,0,0,1-.72,2.45c-.52,1.48-1.29,3.52-2.21,5.73s-1.81,4.2-2.46,5.63a11.8,11.8,0,0,1-1.15,2.27,12.65,12.65,0,0,1,.81-2.41c.57-1.47,1.4-3.48,2.32-5.69s1.67-4,2.34-5.66A13.18,13.18,0,0,1,130.91,118.28Z"/><path class="cls-7" d="M130.86,115.24a6.39,6.39,0,0,1-.19,2.5,6.43,6.43,0,0,1-.7,2.42,6.09,6.09,0,0,1,.18-2.51A6.22,6.22,0,0,1,130.86,115.24Z"/><path class="cls-7" d="M133.47,105.59a6,6,0,0,1-.47,2.47,6.57,6.57,0,0,1-1,2.32,6,6,0,0,1,.47-2.47A6.16,6.16,0,0,1,133.47,105.59Z"/><path class="cls-7" d="M137.15,96.29a6.18,6.18,0,0,1-.75,2.4,6.34,6.34,0,0,1-1.22,2.2,6.18,6.18,0,0,1,.75-2.4A6.18,6.18,0,0,1,137.15,96.29Z"/><path class="cls-7" d="M141.82,87.46a6.07,6.07,0,0,1-1,2.3c-.68,1.2-1.33,2.12-1.46,2a6.4,6.4,0,0,1,1-2.3C141.05,88.3,141.7,87.38,141.82,87.46Z"/><path class="cls-7" d="M147.44,79.19a6.42,6.42,0,0,1-1.25,2.18c-.8,1.12-1.55,2-1.67,1.88a6.21,6.21,0,0,1,1.25-2.19C146.58,79.94,147.33,79.1,147.44,79.19Z"/><path class="cls-7" d="M153.94,71.59a6.23,6.23,0,0,1-1.49,2c-.92,1-1.76,1.77-1.87,1.68s.56-1,1.49-2S153.83,71.49,153.94,71.59Z"/><path class="cls-7" d="M161.27,64.79c.09.11-.67.93-1.71,1.84a6.88,6.88,0,0,1-2,1.45,7,7,0,0,1,1.71-1.84C160.31,65.33,161.17,64.67,161.27,64.79Z"/><path class="cls-7" d="M169.33,58.89c.08.13-.8.81-1.92,1.61a6.43,6.43,0,0,1-2.2,1.22c-.09-.12.76-.85,1.9-1.65A5.88,5.88,0,0,1,169.33,58.89Z"/><path class="cls-7" d="M178.06,54c.07.13-.88.74-2.1,1.38a6.4,6.4,0,0,1-2.34.92c-.07-.13.87-.75,2.1-1.38A6.17,6.17,0,0,1,178.06,54Z"/><path class="cls-7" d="M187.27,50.23A6.12,6.12,0,0,1,185,51.36a6.08,6.08,0,0,1-2.43.63,6.34,6.34,0,0,1,2.25-1.12A6.44,6.44,0,0,1,187.27,50.23Z"/><path class="cls-7" d="M196.94,47.55a6.2,6.2,0,0,1-2.36.85,6.4,6.4,0,0,1-2.49.35,6.22,6.22,0,0,1,2.36-.86A6,6,0,0,1,196.94,47.55Z"/><path class="cls-7" d="M206.82,46a6.47,6.47,0,0,1-2.45.58,6.07,6.07,0,0,1-2.51.05,12.3,12.3,0,0,1,5-.63Z"/><path class="cls-7" d="M216.81,45.59a12.15,12.15,0,0,1-5,.06,6,6,0,0,1,2.49-.29A6.27,6.27,0,0,1,216.81,45.59Z"/><path class="cls-7" d="M226.76,46.37a11.8,11.8,0,0,1-5-.53,11.93,11.93,0,0,1,5,.54Z"/><path class="cls-7" d="M236.56,48.35a6.41,6.41,0,0,1-2.5-.32,6.26,6.26,0,0,1-2.37-.82A11.87,11.87,0,0,1,236.56,48.35Z"/><path class="cls-7" d="M246,51.54a6.27,6.27,0,0,1-2.44-.64,6.53,6.53,0,0,1-2.24-1.11,6,6,0,0,1,2.43.63A6,6,0,0,1,246,51.54Z"/><path class="cls-7" d="M255,56a6.23,6.23,0,0,1-2.32-1,6.33,6.33,0,0,1-2.06-1.44,6.23,6.23,0,0,1,2.32,1A6.33,6.33,0,0,1,255,56Z"/><path class="cls-7" d="M263,62a6.14,6.14,0,0,1-2.1-1.38c-1.06-.86-1.86-1.66-1.77-1.78a6.39,6.39,0,0,1,2.1,1.38C262.27,61.08,263.07,61.87,263,62Z"/><path class="cls-7" d="M269.81,69.22c-.12.08-.81-.8-1.68-1.85a8.26,8.26,0,0,1-1.47-2c.1-.1,1,.62,1.87,1.7A5.09,5.09,0,0,1,269.81,69.22Z"/><path class="cls-7" d="M244,175.48a5.91,5.91,0,0,1-2.51.12,6,6,0,0,1-2.48-.41,12.23,12.23,0,0,1,5,.29Z"/><path class="cls-7" d="M254,175a6.15,6.15,0,0,1-2.47.48,6.24,6.24,0,0,1-2.51,0,6.15,6.15,0,0,1,2.47-.48A6.24,6.24,0,0,1,254,175Z"/><path class="cls-7" d="M263.76,172.85a12,12,0,0,1-4.83,1.29,6.41,6.41,0,0,1,2.35-.9A6.18,6.18,0,0,1,263.76,172.85Z"/><path class="cls-7" d="M272.88,168.79a9.67,9.67,0,0,1-4.45,2.28,7.25,7.25,0,0,1,2.14-1.31A7,7,0,0,1,272.88,168.79Z"/><path class="cls-7" d="M280.72,162.63c.11.1-.59,1-1.62,1.93s-2,1.53-2.09,1.41.72-.88,1.74-1.8S280.62,162.53,280.72,162.63Z"/><path class="cls-7" d="M286.66,154.62a5.41,5.41,0,0,1-1.06,2.29c-.75,1.18-1.52,2-1.63,1.92a7.36,7.36,0,0,1,1.2-2.2C285.91,155.48,286.53,154.55,286.66,154.62Z"/><path class="cls-7" d="M290,145.25a5.24,5.24,0,0,1-.31,2.51,5.31,5.31,0,0,1-1,2.31,7.6,7.6,0,0,1,.51-2.45A7.9,7.9,0,0,1,290,145.25Z"/><path class="cls-7" d="M290.39,137.33c.14,0,.29.64.33,1.46s-.05,1.5-.19,1.49-.29-.65-.33-1.46S290.27,137.34,290.39,137.33Z"/><path class="cls-7" d="M167.67,190c.12.09-.51,1-1.31,2.13s-1.49,2-1.61,1.92a5.57,5.57,0,0,1,1.19-2.22C166.75,190.65,167.56,189.86,167.67,190Z"/><path class="cls-7" d="M174.85,183c.09.12-.73.88-1.77,1.77a7.89,7.89,0,0,1-2,1.49,5.61,5.61,0,0,1,1.68-1.88A5.42,5.42,0,0,1,174.85,183Z"/><path class="cls-7" d="M183.4,177.85a12.2,12.2,0,0,1-4.42,2.36c-.07-.13.86-.76,2.09-1.41A6.34,6.34,0,0,1,183.4,177.85Z"/><path class="cls-7" d="M192.86,174.65a7.36,7.36,0,0,1-2.36.86A7.17,7.17,0,0,1,188,176a9.32,9.32,0,0,1,4.82-1.34Z"/><path class="cls-7" d="M202.78,173.62a16.95,16.95,0,0,1-5,.23,5.42,5.42,0,0,1,2.48-.45A5.35,5.35,0,0,1,202.78,173.62Z"/><path class="cls-7" d="M208.38,174.07a.32.32,0,0,1-.62-.09.29.29,0,0,1,.35-.21.28.28,0,0,1,.27.29Z"/><path class="cls-7" d="M180.39,256.57a6.14,6.14,0,0,1,2.25,1.14,8.11,8.11,0,0,1,2,1.57,6.14,6.14,0,0,1-2.25-1.14C181.19,257.4,180.27,256.69,180.39,256.57Z"/><path class="cls-7" d="M172.37,250.61a6.42,6.42,0,0,1,2.12,1.36c1.07.85,1.88,1.64,1.79,1.76a6.42,6.42,0,0,1-2.12-1.36C173.08,251.51,172.27,250.72,172.37,250.61Z"/><path class="cls-7" d="M166.27,242.79c.13-.07.75.86,1.48,2a7.69,7.69,0,0,1,1.19,2.2c-.11.09-.89-.74-1.63-1.93A5.6,5.6,0,0,1,166.27,242.79Z"/><path class="cls-7" d="M162.43,233.56a6.16,6.16,0,0,1,1.09,2.26,6.29,6.29,0,0,1,.59,2.44A6,6,0,0,1,163,236,6.44,6.44,0,0,1,162.43,233.56Z"/></g><g id="Character"><polygon class="cls-11" points="236.48 346.89 234.42 435.89 230.5 435.89 230.75 347.12 236.48 346.89"/><polygon class="cls-11" points="250.66 345.91 269.74 435.89 274.12 435.89 258.23 345.91 250.66 345.91"/><polygon class="cls-11" points="214.88 346.89 193.77 435.89 189.39 435.89 208.56 346.53 214.88 346.89"/><path class="cls-11" d="M269.8,261.56s21.08-1.21,19,23.18-3.31,49.07-11.14,57.5S190.93,351,184.27,344s12.64-6.62,16.25-6.62,25.89,2.11,33.12-16.86S239.1,260.35,269.8,261.56Z"/><path class="cls-11" d="M271.15,261.57s16.11,3.3,14.61,20.16-5.72,46.36-13.55,53.88-38.5,9.17-55.09,8.13c-19.27-1.2-31.43-4.87-31.43-4.87s-3.52,2.26-2.45,3.72,10.46,7.31,56,6.33,42.37-7.69,44.26-15,5.86-46.47,5.31-55.07S283.92,263.08,271.15,261.57Z"/><path class="cls-12" d="M271.15,261.57s16.11,3.3,14.61,20.16-5.72,46.36-13.55,53.88-38.5,9.17-55.09,8.13c-19.27-1.2-31.43-4.87-31.43-4.87s-3.52,2.26-2.45,3.72,10.46,7.31,56,6.33,42.37-7.69,44.26-15,5.86-46.47,5.31-55.07S283.92,263.08,271.15,261.57Z"/><path class="cls-11" d="M257.94,294.39a1.8,1.8,0,1,0,1.74-2.24,2,2,0,0,0-1.74,2.23Z"/><path class="cls-11" d="M259.13,284.52a12.85,12.85,0,0,0-.6,3.25,7.81,7.81,0,0,0,.77,3.42,7.54,7.54,0,0,0,1.15,1.71,8.34,8.34,0,0,1,.81.87,1.77,1.77,0,0,1,.29,1.34,15.33,15.33,0,0,1-.89,2.18,7.09,7.09,0,0,0-.26,2,7.6,7.6,0,0,0,.88,3.39,12.6,12.6,0,0,0,2,2.6,3.12,3.12,0,0,1-.78-.48,7.07,7.07,0,0,1-1.62-1.91,7.55,7.55,0,0,1-1.07-3.58,7.05,7.05,0,0,1,.26-2.24,22.56,22.56,0,0,0,.86-2.1c.16-.66-.39-1.14-.94-1.69a7.78,7.78,0,0,1-1.22-1.88,7.66,7.66,0,0,1-.69-3.68,7.34,7.34,0,0,1,.55-2.44C258.9,284.77,259.1,284.5,259.13,284.52Z"/><path class="cls-11" d="M254.35,291.5c.1,0,0,.52.25,1.27a4.5,4.5,0,0,0,1.75,2.36,6.94,6.94,0,0,0,2.86,1c.8.12,1.31.14,1.31.23s-.5.21-1.34.2a5.92,5.92,0,0,1-3.17-.95,4.27,4.27,0,0,1-1.83-2.77C254.05,292,254.27,291.47,254.35,291.5Z"/><g class="cls-13"><path d="M257.94,294.39a1.8,1.8,0,1,0,1.74-2.24,2,2,0,0,0-1.74,2.23Z"/><path d="M259.13,284.52a12.85,12.85,0,0,0-.6,3.25,7.81,7.81,0,0,0,.77,3.42,7.54,7.54,0,0,0,1.15,1.71,8.34,8.34,0,0,1,.81.87,1.77,1.77,0,0,1,.29,1.34,15.33,15.33,0,0,1-.89,2.18,7.09,7.09,0,0,0-.26,2,7.6,7.6,0,0,0,.88,3.39,12.6,12.6,0,0,0,2,2.6,3.12,3.12,0,0,1-.78-.48,7.07,7.07,0,0,1-1.62-1.91,7.55,7.55,0,0,1-1.07-3.58,7.05,7.05,0,0,1,.26-2.24,22.56,22.56,0,0,0,.86-2.1c.16-.66-.39-1.14-.94-1.69a7.78,7.78,0,0,1-1.22-1.88,7.66,7.66,0,0,1-.69-3.68,7.34,7.34,0,0,1,.55-2.44C258.9,284.77,259.1,284.5,259.13,284.52Z"/><path d="M254.35,291.5c.1,0,0,.52.25,1.27a4.5,4.5,0,0,0,1.75,2.36,6.94,6.94,0,0,0,2.86,1c.8.12,1.31.14,1.31.23s-.5.21-1.34.2a5.92,5.92,0,0,1-3.17-.95,4.27,4.27,0,0,1-1.83-2.77C254.05,292,254.27,291.47,254.35,291.5Z"/></g><path class="cls-7" d="M233.76,200.72a9.69,9.69,0,0,0-1.08-.34,14.31,14.31,0,0,0-4.79-.42,10.62,10.62,0,0,0-6.5,2.84,9.31,9.31,0,0,0-2.35,3.57,8.17,8.17,0,0,0-.44,2.24c0,.78.06,1.54,0,2.28a2.55,2.55,0,0,1-.78,1.87,6.26,6.26,0,0,1-1.85,1,7,7,0,0,0-1.91,1.09,5.53,5.53,0,0,0-1.31,1.69,5.25,5.25,0,0,0-.37,3.85,13.33,13.33,0,0,0,1.43,3c.24.38.44.75.63,1.12a4.82,4.82,0,0,1,0,.93,6.39,6.39,0,0,1-1.89,3.59,15.77,15.77,0,0,0-2.6,3.21,3.57,3.57,0,0,0,.17,3.89c1,1.16,2.77,1.16,4.31,1.12a129.59,129.59,0,0,1,16,.9L234.84,201Zm-13.49,6.57c-.23,1.47,0,3.06-.73,4.37s-2.32,2.1-3.51,3.15a7.31,7.31,0,0,0-2.32,6.71c.11.62.31,1.23.48,1.84l-.06-.1a12.77,12.77,0,0,1-1.33-3,4.78,4.78,0,0,1,.38-3.52,4.93,4.93,0,0,1,1.2-1.52,6.18,6.18,0,0,1,1.79-1,7,7,0,0,0,2-1.12,3.09,3.09,0,0,0,.94-2.22c0-.8-.07-1.56,0-2.28a7.51,7.51,0,0,1,.4-2.1,9.08,9.08,0,0,1,2.2-3.39,10.36,10.36,0,0,1,6.21-2.82,13.07,13.07,0,0,1,1.53-.08,11.32,11.32,0,0,0-3.46.64A8.64,8.64,0,0,0,220.27,207.29Z"/><path class="cls-14" d="M227.63,244.7c.32-1.72-.24-8.94-.24-8.94s-6.4-.81-6.68-7.34.38-21.59.38-21.59l11.78-5.66,10.29,11.73.19,31.69Z"/><path class="cls-7" d="M222.74,217.83a.82.82,0,1,0,.83-.82A.84.84,0,0,0,222.74,217.83Z"/><path class="cls-7" d="M221.4,216.9c.1.11.71-.4,1.59-.43s1.53.41,1.62.29-.06-.26-.34-.46a2.12,2.12,0,0,0-2.57.11C221.44,216.64,221.35,216.85,221.4,216.9Z"/><path class="cls-7" d="M232.27,217.83a.82.82,0,1,0,1.63.18.54.54,0,0,0,0-.18.81.81,0,0,0-.77-.85h0a.83.83,0,0,0-.83.83Z"/><path class="cls-7" d="M231.12,217.07c.1.11.71-.4,1.59-.44s1.53.42,1.62.3-.06-.26-.34-.47a2.15,2.15,0,0,0-1.3-.37,2.11,2.11,0,0,0-1.27.49C231.16,216.81,231.07,217,231.12,217.07Z"/><path class="cls-7" d="M227.82,224.62a4.59,4.59,0,0,0-1.43-.22c-.22,0-.43-.06-.47-.22a1.27,1.27,0,0,1,.13-.72c.21-.59.42-1.2.64-1.85a33.93,33.93,0,0,0,1.41-4.84,33,33,0,0,0-1.77,4.71c-.21.65-.41,1.27-.61,1.87a1.44,1.44,0,0,0-.1.94.58.58,0,0,0,.38.34,1.21,1.21,0,0,0,.38,0A5.34,5.34,0,0,0,227.82,224.62Z"/><path class="cls-15" d="M227.39,235.76a15.7,15.7,0,0,0,8.48-2.76s-2,4.76-8.37,4.38Z"/><path class="cls-7" d="M259.2,221.61a3.29,3.29,0,0,1-1.25,0c-.74-1.15-2.07-2-3.06-3.07a5.14,5.14,0,0,1,.24-2.85,11.84,11.84,0,0,0,.46-1.54,3.14,3.14,0,0,0-.09-1.77,4.77,4.77,0,0,0-2.57-2.35c-.88-1.22-2.49-1.79-3.61-2.84a8.4,8.4,0,0,1-.5-1.76,11.9,11.9,0,0,0-.77-2.88,5.64,5.64,0,0,0-1.66-2,5.82,5.82,0,0,0-2.82-1.16,7.8,7.8,0,0,0-2.3-.77,8,8,0,0,0-6.72,2.19,13.71,13.71,0,0,0-10.62,1.64,8,8,0,0,0-3.36,3.39,10.47,10.47,0,0,0-.63,4.26v3.1a1,1,0,0,0,.74,1.2.94.94,0,0,0,.55,0l4.79.18a1.73,1.73,0,0,0,.95-.14,1.68,1.68,0,0,0,.75-1.52v-1.64q.24.94.57,1.86a2.43,2.43,0,0,0,1,1.66,2.84,2.84,0,0,0,1.38.23h2.07a1.61,1.61,0,0,0,1-.25,1.59,1.59,0,0,0,.37-1.53,11.08,11.08,0,0,1-.33-2.14c.62,1.21.92,2.73,1.68,2.93a5.16,5.16,0,0,0,2.31-.16c.77-.24,1.31-.44,1.87-.62a5.16,5.16,0,0,1-.23.94c-.58,1.57-1.89,3.08-1.44,4.69s2.07,2.18,2.91,3.44a5.48,5.48,0,0,1,.18,4.79,48,48,0,0,0-1.77,4.63c-.37,1.62-.11,3.54,1.22,4.54a6,6,0,0,0,3.65.82l11.62.11A6.46,6.46,0,0,0,258,237a2.18,2.18,0,0,0,1.47-1.56,2.73,2.73,0,0,0-1.06-2.31,7.48,7.48,0,0,1-1.77-2c-.61-1.31,0-2.84.66-4.12s1.46-2.64,1.21-4.06a3.2,3.2,0,0,0-.34-1,3.51,3.51,0,0,0,1.12-.12,3.2,3.2,0,0,0,.93-.45c.18-.15.26-.24.25-.25A5.17,5.17,0,0,1,259.2,221.61Zm-14.86-21.77a5.78,5.78,0,0,1,1.82,1,5.22,5.22,0,0,1,1.5,1.92,12.25,12.25,0,0,1,.69,2.79,3.64,3.64,0,0,0,.12.61c-.56-1-.84-2.12-1.33-3.15A7.94,7.94,0,0,0,244.34,199.84Zm9,11a3.67,3.67,0,0,1,1.67,1.72,4.7,4.7,0,0,1-.34,3,5.09,5.09,0,0,0-.32,2.35,3.7,3.7,0,0,1-.5-.89c-.76-1.91.19-4.25-.5-6.15Z"/><path class="cls-15" d="M228.14,226.92a1.72,1.72,0,0,1,1-1.25,1.32,1.32,0,0,1,1.13,0,1,1,0,0,1,.52,1,1.12,1.12,0,0,1-.91.84,3,3,0,0,1-1.3-.09.82.82,0,0,1-.34-.12.32.32,0,0,1-.14-.31"/><path class="cls-7" d="M230.27,224.58c.07,0,.18.24.15.67a2.34,2.34,0,0,1-.72,1.48,2.3,2.3,0,0,1-1.53.64c-.43,0-.67-.12-.65-.19a4,4,0,0,0,1.82-.82A4.05,4.05,0,0,0,230.27,224.58Z"/><path class="cls-14" d="M215.09,247.83s-19.37,16.85-19.87,14.8c-2.73-11.15-2-25.38-1.52-30.83.3-.47.65-1,1.06-1.55a7.16,7.16,0,0,1,1.74-1.69,11,11,0,0,1,2.63-1.48.93.93,0,0,0,.26-1.73c-.74-.29-3.25.35-5.55,2.27s-1.36-2.64-1.05-4.3,1-6.87.59-7.36c-.64-.72-1.55-.14-1.82,1.53s-1.44,6.64-2.32,6.45.83-8.65.83-8.65.66-1.76-.34-2c-1.82-.44-3,8.68-3,9.55-.06.61-1,.44-.92-.2s1.89-8.42,0-8.89c-1.41-.36-1,7.5-2.27,8.92s.3-6-1.06-6.29c-.51-.11-.91-.12-1.19,4.26a95.84,95.84,0,0,0,.38,10.58c-1.2,12-3.55,48.85,13.08,47.58,19.63-1.5,24.15-17,24.15-17Z"/><path class="cls-8" d="M269.35,274.58,266,257.73c-2.47-13.79-21.8-14.74-21.8-14.74L229,242.75s-10.1-.33-18.19,6.31-13.51,11.73-13.51,11.73L210,275.47l7.52-5s-2.71,4.88-2.26,9,4.63,7.06,4.63,7.06l-3.16,33.87,49.54-2-6.38-43.91Z"/><path class="cls-4" d="M267,261.44a8.22,8.22,0,0,1-.58,1.24,14,14,0,0,1-2.42,3.1,13.62,13.62,0,0,1-5.33,3.18,14.11,14.11,0,0,1-8.19.09,11.62,11.62,0,0,1-4.27-2.25,6.84,6.84,0,0,1-2.5-4.56,5.22,5.22,0,0,1,2.57-4.87,3.78,3.78,0,0,1,3-.2,5,5,0,0,1,2.42,1.91,5.63,5.63,0,0,1,1,3,7.11,7.11,0,0,1-.68,3.14,12.33,12.33,0,0,1-4.29,4.88,17.39,17.39,0,0,1-13.1,2.82,15.53,15.53,0,0,1-6.38-2.74,11.5,11.5,0,0,1-4.07-5.36,9.13,9.13,0,0,1,.21-6.49,6.42,6.42,0,0,1,4.79-3.87,4.3,4.3,0,0,1,4.81,3,3.91,3.91,0,0,1-.5,2.87,5.48,5.48,0,0,1-2,2,8.08,8.08,0,0,1-5.21.67,26.55,26.55,0,0,1-4.64-1.27,15.79,15.79,0,0,1-6.87-4.48,9.6,9.6,0,0,1-2.23-5.76,7.24,7.24,0,0,1,.86-3.81,4.45,4.45,0,0,1,.82-1.1,7.76,7.76,0,0,0-.73,1.15,7.4,7.4,0,0,0-.74,3.76,9.38,9.38,0,0,0,2.24,5.57,15.69,15.69,0,0,0,6.78,4.33,25.64,25.64,0,0,0,4.57,1.21,7.61,7.61,0,0,0,4.9-.63,5.07,5.07,0,0,0,1.84-1.81,3.51,3.51,0,0,0,.45-2.55,3.85,3.85,0,0,0-4.3-2.67,6,6,0,0,0-4.4,3.61,8.53,8.53,0,0,0-.18,6.11,10.71,10.71,0,0,0,3.89,5.11,14.86,14.86,0,0,0,6.16,2.65,17,17,0,0,0,12.72-2.72,12,12,0,0,0,4.13-4.68,6.69,6.69,0,0,0,.64-2.92,5.1,5.1,0,0,0-.92-2.72,4.56,4.56,0,0,0-2.17-1.73,3.18,3.18,0,0,0-2.63.16,4.81,4.81,0,0,0-2.35,4.43,6.38,6.38,0,0,0,2.34,4.29,11.29,11.29,0,0,0,4.11,2.2,14,14,0,0,0,8,0,13.79,13.79,0,0,0,5.27-3.06,14.57,14.57,0,0,0,2.47-3c.22-.39.39-.68.5-.89Z"/><path class="cls-4" d="M264.92,312.91a.9.9,0,0,1-.27.11c-.18.07-.45.18-.81.29a14.45,14.45,0,0,1-3.26.56,15.26,15.26,0,0,1-5.2-.6,14.75,14.75,0,0,1-6-3.45,15.34,15.34,0,0,1-4.66-11.93,10.34,10.34,0,0,1,1.38-4.82,5.63,5.63,0,0,1,1.88-1.88,4.82,4.82,0,0,1,2.65-.66,3.61,3.61,0,0,1,2.55,1.17,4.12,4.12,0,0,1,1,2.7,5,5,0,0,1-.83,2.76,7.38,7.38,0,0,1-2.07,2.06,14.22,14.22,0,0,1-5.46,2.09,16.63,16.63,0,0,1-11.13-2.24,14.6,14.6,0,0,1-4.07-3.68,10.21,10.21,0,0,1-2.1-4.82,6.2,6.2,0,0,1,1.36-4.81,4.61,4.61,0,0,1,2-1.4,4.3,4.3,0,0,1,4.38,1.11,3.19,3.19,0,0,1,.84,2.07,4.7,4.7,0,0,1-1.81,3.62,8.58,8.58,0,0,1-3.24,1.78,12.6,12.6,0,0,1-3.22.64,12.33,12.33,0,0,1-5.17-.8,11.06,11.06,0,0,1-2.87-1.64c-.31-.22-.51-.43-.66-.55s-.21-.2-.2-.21.31.24.92.68a12.25,12.25,0,0,0,2.88,1.53,12.55,12.55,0,0,0,5.08.7,13,13,0,0,0,3.14-.66,8.65,8.65,0,0,0,3.1-1.74,4.37,4.37,0,0,0,1.65-3.33,3.14,3.14,0,0,0-2.54-2.84,3.68,3.68,0,0,0-2.13.06,4.1,4.1,0,0,0-1.82,1.28,5.81,5.81,0,0,0-1.24,4.45,9.6,9.6,0,0,0,2,4.58,14,14,0,0,0,3.94,3.54,16.13,16.13,0,0,0,10.77,2.17,13.87,13.87,0,0,0,5.26-2,5.39,5.39,0,0,0,2.68-4.39,3.56,3.56,0,0,0-.82-2.36,3.16,3.16,0,0,0-2.19-1,4.32,4.32,0,0,0-2.38.58,5.17,5.17,0,0,0-1.73,1.72,10,10,0,0,0-1.32,4.59,15.55,15.55,0,0,0,.41,4.56,15.06,15.06,0,0,0,4,7.08,14.46,14.46,0,0,0,5.82,3.43,15.31,15.31,0,0,0,8.35.21A10.16,10.16,0,0,1,264.92,312.91Z"/><path class="cls-7" d="M248.15,256.7a4.07,4.07,0,0,1,.27,1.08l.58,3c.51,2.62,1.17,6,1.89,9.76s1.35,7.27,1.75,9.79c.19,1.25.34,2.28.42,3a4.14,4.14,0,0,1,.06,1.11,4.29,4.29,0,0,1-.26-1.07l-.59-3c-.51-2.62-1.16-6-1.89-9.76s-1.35-7.27-1.74-9.78c-.2-1.26-.34-2.28-.42-3A4.91,4.91,0,0,1,248.15,256.7Z"/><path class="cls-7" d="M269.66,274.75a82.19,82.19,0,0,1-9.15.29,77.61,77.61,0,0,1-9.15-.23,82.19,82.19,0,0,1,9.15-.29A77.61,77.61,0,0,1,269.66,274.75Z"/><path class="cls-7" d="M210,275.47a90.93,90.93,0,0,1-6.3-7.29,85.15,85.15,0,0,1-5.89-7.63,91.07,91.07,0,0,1,6.3,7.3A90.46,90.46,0,0,1,210,275.47Z"/><path class="cls-7" d="M242.84,243.08a10.38,10.38,0,0,1-2.29.26c-1.42.08-3.38.13-5.55.1s-4.12-.15-5.54-.27a9.73,9.73,0,0,1-2.28-.33,11.05,11.05,0,0,1,2.3,0L235,243l5.53,0A11,11,0,0,1,242.84,243.08Z"/><path class="cls-7" d="M215.39,274.86a8.66,8.66,0,0,1,.87-2l1.08-2.15a4,4,0,0,0,.75-2.6c-.37-2-.73-3.9-.94-5.25a10.16,10.16,0,0,1-.24-2.2,8.77,8.77,0,0,1,.6,2.13c.31,1.34.72,3.16,1.09,5.25a2.59,2.59,0,0,1-.18,1.6,14.4,14.4,0,0,1-.66,1.3c-.42.74-.81,1.44-1.17,2.09A9.62,9.62,0,0,1,215.39,274.86Z"/><path class="cls-8" d="M175.27,430.48V420.17l18.47-.13.16,15.42-1.15.09c-5.1.33-25.93,1-29.35-.09C159.54,434.28,175.27,430.48,175.27,430.48Z"/><path class="cls-7" d="M162.91,434.51c0,.18,6.91.32,15.44.32s15.43-.14,15.43-.32-6.91-.31-15.43-.31S162.91,434.34,162.91,434.51Z"/><path class="cls-7" d="M174.89,432.58c.15-.08,0-.62-.37-1.16s-.88-.82-1-.7.13.57.49,1.07S174.74,432.66,174.89,432.58Z"/><path class="cls-7" d="M173.71,433.26c.16-.06.08-.67-.28-1.31s-.84-1-1-.93.1.64.43,1.24S173.55,433.32,173.71,433.26Z"/><path class="cls-7" d="M188.27,434.44c.07.05.34-.22.74-.67a12.4,12.4,0,0,1,1.62-1.62,4.35,4.35,0,0,1,2-.88c.56-.07.93,0,1-.08s-.32-.32-1-.36a3.6,3.6,0,0,0-2.37.82,6.61,6.61,0,0,0-1.59,1.86C188.27,434,188.15,434.4,188.27,434.44Z"/><path class="cls-7" d="M174.84,430.64c-.09.15.22.51.75.7s1,.13,1,0-.35-.38-.81-.55S174.93,430.49,174.84,430.64Z"/><path class="cls-7" d="M175.13,429.65c0,.17.47.32,1.1.33s1.12-.13,1.1-.3-.5-.32-1.1-.33S175.14,429.48,175.13,429.65Z"/><path class="cls-8" d="M214.27,430.48V420.17l18.47-.13.16,15.42-1.15.09c-5.09.33-25.93,1-29.35-.09C198.54,434.28,214.27,430.48,214.27,430.48Z"/><path class="cls-7" d="M201.92,434.51c0,.18,6.91.32,15.43.32s15.44-.14,15.44-.32-6.91-.31-15.44-.31S201.92,434.34,201.92,434.51Z"/><path class="cls-7" d="M213.89,432.58c.16-.08,0-.62-.37-1.16s-.88-.82-1-.7.13.57.49,1.07S213.74,432.66,213.89,432.58Z"/><path class="cls-7" d="M212.72,433.26c.16-.06.07-.67-.29-1.31s-.84-1-1-.93.1.64.43,1.24S212.55,433.32,212.72,433.26Z"/><path class="cls-7" d="M227.27,434.44c.07.05.35-.22.75-.67a11.28,11.28,0,0,1,1.62-1.62,4.25,4.25,0,0,1,2-.88c.56-.07.93,0,1-.08s-.31-.32-1-.36a3.6,3.6,0,0,0-2.37.82,6.75,6.75,0,0,0-1.59,1.86C227.27,434,227.15,434.4,227.27,434.44Z"/><path class="cls-7" d="M213.84,430.64c-.09.15.22.51.75.7s1,.13,1,0-.35-.38-.81-.55S213.93,430.49,213.84,430.64Z"/><path class="cls-7" d="M214.13,429.65c0,.17.47.32,1.1.33s1.12-.13,1.11-.3-.51-.32-1.1-.33S214.14,429.48,214.13,429.65Z"/><path class="cls-14" d="M271.42,288.09c-1-8.09-2.07-13.31-2.07-13.31l-17.61.26s1.58,8.9,1.09,11.28c-.42,2.07-34.41,3.45-43.27,3.59-.52-.4-1.29.27-2-.33a6.94,6.94,0,0,1-1.51-1.86,10.78,10.78,0,0,1-1.18-2.72.91.91,0,0,0-1-.82.92.92,0,0,0-.69.43c-.36.76,0,3.29,1.72,5.73s-2.72,1.17-4.34.74-6.67-1.53-7.2-1.13c-.76.6-.28,1.55,1.34,1.94s6.41,1.92,6.15,2.79-8.45-1.47-8.45-1.47-1.68-.78-2,.21c-.61,1.78,8.28,3.58,9.13,3.73.59.11.34,1.06-.29.91s-8.12-2.5-8.76-.7c-.48,1.39,7.3,1.56,8.59,2.93s-5.89-.74-6.3.6c-.15.5,2.83.74,7.12,1.34a108.86,108.86,0,0,0,13.27.47c10,.55,45.15,1.28,52.67.74C274.59,302.81,271.75,290.87,271.42,288.09Z"/><path class="cls-7" d="M190.27,316.6a263.3,263.3,0,0,1,45.62-.57l-19.28,27.68-17.4.07-3.64,85.08h-23l2.2-94.89A17.93,17.93,0,0,1,190.27,316.6Z"/><path class="cls-12" d="M190.27,316.6a263.3,263.3,0,0,1,45.62-.57l-19.28,27.68-17.4.07-3.64,85.08h-23l2.2-94.89A17.93,17.93,0,0,1,190.27,316.6Z"/><path class="cls-7" d="M232.66,345.9s34.47,2.34,33.61-28.61c0,0-47.93-5.84-57.11,4-7.7,8.29-.66,107.52-.66,107.52l25.63-1.25"/><path class="cls-11" d="M239.83,315.59a3.86,3.86,0,0,1-.68,0l-2,.08c-1.69.08-4.13.22-7.15.43l-4.93.39c-1.77.16-3.67.32-5.61.66a36.74,36.74,0,0,0-6,1.64,8.6,8.6,0,0,0-5,4,20.93,20.93,0,0,0-1.71,6.4,61.88,61.88,0,0,0-.43,6.23c-.09,4-.28,7.61-.41,10.63s-.22,5.41-.29,7.16a15.53,15.53,0,0,1-.07,2,3.82,3.82,0,0,1-.05.68,2.58,2.58,0,0,1,0-.68v-2c0-1.7,0-4.15.12-7.17s.23-6.63.3-10.63a57.59,57.59,0,0,1,.41-6.29,20.83,20.83,0,0,1,1.75-6.57,7,7,0,0,1,2.26-2.67,13.17,13.17,0,0,1,3-1.56,36.61,36.61,0,0,1,6.1-1.64c2-.34,3.9-.47,5.67-.62s3.44-.24,5-.33c3-.16,5.47-.24,7.17-.26h2A2.57,2.57,0,0,1,239.83,315.59Z"/><path class="cls-11" d="M234.33,421.15a3.37,3.37,0,0,1-1,.15c-.65.07-1.61.14-2.79.23-2.35.16-5.61.36-9.21.54s-6.86.32-9.22.39l-2.8.06a4.18,4.18,0,0,1-1,0,3.73,3.73,0,0,1,1-.16c.66-.06,1.61-.14,2.79-.22,2.35-.17,5.61-.36,9.21-.54s6.86-.32,9.22-.39c1.18,0,2.14-.06,2.8-.06A4.18,4.18,0,0,1,234.33,421.15Z"/><path class="cls-11" d="M196.36,422.3c0,.15-5.35.26-12,.26s-12-.11-12-.26,5.36-.26,12-.26S196.36,422.16,196.36,422.3Z"/><path class="cls-11" d="M207,326.79a.71.71,0,0,1-.29,0l-.85-.07c-.74-.06-1.84-.15-3.26-.22a46.59,46.59,0,0,0-5.17,0,28.66,28.66,0,0,0-3.2.32,10.23,10.23,0,0,0-3.37,1.08,3,3,0,0,0-1.26,1.3,14.19,14.19,0,0,0-.65,1.9,33.33,33.33,0,0,0-.83,4.21c-.29,3-.55,6.16-.79,9.51-.48,6.7-.83,14.08-1.11,21.84-.52,15.51-1.11,29.56-1.53,39.72-.22,5.06-.4,9.16-.53,12-.07,1.39-.13,2.48-.17,3.27a3.48,3.48,0,0,1-.06.85,1.41,1.41,0,0,1,0,.29,1.41,1.41,0,0,1,0-.29v-.86c0-.78,0-1.88.08-3.27.08-2.88.21-7,.36-12,.36-10.2.85-24.23,1.38-39.73.28-7.76.65-15.15,1.15-21.86.25-3.33.53-6.51.84-9.52a31.1,31.1,0,0,1,.88-4.27,12.17,12.17,0,0,1,.68-1.95,3.26,3.26,0,0,1,1.42-1.45,10.57,10.57,0,0,1,3.51-1.1,27.06,27.06,0,0,1,3.24-.28,47.32,47.32,0,0,1,5.19.11c1.42.1,2.52.22,3.27.32l.84.12Z"/><path class="cls-11" d="M260.52,316.69a1.09,1.09,0,0,1,0,.36,3.19,3.19,0,0,1-.13,1,11.34,11.34,0,0,1-1.39,3.74,11.67,11.67,0,0,1-4.58,4.32,11.46,11.46,0,0,1-3.78,1.21,38.74,38.74,0,0,1-4.44.13H227.49a7.56,7.56,0,0,0-6.84,5,8.42,8.42,0,0,0-.46,3.11v17.2c0,18.88-.06,36-.08,48.38,0,6.17-.06,11.17-.08,14.67v5.35a2,2,0,0,1,0-.35v-1c0-.94,0-2.28-.05-4,0-3.5,0-8.5-.08-14.67,0-12.4-.05-29.5-.08-48.38V335.69a8.91,8.91,0,0,1,.51-3.28,8.15,8.15,0,0,1,4.29-4.62,7.93,7.93,0,0,1,3-.7h8.64l10.12.05a40.21,40.21,0,0,0,4.39-.09,11.31,11.31,0,0,0,8.23-5.3,11.87,11.87,0,0,0,1.47-3.66c.09-.44.13-.79.17-1A.6.6,0,0,0,260.52,316.69Z"/><path class="cls-11" d="M233,339a14.88,14.88,0,0,1,0,4,15.41,15.41,0,0,1-.49,3.94A30.84,30.84,0,0,1,233,339Z"/><path class="cls-7" d="M89.88,281.89s-1.11-8.83-.24-8.83,1.41,8.83,1.41,8.83H89.59"/><path class="cls-8" d="M92.76,281.89s-1.11-8.83-.23-8.83,1.4,8.83,1.4,8.83H92.47"/><path class="cls-9" d="M92.76,281.89s-1.11-8.83-.23-8.83,1.4,8.83,1.4,8.83H92.47"/><path class="cls-7" d="M97.17,281.89s-1.11-8.83-.23-8.83,1.4,8.83,1.4,8.83H96.88"/><path class="cls-11" d="M94.59,282.36s0-8.9.88-8.79.28,8.94.28,8.94l-1.45-.19"/><path class="cls-8" d="M91.89,281.89s-1.11-8.83-.23-8.83,1.4,8.83,1.4,8.83H91.6"/><path class="cls-10" d="M91.89,281.89s-1.11-8.83-.23-8.83,1.4,8.83,1.4,8.83H91.6"/><polygon class="cls-8" points="89.7 295.79 88.23 281.89 100.01 281.89 100.01 295.79 89.7 295.79"/><polygon class="cls-7" points="340.17 295.84 79.88 295.84 79.88 302.79 93.8 302.79 86.59 435.43 90.56 435.43 97.77 302.79 325.97 302.79 332.12 435.42 336.51 435.65 329.94 302.79 340.17 302.79 340.17 295.84"/><polygon class="cls-7" points="165.1 254.79 179.53 296.97 244.89 296.97 244.4 294.8 217.98 293.98 205.8 254.77 165.1 254.79"/><path class="cls-4" d="M194.06,274.6c.43,1.73-.31,3.43-1.66,3.79s-2.78-.75-3.21-2.48.31-3.42,1.65-3.78S193.63,272.88,194.06,274.6Z"/><path class="cls-8" d="M320.52,283a6,6,0,0,0-4-1.17v-1.26H294.27s-.69,14.61,10.49,15.12c5,.23,7.88-2,9.52-4.83a11.72,11.72,0,0,0,2.51.3,5.74,5.74,0,0,0,3.48-1,4.39,4.39,0,0,0,1.66-3.75A4.29,4.29,0,0,0,320.52,283ZM319,288.43a5.32,5.32,0,0,1-3.74.4,19.84,19.84,0,0,0,1.08-4.81,4.28,4.28,0,0,1,2.77.64,2.21,2.21,0,0,1,.67,1.77,2.3,2.3,0,0,1-.78,1.95Z"/><path class="cls-7" d="M314.61,279a3.16,3.16,0,0,1-.53-.62,6.07,6.07,0,0,1-.91-2.16,6.21,6.21,0,0,1,.33-3.69,12.12,12.12,0,0,1,3.1-3.8,9.09,9.09,0,0,0,2.8-5,8.62,8.62,0,0,0-1.19-6.34,8.92,8.92,0,0,0-2.46-2.55,13.34,13.34,0,0,0-3.42-1.54,10.23,10.23,0,0,1-3.61-1.81,5.29,5.29,0,0,1-1.28-1.69,3.32,3.32,0,0,1-.27-2.17.53.53,0,0,1,.09-.3l.33.33a3.41,3.41,0,0,0-2,3,6.86,6.86,0,0,0,.82,3.66c.55,1.15,1.23,2.24,1.73,3.4a7.37,7.37,0,0,1,.69,3.67,5.21,5.21,0,0,1-1.64,3.15,10.38,10.38,0,0,1-2.78,1.85,57.87,57.87,0,0,0-5.37,2.31,7.49,7.49,0,0,0-3.12,3.46,8.43,8.43,0,0,0-.75,3.49,9.62,9.62,0,0,0,.58,3,.81.81,0,0,1-.1-.18,3,3,0,0,1-.24-.56,7.1,7.1,0,0,1-.44-2.28,8.45,8.45,0,0,1,.69-3.61,7.73,7.73,0,0,1,3.19-3.66,52.64,52.64,0,0,1,5.38-2.38,9.85,9.85,0,0,0,2.64-1.79,4.74,4.74,0,0,0,1.48-2.88,6.69,6.69,0,0,0-.67-3.41c-.48-1.12-1.16-2.2-1.73-3.38a7.31,7.31,0,0,1-.87-3.94,4.76,4.76,0,0,1,.68-2,3.26,3.26,0,0,1,1.68-1.38l.47-.17-.14.5-.07.25a3.6,3.6,0,0,0,1.38,3.35,10.07,10.07,0,0,0,3.43,1.72,14,14,0,0,1,3.54,1.61,9.26,9.26,0,0,1,2.58,2.71,9,9,0,0,1,1.21,6.68,9.58,9.58,0,0,1-3,5.14,11.9,11.9,0,0,0-3.09,3.64,6.14,6.14,0,0,0-.4,3.54A6.84,6.84,0,0,0,314.61,279Z"/><polygon class="cls-7" points="110.33 259.48 110.2 249.92 143.7 252.76 144.66 261.3 110.33 259.48"/><path class="cls-11" d="M114,259.68a42.14,42.14,0,0,1-.37-9.43,42.08,42.08,0,0,1,.37,9.43Z"/><path class="cls-11" d="M115.27,250.35a21.77,21.77,0,0,1,.36,4.7,20.62,20.62,0,0,1-.16,4.71,21.77,21.77,0,0,1-.36-4.7A21.21,21.21,0,0,1,115.27,250.35Z"/><path class="cls-4" d="M118.33,254.56c5.84.65,12.7,1,18.64,1.54"/><path class="cls-11" d="M137,256.1a13.94,13.94,0,0,1-2.74,0c-1.69-.09-4-.23-6.6-.42s-4.91-.41-6.59-.62a12.39,12.39,0,0,1-2.71-.46,15.7,15.7,0,0,1,2.74.09l6.59.47c2.58.19,4.91.39,6.59.57A13.8,13.8,0,0,1,137,256.1Z"/><path class="cls-11" d="M139.42,261a35.08,35.08,0,0,1-.42-8.56,35.42,35.42,0,0,1,.42,8.56Z"/><path class="cls-11" d="M141.48,261.13a18.65,18.65,0,0,1-.68-4.26,17.76,17.76,0,0,1-.16-4.31,18.65,18.65,0,0,1,.68,4.26A18.29,18.29,0,0,1,141.48,261.13Z"/><path class="cls-4" d="M123.27,256.7c3.69.25,6.5.44,9.44.51"/><path class="cls-11" d="M132.74,257.21a22,22,0,0,1-4.73,0,21.37,21.37,0,0,1-4.71-.51,22,22,0,0,1,4.73,0A20.78,20.78,0,0,1,132.74,257.21Z"/><polygon class="cls-8" points="116.81 295.96 115.9 286.44 149.52 286.5 151.36 295.84 116.81 295.96"/><polygon class="cls-10" points="116.81 295.96 115.9 286.44 149.52 286.5 151.36 295.84 116.81 295.96"/><rect class="cls-7" x="133.26" y="280.52" width="1.72" height="21.03" transform="translate(-157.15 424.65) rotate(-89.9)"/><polygon class="cls-7" points="112.07 287.25 111.26 277.72 144.88 278.14 146.45 286.58 112.07 287.25"/><polygon class="cls-4" points="111.37 279.02 111.9 285.45 144.6 285.12 143.56 279.23 111.37 279.02"/><path class="cls-7" d="M141.84,281.86a4.67,4.67,0,0,1-1.18.09h-3.22c-2.72,0-6.47,0-10.61-.1s-7.89-.16-10.61-.26l-3.21-.13a5.83,5.83,0,0,1-1.18-.12,4.67,4.67,0,0,1,1.18-.09h3.22c2.71,0,6.46,0,10.61.1s7.89.16,10.61.26l3.21.13A5.83,5.83,0,0,1,141.84,281.86Z"/><path class="cls-7" d="M141.84,282.68a5.92,5.92,0,0,1-1.19.11l-3.24.13c-2.73.09-6.51.17-10.68.23s-8,.09-10.69.08H112.8a5.91,5.91,0,0,1-1.19-.08,4.76,4.76,0,0,1,1.19-.12l3.24-.13c2.73-.09,6.51-.17,10.68-.23s7.95-.08,10.69-.07h3.24A4.74,4.74,0,0,1,141.84,282.68Z"/><polygon class="cls-11" points="112.57 278.15 111.94 268.61 145.55 269.67 146.95 278.15 112.57 278.15"/><polygon class="cls-4" points="113.9 276.96 146.61 276.49 145.7 270.55 113.29 269.95 113.9 276.96"/><polygon class="cls-8" points="113.49 268.8 113.18 259.25 146.73 261.43 147.85 269.95 113.49 268.8"/><rect class="cls-7" x="127.25" y="251.81" width="1.72" height="21.07" transform="translate(-141.44 374.52) rotate(-86.57)"/><path class="cls-7" d="M146,273a6.09,6.09,0,0,1-1.28.11l-3.5.09c-3,.06-7,.11-11.54.13s-8.59,0-11.55,0l-3.49-.06a7,7,0,0,1-1.29-.1,6.09,6.09,0,0,1,1.28-.11l3.5-.09c3-.06,7-.11,11.55-.13s8.59,0,11.54,0l3.5.07A6.83,6.83,0,0,1,146,273Z"/><path class="cls-7" d="M146.42,274.84a5.65,5.65,0,0,1-1.3.09H141.6c-3,0-7.09,0-11.63-.08s-8.64-.15-11.62-.24l-3.52-.13a5.59,5.59,0,0,1-1.29-.12,7,7,0,0,1,1.29-.08h3.52c3,0,7.09,0,11.63.09s8.65.15,11.63.23l3.52.14A7,7,0,0,1,146.42,274.84Z"/><path class="cls-2" d="M296.27,104.19l-.09-.09a1.35,1.35,0,0,0-1.88,0l-2.76,2.76H289.7a1.3,1.3,0,0,0,.14-.58,1.34,1.34,0,0,0-1.33-1.28h-4.77a.71.71,0,0,0-.5.21l-2.8,2.8a1,1,0,0,0-1.15.15l-1.38,1.38a1,1,0,0,0,0,1.36l2.5,2.51h.2l.46-.18c.06,0,.08-.14,0-.2l-2.66-2.65a.23.23,0,0,1,0-.31l1.38-1.38a.21.21,0,0,1,.3,0h0l4.23,4.23a.22.22,0,0,1,0,.3L283,114.61a.23.23,0,0,1-.31,0l-.49-.5H282l-.49.16a.12.12,0,0,0,0,.17s0,0,0,0l.68.67a1,1,0,0,0,.68.28,1,1,0,0,0,.68-.28l1.38-1.38a1,1,0,0,0,.19-1.06L286.7,111h4.41a.79.79,0,0,0,.56-.23l4.6-4.69a1.32,1.32,0,0,0,0-1.87l0,0m-.5,1.37-4.66,4.67h-4.73l-1.78,1.83-3.61-3.6,2.75-2.76h4.77a.58.58,0,0,1,0,1.16h-2.38v.75h5.72l3-3a.58.58,0,0,1,.82,0l0,0,.09.08a.59.59,0,0,1,0,.83"/><path class="cls-2" d="M294.16,103V99.8a2.68,2.68,0,0,0-2.68-2.68h-9.09a1.08,1.08,0,0,0-1.12,1v2.53a.09.09,0,0,0,.08.1h0l.38-.14s.09-.05.09-.1V98.2a.52.52,0,0,1,.52-.52h9.09a2.12,2.12,0,0,1,2.12,2.12V103a.53.53,0,0,1-.52.51H284a2.12,2.12,0,0,1-2.12-2,.09.09,0,0,0-.09-.09h0l-.38.14a.09.09,0,0,0-.09.11,2.54,2.54,0,0,0,2.66,2.43H293a1.08,1.08,0,0,0,1.12-1V103"/><path class="cls-2" d="M292.39,100.92l.32.06a.12.12,0,0,0,.12-.12v-.93a1.63,1.63,0,0,0-1.63-1.62h-.93a.12.12,0,0,0-.12.12l.06.32a.12.12,0,0,0,.12.12h.88a1.05,1.05,0,0,1,1.06,1.06h0v.87a.12.12,0,0,0,.12.12"/><path class="cls-2" d="M287.81,98.89h-.32v.29a.9.9,0,0,0-.28.08.86.86,0,0,0-.18.14.69.69,0,0,0-.1.19.89.89,0,0,0,0,.23V100a.33.33,0,0,0,.07.16.57.57,0,0,0,.12.15,1,1,0,0,0,.2.15l.46.27.14.09.09.08v.17a.41.41,0,0,1-.08.24.52.52,0,0,1-.32.07H287v.24h.45V102h.32v-.37a1,1,0,0,0,.29-.1.77.77,0,0,0,.19-.17.51.51,0,0,0,.1-.21.81.81,0,0,0,0-.22.61.61,0,0,0,0-.19.62.62,0,0,0-.07-.19.75.75,0,0,0-.15-.16,1,1,0,0,0-.24-.16l-.41-.24-.14-.08-.09-.07v-.15a.25.25,0,0,1,.09-.19.45.45,0,0,1,.28-.06h.73v-.25h-.53v-.27h0"/><path class="cls-16" d="M117.27,176a1.13,1.13,0,0,1-.64-.2,1,1,0,0,1-.42-.83V173.2a9.8,9.8,0,0,1-2.23.13v1a1,1,0,0,1-.68,1.12l-1.44.44a1.12,1.12,0,0,1-.86-.06,1,1,0,0,1-.56-.91v-2.48a7.69,7.69,0,0,1-2.76-2.13h-1.91a1.12,1.12,0,0,1-1.15-1l-.57-3v-.09a1.12,1.12,0,0,1,1.14-1.08h1.49a6.64,6.64,0,0,1,3-3.61.12.12,0,0,1,.17,0h0l.19.67c0,.07,0,.12-.05.15a5.3,5.3,0,0,0-2.55,3.2h0l0,.13a.45.45,0,0,1-.42.27h-1.8a.24.24,0,0,0-.24.15l.57,3v.08c0,.1.12.18.25.18h2.12a.49.49,0,0,1,.34.15l.14.17a7,7,0,0,0,2.68,2c.32.14.31.36.29,1.28v1.87a.11.11,0,0,0,.06.11.2.2,0,0,0,.15,0l1.46-.45h.07V174c0-1.34,0-1.35.13-1.51a.48.48,0,0,1,.36-.12,8.91,8.91,0,0,0,3-.19.45.45,0,0,1,.39.09.42.42,0,0,1,.16.36v2.25a.11.11,0,0,0,.06.11.19.19,0,0,0,.15,0l1.46-.45h.07v-3a.47.47,0,0,1,.21-.39,5.22,5.22,0,0,0,2.61-4.33c0-3.1-3.22-5.63-7.18-5.63a2.78,2.78,0,0,1-2.53-1.31,1.81,1.81,0,0,0-.62-.61v1.38a.11.11,0,0,1-.1.09l-.71.08a.09.09,0,0,1-.09-.09h0v-2a.45.45,0,0,1,.44-.46h0a2.13,2.13,0,0,1,1.77,1,1.93,1.93,0,0,0,1.82,1c4.46,0,8.08,2.93,8.08,6.53a6.12,6.12,0,0,1-2.82,5v2.55a1,1,0,0,1-.68,1.12l-1.49.46a.81.81,0,0,1-.31,0"/><path class="cls-16" d="M123.49,168.25a1.84,1.84,0,0,1-1.29-.54,2.16,2.16,0,0,1-.57-1.55h.9a1.29,1.29,0,0,0,.31.92.89.89,0,0,0,.65.27.83.83,0,0,0,.83-.83h0a.16.16,0,0,1,.17-.15h.56a.18.18,0,0,1,.17.17h0a1.73,1.73,0,0,1-1.73,1.71"/><path class="cls-16" d="M110.41,165.56a.16.16,0,0,1-.11.05h-.77a.16.16,0,0,1-.16-.16v-.7a.16.16,0,0,1,.16-.16h.85a.16.16,0,0,1,.05.11v.7a.16.16,0,0,1-.05.11"/><path class="cls-16" d="M121.06,155.76s-.58-.25-.7-.28-.2.1-.2.21v4.49c0,.12.07.16.2.21s.59.25.7.28.21-.09.21-.21V156c0-.12-.08-.16-.21-.21"/><path class="cls-16" d="M118.4,158.42s-.25-.58-.28-.69.09-.21.21-.21h4.49c.11,0,.16.08.21.21s.24.58.28.69-.1.21-.21.21h-4.49c-.12,0-.16-.07-.21-.21"/><path class="cls-3" d="M305.14,214.4H280a10.7,10.7,0,0,1-10.74-10.66V184.32a.41.41,0,0,1,.41-.41l.13,0,1.49.5a.46.46,0,0,1,.32.44V203.7a8.37,8.37,0,0,0,8.35,8.36h24.55a.44.44,0,0,1,.44.31l.51,1.52a.39.39,0,0,1-.25.49l-.12,0"/><path class="cls-3" d="M282.35,213.26h-3.9V202.65a.34.34,0,0,1,.34-.34H282a.34.34,0,0,1,.34.34h0Z"/><path class="cls-3" d="M289.11,213.26h-3.9v-23a.33.33,0,0,1,.33-.33h3.23a.35.35,0,0,1,.34.33Z"/><path class="cls-3" d="M295.86,213.26H292v-5.72a.33.33,0,0,1,.33-.33h3.23a.33.33,0,0,1,.33.33h0Z"/><path class="cls-3" d="M302.62,213.4h-3.9V200a.34.34,0,0,1,.34-.34h3.21a.34.34,0,0,1,.34.34h0Z"/></g></svg>