<svg xmlns="http://www.w3.org/2000/svg" viewBox="0 0 1024 407.53"><defs><style>.cls-1{fill:#f5f5f5;}.cls-2{fill:#ebebeb;}.cls-3{fill:#e0e0e0;}.cls-10,.cls-4{fill:#fff;}.cls-5{opacity:0.24;}.cls-6{opacity:0.29;}.cls-7{fill:#263238;}.cls-8{fill:#d7282f;}.cls-9{opacity:0.3;}.cls-10{opacity:0.5;}.cls-11{fill:#455a64;}.cls-12,.cls-13{opacity:0.2;}.cls-14{fill:#ffbe9d;}.cls-15{fill:#eb996e;}.cls-16{fill:#e21e30;}</style></defs><title>arteUnoFondo</title><g id="Background_Complete" data-name="Background Complete"><polygon class="cls-1" points="935.84 336.24 935.84 356.99 966.17 356.99 999.64 356.99 999.64 336.24 935.84 336.24"/><polygon class="cls-2" points="933.16 330.44 933.16 336.24 1001.87 336.24 1001.87 330.44 966.17 330.44 933.16 330.44"/><polygon class="cls-3" points="967.51 356.99 999.64 356.99 999.64 336.24 1001.87 336.24 1001.87 330.44 966.17 330.44 966.17 335.7 967.51 356.99"/><rect class="cls-3" x="944.76" y="339.59" width="12.94" height="3.12"/><rect class="cls-3" x="943.09" y="346.61" width="16.61" height="6.59"/><polygon class="cls-1" points="148.59 386.33 148.59 407.07 118.25 407.07 84.79 407.07 84.79 386.33 148.59 386.33"/><polygon class="cls-2" points="151.27 380.53 151.27 386.33 82.56 386.33 82.56 380.53 118.25 380.53 151.27 380.53"/><polygon class="cls-3" points="116.92 407.07 84.79 407.07 84.79 386.33 82.56 386.33 82.56 380.53 118.25 380.53 118.25 385.79 116.92 407.07"/><rect class="cls-3" x="126.73" y="389.67" width="12.94" height="3.12"/><rect class="cls-3" x="124.72" y="396.7" width="16.61" height="6.59" transform="translate(266.05 799.99) rotate(-180)"/><path class="cls-2" d="M1013.64,406.91,1012.12,84h-6.25v63.59H989.72L989.42,84h-6.25v63.59H927.61L927.31,84h-6.25v63.59H905L904.66,84h-6.25V406.91h7.77l-.2-43.34h15.08v43.34h7.78l-.21-43.34h54.54v43.34h7.77l-.2-43.34h15.13v43.34ZM913.11,320.78l-5.59-23.93H919Zm7.95-22.47v56.54l-6.77-29Zm0-82.18-6.77-29,6.77-27.54Zm-1.21,5.19h-14l7.16-29.13Zm-6.74-39.26-6.4-27.41h13.14Zm-1.24,5.06L905.27,214,905,157.72Zm-6.19,112.19,6.19,26.53-6,24.23Zm7.37,31.6,6,25.6H906.76Zm-7.17-41.12,0-.22-.2.05-.29-61.24h15.72v61.41ZM928,228.38h55.18v61.41H928.28Zm69.43-36.19,6.8,29.13h-14ZM990,212.4l-.25-53,6.47,27.69Zm15.85,5.6-7.21-30.87,7.21-29.32Zm0,3.22v.1h-.44Zm0,78.77v53.1l-6.36-27.24Zm-7.54,20.79-5.59-23.93h11.47Zm-.85-138.72-6.4-27.41h13.14Zm8.39,46.32v61.41H991.1l-.05-.22-.66.16-.29-61.35Zm-8.78,97.46-6.41,26.06-.25-54.6Zm1.18,5.07,6,25.6H992Zm-15.1-176.26v66.67H928l-.31-66.67ZM929.6,356.51h-1l-.28-59.66h54.85v59.66Z"/><polygon class="cls-3" points="929.59 221.65 929.59 214.36 981.06 214.36 981.23 221.65 929.59 221.65"/><path class="cls-4" d="M981.09,215.55s-45.65.33-48.61,1c-.64.15-1.28,2.95,0,3.21s48.61.64,48.61.64Z"/><polygon class="cls-2" points="935.57 214.07 935.57 206.78 976.34 206.78 976.47 214.07 935.57 214.07"/><path class="cls-4" d="M976.36,208s-36.16.34-38.5,1c-.51.15-1,2.95,0,3.21s38.5.65,38.5.65Z"/><polygon class="cls-3" points="935.39 206.87 935.39 199.58 976.16 199.58 976.29 206.87 935.39 206.87"/><path class="cls-4" d="M976.18,200.77s-36.16.34-38.5,1c-.51.15-1,3,0,3.21s38.5.64,38.5.64Z"/><rect class="cls-3" x="972.84" y="99.34" width="10.33" height="48.13"/><path class="cls-4" d="M980.26,135.92a2,2,0,1,1-2-2A2.05,2.05,0,0,1,980.26,135.92Z"/><rect class="cls-4" x="976.54" y="112.09" width="3.16" height="19.67"/><rect class="cls-2" x="962.35" y="99.34" width="10.33" height="48.13"/><circle class="cls-4" cx="967.72" cy="135.92" r="2.05"/><rect class="cls-4" x="966.05" y="112.09" width="3.16" height="19.67"/><rect class="cls-1" x="952.36" y="99.34" width="10.33" height="48.13"/><path class="cls-4" d="M959.78,135.92a2,2,0,1,1-2-2A2.05,2.05,0,0,1,959.78,135.92Z"/><rect class="cls-4" x="956.06" y="112.09" width="3.16" height="19.67"/><rect class="cls-3" x="972.84" y="241.79" width="10.33" height="48.13"/><path class="cls-4" d="M980.26,278.37a2,2,0,1,1-2-2A2.05,2.05,0,0,1,980.26,278.37Z"/><rect class="cls-4" x="976.54" y="254.54" width="3.16" height="19.67"/><rect class="cls-2" x="962.35" y="241.79" width="10.33" height="48.13"/><path class="cls-4" d="M969.77,278.37a2,2,0,1,1-2-2A2.05,2.05,0,0,1,969.77,278.37Z"/><rect class="cls-4" x="966.05" y="254.54" width="3.16" height="19.67"/><rect class="cls-1" x="952.36" y="241.79" width="10.33" height="48.13"/><path class="cls-4" d="M959.78,278.37a2,2,0,1,1-2-2A2.05,2.05,0,0,1,959.78,278.37Z"/><rect class="cls-4" x="956.06" y="254.54" width="3.16" height="19.67"/><polygon class="cls-3" points="939.59 146.74 952 104.4 947.72 102.52 934.99 145.21 939.59 146.74"/><polygon class="cls-2" points="647.09 149.2 597.55 149.2 597.55 213.79 647.09 215.03 647.09 149.2"/><polygon class="cls-4" points="643.83 151.49 600.49 151.49 600.49 210.07 643.83 211.54 643.83 151.49"/><polygon class="cls-2" points="636.24 162.14 607.48 161.04 607.48 201.99 636.24 201.99 636.24 162.14"/><polygon class="cls-1" points="607.48 201.99 636.24 180.95 607.48 161.04 607.48 201.99"/><path class="cls-1" d="M688.69,397.43c-1.18-1-3.82-4.21-1.78-7.94.74-1.36,2.33-2,3.76-2.64a15.25,15.25,0,0,0,4.13-2.13c2.24-1.9,2.86-5.05,4.35-7.58,1.71-2.91,4.89-5.08,8.26-4.93,3.85.17,7.07,3.31,8.53,6.88s1.51,7.54,1.53,11.4c0,2.13-.07,4.54-1.65,6s-3.63,1.35-5.6,1.29l-21.07-.65"/><path class="cls-2" d="M725.59,347.4H675.22l9.08,53.86a6,6,0,0,0,4.3,4.79l.17.05.45.12a5.8,5.8,0,0,0,1,.11v.06l.25,0H713a7,7,0,0,0,1.23-.12,6,6,0,0,0,5.1-5.27l4.37-37.11.2-1.47h0l1.73-14.7Zm-9.5,34.36h-5.17l.52-15.63h6Zm1.84-15.63h5L721,381.76h-4.45Zm-14.76,32.95-.32-13.57h7.45l-.46,13.57Zm-8-13.57h7.23l.32,13.57h-6.49Zm.56,13.57h-6.07c-.57-3.66-1.32-8.43-2.13-13.57h7.14Zm-.85-17.32-1.22-15.63h8.29l.37,15.63Zm7.94,0-.37-15.63h8.54l-.52,15.63Zm-.45-19.38L702,347.9h9.57l-.48,14.48Zm-.5,0h-8.51l-1.13-14.48h9.3Zm-9,0h-9c-.31-2-.62-3.89-.89-5.6-.94-5.85-1.29-8-1.49-8.88h10.25Zm.29,3.75,1.23,15.63h-7.45q-.37-2.38-.75-4.8c-.59-3.69-1.17-7.38-1.72-10.83Zm-6.72,15.63h-4.86l-2.64-15.63h5C684.67,371,685.52,376.33,686.38,381.76Zm.59,3.75,2.14,13.57h-4.67l-2.29-13.57Zm23.37,13.57.46-13.57h5l-1.17,13.57Zm1.23-36.7.48-14.48h7l-1.25,14.48ZM681,347.9c.2,1.05,1.12,6.75,2.35,14.48h-5.06l-2.44-14.48Zm38,51.18h-3.89l1.16-13.57h4.33Zm4.33-36.7h-5.07l1.24-14.48H725Z"/><path class="cls-1" d="M578,319.66c.89.15,1.89.38,3,.49s2.35.3,3.68.35,2.74.11,4.23.12a54.32,54.32,0,0,0,19-3.66c1.38-.57,2.7-1.08,3.88-1.68s2.3-1.15,3.28-1.71,1.85-1.1,2.61-1.57,1.41-.9,1.92-1.27l1-.66H574.81V319l.9.2C576.32,319.35,577.08,319.52,578,319.66Z"/><path class="cls-1" d="M605.27,402.93a33.72,33.72,0,0,0-9.74,1.26,25.17,25.17,0,0,0-5.55,2.38h37.4c-3.18-.64-6.56-1.43-10.11-2.16A64.8,64.8,0,0,0,605.27,402.93Z"/><path class="cls-1" d="M651.3,396.82c-4.25-.66-9.37-.16-15,.37a65.93,65.93,0,0,1-9,.24c-3.11-.12-6.31-.47-9.57-.87-6.53-.82-12.75-1.64-18.42-1.4a40.11,40.11,0,0,0-14.59,3.26,41,41,0,0,0-8.75,5.12l-1.15.9v2.13H589.5a22.8,22.8,0,0,1,5.9-2.8,32.59,32.59,0,0,1,9.88-1.42,61.5,61.5,0,0,1,12.12,1.44c4.23.87,8.22,1.86,11.88,2.56l1.24.22h29.76v-6.44A21.17,21.17,0,0,0,651.3,396.82Z"/><path class="cls-1" d="M584.53,398a40,40,0,0,1,14.75-3.43c5.74-.28,12,.54,18.51,1.36,3.26.4,6.45.74,9.53.88a66.6,66.6,0,0,0,8.89-.21c5.66-.49,10.85-1,15.15-.23a21.14,21.14,0,0,1,8.92,3.43v-11.3a27.54,27.54,0,0,0-7.61-1.06c-8.5-.29-19.79,4.34-32.93,4a78.8,78.8,0,0,1-18.19-2.21c-5.5-1.31-10.22-3.2-14.32-4.28a32.32,32.32,0,0,0-9.88-1.37,25.05,25.05,0,0,0-2.54.24v20.34c.3-.26.62-.54,1-.85A39.24,39.24,0,0,1,584.53,398Z"/><path class="cls-1" d="M578.1,346.09c2.27.2,5.4,1.33,9.07,3a53.17,53.17,0,0,0,6.11,2.35,39.85,39.85,0,0,0,7.37,1.37,64.62,64.62,0,0,0,17.16-1.07c6-1.07,11.69-2.57,16.91-3.7a101.59,101.59,0,0,1,14-2.22,49.93,49.93,0,0,1,9.56.16c.81.09,1.48.2,2,.3V331.21l-.89-.71a59.56,59.56,0,0,0-5.87-4.26,20.42,20.42,0,0,0-10-3.32c-4-.13-8.31,1.44-12.49,3.48a99.5,99.5,0,0,0-11.48,6.5c-1.66,1.12-3.43,2.11-4.13,3.69a2,2,0,0,0,.3,2.19,5.61,5.61,0,0,0,1.89,1.3,19.14,19.14,0,0,0,6.94,1.85c1.7.12,2.66,0,2.66.08a2.86,2.86,0,0,1-.68.11,15.86,15.86,0,0,1-2,.06,18.46,18.46,0,0,1-7.11-1.7,5.77,5.77,0,0,1-2.07-1.39,2.54,2.54,0,0,1-.41-2.7c.81-1.84,2.65-2.84,4.29-4a97.13,97.13,0,0,1,11.52-6.58c4.21-2.05,8.6-3.66,12.79-3.49a20.48,20.48,0,0,1,10.22,3.53,48.55,48.55,0,0,1,5.8,4.44l.73.65V318.49a35.08,35.08,0,0,0-20-4.24,31.67,31.67,0,0,0-8.86,2.06,62.46,62.46,0,0,0-8.76,4.47,58.43,58.43,0,0,1-8.89,4.43,33.31,33.31,0,0,1-9.1,1.78c-5.91.34-11.19-.25-15.62-.32a46.93,46.93,0,0,0-10.43.7c-.61.13-1.15.23-1.61.35l-1.16.33a6.57,6.57,0,0,1-1,.25,5.38,5.38,0,0,1,.93-.37l1.15-.39c.46-.14,1-.26,1.6-.41a44.33,44.33,0,0,1,10.5-.91c4.45,0,9.74.56,15.57.19a33.07,33.07,0,0,0,8.93-1.78,57.71,57.71,0,0,0,8.79-4.4,62.48,62.48,0,0,1,8.85-4.5,32.16,32.16,0,0,1,9-2.06,35.64,35.64,0,0,1,15.43,2.22,34.64,34.64,0,0,1,4.63,2.18v-8H620.75l-1.06.86a22.54,22.54,0,0,1-1.87,1.37c-.75.5-1.59,1.11-2.59,1.66s-2.06,1.21-3.27,1.78-2.51,1.17-3.9,1.76a51.88,51.88,0,0,1-19.17,3.7c-1.51,0-2.94,0-4.28-.17s-2.57-.27-3.7-.44-2.13-.4-3-.58a21.51,21.51,0,0,1-2.24-.58l-.84-.26v19.17c.67-.23,1.55-.48,2.62-.75a41.48,41.48,0,0,1,20.45.24,26,26,0,0,1,3,.95,4.5,4.5,0,0,1,1,.47c0,.1-1.58-.41-4.13-1a49.27,49.27,0,0,0-10.11-1.2,48.76,48.76,0,0,0-10.13,1c-1.12.22-2,.44-2.72.6v7.52A10.94,10.94,0,0,1,578.1,346.09Zm52.5-11.74a1.83,1.83,0,0,1,.52-.67,4,4,0,0,1,1.38-.75,30.31,30.31,0,0,1,19.71.8,27.32,27.32,0,0,1,5.38,2.78c.61.38,1,.75,1.33,1s.45.37.43.38a42.24,42.24,0,0,0-7.29-3.72,30.89,30.89,0,0,0-8.66-1.82,30.06,30.06,0,0,0-10.72,1.22,3.34,3.34,0,0,0-1.15.61c-.32.28-.49.62-.37.91.23.63,1.36.69,2.21.89l5.18,1.06,8.76,1.83,5.9,1.28,1.59.38a2,2,0,0,1,.55.18,2.23,2.23,0,0,1-.57-.05l-1.62-.27-5.94-1.09-8.79-1.69-5.18-1c-.46-.1-.89-.16-1.38-.29a1.75,1.75,0,0,1-1.3-1A1.25,1.25,0,0,1,630.6,334.35Zm-37.85,7.39a41.45,41.45,0,0,0,5.09,2.34A37.74,37.74,0,0,0,616,346.19c7.22-.84,13-4.5,17.67-5.53a18,18,0,0,1,5.64-.56,9.9,9.9,0,0,1,1.53.23,1.53,1.53,0,0,1,.51.16c0,.06-.73-.11-2.05-.14a19.07,19.07,0,0,0-5.52.75A65.85,65.85,0,0,0,626,344a37.57,37.57,0,0,1-9.9,2.79,36.82,36.82,0,0,1-18.4-2.32,34.67,34.67,0,0,1-5.06-2.55,13.77,13.77,0,0,1-1.69-1.21A13.4,13.4,0,0,1,592.75,341.74Z"/><path class="cls-1" d="M587.35,384.55c4.14,1,8.88,2.88,14.34,4.15a80.55,80.55,0,0,0,18.06,2.14c13,.33,24.27-4.22,32.93-3.84a27.4,27.4,0,0,1,7.6,1.19V376.1l-2.54.3c-3.64.37-8.64,1.08-14.25,1.2a41.88,41.88,0,0,1-7.88-.56,28.81,28.81,0,0,1-6.21-1.8,20.86,20.86,0,0,1-3.82-2.08,9.83,9.83,0,0,1-.94-.72c-.21-.17-.31-.27-.3-.29a37.65,37.65,0,0,0,5.23,2.68,30.68,30.68,0,0,0,6.13,1.64,45.57,45.57,0,0,0,7.78.5c5.55-.12,10.57-.76,14.21-1l2.59-.19V346.43c-.54-.07-1.22-.15-2-.22a54.35,54.35,0,0,0-9.49,0,108.28,108.28,0,0,0-13.91,2.35c-5.19,1.15-10.85,2.68-16.92,3.75a63.6,63.6,0,0,1-17.33,1,40.75,40.75,0,0,1-7.46-1.45,48.44,48.44,0,0,1-6.14-2.45c-3.65-1.7-6.69-2.87-8.93-3.14a14.74,14.74,0,0,0-3.25-.13V367c.15-.18.32-.37.5-.55,1.65-1.68,4.75-3.21,8.74-4.25s8.91-1.46,14.28-2.15a110.31,110.31,0,0,0,17.11-4.09,126.12,126.12,0,0,1,17.17-4.28,73.07,73.07,0,0,1,14.43-.77,68.28,68.28,0,0,1,9.67,1.13c1.13.22,2,.41,2.59.56a4.62,4.62,0,0,1,.89.25,4.73,4.73,0,0,1-.91-.13c-.6-.11-1.48-.26-2.61-.44a80,80,0,0,0-9.65-.93,76.94,76.94,0,0,0-14.32.9,132.32,132.32,0,0,0-17.08,4.31,105.61,105.61,0,0,1-17.22,4.06c-5.4.67-10.28,1-14.24,2s-7,2.41-8.67,4a7.35,7.35,0,0,0-.68.72V376l.31.16,2.26,1.21a90.54,90.54,0,0,0,8.57,3.83,83.51,83.51,0,0,0,30.29,5.55c12.16.15,22.7-3.61,30.67-4.34a35.39,35.39,0,0,1,9.43.08l1.46.26,1.05.28a5.08,5.08,0,0,1,.86.26,5.2,5.2,0,0,1-.89-.14l-1.06-.22-1.45-.2a37.86,37.86,0,0,0-9.35.12c-3.94.47-8.55,1.54-13.69,2.63a81,81,0,0,1-47.48-3.87,76.32,76.32,0,0,1-8.53-4l-2.2-1.31-.25-.15v7.55a20,20,0,0,1,2.53-.35A31.4,31.4,0,0,1,587.35,384.55ZM611.54,365a67.53,67.53,0,0,0-9.55,5.8,2.14,2.14,0,0,0-1,1.7,1.65,1.65,0,0,0,1.1,1.34,5.49,5.49,0,0,0,3.12.2,5.31,5.31,0,0,1,2.08.09,1.7,1.7,0,0,1,.64.33s-.23-.11-.68-.21a5.71,5.71,0,0,0-2,0,5.79,5.79,0,0,1-3.3-.12,2.05,2.05,0,0,1-1.35-1.65,2.56,2.56,0,0,1,1.17-2.07,63.82,63.82,0,0,1,9.57-6,65.92,65.92,0,0,1,37.82-6.39c1.59.24,3,.43,4.26.73s2.33.48,3.18.76l2,.59a3.64,3.64,0,0,1,.68.24,3.07,3.07,0,0,1-.71-.12l-2-.47c-.86-.24-1.94-.41-3.18-.65s-2.68-.43-4.26-.64a67.87,67.87,0,0,0-37.5,6.47Zm9.25,8.15a6.89,6.89,0,0,1-1.49-.07,2.76,2.76,0,0,1-2-1.31,1.8,1.8,0,0,1-.15-1.55,3.49,3.49,0,0,1,1.11-1.3,24.58,24.58,0,0,1,6.85-4.18,30.73,30.73,0,0,1,9.57-2.2,43.47,43.47,0,0,1,17.53,2.75c2.15.76,3.84,1.5,5,2,.58.27,1,.49,1.32.65s.45.24.44.26a14.44,14.44,0,0,1-1.85-.68c-1.18-.46-2.89-1.13-5-1.84a45.9,45.9,0,0,0-17.34-2.55,31.45,31.45,0,0,0-9.4,2.11,25.28,25.28,0,0,0-6.78,4,3.23,3.23,0,0,0-1,1.11,1.47,1.47,0,0,0,.09,1.23,2.5,2.5,0,0,0,1.72,1.24c1.21.25,1.94.17,1.93.24A1.37,1.37,0,0,1,620.79,373.12Z"/><path class="cls-2" d="M578.06,346.34c2.24.27,5.28,1.44,8.93,3.14a48.44,48.44,0,0,0,6.14,2.45,40.75,40.75,0,0,0,7.46,1.45,63.6,63.6,0,0,0,17.33-1c6.07-1.07,11.73-2.6,16.92-3.75a108.28,108.28,0,0,1,13.91-2.35,54.35,54.35,0,0,1,9.49,0c.82.07,1.5.15,2,.22v-.16c-.53-.1-1.2-.21-2-.3a49.93,49.93,0,0,0-9.56-.16,101.59,101.59,0,0,0-14,2.22c-5.22,1.13-10.88,2.63-16.91,3.7a64.62,64.62,0,0,1-17.16,1.07,39.85,39.85,0,0,1-7.37-1.37,53.17,53.17,0,0,1-6.11-2.35c-3.67-1.66-6.8-2.79-9.07-3a10.94,10.94,0,0,0-3.29.06v.06A14.74,14.74,0,0,1,578.06,346.34Z"/><path class="cls-2" d="M577.89,320c.89.18,1.89.44,3,.58s2.36.35,3.7.44,2.77.14,4.28.17a51.88,51.88,0,0,0,19.17-3.7c1.39-.59,2.72-1.12,3.9-1.76s2.29-1.2,3.27-1.78,1.84-1.16,2.59-1.66a22.54,22.54,0,0,0,1.87-1.37l1.06-.86h-.25l-1,.66c-.51.37-1.14.81-1.92,1.27s-1.6,1.05-2.61,1.57-2.07,1.16-3.28,1.71-2.5,1.11-3.88,1.68a54.32,54.32,0,0,1-19,3.66c-1.49,0-2.91,0-4.23-.12s-2.55-.21-3.68-.35-2.12-.34-3-.49-1.64-.31-2.25-.47l-.9-.2v.18l.84.26A21.51,21.51,0,0,0,577.89,320Z"/><path class="cls-2" d="M640.22,313.67a32.16,32.16,0,0,0-9,2.06,62.48,62.48,0,0,0-8.85,4.5,57.71,57.71,0,0,1-8.79,4.4,33.07,33.07,0,0,1-8.93,1.78c-5.83.37-11.12-.17-15.57-.19a44.33,44.33,0,0,0-10.5.91c-.6.15-1.14.27-1.6.41l-1.15.39a5.38,5.38,0,0,0-.93.37,6.57,6.57,0,0,0,1-.25l1.16-.33c.46-.12,1-.22,1.61-.35a46.93,46.93,0,0,1,10.43-.7c4.43.07,9.71.66,15.62.32a33.31,33.31,0,0,0,9.1-1.78,58.43,58.43,0,0,0,8.89-4.43,62.46,62.46,0,0,1,8.76-4.47,31.67,31.67,0,0,1,8.86-2.06,35.08,35.08,0,0,1,20,4.24v-.42a34.64,34.64,0,0,0-4.63-2.18A35.64,35.64,0,0,0,640.22,313.67Z"/><path class="cls-2" d="M653.75,325.87a20.48,20.48,0,0,0-10.22-3.53c-4.19-.17-8.58,1.44-12.79,3.49a97.13,97.13,0,0,0-11.52,6.58c-1.64,1.14-3.48,2.14-4.29,4a2.54,2.54,0,0,0,.41,2.7,5.77,5.77,0,0,0,2.07,1.39,18.46,18.46,0,0,0,7.11,1.7,15.86,15.86,0,0,0,2-.06,2.86,2.86,0,0,0,.68-.11c0-.06-1,0-2.66-.08a19.14,19.14,0,0,1-6.94-1.85,5.61,5.61,0,0,1-1.89-1.3,2,2,0,0,1-.3-2.19c.7-1.58,2.47-2.57,4.13-3.69A99.5,99.5,0,0,1,631,326.4c4.18-2,8.46-3.61,12.49-3.48a20.42,20.42,0,0,1,10,3.32,59.56,59.56,0,0,1,5.87,4.26l.89.71V331l-.73-.65A48.55,48.55,0,0,0,653.75,325.87Z"/><path class="cls-2" d="M631.87,336.27c.49.13.92.19,1.38.29l5.18,1,8.79,1.69,5.94,1.09,1.62.27a2.23,2.23,0,0,0,.57.05,2,2,0,0,0-.55-.18l-1.59-.38-5.9-1.28L638.55,337,633.37,336c-.85-.2-2-.26-2.21-.89-.12-.29.05-.63.37-.91a3.34,3.34,0,0,1,1.15-.61,30.06,30.06,0,0,1,10.72-1.22,30.89,30.89,0,0,1,8.66,1.82,42.24,42.24,0,0,1,7.29,3.72s-.13-.14-.43-.38-.72-.59-1.33-1a27.32,27.32,0,0,0-5.38-2.78,30.31,30.31,0,0,0-19.71-.8,4,4,0,0,0-1.38.75,1.83,1.83,0,0,0-.52.67,1.25,1.25,0,0,0,0,.93A1.75,1.75,0,0,0,631.87,336.27Z"/><path class="cls-2" d="M587.66,337.06a49.27,49.27,0,0,1,10.11,1.2c2.55.58,4.1,1.09,4.13,1a4.5,4.5,0,0,0-1-.47,26,26,0,0,0-3-.95,41.48,41.48,0,0,0-20.45-.24c-1.07.27-1.95.52-2.62.75v.29c.69-.16,1.6-.38,2.72-.6A48.76,48.76,0,0,1,587.66,337.06Z"/><path class="cls-2" d="M584.16,362.62c4-1,8.84-1.35,14.24-2a105.61,105.61,0,0,0,17.22-4.06,132.32,132.32,0,0,1,17.08-4.31,76.94,76.94,0,0,1,14.32-.9,80,80,0,0,1,9.65.93c1.13.18,2,.33,2.61.44a4.73,4.73,0,0,0,.91.13,4.62,4.62,0,0,0-.89-.25c-.58-.15-1.46-.34-2.59-.56a68.28,68.28,0,0,0-9.67-1.13,73.07,73.07,0,0,0-14.43.77,126.12,126.12,0,0,0-17.17,4.28A110.31,110.31,0,0,1,598.33,360c-5.37.69-10.28,1.08-14.28,2.15s-7.09,2.57-8.74,4.25c-.18.18-.35.37-.5.55v.34a7.35,7.35,0,0,1,.68-.72C577.13,365,580.2,363.59,584.16,362.62Z"/><path class="cls-2" d="M592.62,342a34.67,34.67,0,0,0,5.06,2.55,36.82,36.82,0,0,0,18.4,2.32A37.57,37.57,0,0,0,626,344a65.85,65.85,0,0,1,7.79-2.93,19.07,19.07,0,0,1,5.52-.75c1.32,0,2,.2,2.05.14a1.53,1.53,0,0,0-.51-.16,9.9,9.9,0,0,0-1.53-.23,18,18,0,0,0-5.64.56c-4.72,1-10.45,4.69-17.67,5.53a37.74,37.74,0,0,1-18.15-2.11,41.45,41.45,0,0,1-5.09-2.34,13.4,13.4,0,0,0-1.82-1A13.77,13.77,0,0,0,592.62,342Z"/><path class="cls-2" d="M649,358.5c1.58.21,3,.37,4.26.64s2.32.41,3.18.65l2,.47a3.07,3.07,0,0,0,.71.12,3.64,3.64,0,0,0-.68-.24l-2-.59c-.85-.28-1.93-.48-3.18-.76s-2.67-.49-4.26-.73a65.92,65.92,0,0,0-37.82,6.39,63.82,63.82,0,0,0-9.57,6,2.56,2.56,0,0,0-1.17,2.07,2.05,2.05,0,0,0,1.35,1.65,5.79,5.79,0,0,0,3.3.12,5.71,5.71,0,0,1,2,0c.45.1.67.24.68.21a1.7,1.7,0,0,0-.64-.33,5.31,5.31,0,0,0-2.08-.09,5.49,5.49,0,0,1-3.12-.2,1.65,1.65,0,0,1-1.1-1.34,2.14,2.14,0,0,1,1-1.7,67.17,67.17,0,0,1,47-12.27Z"/><path class="cls-2" d="M617.64,371.57a1.47,1.47,0,0,1-.09-1.23,3.23,3.23,0,0,1,1-1.11,25.28,25.28,0,0,1,6.78-4,31.45,31.45,0,0,1,9.4-2.11,45.9,45.9,0,0,1,17.34,2.55c2.15.71,3.86,1.38,5,1.84a14.44,14.44,0,0,0,1.85.68s-.14-.11-.44-.26-.74-.38-1.32-.65c-1.15-.53-2.84-1.27-5-2a43.47,43.47,0,0,0-17.53-2.75,30.73,30.73,0,0,0-9.57,2.2,24.58,24.58,0,0,0-6.85,4.18,3.49,3.49,0,0,0-1.11,1.3,1.8,1.8,0,0,0,.15,1.55,2.76,2.76,0,0,0,2,1.31,6.89,6.89,0,0,0,1.49.07,1.37,1.37,0,0,0,.5-.07c0-.07-.72,0-1.93-.24A2.5,2.5,0,0,1,617.64,371.57Z"/><path class="cls-2" d="M577.26,377.62a76.32,76.32,0,0,0,8.53,4,81,81,0,0,0,47.48,3.87c5.14-1.09,9.75-2.16,13.69-2.63a37.86,37.86,0,0,1,9.35-.12l1.45.2,1.06.22a5.2,5.2,0,0,0,.89.14,5.08,5.08,0,0,0-.86-.26l-1.05-.28-1.46-.26a35.39,35.39,0,0,0-9.43-.08c-8,.73-18.51,4.49-30.67,4.34A83.51,83.51,0,0,1,586,381.24a90.54,90.54,0,0,1-8.57-3.83l-2.26-1.21-.31-.16v.12l.25.15Z"/><path class="cls-2" d="M643.48,377a45.57,45.57,0,0,1-7.78-.5,30.68,30.68,0,0,1-6.13-1.64,37.65,37.65,0,0,1-5.23-2.68s.09.12.3.29a9.83,9.83,0,0,0,.94.72,20.86,20.86,0,0,0,3.82,2.08,28.81,28.81,0,0,0,6.21,1.8,41.88,41.88,0,0,0,7.88.56c5.61-.12,10.61-.83,14.25-1.2l2.54-.3v-.33l-2.59.19C654.05,376.21,649,376.85,643.48,377Z"/><path class="cls-2" d="M587.23,385c4.1,1.08,8.82,3,14.32,4.28a78.8,78.8,0,0,0,18.19,2.21c13.14.32,24.43-4.31,32.93-4a27.54,27.54,0,0,1,7.61,1.06v-.32a27.4,27.4,0,0,0-7.6-1.19c-8.66-.38-19.93,4.17-32.93,3.84a80.55,80.55,0,0,1-18.06-2.14c-5.46-1.27-10.2-3.12-14.34-4.15a31.4,31.4,0,0,0-10-1.19,20,20,0,0,0-2.53.35v.14a25.05,25.05,0,0,1,2.54-.24A32.32,32.32,0,0,1,587.23,385Z"/><path class="cls-2" d="M584.71,398.42a40.11,40.11,0,0,1,14.59-3.26c5.67-.24,11.89.58,18.42,1.4,3.26.4,6.46.75,9.57.87a65.93,65.93,0,0,0,9-.24c5.67-.53,10.79-1,15-.37a21.17,21.17,0,0,1,9,3.31v-.32a21.14,21.14,0,0,0-8.92-3.43c-4.3-.73-9.49-.26-15.15.23a66.6,66.6,0,0,1-8.89.21c-3.08-.14-6.27-.48-9.53-.88-6.51-.82-12.77-1.64-18.51-1.36A40,40,0,0,0,584.53,398a39.24,39.24,0,0,0-8.72,5.33c-.38.31-.7.59-1,.85v.25l1.15-.9A41,41,0,0,1,584.71,398.42Z"/><path class="cls-2" d="M617.4,403.79a61.5,61.5,0,0,0-12.12-1.44,32.59,32.59,0,0,0-9.88,1.42,22.8,22.8,0,0,0-5.9,2.8H590a25.17,25.17,0,0,1,5.55-2.38,33.72,33.72,0,0,1,9.74-1.26,64.8,64.8,0,0,1,12,1.48c3.55.73,6.93,1.52,10.11,2.16h3.14l-1.24-.22C625.62,405.65,621.63,404.66,617.4,403.79Z"/><rect class="cls-3" x="574.81" y="340.94" width="61.85" height="1.21"/><rect class="cls-3" x="574.81" y="372.78" width="61.86" height="1.21"/><rect class="cls-3" x="599.71" y="341.54" width="13.07" height="2.77"/><rect class="cls-3" x="599.71" y="310.07" width="13.07" height="2.77"/><rect class="cls-3" x="599.71" y="373.21" width="13.07" height="2.77"/><rect class="cls-2" x="636.66" y="310.07" width="23.62" height="96.55"/><rect class="cls-2" x="574.81" y="270.31" width="8.34" height="39.75"/><rect class="cls-2" x="587.39" y="274.36" width="5.82" height="35.71"/><rect class="cls-3" x="583.15" y="274.36" width="4.24" height="35.71"/><rect class="cls-1" x="593.2" y="278.46" width="4.3" height="31.61"/><rect class="cls-2" x="597.5" y="267.64" width="9.1" height="42.43"/><path class="cls-2" d="M613,291.33l-.86,3.57.86,1.29v2.15l-.86,2,.86.72v5l-.86.58.86.71v2.72H659v-3.29l-.86-1.58.86-7.15-.72-3.43a8.38,8.38,0,0,1-.72-1.86c0-.43.15-1.43.15-1.43Z"/><g class="cls-5"><polygon class="cls-3" points="636.66 310.07 635.56 304.88 636.66 302.75 636.66 300.7 635.56 299.63 636.66 297.98 636.66 291.33 657.67 291.33 657.52 292.76 658.24 294.62 658.96 298.05 658.1 305.2 658.96 306.78 658.96 310.07 636.66 310.07"/></g><path class="cls-1" d="M86.56,321.18c-.89.15-1.89.37-3,.48s-2.35.3-3.68.36-2.74.1-4.23.12a59.64,59.64,0,0,1-9.65-1,59.7,59.7,0,0,1-9.32-2.67c-1.37-.57-2.7-1.08-3.88-1.69s-2.29-1.15-3.28-1.7-1.85-1.1-2.61-1.57-1.41-.91-1.92-1.28l-1-.66H89.71v8.92l-.9.21C88.2,320.86,87.45,321,86.56,321.18Z"/><path class="cls-1" d="M59.25,404.45A33.38,33.38,0,0,1,69,405.71a24.7,24.7,0,0,1,5.55,2.38H37.14c3.18-.64,6.56-1.44,10.11-2.16A63.14,63.14,0,0,1,59.25,404.45Z"/><path class="cls-1" d="M13.22,398.34c4.25-.67,9.37-.16,15,.36a65.93,65.93,0,0,0,9,.25c3.11-.13,6.31-.47,9.58-.87,6.52-.82,12.74-1.65,18.41-1.4a40.32,40.32,0,0,1,14.59,3.25,41.84,41.84,0,0,1,8.75,5.12c.44.33.82.63,1.15.91v2.13H75a22.61,22.61,0,0,0-5.9-2.81,32.9,32.9,0,0,0-9.87-1.41,61.32,61.32,0,0,0-12.12,1.44c-4.24.86-8.23,1.86-11.89,2.56l-1.23.22H4.24v-6.45A21.31,21.31,0,0,1,13.22,398.34Z"/><path class="cls-1" d="M80,399.53a39.84,39.84,0,0,0-14.75-3.43c-5.73-.28-12,.54-18.51,1.35-3.26.4-6.45.75-9.53.88a63.45,63.45,0,0,1-8.89-.21c-5.65-.49-10.84-.95-15.15-.22a21,21,0,0,0-8.92,3.42V390A27.89,27.89,0,0,1,11.85,389c8.5-.28,19.79,4.35,32.93,4A79.21,79.21,0,0,0,63,390.78c5.5-1.32,10.22-3.21,14.32-4.28a32.71,32.71,0,0,1,9.88-1.38,25.05,25.05,0,0,1,2.54.24V405.7c-.3-.26-.62-.54-1-.84A38.5,38.5,0,0,0,80,399.53Z"/><path class="cls-1" d="M89.71,347.66v-7.51c-.69-.17-1.6-.38-2.71-.61a49.65,49.65,0,0,0-10.14-1,48.67,48.67,0,0,0-10.11,1.2c-2.55.57-4.09,1.09-4.13,1a4.22,4.22,0,0,1,1.05-.48,30.7,30.7,0,0,1,3-1,41.64,41.64,0,0,1,20.45-.23c1.08.26,2,.52,2.62.75V320.69l-.83.25a20,20,0,0,1-2.25.58c-.89.19-1.89.44-3,.58a36.9,36.9,0,0,1-3.7.44c-1.34.15-2.77.15-4.28.18a56.62,56.62,0,0,1-9.76-1A57.06,57.06,0,0,1,56.46,319c-1.38-.59-2.72-1.13-3.9-1.76a36.17,36.17,0,0,1-3.27-1.79c-1-.55-1.83-1.16-2.59-1.66a22,22,0,0,1-1.87-1.37l-1.06-.86H4.24v8a33.42,33.42,0,0,1,4.63-2.19,35.79,35.79,0,0,1,15.43-2.22,32.33,32.33,0,0,1,9,2.07,61.45,61.45,0,0,1,8.85,4.5,58.65,58.65,0,0,0,8.79,4.4,33,33,0,0,0,8.92,1.77c5.83.38,11.12-.17,15.57-.18a43.75,43.75,0,0,1,10.5.91c.6.15,1.14.26,1.6.4l1.15.4a6.12,6.12,0,0,1,.93.36,5.62,5.62,0,0,1-1-.24l-1.16-.34c-.46-.12-1-.21-1.6-.34a47,47,0,0,0-10.44-.71c-4.43.07-9.71.67-15.62.32a33.29,33.29,0,0,1-9.1-1.77,57.59,57.59,0,0,1-8.89-4.44,63,63,0,0,0-8.76-4.47,32,32,0,0,0-8.86-2.06A35.9,35.9,0,0,0,9,317.82,34.63,34.63,0,0,0,4.24,320v12.47l.73-.65a49.27,49.27,0,0,1,5.8-4.45A20.49,20.49,0,0,1,21,323.85c4.18-.16,8.57,1.44,12.78,3.5a94.43,94.43,0,0,1,11.52,6.58c1.64,1.14,3.48,2.14,4.3,4a2.55,2.55,0,0,1-.42,2.71A5.9,5.9,0,0,1,47.11,342,18.41,18.41,0,0,1,40,343.69a16,16,0,0,1-2-.05,2.12,2.12,0,0,1-.69-.12s1,.05,2.66-.07a19.2,19.2,0,0,0,6.94-1.86,5.44,5.44,0,0,0,1.89-1.29,2,2,0,0,0,.3-2.2c-.7-1.57-2.47-2.57-4.13-3.69a101.69,101.69,0,0,0-11.47-6.49c-4.19-2.05-8.47-3.62-12.5-3.49a20.25,20.25,0,0,0-10,3.33A58.92,58.92,0,0,0,5.13,332l-.89.72v15c.53-.1,1.2-.21,2-.3a49.93,49.93,0,0,1,9.56-.16,100.24,100.24,0,0,1,14,2.23c5.22,1.12,10.88,2.63,16.91,3.7a64.59,64.59,0,0,0,17.16,1.06A40.55,40.55,0,0,0,71.24,353a52.43,52.43,0,0,0,6.11-2.36c3.67-1.66,6.8-2.78,9.08-3A11,11,0,0,1,89.71,347.66ZM34,336.79a1.77,1.77,0,0,1-1.3,1c-.49.12-.92.19-1.38.28l-5.18,1-8.79,1.7-5.94,1.09-1.62.26a1.76,1.76,0,0,1-.57.05,1.84,1.84,0,0,1,.55-.17l1.59-.38,5.9-1.29L26,338.53l5.18-1.06c.85-.21,2-.26,2.21-.89a.84.84,0,0,0-.37-.91,3.2,3.2,0,0,0-1.15-.62,30.06,30.06,0,0,0-10.72-1.22,31.31,31.31,0,0,0-8.66,1.83,40.56,40.56,0,0,0-7.29,3.72s.13-.15.43-.38.72-.59,1.33-1a27.81,27.81,0,0,1,5.38-2.79A30.23,30.23,0,0,1,32,334.45a3.93,3.93,0,0,1,1.38.74,1.87,1.87,0,0,1,.52.68A1.17,1.17,0,0,1,34,336.79Zm39.64,5.47a14.62,14.62,0,0,1-1.69,1.2A33,33,0,0,1,66.85,346a36.65,36.65,0,0,1-18.41,2.32,37.68,37.68,0,0,1-9.9-2.78,63.73,63.73,0,0,0-7.79-2.94,19.43,19.43,0,0,0-5.52-.75c-1.32,0-2,.2-2.05.14a1.9,1.9,0,0,1,.51-.16,10.36,10.36,0,0,1,1.53-.22,17.37,17.37,0,0,1,5.64.56c4.72,1,10.45,4.68,17.67,5.53a37.73,37.73,0,0,0,18.15-2.11,40,40,0,0,0,5.1-2.35A12.16,12.16,0,0,1,73.59,342.26Z"/><path class="cls-1" d="M87.19,384.88a18.34,18.34,0,0,1,2.52.35v-7.56l-.25.16-2.2,1.31a77.26,77.26,0,0,1-8.53,4A81,81,0,0,1,31.26,387c-5.15-1.1-9.76-2.17-13.7-2.63a36.82,36.82,0,0,0-9.34-.12l-1.46.2-1.06.21a4.78,4.78,0,0,1-.88.15,3.87,3.87,0,0,1,.85-.27l1-.27L8.18,384a35.45,35.45,0,0,1,9.44-.08c8,.74,18.51,4.49,30.67,4.35a83.48,83.48,0,0,0,30.28-5.56,88,88,0,0,0,8.57-3.83l2.26-1.2.31-.16v-8.72a6.29,6.29,0,0,0-.67-.72c-1.65-1.57-4.72-3-8.68-4s-8.84-1.34-14.24-2a108,108,0,0,1-17.22-4.06,129,129,0,0,0-17.07-4.31,75.41,75.41,0,0,0-14.33-.9,80.32,80.32,0,0,0-9.65.92c-1.13.19-2,.33-2.6.45a4.18,4.18,0,0,1-.92.12,6.31,6.31,0,0,1,.89-.25c.59-.15,1.46-.34,2.59-.56a71.59,71.59,0,0,1,9.67-1.13,73.94,73.94,0,0,1,14.44.77,124.64,124.64,0,0,1,17.16,4.29,110.76,110.76,0,0,0,17.11,4.08c5.37.7,10.28,1.09,14.28,2.16s7.09,2.57,8.74,4.24a6.3,6.3,0,0,1,.5.56V347.73a13.87,13.87,0,0,0-3.25.12c-2.23.27-5.28,1.44-8.92,3.15a52.5,52.5,0,0,1-6.15,2.45,39.78,39.78,0,0,1-7.46,1.44,63.6,63.6,0,0,1-17.33-1c-6.07-1.08-11.73-2.6-16.92-3.75a104.9,104.9,0,0,0-13.91-2.35,53.38,53.38,0,0,0-9.49,0c-.82.07-1.5.15-2,.21v29.34l2.59.19c3.64.25,8.67.9,14.21,1a44.58,44.58,0,0,0,7.78-.5A30,30,0,0,0,35,376.34a36.34,36.34,0,0,0,5.23-2.68s-.09.12-.3.3a10.51,10.51,0,0,1-.94.71,20.8,20.8,0,0,1-3.82,2.09,28.5,28.5,0,0,1-6.21,1.79,41.82,41.82,0,0,1-7.88.56c-5.61-.12-10.61-.83-14.24-1.19l-2.55-.31v12.1a26.74,26.74,0,0,1,7.6-1.19c8.66-.39,19.93,4.17,32.93,3.84a80.54,80.54,0,0,0,18.06-2.15c5.46-1.27,10.2-3.11,14.34-4.15A31.37,31.37,0,0,1,87.19,384.88Zm-47-23.14A67.6,67.6,0,0,0,15.48,360c-1.58.21-3,.37-4.25.63s-2.33.41-3.19.65l-2,.47a3.63,3.63,0,0,1-.72.13,3.17,3.17,0,0,1,.68-.25l2-.59c.86-.27,1.93-.48,3.18-.75s2.68-.5,4.26-.74A65.78,65.78,0,0,1,53.24,366a63.31,63.31,0,0,1,9.57,6A2.53,2.53,0,0,1,64,374a2,2,0,0,1-1.35,1.64,5.71,5.71,0,0,1-3.3.12,5.44,5.44,0,0,0-2,0c-.45.1-.67.23-.68.2a1.73,1.73,0,0,1,.65-.32,5.26,5.26,0,0,1,2.07-.09,5.57,5.57,0,0,0,3.12-.2,1.66,1.66,0,0,0,1.1-1.35,2.16,2.16,0,0,0-1-1.7A66.83,66.83,0,0,0,53,366.49,67.83,67.83,0,0,0,40.17,361.74Zm3.06,12.82c0-.07.72,0,1.94-.23a2.51,2.51,0,0,0,1.71-1.24,1.45,1.45,0,0,0,.09-1.24,3.27,3.27,0,0,0-1-1.1,25.34,25.34,0,0,0-6.78-4,31.59,31.59,0,0,0-9.41-2.11,45.66,45.66,0,0,0-17.33,2.54c-2.16.71-3.87,1.38-5,1.85a14.44,14.44,0,0,1-1.85.68s.14-.11.44-.27.74-.38,1.32-.64c1.15-.53,2.84-1.27,5-2A43.64,43.64,0,0,1,29.81,364a31.15,31.15,0,0,1,9.58,2.2,24.76,24.76,0,0,1,6.84,4.19,3.46,3.46,0,0,1,1.11,1.29,1.8,1.8,0,0,1-.15,1.55,2.73,2.73,0,0,1-2,1.31,5.73,5.73,0,0,1-1.48.07A1.46,1.46,0,0,1,43.23,374.56Z"/><path class="cls-2" d="M86.46,347.85c-2.23.27-5.28,1.44-8.92,3.15a52.5,52.5,0,0,1-6.15,2.45,39.78,39.78,0,0,1-7.46,1.44,63.6,63.6,0,0,1-17.33-1c-6.07-1.08-11.73-2.6-16.92-3.75a104.9,104.9,0,0,0-13.91-2.35,53.38,53.38,0,0,0-9.49,0c-.82.07-1.5.15-2,.21v-.16c.53-.1,1.2-.21,2-.3a49.93,49.93,0,0,1,9.56-.16,100.24,100.24,0,0,1,14,2.23c5.22,1.12,10.88,2.63,16.91,3.7a64.59,64.59,0,0,0,17.16,1.06A40.55,40.55,0,0,0,71.24,353a52.43,52.43,0,0,0,6.11-2.36c3.67-1.66,6.8-2.78,9.08-3a11,11,0,0,1,3.28.05v.07A13.87,13.87,0,0,0,86.46,347.85Z"/><path class="cls-2" d="M86.63,321.52c-.89.19-1.89.44-3,.58a36.9,36.9,0,0,1-3.7.44c-1.34.15-2.77.15-4.28.18a56.62,56.62,0,0,1-9.76-1A57.06,57.06,0,0,1,56.46,319c-1.38-.59-2.72-1.13-3.9-1.76a36.17,36.17,0,0,1-3.27-1.79c-1-.55-1.83-1.16-2.59-1.66a22,22,0,0,1-1.87-1.37l-1.06-.86H44l1,.66c.51.37,1.14.82,1.92,1.28s1.61,1.05,2.61,1.57,2.07,1.15,3.28,1.7,2.51,1.12,3.88,1.69A59.7,59.7,0,0,0,66,321.15a59.64,59.64,0,0,0,9.65,1c1.49,0,2.91,0,4.23-.12s2.56-.21,3.68-.36,2.12-.33,3-.48,1.64-.32,2.25-.47l.9-.21v.19l-.83.25A20,20,0,0,1,86.63,321.52Z"/><path class="cls-2" d="M24.3,315.18a32.33,32.33,0,0,1,9,2.07,61.45,61.45,0,0,1,8.85,4.5,58.65,58.65,0,0,0,8.79,4.4,33,33,0,0,0,8.92,1.77c5.83.38,11.12-.17,15.57-.18a43.75,43.75,0,0,1,10.5.91c.6.15,1.14.26,1.6.4l1.15.4a6.12,6.12,0,0,1,.93.36,5.62,5.62,0,0,1-1-.24l-1.16-.34c-.46-.12-1-.21-1.6-.34a47,47,0,0,0-10.44-.71c-4.43.07-9.71.67-15.62.32a33.29,33.29,0,0,1-9.1-1.77,57.59,57.59,0,0,1-8.89-4.44,63,63,0,0,0-8.76-4.47,32,32,0,0,0-8.86-2.06A35.9,35.9,0,0,0,9,317.82,34.63,34.63,0,0,0,4.24,320v-.42a33.42,33.42,0,0,1,4.63-2.19A35.79,35.79,0,0,1,24.3,315.18Z"/><path class="cls-2" d="M10.77,327.38A20.49,20.49,0,0,1,21,323.85c4.18-.16,8.57,1.44,12.78,3.5a94.43,94.43,0,0,1,11.52,6.58c1.64,1.14,3.48,2.14,4.3,4a2.55,2.55,0,0,1-.42,2.71A5.9,5.9,0,0,1,47.11,342,18.41,18.41,0,0,1,40,343.69a16,16,0,0,1-2-.05,2.12,2.12,0,0,1-.69-.12s1,.05,2.66-.07a19.2,19.2,0,0,0,6.94-1.86,5.44,5.44,0,0,0,1.89-1.29,2,2,0,0,0,.3-2.2c-.7-1.57-2.47-2.57-4.13-3.69a101.69,101.69,0,0,0-11.47-6.49c-4.19-2.05-8.47-3.62-12.5-3.49a20.25,20.25,0,0,0-10,3.33A58.92,58.92,0,0,0,5.13,332l-.89.72v-.25l.73-.65A49.27,49.27,0,0,1,10.77,327.38Z"/><path class="cls-2" d="M32.65,337.79c-.49.12-.92.19-1.38.28l-5.18,1-8.79,1.7-5.94,1.09-1.62.26a1.76,1.76,0,0,1-.57.05,1.84,1.84,0,0,1,.55-.17l1.59-.38,5.9-1.29L26,338.53l5.18-1.06c.85-.21,2-.26,2.21-.89a.84.84,0,0,0-.37-.91,3.2,3.2,0,0,0-1.15-.62,30.06,30.06,0,0,0-10.72-1.22,31.31,31.31,0,0,0-8.66,1.83,40.56,40.56,0,0,0-7.29,3.72s.13-.15.43-.38.72-.59,1.33-1a27.81,27.81,0,0,1,5.38-2.79A30.23,30.23,0,0,1,32,334.45a3.93,3.93,0,0,1,1.38.74,1.87,1.87,0,0,1,.52.68,1.17,1.17,0,0,1,0,.92A1.77,1.77,0,0,1,32.65,337.79Z"/><path class="cls-2" d="M76.86,338.58a48.67,48.67,0,0,0-10.11,1.2c-2.55.57-4.09,1.09-4.13,1a4.22,4.22,0,0,1,1.05-.48,30.7,30.7,0,0,1,3-1,41.64,41.64,0,0,1,20.45-.23c1.08.26,2,.52,2.62.75v.29c-.69-.17-1.6-.38-2.71-.61A49.65,49.65,0,0,0,76.86,338.58Z"/><path class="cls-2" d="M80.36,364.13c-4-1-8.84-1.34-14.24-2a108,108,0,0,1-17.22-4.06,129,129,0,0,0-17.07-4.31,75.41,75.41,0,0,0-14.33-.9,80.32,80.32,0,0,0-9.65.92c-1.13.19-2,.33-2.6.45a4.18,4.18,0,0,1-.92.12,6.31,6.31,0,0,1,.89-.25c.59-.15,1.46-.34,2.59-.56a71.59,71.59,0,0,1,9.67-1.13,73.94,73.94,0,0,1,14.44.77,124.64,124.64,0,0,1,17.16,4.29,110.76,110.76,0,0,0,17.11,4.08c5.37.7,10.28,1.09,14.28,2.16s7.09,2.57,8.74,4.24a6.3,6.3,0,0,1,.5.56v.34a6.29,6.29,0,0,0-.67-.72C87.39,366.55,84.32,365.1,80.36,364.13Z"/><path class="cls-2" d="M71.9,343.46A33,33,0,0,1,66.85,346a36.65,36.65,0,0,1-18.41,2.32,37.68,37.68,0,0,1-9.9-2.78,63.73,63.73,0,0,0-7.79-2.94,19.43,19.43,0,0,0-5.52-.75c-1.32,0-2,.2-2.05.14a1.9,1.9,0,0,1,.51-.16,10.36,10.36,0,0,1,1.53-.22,17.37,17.37,0,0,1,5.64.56c4.72,1,10.45,4.68,17.67,5.53a37.73,37.73,0,0,0,18.15-2.11,40,40,0,0,0,5.1-2.35,12.16,12.16,0,0,1,1.81-1A14.62,14.62,0,0,1,71.9,343.46Z"/><path class="cls-2" d="M15.48,360c-1.58.21-3,.37-4.25.63s-2.33.41-3.19.65l-2,.47a3.63,3.63,0,0,1-.72.13,3.17,3.17,0,0,1,.68-.25l2-.59c.86-.27,1.93-.48,3.18-.75s2.68-.5,4.26-.74A65.78,65.78,0,0,1,53.24,366a63.31,63.31,0,0,1,9.57,6A2.53,2.53,0,0,1,64,374a2,2,0,0,1-1.35,1.64,5.71,5.71,0,0,1-3.3.12,5.44,5.44,0,0,0-2,0c-.45.1-.67.23-.68.2a1.73,1.73,0,0,1,.65-.32,5.26,5.26,0,0,1,2.07-.09,5.57,5.57,0,0,0,3.12-.2,1.66,1.66,0,0,0,1.1-1.35,2.16,2.16,0,0,0-1-1.7A66.83,66.83,0,0,0,53,366.49,67.63,67.63,0,0,0,15.48,360Z"/><path class="cls-2" d="M46.88,373.09a1.45,1.45,0,0,0,.09-1.24,3.27,3.27,0,0,0-1-1.1,25.34,25.34,0,0,0-6.78-4,31.59,31.59,0,0,0-9.41-2.11,45.66,45.66,0,0,0-17.33,2.54c-2.16.71-3.87,1.38-5,1.85a14.44,14.44,0,0,1-1.85.68s.14-.11.44-.27.74-.38,1.32-.64c1.15-.53,2.84-1.27,5-2A43.64,43.64,0,0,1,29.81,364a31.15,31.15,0,0,1,9.58,2.2,24.76,24.76,0,0,1,6.84,4.19,3.46,3.46,0,0,1,1.11,1.29,1.8,1.8,0,0,1-.15,1.55,2.73,2.73,0,0,1-2,1.31,5.73,5.73,0,0,1-1.48.07,1.46,1.46,0,0,1-.51-.07c0-.07.72,0,1.94-.23A2.51,2.51,0,0,0,46.88,373.09Z"/><path class="cls-2" d="M87.26,379.14a77.26,77.26,0,0,1-8.53,4A81,81,0,0,1,31.26,387c-5.15-1.1-9.76-2.17-13.7-2.63a36.82,36.82,0,0,0-9.34-.12l-1.46.2-1.06.21a4.78,4.78,0,0,1-.88.15,3.87,3.87,0,0,1,.85-.27l1-.27L8.18,384a35.45,35.45,0,0,1,9.44-.08c8,.74,18.51,4.49,30.67,4.35a83.48,83.48,0,0,0,30.28-5.56,88,88,0,0,0,8.57-3.83l2.26-1.2.31-.16v.11l-.25.16Z"/><path class="cls-2" d="M21,378.48a44.58,44.58,0,0,0,7.78-.5A30,30,0,0,0,35,376.34a36.34,36.34,0,0,0,5.23-2.68s-.09.12-.3.3a10.51,10.51,0,0,1-.94.71,20.8,20.8,0,0,1-3.82,2.09,28.5,28.5,0,0,1-6.21,1.79,41.82,41.82,0,0,1-7.88.56c-5.61-.12-10.61-.83-14.24-1.19l-2.55-.31v-.33l2.59.19C10.47,377.72,15.5,378.37,21,378.48Z"/><path class="cls-2" d="M77.29,386.5c-4.1,1.07-8.82,3-14.32,4.28A79.21,79.21,0,0,1,44.78,393c-13.14.32-24.43-4.31-32.93-4A27.89,27.89,0,0,0,4.24,390v-.32a26.74,26.74,0,0,1,7.6-1.19c8.66-.39,19.93,4.17,32.93,3.84a80.54,80.54,0,0,0,18.06-2.15c5.46-1.27,10.2-3.11,14.34-4.15a31.37,31.37,0,0,1,10-1.18,18.34,18.34,0,0,1,2.52.35v.13a25.05,25.05,0,0,0-2.54-.24A32.71,32.71,0,0,0,77.29,386.5Z"/><path class="cls-2" d="M79.81,399.93a40.32,40.32,0,0,0-14.59-3.25c-5.67-.25-11.89.58-18.41,1.4-3.27.4-6.47.74-9.58.87a65.93,65.93,0,0,1-9-.25c-5.67-.52-10.79-1-15-.36a21.31,21.31,0,0,0-9,3.3v-.32a21,21,0,0,1,8.92-3.42c4.31-.73,9.5-.27,15.15.22a63.45,63.45,0,0,0,8.89.21c3.08-.13,6.27-.48,9.53-.88,6.51-.81,12.78-1.63,18.51-1.35A39.84,39.84,0,0,1,80,399.53a38.5,38.5,0,0,1,8.72,5.33c.38.3.7.58,1,.84V406c-.33-.28-.71-.58-1.15-.91A41.84,41.84,0,0,0,79.81,399.93Z"/><path class="cls-2" d="M47.13,405.31a61.32,61.32,0,0,1,12.12-1.44,32.9,32.9,0,0,1,9.87,1.41,22.61,22.61,0,0,1,5.9,2.81h-.48A24.7,24.7,0,0,0,69,405.71a33.38,33.38,0,0,0-9.74-1.26,63.14,63.14,0,0,0-12,1.48c-3.55.72-6.93,1.52-10.11,2.16H34l1.23-.22C38.9,407.17,42.89,406.17,47.13,405.31Z"/><rect class="cls-3" x="27.86" y="342.45" width="61.85" height="1.21"/><rect class="cls-3" x="27.85" y="374.29" width="61.86" height="1.21"/><rect class="cls-3" x="51.75" y="343.06" width="13.07" height="2.77"/><rect class="cls-3" x="51.75" y="311.58" width="13.07" height="2.77"/><rect class="cls-3" x="51.75" y="374.73" width="13.07" height="2.77"/><rect class="cls-2" x="4.24" y="311.58" width="23.62" height="96.55"/><rect class="cls-2" x="27.15" y="252.57" width="8.34" height="39.75"/><rect class="cls-2" x="17.1" y="256.62" width="5.82" height="35.71"/><rect class="cls-3" x="22.92" y="256.62" width="4.24" height="35.71"/><rect class="cls-1" x="12.8" y="260.72" width="4.3" height="31.61"/><rect class="cls-2" x="3.7" y="249.9" width="9.1" height="42.43"/><path class="cls-2" d="M51.49,292.84l.86,3.58-.86,1.29v2.14l.86,2-.86.72v5l.86.57-.86.72v2.71H5.57v-3.29l.85-1.57-.85-7.15.71-3.44A8.38,8.38,0,0,0,7,294.27c0-.43-.15-1.43-.15-1.43Z"/><g class="cls-5"><polygon class="cls-3" points="27.86 311.58 28.96 306.4 27.86 304.26 27.86 302.21 28.96 301.14 27.86 299.5 27.86 292.84 6.85 292.84 7 294.27 6.28 296.13 5.57 299.57 6.42 306.72 5.57 308.29 5.57 311.58 27.86 311.58"/></g></g><g id="Floor"><g class="cls-6"><path class="cls-7" d="M1023.56,406.65c0,.14-102.72.26-229.42.26s-229.3-.26-229.44-.26c-564.7,0,102.71-.26,229.44-.26S1023.56,406.5,1023.56,406.65Z"/></g></g><g id="Graphics"><rect class="cls-4" x="671.73" y="115.35" width="34.03" height="42.97" transform="translate(-0.55 2.82) rotate(-0.23)"/><path class="cls-7" d="M671.82,158.39l.64,0,1.83,0,6.91-.08,24.65-.22-.21.22c-.07-12.28-.14-27.06-.22-43-.06-.06.49.49.25.26h-4.56l-4.5,0-8.75,0-16.21,0,.23-.24c0,12.72,0,23.43,0,31,0,3.77,0,6.75,0,8.82,0,1,0,1.78,0,2.34,0,.26,0,.45,0,.61s0,.21,0,.22a1.31,1.31,0,0,1,0-.19c0-.15,0-.34,0-.58,0-.55,0-1.32,0-2.3,0-2.06,0-5-.1-8.76,0-7.6-.14-18.36-.24-31.13v-.24h.23l16.22-.09,8.75,0,4.5,0h4.56c-.23-.24.33.31.27.26,0,15.9.09,30.68.13,43v.22h-25l-6.86,0-1.79,0Z"/><rect class="cls-7" x="686.69" y="157.36" width="4.72" height="1.15" transform="translate(-0.6 2.65) rotate(-0.22)"/><rect class="cls-7" x="687.18" y="114.77" width="4.72" height="0.98" transform="translate(-0.45 2.74) rotate(-0.23)"/><circle class="cls-8" cx="780.49" cy="89.28" r="22.84"/><path class="cls-4" d="M791,90a20.7,20.7,0,0,1-3,.17c-1.89,0-4.51.08-7.47.08h-.26V88.5c0-3.3,0-6.3.07-8.47a23.56,23.56,0,0,1,.19-3.5,24.65,24.65,0,0,1,.18,3.5c.05,2.17.08,5.17.08,8.47V90l-.26-.26c3,0,5.58,0,7.47.08A18.18,18.18,0,0,1,791,90Z"/><path class="cls-4" d="M780.56,70.2c.14,0,.26.85.26,1.91S780.7,74,780.56,74s-.26-.86-.26-1.92S780.41,70.2,780.56,70.2Z"/><path class="cls-4" d="M791,73.28c.11.1-.41.78-1.15,1.52s-1.42,1.25-1.52,1.15.41-.78,1.15-1.52S790.86,73.17,791,73.28Z"/><path class="cls-4" d="M797.05,79.92c.06.13-.64.61-1.52,1.15s-1.63.94-1.71.82.54-.72,1.44-1.26S797,79.8,797.05,79.92Z"/><path class="cls-4" d="M800.61,89.79a13.28,13.28,0,0,1-5.23,0,13.28,13.28,0,0,1,5.23,0Z"/><path class="cls-4" d="M764.34,89.44a11.86,11.86,0,0,1-4.94,0,11.86,11.86,0,0,1,4.94,0Z"/><path class="cls-4" d="M766.9,96.78c.1.11-.71.91-1.79,1.78A6.31,6.31,0,0,1,763,99.94c-.08-.12.72-.91,1.8-1.78A6.42,6.42,0,0,1,766.9,96.78Z"/><path class="cls-4" d="M773.23,102.46a7.9,7.9,0,0,1-1.17,2.26c-.72,1.19-1.31,2.16-1.45,2.1a5.62,5.62,0,0,1,1-2.37C772.34,103.24,773.12,102.38,773.23,102.46Z"/><path class="cls-4" d="M780.56,109.79a6.71,6.71,0,0,1-.26-2.62,6.71,6.71,0,0,1,.26-2.62,6.94,6.94,0,0,1,.26,2.62A6.94,6.94,0,0,1,780.56,109.79Z"/><path class="cls-4" d="M791.83,106.3a5.24,5.24,0,0,1-2.23-1.39c-1.1-1-1.79-1.93-1.68-2s1,.69,2,1.63S791.92,106.18,791.83,106.3Z"/><path class="cls-4" d="M797.13,100.6c-.11.1-.92-.54-1.82-1.44s-1.54-1.71-1.44-1.82.91.55,1.81,1.45S797.23,100.5,797.13,100.6Z"/><path class="cls-4" d="M766.66,82.4c-.1.11-.82-.45-1.61-1.24s-1.34-1.5-1.24-1.6.83.45,1.61,1.24S766.76,82.3,766.66,82.4Z"/><path class="cls-4" d="M773.19,75.52c-.1.11-.81-.43-1.58-1.2s-1.31-1.48-1.21-1.58.81.44,1.58,1.21S773.3,75.42,773.19,75.52Z"/><rect class="cls-4" x="785.09" y="135.39" width="30.12" height="20.3" transform="translate(-10.17 76.21) rotate(-5.42)"/><path class="cls-7" d="M816.1,154.22a2.45,2.45,0,0,1-.06-.38l-.12-1.08c-.1-1-.25-2.34-.43-4.07-.36-3.53-.87-8.55-1.49-14.66l.2.16-30,2.89.2-.24h0v.32l0,.34.06.67c0,.45.08.89.13,1.34.08.89.16,1.77.25,2.64.16,1.75.32,3.48.48,5.17.32,3.38.62,6.63.91,9.71l-.22-.18,21.56-1.94,6.19-.54,1.66-.13.43,0h.16a4.11,4.11,0,0,1-.54.07l-1.61.18-6.14.64-21.67,2.16-.21,0,0-.21c-.29-3.08-.61-6.33-.93-9.71-.16-1.69-.33-3.41-.5-5.16-.08-.88-.16-1.76-.25-2.65,0-.45-.08-.89-.13-1.34l-.06-.67,0-.34,0-.17v-.14h0l.2-.25,30-2.8h.18l0,.17c.54,6.17,1,11.23,1.31,14.79q.21,2.59.33,4.05c0,.43.06.78.08,1S816.1,154.23,816.1,154.22Z"/><path class="cls-7" d="M814.18,134a8.84,8.84,0,0,1-.91,1.14c-.67.77-1.55,1.79-2.63,3-2.23,2.55-5.35,6.05-8.85,9.94l-.13.14-.16-.1-.79-.51c-4.6-2.93-8.74-5.6-11.73-7.55l-3.52-2.33-1-.65a1.39,1.39,0,0,1-.31-.25s.13,0,.36.17l1,.58,3.6,2.22c3,1.88,7.2,4.51,11.8,7.43l.79.51-.28,0c3.5-3.88,6.66-7.35,8.95-9.84l2.73-2.93A10.16,10.16,0,0,1,814.18,134Z"/><rect class="cls-8" x="839.01" y="43.15" width="44.24" height="65.84"/><rect class="cls-9" x="839.01" y="43.15" width="44.24" height="65.84"/><path class="cls-7" d="M883.76,109.51H838.49V42.64h45.27Zm-44.24-1h43.21V43.66H839.52Z"/><rect class="cls-4" x="843.46" y="47.21" width="35.41" height="57.68"/><rect class="cls-8" x="847.61" y="60.63" width="28.06" height="33.22"/><path class="cls-4" d="M729.8,205l-25.51-13.77h0a22.15,22.15,0,0,0,7.1-8l9.35-17.9a11.12,11.12,0,0,1,8.86-5.81h0l23.65,12.77h0a14.4,14.4,0,0,0-6.55,6.2l-10.58,19.59a19.56,19.56,0,0,1-6.32,7Z"/><path class="cls-7" d="M729.8,205s.09-.09.28-.23.47-.35.83-.64a20.22,20.22,0,0,0,2.86-2.82,19.92,19.92,0,0,0,1.69-2.37c.54-.91,1.06-1.95,1.66-3,1.18-2.2,2.51-4.71,4-7.48s3.11-5.8,4.85-9a24.83,24.83,0,0,1,1.43-2.46,15.51,15.51,0,0,1,1.92-2.23,14.72,14.72,0,0,1,2.41-1.86c.44-.27.89-.51,1.36-.74l0,0h0c0,.84,0,.22,0,.41l-.08-.05-.17-.09-.34-.18-.68-.37-11.48-6.18-6.07-3.27-3.1-1.67-1.57-.85-.1-.05,0,0s.26.05.12,0h0l-.22,0-.43.05c-.29.06-.58.09-.86.17a10.82,10.82,0,0,0-5.82,3.55,13.44,13.44,0,0,0-1.82,2.89l-1.58,3c-2.1,4-4.12,7.86-6,11.55a37.72,37.72,0,0,1-3.07,5.26,22.29,22.29,0,0,1-4,4.15c-.36.3-.73.57-1.11.84l-.13.1-.07,0c0-.71,0-.19,0-.35h0l0,0,.3.17.59.32,2.3,1.25,4.33,2.36,13,7.14,3.54,2,.91.52a1.64,1.64,0,0,1,.31.2,1.28,1.28,0,0,1-.33-.15l-.94-.48L725,202.54l-13.13-7-4.35-2.33L705.16,192l-.59-.31-.3-.16,0,0h0c0-.17,0,.35,0-.37l.07,0,.14-.1c.37-.26.73-.53,1.08-.82a22.4,22.4,0,0,0,3.91-4.09,35.6,35.6,0,0,0,3-5.22l6-11.56,1.58-3a13.53,13.53,0,0,1,1.87-3,11.39,11.39,0,0,1,6.1-3.73c.29-.08.6-.12.9-.18l.45-.05.23,0h0l.17,0,0,0,.1.05,1.57.85,3.1,1.68,6.06,3.27,11.46,6.21.69.37.34.18.16.09.09,0c0,.19,0-.42,0,.44h0l0,0a13.83,13.83,0,0,0-1.32.71,14.78,14.78,0,0,0-2.34,1.79,14.63,14.63,0,0,0-1.87,2.16,21.51,21.51,0,0,0-1.41,2.4l-4.91,9c-1.51,2.75-2.87,5.25-4.07,7.44-.6,1.09-1.13,2.12-1.7,3a20.26,20.26,0,0,1-1.74,2.37,18.54,18.54,0,0,1-3,2.77c-.37.28-.66.48-.86.61A2.69,2.69,0,0,1,729.8,205Z"/><path class="cls-7" d="M741.67,179c0,.09-4.23-2.1-9.35-4.89s-9.22-5.12-9.17-5.21,4.23,2.1,9.35,4.89S741.72,179,741.67,179Z"/><path class="cls-7" d="M740.27,182.6c0,.08-4.37-2.18-9.66-5.06s-9.53-5.3-9.48-5.39,4.37,2.18,9.66,5.07S740.32,182.51,740.27,182.6Z"/><path class="cls-7" d="M738.58,185.7c-.05.09-4.38-2.18-9.66-5.06s-9.53-5.29-9.49-5.38,4.38,2.18,9.66,5.06S738.62,185.61,738.58,185.7Z"/><path class="cls-7" d="M736.88,188.8c0,.09-4.37-2.17-9.66-5.05s-9.53-5.3-9.48-5.39,4.37,2.18,9.66,5.06S736.93,188.72,736.88,188.8Z"/><path class="cls-7" d="M735.19,191.91c-.05.09-4.37-2.18-9.66-5.06s-9.53-5.29-9.48-5.38,4.37,2.18,9.66,5.06S735.24,191.82,735.19,191.91Z"/><path class="cls-7" d="M724.29,190a6.63,6.63,0,0,1-1.51-.68c-.92-.46-2.17-1.12-3.54-1.87s-2.61-1.44-3.49-2a7.24,7.24,0,0,1-1.4-.91,7.59,7.59,0,0,1,1.52.68c.92.47,2.17,1.13,3.54,1.87s2.61,1.45,3.49,2A7.85,7.85,0,0,1,724.29,190Z"/><path class="cls-7" d="M730.32,198s.1-.25.2-.7a3,3,0,0,0-.21-1.89,2.89,2.89,0,0,0-2.18-1.62,2.83,2.83,0,1,0,0,5.6,3,3,0,0,0,1.71-.84c.33-.33.45-.57.48-.55a1.45,1.45,0,0,1-.38.64,2.92,2.92,0,0,1-1.77,1,3.09,3.09,0,0,1-2.82-1,3.14,3.14,0,0,1,2.83-5.2,3.09,3.09,0,0,1,2.36,1.84,3,3,0,0,1,.12,2A1.58,1.58,0,0,1,730.32,198Z"/><rect class="cls-7" x="724.25" y="167.4" width="8.41" height="1.21" transform="translate(169.38 -328.29) rotate(28.61)"/><polygon class="cls-8" points="705.64 89.28 699.1 82.34 699.1 105.36 712.99 89.78 705.64 89.28"/><polygon class="cls-10" points="705.64 89.28 699.1 82.34 699.1 105.36 712.99 89.78 705.64 89.28"/><polyline class="cls-8" points="699.25 105.19 707.38 89.4 705.64 89.28 704.57 88.15 699.25 105.19"/><path class="cls-7" d="M705.64,89.28a12.73,12.73,0,0,1-.72,2.45c-.52,1.48-1.29,3.52-2.21,5.73s-1.81,4.2-2.46,5.63a12,12,0,0,1-1.15,2.27,12.92,12.92,0,0,1,.81-2.41c.57-1.47,1.4-3.48,2.32-5.69s1.67-4,2.34-5.66A12.85,12.85,0,0,1,705.64,89.28Z"/><path class="cls-7" d="M705.59,86.24a6.37,6.37,0,0,1-.19,2.5,6.45,6.45,0,0,1-.7,2.42,6.09,6.09,0,0,1,.18-2.51A6.18,6.18,0,0,1,705.59,86.24Z"/><path class="cls-7" d="M708.2,76.59a6.12,6.12,0,0,1-.47,2.47,6.47,6.47,0,0,1-1,2.32,6.12,6.12,0,0,1,.47-2.47A6.07,6.07,0,0,1,708.2,76.59Z"/><path class="cls-7" d="M711.88,67.29a6.14,6.14,0,0,1-.75,2.4,6.34,6.34,0,0,1-1.22,2.2,6.24,6.24,0,0,1,.75-2.4A6.22,6.22,0,0,1,711.88,67.29Z"/><path class="cls-7" d="M716.55,58.46a6.06,6.06,0,0,1-1,2.3c-.68,1.2-1.33,2.12-1.46,2.05a6.39,6.39,0,0,1,1-2.3C715.78,59.3,716.43,58.38,716.55,58.46Z"/><path class="cls-7" d="M722.17,50.19a6.44,6.44,0,0,1-1.25,2.18c-.8,1.12-1.55,2-1.67,1.88a6.22,6.22,0,0,1,1.25-2.19C721.31,50.94,722.06,50.1,722.17,50.19Z"/><path class="cls-7" d="M728.67,42.59a6.27,6.27,0,0,1-1.49,2c-.92,1-1.76,1.77-1.87,1.68s.56-1,1.49-2S728.56,42.49,728.67,42.59Z"/><path class="cls-7" d="M736,35.79c.09.11-.67.93-1.71,1.84s-1.95,1.56-2,1.45.67-.93,1.71-1.84S735.9,35.67,736,35.79Z"/><path class="cls-7" d="M744.06,29.89c.08.13-.8.81-1.92,1.61a6.43,6.43,0,0,1-2.2,1.22c-.09-.12.76-.85,1.9-1.65A5.83,5.83,0,0,1,744.06,29.89Z"/><path class="cls-7" d="M752.79,25c.07.13-.88.74-2.1,1.38a6.38,6.38,0,0,1-2.34.92c-.07-.13.87-.75,2.1-1.38A6.16,6.16,0,0,1,752.79,25Z"/><path class="cls-7" d="M762,21.23a6.2,6.2,0,0,1-2.25,1.13,6.08,6.08,0,0,1-2.43.63,6.35,6.35,0,0,1,2.25-1.12A6.35,6.35,0,0,1,762,21.23Z"/><path class="cls-7" d="M771.67,18.55a6.31,6.31,0,0,1-2.36.85,6.28,6.28,0,0,1-2.49.35,6.24,6.24,0,0,1,2.36-.86A6,6,0,0,1,771.67,18.55Z"/><path class="cls-7" d="M781.55,17a6.42,6.42,0,0,1-2.45.58,6.08,6.08,0,0,1-2.51.05,6.31,6.31,0,0,1,2.45-.57A6.17,6.17,0,0,1,781.55,17Z"/><path class="cls-7" d="M791.54,16.59a6.29,6.29,0,0,1-2.5.29,6.43,6.43,0,0,1-2.5-.23,5.9,5.9,0,0,1,2.49-.29A6.25,6.25,0,0,1,791.54,16.59Z"/><path class="cls-7" d="M801.49,17.37a6.25,6.25,0,0,1-2.51,0,6.14,6.14,0,0,1-2.45-.53,12,12,0,0,1,5,.54Z"/><path class="cls-7" d="M811.29,19.35a6.39,6.39,0,0,1-2.5-.32,6.18,6.18,0,0,1-2.37-.82,11.9,11.9,0,0,1,4.87,1.14Z"/><path class="cls-7" d="M820.76,22.54a6.27,6.27,0,0,1-2.44-.64,6.37,6.37,0,0,1-2.24-1.11,6,6,0,0,1,2.43.63A6,6,0,0,1,820.76,22.54Z"/><path class="cls-7" d="M829.68,27a6.29,6.29,0,0,1-2.32-1,6.23,6.23,0,0,1-2.06-1.44,6.09,6.09,0,0,1,2.32,1A6.29,6.29,0,0,1,829.68,27Z"/><path class="cls-7" d="M837.7,33a6.32,6.32,0,0,1-2.1-1.38c-1.06-.86-1.86-1.66-1.77-1.78a6.36,6.36,0,0,1,2.1,1.38C837,32.08,837.8,32.87,837.7,33Z"/><path class="cls-7" d="M844.54,40.22c-.12.08-.81-.8-1.68-1.85a8.25,8.25,0,0,1-1.47-2c.1-.1,1,.62,1.87,1.7A5,5,0,0,1,844.54,40.22Z"/><path class="cls-7" d="M818.75,146.48a6,6,0,0,1-2.51.12,5.93,5.93,0,0,1-2.48-.41,12.35,12.35,0,0,1,5,.29Z"/><path class="cls-7" d="M828.73,146a6.21,6.21,0,0,1-2.47.48,6.29,6.29,0,0,1-2.51,0,6.12,6.12,0,0,1,2.47-.48A6.33,6.33,0,0,1,828.73,146Z"/><path class="cls-7" d="M838.49,143.85a6.19,6.19,0,0,1-2.35.9,6.1,6.1,0,0,1-2.48.39,6.37,6.37,0,0,1,2.35-.9A6.24,6.24,0,0,1,838.49,143.85Z"/><path class="cls-7" d="M847.61,139.79a5.61,5.61,0,0,1-2.07,1.43,5.5,5.5,0,0,1-2.38.85,7.32,7.32,0,0,1,2.14-1.31A7.08,7.08,0,0,1,847.61,139.79Z"/><path class="cls-7" d="M855.45,133.63c.11.1-.59,1-1.62,1.93s-2,1.53-2.09,1.41.72-.88,1.74-1.8S855.35,133.53,855.45,133.63Z"/><path class="cls-7" d="M861.39,125.62a5.35,5.35,0,0,1-1.06,2.29c-.75,1.18-1.52,2-1.63,1.92a7.28,7.28,0,0,1,1.2-2.2C860.64,126.48,861.26,125.55,861.39,125.62Z"/><path class="cls-7" d="M864.77,116.25a5.26,5.26,0,0,1-.31,2.51,5.33,5.33,0,0,1-1,2.31,7.64,7.64,0,0,1,.51-2.45A7.85,7.85,0,0,1,864.77,116.25Z"/><path class="cls-7" d="M865.12,108.33c.14,0,.29.64.33,1.46s-.05,1.5-.19,1.49-.29-.65-.33-1.46S865,108.34,865.12,108.33Z"/><path class="cls-7" d="M742.4,161c.12.09-.51,1-1.31,2.13s-1.49,2-1.61,1.92a5.45,5.45,0,0,1,1.19-2.22C741.48,161.65,742.29,160.86,742.4,161Z"/><path class="cls-7" d="M749.58,154c.09.12-.73.88-1.77,1.77s-1.92,1.59-2,1.49.63-1,1.68-1.88A5.48,5.48,0,0,1,749.58,154Z"/><path class="cls-7" d="M758.13,148.85a12.23,12.23,0,0,1-4.42,2.36c-.07-.13.86-.76,2.09-1.41A6.26,6.26,0,0,1,758.13,148.85Z"/><path class="cls-7" d="M767.59,145.65a7.5,7.5,0,0,1-2.36.86,7.16,7.16,0,0,1-2.46.48,5.68,5.68,0,0,1,2.32-1A5.57,5.57,0,0,1,767.59,145.65Z"/><path class="cls-7" d="M777.51,144.62a7.58,7.58,0,0,1-2.49.3,7.44,7.44,0,0,1-2.5-.07,5.43,5.43,0,0,1,2.48-.45A5.28,5.28,0,0,1,777.51,144.62Z"/><path class="cls-7" d="M783.11,145.07a.29.29,0,0,1-.34.22.3.3,0,0,1-.28-.31.29.29,0,0,1,.35-.21A.28.28,0,0,1,783.11,145.07Z"/><path class="cls-7" d="M755.12,227.57a6.24,6.24,0,0,1,2.25,1.14c1.16.74,2,1.45,2,1.57a6.24,6.24,0,0,1-2.25-1.14C755.92,228.4,755,227.69,755.12,227.57Z"/><path class="cls-7" d="M747.1,221.61a6.55,6.55,0,0,1,2.12,1.36c1.07.85,1.88,1.64,1.79,1.76a6.36,6.36,0,0,1-2.12-1.36C747.81,222.51,747,221.72,747.1,221.61Z"/><path class="cls-7" d="M741,213.79c.13-.07.75.86,1.48,2a7.67,7.67,0,0,1,1.19,2.2c-.11.09-.89-.74-1.63-1.93A5.57,5.57,0,0,1,741,213.79Z"/><path class="cls-7" d="M737.16,204.56a6.17,6.17,0,0,1,1.09,2.26,6.32,6.32,0,0,1,.59,2.44,6,6,0,0,1-1.08-2.26A6.37,6.37,0,0,1,737.16,204.56Z"/></g><g id="Character"><polygon class="cls-11" points="811.21 317.89 809.15 406.89 805.23 406.89 805.48 318.12 811.21 317.89"/><polygon class="cls-11" points="825.39 316.91 844.47 406.89 848.85 406.89 832.96 316.91 825.39 316.91"/><polygon class="cls-11" points="789.61 317.89 768.5 406.89 764.12 406.89 783.29 317.53 789.61 317.89"/><path class="cls-11" d="M844.53,232.56s21.08-1.21,19,23.18-3.31,49.07-11.14,57.5S765.66,322,759,315s12.64-6.62,16.25-6.62,25.89,2.11,33.12-16.86S813.83,231.35,844.53,232.56Z"/><path class="cls-11" d="M845.88,232.57s16.11,3.3,14.61,20.16-5.72,46.36-13.55,53.88-38.5,9.17-55.09,8.13c-19.27-1.2-31.43-4.87-31.43-4.87s-3.52,2.26-2.45,3.72,10.46,7.31,56,6.33,42.37-7.69,44.26-15,5.86-46.47,5.31-55.07S858.65,234.08,845.88,232.57Z"/><path class="cls-12" d="M845.88,232.57s16.11,3.3,14.61,20.16-5.72,46.36-13.55,53.88-38.5,9.17-55.09,8.13c-19.27-1.2-31.43-4.87-31.43-4.87s-3.52,2.26-2.45,3.72,10.46,7.31,56,6.33,42.37-7.69,44.26-15,5.86-46.47,5.31-55.07S858.65,234.08,845.88,232.57Z"/><path class="cls-11" d="M832.67,265.39a1.8,1.8,0,1,0,1.74-2.24A2,2,0,0,0,832.67,265.39Z"/><path class="cls-11" d="M833.86,255.52a12.78,12.78,0,0,0-.6,3.25,7.74,7.74,0,0,0,.77,3.42,7.66,7.66,0,0,0,1.15,1.71,7.74,7.74,0,0,1,.81.87,1.75,1.75,0,0,1,.29,1.34,14.87,14.87,0,0,1-.89,2.18,7,7,0,0,0-.26,2,7.56,7.56,0,0,0,.88,3.39,12.52,12.52,0,0,0,2,2.6s-.31-.11-.78-.48a7.19,7.19,0,0,1-1.62-1.91,7.49,7.49,0,0,1-1.07-3.58,7.09,7.09,0,0,1,.26-2.24,21.24,21.24,0,0,0,.86-2.1c.16-.66-.39-1.14-.94-1.69a7.83,7.83,0,0,1-1.22-1.88,7.66,7.66,0,0,1-.69-3.68,7.35,7.35,0,0,1,.55-2.44C833.63,255.77,833.83,255.5,833.86,255.52Z"/><path class="cls-11" d="M829.08,262.5c.1,0,0,.52.25,1.27a4.49,4.49,0,0,0,1.75,2.36,6.84,6.84,0,0,0,2.86,1c.8.12,1.31.14,1.31.23s-.5.21-1.34.2a5.88,5.88,0,0,1-3.17-.95,4.29,4.29,0,0,1-1.83-2.77C828.78,263,829,262.47,829.08,262.5Z"/><g class="cls-13"><path d="M832.67,265.39a1.8,1.8,0,1,0,1.74-2.24A2,2,0,0,0,832.67,265.39Z"/><path d="M833.86,255.52a12.78,12.78,0,0,0-.6,3.25,7.74,7.74,0,0,0,.77,3.42,7.66,7.66,0,0,0,1.15,1.71,7.74,7.74,0,0,1,.81.87,1.75,1.75,0,0,1,.29,1.34,14.87,14.87,0,0,1-.89,2.18,7,7,0,0,0-.26,2,7.56,7.56,0,0,0,.88,3.39,12.52,12.52,0,0,0,2,2.6s-.31-.11-.78-.48a7.19,7.19,0,0,1-1.62-1.91,7.49,7.49,0,0,1-1.07-3.58,7.09,7.09,0,0,1,.26-2.24,21.24,21.24,0,0,0,.86-2.1c.16-.66-.39-1.14-.94-1.69a7.83,7.83,0,0,1-1.22-1.88,7.66,7.66,0,0,1-.69-3.68,7.35,7.35,0,0,1,.55-2.44C833.63,255.77,833.83,255.5,833.86,255.52Z"/><path d="M829.08,262.5c.1,0,0,.52.25,1.27a4.49,4.49,0,0,0,1.75,2.36,6.84,6.84,0,0,0,2.86,1c.8.12,1.31.14,1.31.23s-.5.21-1.34.2a5.88,5.88,0,0,1-3.17-.95,4.29,4.29,0,0,1-1.83-2.77C828.78,263,829,262.47,829.08,262.5Z"/></g><path class="cls-7" d="M808.49,171.72a11.09,11.09,0,0,0-1.08-.34,14.29,14.29,0,0,0-4.79-.42,10.61,10.61,0,0,0-6.5,2.84,9.35,9.35,0,0,0-2.35,3.57,8,8,0,0,0-.44,2.24c-.05.78.06,1.54,0,2.28a2.53,2.53,0,0,1-.78,1.87,6.27,6.27,0,0,1-1.85,1,6.85,6.85,0,0,0-1.91,1.09,5.43,5.43,0,0,0-1.31,1.69,5.27,5.27,0,0,0-.37,3.85,13.44,13.44,0,0,0,1.43,3c.24.38.44.75.63,1.12a4.14,4.14,0,0,1,0,.93,6.37,6.37,0,0,1-1.89,3.59,15.91,15.91,0,0,0-2.6,3.21,3.56,3.56,0,0,0,.17,3.89c1,1.16,2.77,1.16,4.31,1.12a130.57,130.57,0,0,1,16,.9L809.57,172Q809,171.86,808.49,171.72ZM795,178.29c-.23,1.47,0,3.06-.73,4.37s-2.32,2.1-3.51,3.15a7.32,7.32,0,0,0-2.32,6.71c.11.62.31,1.23.48,1.84l-.06-.1a13,13,0,0,1-1.33-3,4.81,4.81,0,0,1,.38-3.52,5,5,0,0,1,1.2-1.52,6.33,6.33,0,0,1,1.79-1,6.83,6.83,0,0,0,2-1.12,3.06,3.06,0,0,0,.94-2.22c0-.8-.07-1.56,0-2.28a7.37,7.37,0,0,1,.4-2.1,9,9,0,0,1,2.2-3.39,10.38,10.38,0,0,1,6.21-2.82,13.65,13.65,0,0,1,1.53-.08,11.32,11.32,0,0,0-3.46.64A8.64,8.64,0,0,0,795,178.29Z"/><path class="cls-14" d="M802.36,215.7c.32-1.72-.24-8.94-.24-8.94s-6.4-.81-6.68-7.34.38-21.59.38-21.59l11.78-5.66,10.29,11.73.19,31.69Z"/><path class="cls-7" d="M797.47,188.83a.82.82,0,1,0,.83-.82A.83.83,0,0,0,797.47,188.83Z"/><path class="cls-7" d="M796.13,187.9c.1.11.71-.4,1.59-.43s1.53.41,1.62.29-.06-.26-.34-.46a2.12,2.12,0,0,0-1.3-.38,2.15,2.15,0,0,0-1.27.49C796.17,187.64,796.08,187.85,796.13,187.9Z"/><path class="cls-7" d="M807,188.83a.82.82,0,1,0,1.63,0,.81.81,0,0,0-.8-.85A.83.83,0,0,0,807,188.83Z"/><path class="cls-7" d="M805.85,188.07c.1.11.71-.4,1.59-.44s1.53.42,1.62.3-.06-.26-.34-.47a2.18,2.18,0,0,0-1.3-.37,2.09,2.09,0,0,0-1.27.49C805.89,187.81,805.8,188,805.85,188.07Z"/><path class="cls-7" d="M802.55,195.62a4.72,4.72,0,0,0-1.43-.22c-.22,0-.43-.06-.47-.22a1.31,1.31,0,0,1,.13-.72c.21-.59.42-1.2.64-1.85a33.36,33.36,0,0,0,1.41-4.84,33.52,33.52,0,0,0-1.77,4.71c-.21.65-.41,1.27-.61,1.87a1.47,1.47,0,0,0-.1.94.58.58,0,0,0,.38.34,1.33,1.33,0,0,0,.38,0A5.43,5.43,0,0,0,802.55,195.62Z"/><path class="cls-15" d="M802.12,206.76A15.62,15.62,0,0,0,810.6,204s-2,4.76-8.37,4.38Z"/><path class="cls-7" d="M833.93,192.61a3.41,3.41,0,0,1-1.25,0c-.74-1.15-2.07-2-3.06-3.07a5.15,5.15,0,0,1,.24-2.85,12.68,12.68,0,0,0,.46-1.54,3.16,3.16,0,0,0-.09-1.77,4.77,4.77,0,0,0-2.57-2.35c-.88-1.22-2.49-1.79-3.61-2.84a8.57,8.57,0,0,1-.5-1.76,12,12,0,0,0-.77-2.88,5.54,5.54,0,0,0-1.66-2,5.79,5.79,0,0,0-2.82-1.16,7.8,7.8,0,0,0-2.3-.77,8,8,0,0,0-6.72,2.19,13.72,13.72,0,0,0-10.62,1.64,8,8,0,0,0-3.36,3.39,10.54,10.54,0,0,0-.63,4.26c0,1,0,2.06,0,3.1a1,1,0,0,0,1.29,1.18l4.79.18a1.71,1.71,0,0,0,.95-.14,1.68,1.68,0,0,0,.75-1.52c0-.46,0-1.38,0-1.64a18.57,18.57,0,0,0,.57,1.86,2.42,2.42,0,0,0,1,1.66,2.8,2.8,0,0,0,1.38.23c.69,0,1.38,0,2.07,0a1.62,1.62,0,0,0,1-.25,1.59,1.59,0,0,0,.37-1.53,10.85,10.85,0,0,1-.33-2.14c.62,1.21.92,2.73,1.68,2.93a5.15,5.15,0,0,0,2.31-.16c.77-.24,1.31-.44,1.87-.62a5,5,0,0,1-.23.94c-.58,1.57-1.89,3.08-1.44,4.69s2.07,2.18,2.91,3.44a5.5,5.5,0,0,1,.18,4.79,46.4,46.4,0,0,0-1.77,4.63c-.37,1.62-.11,3.54,1.22,4.54a6,6,0,0,0,3.65.82l11.62.11a6.68,6.68,0,0,0,2.23-.24,2.18,2.18,0,0,0,1.47-1.56,2.73,2.73,0,0,0-1.06-2.31,7.28,7.28,0,0,1-1.77-1.95c-.61-1.31,0-2.84.66-4.12s1.46-2.64,1.21-4.06a3.35,3.35,0,0,0-.34-1,3.43,3.43,0,0,0,1.12-.12,3,3,0,0,0,.93-.45c.18-.15.26-.24.25-.25A5,5,0,0,1,833.93,192.61Zm-14.86-21.77a5.8,5.8,0,0,1,1.82,1,5.21,5.21,0,0,1,1.5,1.92,12.12,12.12,0,0,1,.69,2.79c0,.19.08.4.12.61-.56-1-.84-2.12-1.33-3.15A7.93,7.93,0,0,0,819.07,170.84Zm9,11a3.65,3.65,0,0,1,1.67,1.72,4.67,4.67,0,0,1-.34,3,5.22,5.22,0,0,0-.32,2.35,3.9,3.9,0,0,1-.5-.89C827.82,186.11,828.77,183.77,828.08,181.87Z"/><path class="cls-15" d="M802.87,197.92a1.71,1.71,0,0,1,1-1.25,1.32,1.32,0,0,1,1.13,0,1,1,0,0,1,.52,1,1.13,1.13,0,0,1-.91.84,3,3,0,0,1-1.3-.09.82.82,0,0,1-.34-.12.31.31,0,0,1-.14-.31"/><path class="cls-7" d="M805,195.58c.07,0,.18.24.15.67a2.33,2.33,0,0,1-.72,1.48,2.31,2.31,0,0,1-1.53.64c-.43,0-.67-.12-.65-.19s1-.07,1.82-.82S804.9,195.58,805,195.58Z"/><path class="cls-14" d="M789.82,218.83s-19.37,16.85-19.87,14.8c-2.73-11.15-2-25.38-1.52-30.83.3-.47.65-1,1.06-1.55a7.16,7.16,0,0,1,1.74-1.69,10.73,10.73,0,0,1,2.63-1.48c.89-.25,1-1.44.26-1.73s-3.25.35-5.55,2.27-1.36-2.64-1.05-4.3,1-6.87.59-7.36c-.64-.72-1.55-.14-1.82,1.53s-1.44,6.64-2.32,6.45.83-8.65.83-8.65.66-1.76-.34-2c-1.82-.44-3,8.68-3,9.55-.06.61-1,.44-.92-.2s1.89-8.42,0-8.89c-1.41-.36-1,7.5-2.27,8.92s.3-6-1.06-6.29c-.51-.11-.91-.12-1.19,4.26a94.89,94.89,0,0,0,.38,10.58c-1.2,12-3.55,48.85,13.08,47.58,19.63-1.5,24.15-17,24.15-17Z"/><path class="cls-8" d="M844.08,245.58l-3.36-16.85c-2.47-13.79-21.8-14.74-21.8-14.74l-15.17-.24s-10.1-.33-18.19,6.31-13.51,11.73-13.51,11.73l12.69,14.68,7.52-5s-2.71,4.88-2.26,9c.43,4,4.63,7.06,4.63,7.06l-3.16,33.87,49.54-2-6.38-43.91Z"/><path class="cls-4" d="M841.72,232.44a8.66,8.66,0,0,1-.58,1.24,13.88,13.88,0,0,1-2.42,3.1,13.64,13.64,0,0,1-5.33,3.18,14.08,14.08,0,0,1-8.19.09,11.67,11.67,0,0,1-4.27-2.25,6.83,6.83,0,0,1-2.5-4.56,5.23,5.23,0,0,1,2.57-4.87,3.75,3.75,0,0,1,3-.2,5,5,0,0,1,2.42,1.91,5.6,5.6,0,0,1,1,3,7.11,7.11,0,0,1-.68,3.14,12.36,12.36,0,0,1-4.29,4.88,17.41,17.41,0,0,1-13.1,2.82,15.51,15.51,0,0,1-6.38-2.74,11.44,11.44,0,0,1-4.07-5.36,9.12,9.12,0,0,1,.21-6.49,6.41,6.41,0,0,1,4.79-3.87,4.3,4.3,0,0,1,4.81,3,3.92,3.92,0,0,1-.5,2.87,5.5,5.5,0,0,1-2,2A8.06,8.06,0,0,1,801,234a26.44,26.44,0,0,1-4.64-1.27,15.78,15.78,0,0,1-6.87-4.48,9.59,9.59,0,0,1-2.23-5.76,7.25,7.25,0,0,1,.86-3.81,4.61,4.61,0,0,1,.82-1.1s-.3.36-.73,1.15a7.4,7.4,0,0,0-.74,3.76,9.39,9.39,0,0,0,2.24,5.57,15.72,15.72,0,0,0,6.78,4.33,25.48,25.48,0,0,0,4.57,1.21,7.58,7.58,0,0,0,4.9-.63,5.07,5.07,0,0,0,1.84-1.81,3.51,3.51,0,0,0,.45-2.55,3.86,3.86,0,0,0-4.3-2.67,6,6,0,0,0-4.4,3.61,8.51,8.51,0,0,0-.18,6.11,10.73,10.73,0,0,0,3.89,5.11,14.92,14.92,0,0,0,6.16,2.65,17,17,0,0,0,12.72-2.72,12,12,0,0,0,4.13-4.68,6.64,6.64,0,0,0,.64-2.92,5.1,5.1,0,0,0-.92-2.72,4.57,4.57,0,0,0-2.17-1.73,3.21,3.21,0,0,0-2.63.16,4.8,4.8,0,0,0-2.35,4.43,6.39,6.39,0,0,0,2.34,4.29,11.19,11.19,0,0,0,4.11,2.2,13.92,13.92,0,0,0,8,0,13.76,13.76,0,0,0,5.27-3.06,14.51,14.51,0,0,0,2.47-3c.22-.39.39-.68.5-.89Z"/><path class="cls-4" d="M839.65,283.91a1,1,0,0,1-.27.11c-.18.07-.45.18-.81.29a14.39,14.39,0,0,1-3.26.56,15.38,15.38,0,0,1-5.2-.6,14.71,14.71,0,0,1-6-3.45,15.33,15.33,0,0,1-4.66-11.93,10.35,10.35,0,0,1,1.38-4.82,5.63,5.63,0,0,1,1.88-1.88,4.87,4.87,0,0,1,2.65-.66,3.61,3.61,0,0,1,2.55,1.17,4.09,4.09,0,0,1,1,2.7,5,5,0,0,1-.83,2.76,7.38,7.38,0,0,1-2.07,2.06,14.23,14.23,0,0,1-5.46,2.09,16.66,16.66,0,0,1-11.13-2.24,14.52,14.52,0,0,1-4.07-3.68,10.17,10.17,0,0,1-2.1-4.82,6.19,6.19,0,0,1,1.36-4.81,4.65,4.65,0,0,1,2-1.4,4.28,4.28,0,0,1,4.38,1.11,3.2,3.2,0,0,1,.84,2.07,4.73,4.73,0,0,1-1.81,3.62,8.66,8.66,0,0,1-3.24,1.78,12.85,12.85,0,0,1-3.22.64,12.33,12.33,0,0,1-5.17-.8,11.17,11.17,0,0,1-2.87-1.64c-.31-.22-.51-.43-.66-.55s-.21-.2-.2-.21.31.24.92.68a12.21,12.21,0,0,0,2.88,1.53,12.44,12.44,0,0,0,5.08.7,12.87,12.87,0,0,0,3.14-.66,8.65,8.65,0,0,0,3.1-1.74,4.39,4.39,0,0,0,1.65-3.33,3.15,3.15,0,0,0-2.54-2.84,3.68,3.68,0,0,0-2.13.06,4.13,4.13,0,0,0-1.82,1.28,5.77,5.77,0,0,0-1.24,4.45,9.69,9.69,0,0,0,2,4.58,14,14,0,0,0,3.94,3.54,16.11,16.11,0,0,0,10.77,2.17,13.72,13.72,0,0,0,5.26-2,5.39,5.39,0,0,0,2.68-4.39,3.57,3.57,0,0,0-.82-2.36,3.11,3.11,0,0,0-2.19-1,4.36,4.36,0,0,0-2.38.58,5.17,5.17,0,0,0-1.73,1.72,10,10,0,0,0-1.32,4.59,15.28,15.28,0,0,0,.41,4.56,15.1,15.1,0,0,0,4,7.08,14.52,14.52,0,0,0,5.82,3.43,15.61,15.61,0,0,0,5.11.68,15.37,15.37,0,0,0,3.24-.47C839.26,284,839.64,283.89,839.65,283.91Z"/><path class="cls-7" d="M822.88,227.7a4.42,4.42,0,0,1,.27,1.08l.58,2.95c.51,2.62,1.17,6,1.89,9.76s1.35,7.27,1.75,9.79c.19,1.25.34,2.28.42,3a4.44,4.44,0,0,1,.06,1.11,4.59,4.59,0,0,1-.26-1.07l-.59-3c-.51-2.62-1.16-6-1.89-9.76s-1.35-7.27-1.74-9.78c-.2-1.26-.34-2.28-.42-3A4.87,4.87,0,0,1,822.88,227.7Z"/><path class="cls-7" d="M844.39,245.75a82.67,82.67,0,0,1-9.15.29,78.08,78.08,0,0,1-9.15-.23,82.67,82.67,0,0,1,9.15-.29A78.08,78.08,0,0,1,844.39,245.75Z"/><path class="cls-7" d="M784.74,246.47a89.68,89.68,0,0,1-6.3-7.29,83.94,83.94,0,0,1-5.89-7.63,91,91,0,0,1,6.3,7.3A91.34,91.34,0,0,1,784.74,246.47Z"/><path class="cls-7" d="M817.57,214.08a10,10,0,0,1-2.29.26c-1.42.08-3.38.13-5.55.1s-4.12-.15-5.54-.27a9.86,9.86,0,0,1-2.28-.33,11.27,11.27,0,0,1,2.3,0l5.53.12,5.53.05A10.93,10.93,0,0,1,817.57,214.08Z"/><path class="cls-7" d="M790.12,245.86a8.7,8.7,0,0,1,.87-2l1.08-2.15a4,4,0,0,0,.75-2.6c-.37-2-.73-3.9-.94-5.25a9.69,9.69,0,0,1-.24-2.2,8.92,8.92,0,0,1,.6,2.13c.31,1.34.72,3.16,1.09,5.25a2.64,2.64,0,0,1-.18,1.6,13.06,13.06,0,0,1-.66,1.3c-.42.74-.81,1.44-1.17,2.09A10.1,10.1,0,0,1,790.12,245.86Z"/><path class="cls-8" d="M750,401.48V391.17l18.47-.13.16,15.42-1.15.09c-5.1.33-25.93,1-29.35-.09C734.27,405.28,750,401.48,750,401.48Z"/><path class="cls-7" d="M737.64,405.51c0,.18,6.91.32,15.44.32s15.43-.14,15.43-.32-6.91-.31-15.43-.31S737.64,405.34,737.64,405.51Z"/><path class="cls-7" d="M749.62,403.58c.15-.08,0-.62-.37-1.16s-.88-.82-1-.7.13.57.49,1.07S749.47,403.66,749.62,403.58Z"/><path class="cls-7" d="M748.44,404.26c.16-.06.08-.67-.28-1.31s-.84-1-1-.93.1.64.43,1.24S748.28,404.32,748.44,404.26Z"/><path class="cls-7" d="M763,405.44c.07.05.34-.22.74-.67a12.31,12.31,0,0,1,1.62-1.62,4.28,4.28,0,0,1,2-.88c.56-.07.93,0,1-.08s-.32-.32-1-.36a3.63,3.63,0,0,0-2.37.82,6.51,6.51,0,0,0-1.59,1.86C763,405,762.88,405.4,763,405.44Z"/><path class="cls-7" d="M749.57,401.64c-.09.15.22.51.75.7s1,.13,1,0-.35-.38-.81-.55S749.66,401.49,749.57,401.64Z"/><path class="cls-7" d="M749.86,400.65c0,.17.47.32,1.1.33s1.12-.13,1.1-.3-.5-.32-1.1-.33S749.87,400.48,749.86,400.65Z"/><path class="cls-8" d="M789,401.48V391.17l18.47-.13.16,15.42-1.15.09c-5.09.33-25.93,1-29.35-.09C773.27,405.28,789,401.48,789,401.48Z"/><path class="cls-7" d="M776.65,405.51c0,.18,6.91.32,15.43.32s15.44-.14,15.44-.32-6.91-.31-15.44-.31S776.65,405.34,776.65,405.51Z"/><path class="cls-7" d="M788.62,403.58c.16-.08,0-.62-.37-1.16s-.88-.82-1-.7.13.57.49,1.07S788.47,403.66,788.62,403.58Z"/><path class="cls-7" d="M787.45,404.26c.16-.06.07-.67-.29-1.31s-.84-1-1-.93.1.64.43,1.24S787.28,404.32,787.45,404.26Z"/><path class="cls-7" d="M802,405.44c.07.05.35-.22.75-.67a11.19,11.19,0,0,1,1.62-1.62,4.2,4.2,0,0,1,2-.88c.56-.07.93,0,1-.08s-.31-.32-1-.36a3.63,3.63,0,0,0-2.37.82,6.68,6.68,0,0,0-1.59,1.86C802,405,801.88,405.4,802,405.44Z"/><path class="cls-7" d="M788.57,401.64c-.09.15.22.51.75.7s1,.13,1,0-.35-.38-.81-.55S788.66,401.49,788.57,401.64Z"/><path class="cls-7" d="M788.86,400.65c0,.17.47.32,1.1.33s1.12-.13,1.11-.3-.51-.32-1.1-.33S788.87,400.48,788.86,400.65Z"/><path class="cls-14" d="M846.15,259.09c-1-8.09-2.07-13.31-2.07-13.31l-17.61.26s1.58,8.9,1.09,11.28c-.42,2.07-34.41,3.45-43.27,3.59-.52-.4-1.29.27-2-.33a6.82,6.82,0,0,1-1.51-1.86A10.86,10.86,0,0,1,779.6,256a.91.91,0,0,0-1.68-.39c-.36.76,0,3.29,1.72,5.73s-2.72,1.17-4.34.74-6.67-1.53-7.2-1.13c-.76.6-.28,1.55,1.34,1.94s6.41,1.92,6.15,2.79-8.45-1.47-8.45-1.47-1.68-.78-2,.21c-.61,1.78,8.28,3.58,9.13,3.73.59.11.34,1.06-.29.91s-8.12-2.5-8.76-.7c-.48,1.39,7.3,1.56,8.59,2.93s-5.89-.74-6.3.6c-.15.5,2.83.74,7.12,1.34a109.12,109.12,0,0,0,13.27.47c10,.55,45.15,1.28,52.67.74C849.32,273.81,846.48,261.87,846.15,259.09Z"/><path class="cls-7" d="M765,287.6a262.71,262.71,0,0,1,45.62-.57l-19.28,27.68-17.4.07-3.64,85.08H747.25l2.2-94.89A17.94,17.94,0,0,1,765,287.6Z"/><path class="cls-12" d="M765,287.6a262.71,262.71,0,0,1,45.62-.57l-19.28,27.68-17.4.07-3.64,85.08H747.25l2.2-94.89A17.94,17.94,0,0,1,765,287.6Z"/><path class="cls-7" d="M807.39,316.9s34.47,2.34,33.61-28.61c0,0-47.93-5.84-57.11,4-7.7,8.29-.66,107.52-.66,107.52l25.63-1.25"/><path class="cls-11" d="M814.56,286.59a3.32,3.32,0,0,1-.68,0l-2,.08c-1.69.08-4.13.22-7.15.43l-4.93.39c-1.77.16-3.67.32-5.61.66a36.66,36.66,0,0,0-6,1.64c-2,.77-4,1.92-5,4a21,21,0,0,0-1.71,6.4,62.17,62.17,0,0,0-.43,6.23c-.09,4-.28,7.61-.41,10.63s-.22,5.41-.29,7.16c0,.8,0,1.45-.07,1.95a3.69,3.69,0,0,1-.05.68,2.83,2.83,0,0,1,0-.68c0-.45,0-1.11,0-1.95,0-1.7,0-4.15.12-7.17s.23-6.63.3-10.63a58.15,58.15,0,0,1,.41-6.29,21,21,0,0,1,1.75-6.57,7,7,0,0,1,2.26-2.67,12.94,12.94,0,0,1,3-1.56,36,36,0,0,1,6.1-1.64c2-.34,3.9-.47,5.67-.62s3.44-.24,5-.33c3-.16,5.47-.24,7.17-.26.84,0,1.5,0,2,0A3.1,3.1,0,0,1,814.56,286.59Z"/><path class="cls-11" d="M809.06,392.15a3.61,3.61,0,0,1-1,.15c-.65.07-1.61.14-2.79.23-2.35.16-5.61.36-9.21.54s-6.86.32-9.22.39l-2.8.06a4.43,4.43,0,0,1-1,0,3.8,3.8,0,0,1,1-.16c.66-.06,1.61-.14,2.79-.22,2.35-.17,5.61-.36,9.21-.54s6.86-.32,9.22-.39c1.18,0,2.14-.06,2.8-.06A3.82,3.82,0,0,1,809.06,392.15Z"/><path class="cls-11" d="M771.09,393.3c0,.15-5.35.26-12,.26s-12-.11-12-.26,5.36-.26,12-.26S771.09,393.16,771.09,393.3Z"/><path class="cls-11" d="M781.68,297.79a.91.91,0,0,1-.29,0l-.85-.07c-.74-.06-1.84-.15-3.26-.22s-3.16-.12-5.17,0a29.36,29.36,0,0,0-3.2.32,10.13,10.13,0,0,0-3.37,1.08,3,3,0,0,0-1.26,1.3,15.13,15.13,0,0,0-.65,1.9,33.37,33.37,0,0,0-.83,4.21c-.29,3-.55,6.16-.79,9.51-.48,6.7-.83,14.08-1.11,21.84-.52,15.51-1.11,29.56-1.53,39.72-.22,5.06-.4,9.16-.53,12-.07,1.39-.13,2.48-.17,3.27,0,.35,0,.63-.06.85a1.36,1.36,0,0,1,0,.29,1.29,1.29,0,0,1,0-.29v-.86c0-.78,0-1.88.08-3.27.08-2.88.21-7,.36-12,.36-10.2.85-24.23,1.38-39.73.28-7.76.65-15.15,1.15-21.86q.38-5,.84-9.52a30.7,30.7,0,0,1,.88-4.27,12.84,12.84,0,0,1,.68-1.95,3.27,3.27,0,0,1,1.42-1.45,10.42,10.42,0,0,1,3.51-1.1,27.47,27.47,0,0,1,3.24-.28,48.77,48.77,0,0,1,5.19.11c1.42.1,2.52.22,3.27.32l.84.12A2,2,0,0,1,781.68,297.79Z"/><path class="cls-11" d="M835.25,287.69a1.42,1.42,0,0,1,0,.36c0,.23,0,.58-.13,1a11.29,11.29,0,0,1-1.39,3.74,11.66,11.66,0,0,1-4.58,4.32,11.49,11.49,0,0,1-3.78,1.21,37.87,37.87,0,0,1-4.44.13H805.16c-1,0-2,0-2.94,0a7.61,7.61,0,0,0-2.84.67,7.71,7.71,0,0,0-4,4.35,8.48,8.48,0,0,0-.46,3.11V310c0,4.45,0,9.06,0,13.78,0,18.88-.06,36-.08,48.38,0,6.17-.06,11.17-.08,14.67,0,1.7,0,3,0,4,0,.43,0,.78,0,1s0,.35,0,.35a1.6,1.6,0,0,1,0-.35c0-.26,0-.61,0-1,0-.94,0-2.28-.05-4,0-3.5,0-8.5-.08-14.67,0-12.4-.05-29.5-.08-48.38,0-4.72,0-9.33,0-13.78v-3.31a8.91,8.91,0,0,1,.51-3.28,8.17,8.17,0,0,1,4.29-4.62,8,8,0,0,1,3-.7c1,0,2,0,3,0l5.64,0,10.12.05a39.16,39.16,0,0,0,4.39-.09,11.6,11.6,0,0,0,3.7-1.13,11.73,11.73,0,0,0,4.53-4.17,11.87,11.87,0,0,0,1.47-3.66c.09-.44.13-.79.17-1S835.24,287.69,835.25,287.69Z"/><path class="cls-11" d="M807.73,310a15,15,0,0,1,0,4,15.23,15.23,0,0,1-.49,3.94,30.84,30.84,0,0,1,.45-7.91Z"/><path class="cls-7" d="M664.61,252.89s-1.11-8.83-.24-8.83,1.41,8.83,1.41,8.83h-1.46"/><path class="cls-8" d="M667.49,252.89s-1.11-8.83-.23-8.83,1.4,8.83,1.4,8.83H667.2"/><path class="cls-9" d="M667.49,252.89s-1.11-8.83-.23-8.83,1.4,8.83,1.4,8.83H667.2"/><path class="cls-7" d="M671.9,252.89s-1.11-8.83-.23-8.83,1.4,8.83,1.4,8.83h-1.46"/><path class="cls-11" d="M669.32,253.36s0-8.9.88-8.79.28,8.94.28,8.94l-1.45-.19"/><path class="cls-8" d="M666.62,252.89s-1.11-8.83-.23-8.83,1.4,8.83,1.4,8.83h-1.46"/><path class="cls-10" d="M666.62,252.89s-1.11-8.83-.23-8.83,1.4,8.83,1.4,8.83h-1.46"/><polygon class="cls-8" points="664.43 266.79 662.96 252.89 674.74 252.89 674.74 266.79 664.43 266.79"/><polygon class="cls-7" points="914.9 266.84 654.61 266.84 654.61 273.79 668.53 273.79 661.32 406.43 665.29 406.43 672.5 273.79 900.7 273.79 906.85 406.42 911.24 406.65 904.67 273.79 914.9 273.79 914.9 266.84"/><polygon class="cls-7" points="739.83 225.79 754.26 267.97 819.62 267.97 819.13 265.8 792.71 264.98 780.53 225.77 739.83 225.79"/><path class="cls-4" d="M768.79,245.6c.43,1.73-.31,3.43-1.66,3.79s-2.78-.75-3.21-2.48.31-3.42,1.65-3.78S768.36,243.88,768.79,245.6Z"/><path class="cls-8" d="M895.25,254a6,6,0,0,0-4-1.17c0-.78,0-1.26,0-1.26H869s-.69,14.61,10.49,15.12c5,.23,7.88-2,9.52-4.83a11.55,11.55,0,0,0,2.51.3,5.81,5.81,0,0,0,3.48-1,4.4,4.4,0,0,0,1.66-3.75A4.29,4.29,0,0,0,895.25,254Zm-1.51,5.43c-1,.71-2.64.6-3.74.4a20,20,0,0,0,1.08-4.81,4.29,4.29,0,0,1,2.77.64,2.2,2.2,0,0,1,.67,1.77A2.32,2.32,0,0,1,893.74,259.38Z"/><path class="cls-7" d="M889.34,250a2.94,2.94,0,0,1-.53-.62,5.93,5.93,0,0,1-.91-2.16,6.24,6.24,0,0,1,.33-3.69,12.12,12.12,0,0,1,3.1-3.8,9.12,9.12,0,0,0,2.8-5,8.6,8.6,0,0,0-1.19-6.34,8.91,8.91,0,0,0-2.46-2.55,13.47,13.47,0,0,0-3.42-1.54,10.31,10.31,0,0,1-3.61-1.81,5.33,5.33,0,0,1-1.28-1.69,3.31,3.31,0,0,1-.27-2.17q0-.17.09-.3l.33.33a3.4,3.4,0,0,0-2,2.95,6.91,6.91,0,0,0,.82,3.66c.55,1.15,1.23,2.24,1.73,3.4a7.32,7.32,0,0,1,.69,3.67,5.23,5.23,0,0,1-1.64,3.15,10.29,10.29,0,0,1-2.78,1.85,56.1,56.1,0,0,0-5.37,2.31,7.49,7.49,0,0,0-3.12,3.46,8.4,8.4,0,0,0-.75,3.49,9.67,9.67,0,0,0,.58,3,.76.76,0,0,1-.1-.18,3.68,3.68,0,0,1-.24-.56,7.12,7.12,0,0,1-.44-2.28,8.39,8.39,0,0,1,.69-3.61,7.73,7.73,0,0,1,3.19-3.66,52.21,52.21,0,0,1,5.38-2.38,9.78,9.78,0,0,0,2.64-1.79,4.74,4.74,0,0,0,1.48-2.88,6.71,6.71,0,0,0-.67-3.41c-.48-1.12-1.16-2.2-1.73-3.38a7.31,7.31,0,0,1-.87-3.94,4.72,4.72,0,0,1,.68-2,3.27,3.27,0,0,1,1.68-1.38l.47-.17-.14.5-.07.25a3.6,3.6,0,0,0,1.38,3.35,10,10,0,0,0,3.43,1.72,13.67,13.67,0,0,1,3.54,1.61,9.23,9.23,0,0,1,2.58,2.71,9,9,0,0,1,1.21,6.68,9.55,9.55,0,0,1-3,5.14,11.94,11.94,0,0,0-3.09,3.64,6.14,6.14,0,0,0-.4,3.54A6.89,6.89,0,0,0,889.34,250Z"/><polygon class="cls-7" points="685.06 230.48 684.93 220.92 718.43 223.76 719.39 232.3 685.06 230.48"/><path class="cls-11" d="M688.75,230.68a22.37,22.37,0,0,1-.45-4.71,21.83,21.83,0,0,1,.08-4.72,22.1,22.1,0,0,1,.45,4.7A21.85,21.85,0,0,1,688.75,230.68Z"/><path class="cls-11" d="M690,221.35a21.42,21.42,0,0,1,.36,4.7,20.74,20.74,0,0,1-.16,4.71,22.18,22.18,0,0,1-.36-4.7A21.46,21.46,0,0,1,690,221.35Z"/><path class="cls-4" d="M693.06,225.56c5.84.65,12.7,1,18.64,1.54"/><path class="cls-11" d="M711.7,227.1a13.6,13.6,0,0,1-2.74,0c-1.69-.09-4-.23-6.6-.42s-4.91-.41-6.59-.62a12.7,12.7,0,0,1-2.71-.46,15.85,15.85,0,0,1,2.74.09l6.59.47c2.58.19,4.91.39,6.59.57A13.75,13.75,0,0,1,711.7,227.1Z"/><path class="cls-11" d="M714.15,232a35.42,35.42,0,0,1-.42-8.56,18.28,18.28,0,0,1,.47,4.27A18.47,18.47,0,0,1,714.15,232Z"/><path class="cls-11" d="M716.21,232.13a18.21,18.21,0,0,1-.68-4.26,17.69,17.69,0,0,1-.16-4.31,18.58,18.58,0,0,1,.68,4.26A18.32,18.32,0,0,1,716.21,232.13Z"/><path class="cls-4" d="M698,227.7c3.69.25,6.5.44,9.44.51"/><path class="cls-11" d="M707.47,228.21a22.15,22.15,0,0,1-4.73,0,21.35,21.35,0,0,1-4.71-.51,22.58,22.58,0,0,1,4.73,0A21,21,0,0,1,707.47,228.21Z"/><polygon class="cls-8" points="691.54 266.96 690.63 257.44 724.25 257.5 726.09 266.84 691.54 266.96"/><polygon class="cls-10" points="691.54 266.96 690.63 257.44 724.25 257.5 726.09 266.84 691.54 266.96"/><rect class="cls-7" x="707.95" y="251.51" width="1.72" height="21.03" transform="translate(445.59 970.39) rotate(-89.9)"/><polygon class="cls-7" points="686.8 258.25 685.99 248.72 719.61 249.14 721.18 257.58 686.8 258.25"/><polygon class="cls-4" points="686.1 250.02 686.63 256.45 719.33 256.12 718.29 250.23 686.1 250.02"/><path class="cls-7" d="M716.57,252.86a4.73,4.73,0,0,1-1.18.09l-3.22,0c-2.72,0-6.47,0-10.61-.1s-7.89-.16-10.61-.26l-3.21-.13a6.35,6.35,0,0,1-1.18-.12,4.65,4.65,0,0,1,1.18-.09l3.22,0c2.71,0,6.46,0,10.61.1s7.89.16,10.61.26l3.21.13A6.35,6.35,0,0,1,716.57,252.86Z"/><path class="cls-7" d="M716.57,253.68a6.16,6.16,0,0,1-1.19.11l-3.24.13c-2.73.09-6.51.17-10.68.23s-8,.09-10.69.08l-3.24,0a6,6,0,0,1-1.19-.08,4.87,4.87,0,0,1,1.19-.12l3.24-.13c2.73-.09,6.51-.17,10.68-.23s7.95-.08,10.69-.07l3.24,0A4.78,4.78,0,0,1,716.57,253.68Z"/><polygon class="cls-11" points="687.3 249.15 686.67 239.61 720.28 240.67 721.68 249.15 687.3 249.15"/><polygon class="cls-4" points="688.63 247.96 721.34 247.49 720.43 241.55 688.02 240.95 688.63 247.96"/><polygon class="cls-8" points="688.22 239.8 687.91 230.25 721.46 232.43 722.58 240.95 688.22 239.8"/><rect class="cls-7" x="704.9" y="225.45" width="1.72" height="21.03" transform="matrix(0.06, -1, 1, 0.06, 424.53, 924.95)"/><path class="cls-7" d="M720.76,244a6.07,6.07,0,0,1-1.28.11l-3.5.09c-3,.06-7,.11-11.54.13s-8.59,0-11.55,0l-3.49-.06a6.72,6.72,0,0,1-1.29-.1,6.07,6.07,0,0,1,1.28-.11l3.5-.09c3-.06,7-.11,11.55-.13s8.59,0,11.54,0l3.5.07A6.19,6.19,0,0,1,720.76,244Z"/><path class="cls-7" d="M721.15,245.84a5.78,5.78,0,0,1-1.3.09l-3.52,0c-3,0-7.09,0-11.63-.08s-8.64-.15-11.62-.24l-3.52-.13a5.63,5.63,0,0,1-1.29-.12,7,7,0,0,1,1.29-.08l3.52,0c3,0,7.09,0,11.63.09s8.65.15,11.63.23l3.52.14A7.12,7.12,0,0,1,721.15,245.84Z"/><path class="cls-2" d="M871,75.19l-.09-.09a1.35,1.35,0,0,0-1.88,0l-2.76,2.76h-1.84a1.24,1.24,0,0,0,.14-.58A1.34,1.34,0,0,0,863.24,76h-4.77a.71.71,0,0,0-.5.21l-2.8,2.8a1,1,0,0,0-1.15.15l-1.38,1.38a1,1,0,0,0,0,1.36l2.5,2.51c.06,0,.11,0,.2,0l.46-.18c.06,0,.08-.14,0-.2l-2.66-2.65a.23.23,0,0,1,0-.31l1.38-1.38a.21.21,0,0,1,.31,0l4.23,4.23a.22.22,0,0,1,0,.3l-1.38,1.39a.23.23,0,0,1-.31,0l-.49-.5s-.11,0-.19,0l-.49.16a.12.12,0,0,0,0,.19l.68.67a.93.93,0,0,0,.68.28,1,1,0,0,0,.68-.28l1.38-1.38a1,1,0,0,0,.19-1.06L861.43,82h4.41a.77.77,0,0,0,.56-.23L871,77.08a1.32,1.32,0,0,0,0-1.89m-.5,1.37-4.66,4.67h-4.73l-1.78,1.83-3.61-3.6,2.75-2.76h4.77a.58.58,0,0,1,0,1.16h-2.38v.75h5.72l3-3a.58.58,0,0,1,.84,0l.09.08a.59.59,0,0,1,0,.83"/><path class="cls-2" d="M868.89,74V70.8a2.68,2.68,0,0,0-2.68-2.68h-9.09A1.08,1.08,0,0,0,856,69.2v2.49a.09.09,0,0,0,.09.1l.38-.14s.09-.05.09-.1V69.2a.52.52,0,0,1,.52-.52h9.09a2.12,2.12,0,0,1,2.12,2.12V74a.52.52,0,0,1-.52.51h-9.09a2.12,2.12,0,0,1-2.12-2,.09.09,0,0,0-.09-.09l-.38.14c-.06,0-.1.06-.09.11a2.55,2.55,0,0,0,2.68,2.43h9.09A1.08,1.08,0,0,0,868.89,74"/><path class="cls-2" d="M867.12,71.92l.32.06a.12.12,0,0,0,.12-.12v-.93a1.63,1.63,0,0,0-1.63-1.62H865a.12.12,0,0,0-.12.12l.06.32a.12.12,0,0,0,.12.12h.88A1.06,1.06,0,0,1,867,70.93v.87a.12.12,0,0,0,.12.12"/><path class="cls-2" d="M862.54,69.89a0,0,0,0,0,0,0h-.32s0,0,0,0a.08.08,0,0,0,0,0v.29a.77.77,0,0,0-.28.08.86.86,0,0,0-.18.14.69.69,0,0,0-.1.19.8.8,0,0,0,0,.23,1,1,0,0,0,0,.17.33.33,0,0,0,.07.16.79.79,0,0,0,.12.15,1.15,1.15,0,0,0,.2.15l.46.27.14.09.09.08a.35.35,0,0,1,0,.08.28.28,0,0,1,0,.09.36.36,0,0,1-.08.24.52.52,0,0,1-.32.07h-.62l0,0a.08.08,0,0,0,0,0v.24a.08.08,0,0,0,0,0l0,0,.2,0,.25,0v.3s0,0,0,.05l0,0h.32l0,0s0,0,0-.05v-.32a1.1,1.1,0,0,0,.29-.1.79.79,0,0,0,.19-.17.51.51,0,0,0,.1-.21.78.78,0,0,0,0-.22.58.58,0,0,0,0-.19.62.62,0,0,0-.07-.19,1.1,1.1,0,0,0-.15-.16,1.11,1.11,0,0,0-.24-.16l-.41-.24-.14-.08-.09-.07a.35.35,0,0,1,0-.08s0,0,0-.07a.23.23,0,0,1,.09-.19.48.48,0,0,1,.28-.06h.34l.34,0h.05a.08.08,0,0,0,0,0v-.25a.08.08,0,0,0,0,0l-.05,0-.2,0-.28,0v-.27a.05.05,0,0,0,0,0"/><path class="cls-16" d="M692,147a1.13,1.13,0,0,1-.64-.2,1,1,0,0,1-.42-.83V144.2a9.77,9.77,0,0,1-2.23.13c0,.21,0,.46,0,.68v.32a1,1,0,0,1-.68,1.12l-1.44.44a1.12,1.12,0,0,1-.86-.06,1,1,0,0,1-.56-.91V144c0-.19,0-.4,0-.56a7.66,7.66,0,0,1-2.76-2.13h-1.91a1.12,1.12,0,0,1-1.15-1l-.57-3v-.09a1.12,1.12,0,0,1,1.14-1.08h1.49a6.63,6.63,0,0,1,3-3.61.12.12,0,0,1,.17,0l.19.67c0,.07,0,.12-.05.15a5.3,5.3,0,0,0-2.55,3.2l0,0-.05.13a.45.45,0,0,1-.42.27h-1.8a.24.24,0,0,0-.24.15l.57,3v.08c0,.1.12.18.25.18h2.12a.49.49,0,0,1,.34.15l.14.17a6.9,6.9,0,0,0,2.68,2c.32.14.31.36.29,1.28v1.87a.12.12,0,0,0,.06.11.2.2,0,0,0,.15,0l1.46-.45.07,0V145c-.05-1.34,0-1.35.13-1.51a.48.48,0,0,1,.36-.12,9,9,0,0,0,3-.19.45.45,0,0,1,.39.09.44.44,0,0,1,.16.36v2.25a.12.12,0,0,0,.06.11.2.2,0,0,0,.15,0l1.46-.45.07,0v-3a.47.47,0,0,1,.21-.39,5.22,5.22,0,0,0,2.61-4.33c0-3.1-3.22-5.63-7.18-5.63a2.8,2.8,0,0,1-2.53-1.31,1.76,1.76,0,0,0-.62-.61v1.38a.1.1,0,0,1-.1.09l-.71.08a.09.09,0,0,1-.09-.09v-2a.45.45,0,0,1,.46-.46,2.1,2.1,0,0,1,1.77,1.05,1.91,1.91,0,0,0,1.82,1c4.46,0,8.08,2.93,8.08,6.53a6.1,6.1,0,0,1-2.82,5v2.55a1,1,0,0,1-.68,1.12l-1.49.46a1.06,1.06,0,0,1-.31,0"/><path class="cls-16" d="M698.22,139.25a1.84,1.84,0,0,1-1.29-.54,2.16,2.16,0,0,1-.57-1.55h.9a1.31,1.31,0,0,0,.31.92.89.89,0,0,0,.65.27.83.83,0,0,0,.83-.84.17.17,0,0,1,.17-.15h.56a.17.17,0,0,1,.17.18,1.73,1.73,0,0,1-1.73,1.71"/><path class="cls-16" d="M685.14,136.56a.16.16,0,0,1-.11.05h-.77a.17.17,0,0,1-.16-.16v-.7a.17.17,0,0,1,.16-.16H685a.16.16,0,0,1,.11,0,.13.13,0,0,1,.05.11v.7a.13.13,0,0,1-.05.11"/><path class="cls-16" d="M695.79,126.76s-.58-.25-.7-.28-.2.1-.2.21v4.49c0,.12.07.16.2.21s.59.25.7.28.21-.09.21-.21V127c0-.12-.08-.16-.21-.21"/><path class="cls-16" d="M693.13,129.42s-.25-.58-.28-.69.09-.21.21-.21h4.49c.11,0,.16.08.21.21s.24.58.28.69-.1.21-.21.21h-4.49c-.12,0-.16-.07-.21-.21"/><path class="cls-3" d="M879.87,185.4H854.74A10.7,10.7,0,0,1,844,174.7V155.32a.41.41,0,0,1,.54-.39l1.49.5a.46.46,0,0,1,.32.44V174.7a8.36,8.36,0,0,0,8.35,8.36h24.55a.45.45,0,0,1,.44.31l.51,1.52a.39.39,0,0,1-.37.51"/><path class="cls-3" d="M857.08,184.26h-3.9V173.65a.34.34,0,0,1,.34-.34h3.22a.34.34,0,0,1,.34.34Z"/><path class="cls-3" d="M863.84,184.26h-3.9v-23a.33.33,0,0,1,.33-.33h3.23a.34.34,0,0,1,.34.33Z"/><path class="cls-3" d="M870.59,184.26H866.7v-5.72a.33.33,0,0,1,.33-.33h3.23a.33.33,0,0,1,.33.33Z"/><path class="cls-3" d="M877.35,184.4h-3.9V171a.34.34,0,0,1,.34-.34H877a.34.34,0,0,1,.34.34Z"/></g></svg>