<?xml version="1.0" encoding="utf-8"?>
<!-- Generator: Adobe Illustrator 25.0.0, SVG Export Plug-In . SVG Version: 6.00 Build 0)  -->
<svg version="1.1" id="Capa_1" xmlns="http://www.w3.org/2000/svg" xmlns:xlink="http://www.w3.org/1999/xlink" x="0px" y="0px"
	 viewBox="0 0 89.5 89.5" style="enable-background:new 0 0 89.5 89.5;" xml:space="preserve">
<style type="text/css">
	.st0{fill:#D7282F;}
</style>
<path id="Trazado_231" class="st0" d="M44.8,79.8C25,79.8,8.9,63.7,8.9,43.9c0-0.7,0.6-1.3,1.3-1.3s1.3,0.6,1.3,1.3l0,0
	c0,18.3,14.9,33.2,33.2,33.2s33.2-14.9,33.2-33.2S63,10.7,44.7,10.7C32,10.7,20.5,18,14.9,29.3c-0.3,0.7-1.1,0.9-1.8,0.6
	s-0.9-1.1-0.6-1.8l0,0c8.7-17.8,30.2-25.1,48-16.4s25.1,30.2,16.4,48C70.9,72,58.4,79.8,44.8,79.8z"/>
<g>
	<path class="st0" d="M57.7,55.9c-0.8,1.4-1.9,2.5-3.2,3.3c-1.3,0.8-2.9,1.4-4.8,1.7c-1.8,0.3-3.8,0.5-5.8,0.5c-0.8,0-1.6,0-2.4,0
		c-0.8,0-1.6-0.1-2.4-0.1c-0.8,0-1.5-0.1-2.2-0.2s-1.2-0.1-1.7-0.2c-1-0.2-1.6-0.4-2-0.9c-0.4-0.4-0.6-1.2-0.6-2.2V28.7
		c0-1.1,0.2-1.8,0.6-2.2c0.4-0.4,1-0.7,2-0.9c0.4-0.1,0.9-0.1,1.6-0.2c0.6-0.1,1.4-0.1,2.1-0.2c0.8,0,1.6-0.1,2.4-0.1
		c0.8,0,1.6,0,2.4,0c2.3,0,4.3,0.2,6.1,0.5c1.8,0.3,3.4,0.9,4.7,1.6c1.3,0.8,2.3,1.8,3.1,3c0.7,1.3,1.1,2.9,1.1,4.8v0.9
		c0,1.6-0.3,3-1,4.2c-0.7,1.2-1.7,2.2-3,2.8c1.3,0.6,2.3,1.6,3.1,2.8s1.2,2.6,1.2,4.3v0.7C58.9,52.8,58.5,54.5,57.7,55.9z
		 M50.8,35.6c0-1.3-0.5-2.3-1.5-2.9c-1-0.6-2.7-0.9-5.1-0.9c-0.2,0-0.5,0-0.8,0c-0.3,0-0.7,0-1,0c-0.4,0-0.7,0-1,0
		c-0.3,0-0.6,0-0.7,0v8.2h5.3c1,0,1.7-0.1,2.4-0.3c0.6-0.2,1.1-0.5,1.5-0.8c0.4-0.3,0.6-0.7,0.8-1.2c0.2-0.5,0.2-0.9,0.2-1.5V35.6z
		 M51,50c0-1.1-0.4-2.1-1.1-3s-2-1.3-3.9-1.3h-5.3v8.9c0.2,0,0.5,0,0.8,0c0.4,0,0.7,0,1.1,0c0.4,0,0.8,0,1.1,0c0.4,0,0.6,0,0.8,0
		c2.4,0,4.1-0.4,5.1-1.1c0.9-0.7,1.4-1.8,1.4-3.1V50z"/>
</g>
</svg>
