<?xml version="1.0" encoding="utf-8"?>
<!-- Generator: Adobe Illustrator 25.0.0, SVG Export Plug-In . SVG Version: 6.00 Build 0)  -->
<svg version="1.1" id="Grupo_491" xmlns="http://www.w3.org/2000/svg" xmlns:xlink="http://www.w3.org/1999/xlink" x="0px" y="0px"
	 viewBox="0 0 74 49" style="enable-background:new 0 0 74 49;" xml:space="preserve">
<style type="text/css">
	.st0{fill:#FFFFFF;}
</style>
<g>
	<g>
		<path class="st0" d="M36.8,23.5c-4.4,0-8-3.6-8-8c0-4.4,3.6-8,8-8c4.4,0,8,3.6,8,8C44.8,19.9,41.2,23.5,36.8,23.5 M36.8,10.1
			c-3,0-5.5,2.5-5.5,5.5c0,3,2.5,5.5,5.5,5.5c3,0,5.5-2.5,5.5-5.5C42.3,12.5,39.8,10.1,36.8,10.1"/>
		<path class="st0" d="M49.3,20.2H38c-0.6,0-1.2-0.5-1.2-1.2v-0.1c0-0.7,0.5-1.2,1.2-1.2h9.4c0.3-1.2,0.4-2.4,0.2-3.6
			c-0.5-5.3-4.9-9.4-10.1-9.8C31.6,3.9,26.6,8.3,26,14h0.8v2.5h-3.3v-1c0-7.3,5.7-13.5,13-13.7C44,1.6,50.2,7.7,50.2,15.2
			c0,1.4-0.2,2.8-0.6,4.1L49.3,20.2z"/>
		<path class="st0" d="M25.2,47.2L25.2,47.2c-0.7-0.1-1.2-0.7-1.1-1.4l2-16.1c0.2-1.7,1.7-3,3.4-3h15.6c1.8,0,3.2,1.3,3.4,3.1
			l1.9,16.1c0.1,0.7-0.4,1.3-1.1,1.4h0c-0.7,0.1-1.3-0.4-1.4-1.1L46.2,30c-0.1-0.5-0.5-0.9-1-0.9H29.6c-0.5,0-0.9,0.4-1,0.9l-2,16.2
			C26.5,46.8,25.9,47.2,25.2,47.2z"/>
		<rect x="23.4" y="15.2" class="st0" width="3.4" height="2.8"/>
	</g>
</g>
</svg>
