<svg id="Grupo_491" data-name="Grupo 491" xmlns="http://www.w3.org/2000/svg" width="43.226" height="74.191" viewBox="0 0 43.226 74.191">
  <path id="Trazado_288" data-name="Trazado 288" d="M1136.194-794.607h-25.5a8.86,8.86,0,0,1-8.859-8.859v-11.72a2.445,2.445,0,0,1,2.445-2.446h30.355a.638.638,0,0,1,.638.638l-1.222,3.615c-.131.366-.287.638-.638.638h-26.687v9.274a3.967,3.967,0,0,0,3.967,3.966h25.5a3.976,3.976,0,0,0,3.976-3.976v-49.258A11.172,11.172,0,0,0,1129-863.907h-18.3a3.967,3.967,0,0,0-3.967,3.967v32.677c0,.353-.224.482-.638.638l-3.615,1.5a.639.639,0,0,1-.638-.64v-34.177a8.858,8.858,0,0,1,8.859-8.86H1129a16.065,16.065,0,0,1,16.066,16.066v49.258a8.868,8.868,0,0,1-8.869,8.868" transform="translate(-1101.836 868.799)" fill="#fff"/>
  <path id="Trazado_289" data-name="Trazado 289" d="M1125.663-802.658h-3.531a1.794,1.794,0,0,1-1.792-1.793,1.793,1.793,0,0,1,1.792-1.792h3.531a1.793,1.793,0,0,1,1.793,1.792,1.794,1.794,0,0,1-1.793,1.793" transform="translate(-1102.285 867.282)" fill="#fff"/>
  <path id="Trazado_290" data-name="Trazado 290" d="M1129.3-834.978a5.405,5.405,0,0,1-.2,1.454,4.029,4.029,0,0,1-.679,1.35,4.344,4.344,0,0,1-1.253,1.091,6.007,6.007,0,0,1-1.908.693v2.067a.428.428,0,0,1-.139.317.431.431,0,0,1-.319.137h-2.083a.432.432,0,0,1-.319-.137.431.431,0,0,1-.138-.317v-1.931q-.886-.045-1.6-.148t-1.351-.239a.671.671,0,0,1-.306-.157.381.381,0,0,1-.124-.3v-1.635a.42.42,0,0,1,.124-.306.415.415,0,0,1,.306-.126h.047c.228.03.525.058.9.081s.751.045,1.147.068.768.041,1.124.056.638.023.852.023a3.088,3.088,0,0,0,2.077-.522,1.983,1.983,0,0,0,.556-1.522,1.81,1.81,0,0,0-.092-.6,1.573,1.573,0,0,0-.306-.511,3.223,3.223,0,0,0-.59-.51c-.251-.175-.564-.374-.941-.6l-3-1.794a7.761,7.761,0,0,1-1.307-.953,4.611,4.611,0,0,1-.818-.988,3.575,3.575,0,0,1-.432-1.067,5.31,5.31,0,0,1-.124-1.147,5.121,5.121,0,0,1,.2-1.477,3.483,3.483,0,0,1,.66-1.226,3.83,3.83,0,0,1,1.192-.931,5.653,5.653,0,0,1,1.805-.544v-1.908a.434.434,0,0,1,.138-.319.437.437,0,0,1,.319-.135h2.083a.437.437,0,0,1,.319.135.43.43,0,0,1,.139.319v1.818c.636.03,1.251.079,1.85.146a11.408,11.408,0,0,1,1.351.216.66.66,0,0,1,.3.148.36.36,0,0,1,.113.284v1.679a.423.423,0,0,1-.1.3.365.365,0,0,1-.285.113h-.043q-1.137-.113-2.25-.17t-2.232-.058a3.127,3.127,0,0,0-1.841.421,1.4,1.4,0,0,0-.557,1.192,1.567,1.567,0,0,0,.079.511,1.328,1.328,0,0,0,.294.477,3,3,0,0,0,.58.476c.242.16.545.344.907.556l2.724,1.522a9.162,9.162,0,0,1,1.544,1.056,5.16,5.16,0,0,1,.978,1.1,3.67,3.67,0,0,1,.5,1.182,6.014,6.014,0,0,1,.137,1.294" transform="translate(-1102.238 868.336)" fill="#fff"/>
</svg>
