<?xml version="1.0" encoding="utf-8"?>
<!-- Generator: Adobe Illustrator 25.0.0, SVG Export Plug-In . SVG Version: 6.00 Build 0)  -->
<svg version="1.1" id="Grupo_491" xmlns="http://www.w3.org/2000/svg" xmlns:xlink="http://www.w3.org/1999/xlink" x="0px" y="0px"
	 viewBox="0 0 74 49" style="enable-background:new 0 0 74 49;" xml:space="preserve">
<style type="text/css">
	.st0{fill:#FFFFFF;}
</style>
<g>
	<path id="Trazado_288" class="st0" d="M44,45H30c-2.7,0-4.9-2.2-4.9-4.9v-6.5c0-0.7,0.6-1.3,1.3-1.3c0,0,0,0,0,0h16.7
		c0.2,0,0.4,0.2,0.4,0.4l-0.7,2c-0.1,0.2-0.2,0.4-0.4,0.4H27.8v5.1c0,1.2,1,2.2,2.2,2.2H44c1.2,0,2.2-1,2.2-2.2V12.9
		c0-3.4-2.8-6.2-6.2-6.2H30c-1.2,0-2.2,1-2.2,2.2l0,0v18c0,0.2-0.1,0.3-0.4,0.4l-2,0.8c-0.2,0-0.4-0.2-0.4-0.4V8.9
		C25.1,6.2,27.3,4,30,4c0,0,0,0,0,0h10.1c4.9,0,8.9,4,8.9,8.9c0,0,0,0,0,0v27.2C48.9,42.8,46.7,45,44,45C44,45,44,45,44,45"/>
	<path id="Trazado_289" class="st0" d="M38,39.7H36c-0.5,0-1-0.4-1-1c0-0.5,0.4-1,1-1H38c0.5,0,1,0.4,1,1C39,39.2,38.5,39.7,38,39.7
		"/>
	<path id="Trazado_290" class="st0" d="M40,22.4c0,0.3,0,0.5-0.1,0.8c-0.1,0.3-0.2,0.5-0.4,0.7c-0.2,0.2-0.4,0.4-0.7,0.6
		c-0.3,0.2-0.7,0.3-1.1,0.4v1.1c0,0.1,0,0.1-0.1,0.2c0,0-0.1,0.1-0.2,0.1h-1.1c-0.1,0-0.1,0-0.2-0.1c0,0-0.1-0.1-0.1-0.2V25
		c-0.3,0-0.6,0-0.9-0.1c-0.3,0-0.5-0.1-0.7-0.1c-0.1,0-0.1,0-0.2-0.1c0,0-0.1-0.1-0.1-0.2v-0.9c0-0.1,0-0.1,0.1-0.2
		c0,0,0.1-0.1,0.2-0.1h0c0.1,0,0.3,0,0.5,0c0.2,0,0.4,0,0.6,0c0.2,0,0.4,0,0.6,0c0.2,0,0.4,0,0.5,0c0.4,0,0.8-0.1,1.1-0.3
		c0.2-0.2,0.3-0.5,0.3-0.8c0-0.1,0-0.2-0.1-0.3c0-0.1-0.1-0.2-0.2-0.3c-0.1-0.1-0.2-0.2-0.3-0.3c-0.1-0.1-0.3-0.2-0.5-0.3l-1.7-1
		c-0.3-0.1-0.5-0.3-0.7-0.5c-0.2-0.2-0.3-0.3-0.5-0.5c-0.1-0.2-0.2-0.4-0.2-0.6c0-0.2-0.1-0.4-0.1-0.6c0-0.3,0-0.5,0.1-0.8
		c0.1-0.2,0.2-0.5,0.4-0.7c0.2-0.2,0.4-0.4,0.7-0.5c0.3-0.2,0.6-0.3,1-0.3v-1.1c0-0.1,0-0.1,0.1-0.2c0,0,0.1-0.1,0.2-0.1h1.1
		c0.1,0,0.1,0,0.2,0.1c0,0,0.1,0.1,0.1,0.2v1c0.4,0,0.7,0,1,0.1c0.3,0,0.5,0.1,0.7,0.1c0.1,0,0.1,0,0.2,0.1c0,0,0.1,0.1,0.1,0.2v0.9
		c0,0.1,0,0.1-0.1,0.2c0,0-0.1,0.1-0.2,0.1h0c-0.4,0-0.8-0.1-1.2-0.1c-0.4,0-0.8,0-1.2,0c-0.4,0-0.7,0.1-1,0.2
		c-0.2,0.2-0.3,0.4-0.3,0.7c0,0.1,0,0.2,0,0.3c0,0.1,0.1,0.2,0.2,0.3c0.1,0.1,0.2,0.2,0.3,0.3c0.1,0.1,0.3,0.2,0.5,0.3l1.5,0.8
		c0.3,0.2,0.6,0.4,0.9,0.6c0.2,0.2,0.4,0.4,0.5,0.6c0.1,0.2,0.2,0.4,0.3,0.7C40,22,40,22.2,40,22.4"/>
</g>
</svg>
