<?xml version="1.0" encoding="utf-8"?>
<!-- Generator: Adobe Illustrator 23.0.2, SVG Export Plug-In . SVG Version: 6.00 Build 0)  -->
<svg version="1.1" id="Layer_1" xmlns="http://www.w3.org/2000/svg" xmlns:xlink="http://www.w3.org/1999/xlink" x="0px" y="0px"
	 viewBox="0 0 1000 1000" style="enable-background:new 0 0 1000 1000;" xml:space="preserve">
<style type="text/css">
	.st0{fill:#D7272E;}
</style>
<g>
	<path class="st0" d="M618.4,925.8c-10.1,0-20.1-3.2-28.4-9.2c-12-8.7-18.9-22.1-19-36.8V803c-32.5,5.7-66.1,7.7-99.6,5.9
		c0.2,9.2,0.5,20.3,0.9,30.3v14.2c0,18.1,0,38.6-30.5,49.8l-64.1,19.8c-12.8,3.9-26.8,3.5-38.6-2.8c-15.5-8.3-24.7-23.5-24.9-40.4
		v-84.5c0.2-8.4,0.3-17.9,0.2-24.8c-49.7-23.3-92.2-56-123.2-95.2h-85.5c-27.4,0-49.8-20.4-51-45.9L29.4,496.3
		c-0.2-1.2-0.4-2.5-0.4-3.8c0-26.5,22.9-48.1,51-48.1h66.2c20.9-64.7,68.7-121.6,135.9-161.2c2.5-1.5,5.9-0.6,7.3,1.9l8.5,29.6
		c0.6,3.3,0.5,5.6-1.9,7C235,358,198.7,405.9,182.2,464.2c-0.2,0.8-0.5,1.6-0.8,2.4l-2.4,5.7c-3.1,7.5-10.4,12.3-18.5,12.3H80
		c-5.2,0-9.9,3-10.8,6.8l25.2,132.1c0.2,1.2,0.4,2.5,0.4,3.8c0,4.2,5.1,7.9,10.9,7.9h94.6c5.8,0,11.3,2.5,15.1,6.9l6.3,7.3
		c29.8,37.8,71,68.4,119.6,89.3c14.1,6.1,13.9,15.9,13,57.2v83.3c0,2.7,1.4,4.2,2.6,5c2,1.4,4.5,1.9,6.8,1.2l65.2-20.1
		c1.3-0.5,2.3-1,2.9-1.3c0.3-2.3,0.3-6.8,0.3-10.4V840c-2.2-59.8-1.6-60.3,5.8-67.3c4.2-4,10.1-6,15.8-5.4
		c44.3,4.4,90.3,1.5,132.9-8.6c6-1.4,12.4,0,17.2,3.9c4.8,3.9,7.6,9.8,7.5,16l-0.2,12.3v88.2c0,2.7,1.4,4.2,2.6,5
		c2,1.4,4.5,1.9,6.8,1.2l65.2-20.1c1.3-0.5,2.3-1,2.9-1.3c0.3-2.3,0.3-6.8,0.3-10.4l0-124.7c0-6.9,3.6-13.3,9.4-17
		c73.8-48,116.1-118.4,116.1-193.3c0-138.4-143.5-251-319.9-251c-68.8,0-94.5-34-113.2-58.8c-10.2-13.5-17.5-22.5-27.7-27.1V243
		c0,2.3-1.9,4.1-4.1,4.1l-31.9,3.7c-2.3,0-4.1-1.9-4.1-4.1v-88.9c0-11.2,9.3-20.1,20.5-20.1c44.1,0.2,63.7,26,79.4,46.8
		c17.3,23,32.3,42.8,81.2,42.8c198.5,0,360.1,130.6,360.1,291.1c0,85.6-45.6,165.7-125.6,221.1v114c0,18.1,0,38.6-30.5,49.8
		l-66.2,20.5C627.9,925.1,623.1,925.8,618.4,925.8"/>
	<path class="st0" d="M895.7,582.3c-21.5,0-42.4-8.9-57.5-24.3c-11.6-12-25.5-33.6-25.5-68.9h40.2c0,17.3,4.9,31.4,14.2,40.9
		c7.6,7.8,17.8,12.2,28.7,12.2c16,0,34.5-9.9,37-37.5c0.4-3.8,3.8-6.7,7.7-6.7h24.9c4.3,0,7.9,3.6,7.6,7.9
		C969.5,556.1,932.4,582.3,895.7,582.3"/>
	<path class="st0" d="M312.6,462.1c-1.4,1.4-3.1,2.1-4.9,2.1h-34.3c-1.9,0-3.6-0.7-5.1-2.1c-1.5-1.4-2.3-3-2.3-4.9v-31.1
		c0-1.9,0.7-3.5,2.3-4.9c1.5-1.4,3.2-2.1,5.1-2.1h34.3c1.9,0,3.5,0.7,4.9,2.1c1.4,1.4,2.1,3,2.1,4.9v31.1
		C314.7,459.1,314,460.7,312.6,462.1"/>
	<path class="st0" d="M787.4,25.1c0,0-26-11-31-12.4c-5-1.3-9.3,4.2-9.3,9.3v200.3c0,5.1,3.4,7.1,9.3,9.3c0,0,26,11,31,12.4
		c5,1.3,9.3-4.2,9.3-9.3V34.4C796.8,29.2,793.3,27.3,787.4,25.1"/>
	<path class="st0" d="M668.7,143.8c0,0-11-26-12.4-31c-1.3-5,4.2-9.3,9.3-9.3h200.3c5.1,0,7.1,3.4,9.3,9.3c0,0,11,26,12.4,31
		c1.3,5-4.2,9.3-9.3,9.3H678C672.8,153.1,670.9,149.7,668.7,143.8"/>
</g>
</svg>
