<svg xmlns="http://www.w3.org/2000/svg" viewBox="0 0 500 500"><defs><style>.cls-1{fill:#e0e0e0;}.cls-2{fill:#ebebeb;}.cls-3{fill:#fff;}.cls-4{fill:#fafafa;}.cls-5{fill:#b82c32;}.cls-6{fill:#e8505b;}.cls-7{fill:#263238;}.cls-8{fill:#455a64;}.cls-9{fill:#ffbe9d;}.cls-10{fill:#ad0015;}.cls-11{opacity:0.1;}.cls-12{fill:#eb996e;}</style></defs><title>comunicate-con</title><g id="Background_Complete" data-name="Background Complete"><path class="cls-1" d="M43.55,245.93a12.49,12.49,0,0,0-6.79,12.8,41,41,0,0,1,15.51-3.32"/><path class="cls-2" d="M40.17,248.39c-2.49,2.33,2.88-3.79,5.07-4.48s4.55-.21,6.79.28c10.29,2.24,20.85,4.59,29.6,10.43,9.11,6.07,15.47,15.39,21.59,24.47a13.09,13.09,0,0,1,2.55,5.46c.25,2-.75,4.34-2.7,4.9a6.36,6.36,0,0,1-2.94-.07l-14.39-2.59c-6.57-1.18-13.41-2.48-18.69-6.56-6-4.68-9-12.21-11.74-19.36-2.07-5.48-7.41-8.35-10.39-13.39C44.92,247.48,42.81,245.93,40.17,248.39Z"/><path class="cls-1" d="M131.06,303.8a7.19,7.19,0,0,1-1-.45l-2.74-1.4c-2.37-1.23-5.79-3-10-5.38a156.12,156.12,0,0,1-14.2-9c-2.57-1.85-5.2-3.9-7.78-6.18s-5.12-4.78-8-7a34.29,34.29,0,0,0-4.4-3,28.11,28.11,0,0,0-4.75-2.09c-1.61-.57-3.23-1.1-4.75-1.8a17.84,17.84,0,0,1-4.15-2.63A34.43,34.43,0,0,1,63.55,258c-1.6-2.32-3-4.53-4.45-6.41-2.89-3.78-6-6.16-8.5-7.14a15.53,15.53,0,0,0-4-1,8,8,0,0,1,1.08,0,12.26,12.26,0,0,1,3,.73c2.54.92,5.8,3.3,8.77,7.09,1.49,1.89,2.91,4.09,4.52,6.39a34,34,0,0,0,5.8,6.71,17.17,17.17,0,0,0,4,2.52c1.49.68,3.09,1.2,4.71,1.77a29.49,29.49,0,0,1,4.85,2.12,35.06,35.06,0,0,1,4.49,3.08c2.88,2.28,5.41,4.8,8,7.06s5.17,4.32,7.71,6.17a165.66,165.66,0,0,0,14.08,9.07c4.13,2.4,7.52,4.25,9.85,5.55l2.68,1.51A6.41,6.41,0,0,1,131.06,303.8Z"/><path class="cls-1" d="M462.31,33.16H381.85a17.78,17.78,0,0,0-17.78,17.78V85.87a17.78,17.78,0,0,0,17.78,17.78h2.21V117.5l13.85-13.85h64.4a17.78,17.78,0,0,0,17.78-17.78V50.94A17.78,17.78,0,0,0,462.31,33.16Z"/><circle class="cls-3" cx="403.86" cy="70.77" r="3.95"/><path class="cls-4" d="M403.86,75.33a4.56,4.56,0,1,1,4.56-4.56A4.57,4.57,0,0,1,403.86,75.33Zm0-7.9a3.34,3.34,0,1,0,3.34,3.34A3.34,3.34,0,0,0,403.86,67.43Z"/><circle class="cls-3" cx="422.08" cy="70.59" r="3.95"/><path class="cls-4" d="M422.08,75.15a4.56,4.56,0,1,1,4.56-4.56A4.56,4.56,0,0,1,422.08,75.15Zm0-7.9a3.34,3.34,0,1,0,3.33,3.34A3.35,3.35,0,0,0,422.08,67.25Z"/><circle class="cls-3" cx="440.3" cy="70.59" r="3.95"/><path class="cls-4" d="M440.3,75.15a4.56,4.56,0,1,1,4.56-4.56A4.56,4.56,0,0,1,440.3,75.15Zm0-7.9a3.34,3.34,0,1,0,3.33,3.34A3.35,3.35,0,0,0,440.3,67.25Z"/></g><g id="Plants"><path class="cls-5" d="M77.72,180.59c4,5.09,10.92,8.12,10.16,12.17-.67,3.6-3.88,14.49-3.58,18.14.38,4.75,4.74,8,8.76,10.61s8.49,5.57,9.3,10.26c.71,4.06-1.61,8.21-.82,12.26,1,5.11,6.38,7.95,11.2,9.95q12.33,5.11,25.06,9.25a25.42,25.42,0,0,0-7.78-24c-3.11-2.76-7-4.81-9.17-8.33-2.63-4.2-2.33-9.5-2.67-14.44s-2-10.53-6.5-12.53c-2.52-1.12-5.68-1-7.67-2.88-2.44-2.36-1.7-6.36-2.44-9.68-1-4.64-5.21-8.05-9.73-9.53s-9.37-1.35-14.12-1.21"/><path class="cls-6" d="M150.53,274.6c-5.64-9.14-3.28-20.15,1.43-29.8s12.57-17.36,20.5-24.6,17.72-14.94,28.62-13.93c-6.25,3.15-8.82,10.65-10.14,17.52s-2.17,14.32-6.78,19.58c-2.32,2.65-5.62,4.82-6.34,8.26-.65,3.12,1.07,6.42.25,9.5-1.34,5-8.28,6.4-10.43,11.1-1,2.27-.82,5.07-2.28,7.1-1.85,2.57-5.8,2.79-8.62,1.35s-4.78-4.1-6.64-6.67"/><path class="cls-7" d="M152.62,300.41a38.29,38.29,0,0,1-2.84-5.08c-1.64-3.38-3.64-8.43-6-14.71-1.17-3.14-2.43-6.58-3.87-10.25a109.3,109.3,0,0,0-5.08-11.45,28.33,28.33,0,0,0-3.76-5.54,30.76,30.76,0,0,0-5.51-4.34c-2-1.32-4.13-2.56-6.16-4a22,22,0,0,1-5.41-5.39,14.47,14.47,0,0,1-2.31-7.28c-.19-2.51,0-5-.24-7.35a14.08,14.08,0,0,0-2-6.57,7.65,7.65,0,0,0-2.37-2.27,16.24,16.24,0,0,0-3-1.34c-2.06-.71-4.27-1.31-5.88-2.86a7.88,7.88,0,0,1-2.06-5.79c0-2,.21-3.89.15-5.69a14.48,14.48,0,0,0-1.08-5,21.26,21.26,0,0,0-5.08-7.29,41,41,0,0,0-5.32-4.22c-1.55-1-2.79-1.81-3.62-2.33l-1-.61a2.37,2.37,0,0,1-.31-.22,1.4,1.4,0,0,1,.35.16l1,.56c.86.49,2.12,1.22,3.69,2.24a38.4,38.4,0,0,1,5.43,4.16,21.57,21.57,0,0,1,5.26,7.38,15,15,0,0,1,1.15,5.18c.08,1.86-.15,3.76-.11,5.7a7.34,7.34,0,0,0,1.93,5.4c1.46,1.4,3.58,2,5.67,2.71a15.71,15.71,0,0,1,3.13,1.38,8.16,8.16,0,0,1,2.56,2.44,14.53,14.53,0,0,1,2.11,6.86c.2,2.44.05,4.89.24,7.35a14,14,0,0,0,2.21,7,21.59,21.59,0,0,0,5.26,5.23c2,1.46,4.1,2.7,6.13,4a31.58,31.58,0,0,1,5.6,4.45,28.06,28.06,0,0,1,3.83,5.68,106.84,106.84,0,0,1,5.07,11.54c1.41,3.68,2.65,7.14,3.79,10.28,2.28,6.3,4.21,11.36,5.77,14.76.81,1.69,1.42,3,1.93,3.85.22.41.39.74.53,1A1.24,1.24,0,0,1,152.62,300.41Z"/><path class="cls-7" d="M200.82,206.14a7.23,7.23,0,0,1-1,.52c-.64.32-1.58.81-2.74,1.51a40.78,40.78,0,0,0-8.93,7.2,40,40,0,0,0-4.81,6.28,40.74,40.74,0,0,0-2.1,3.88c-.66,1.38-1.29,2.82-2,4.27a20.41,20.41,0,0,1-2.71,4.22,13.54,13.54,0,0,1-4.16,3.2,38.07,38.07,0,0,0-4.63,2.59,7.87,7.87,0,0,0-3,4.24c-1,3.49-.46,7.28-1.65,10.72s-3.43,6.07-4.94,8.87a22.77,22.77,0,0,0-2.63,8.6,32.64,32.64,0,0,0,.17,7.9,67.71,67.71,0,0,0,2.73,11.18c.4,1.25.72,2.25,1,3a6.85,6.85,0,0,1,.3,1.05s0-.08-.12-.25l-.3-.76c-.25-.67-.62-1.67-1.07-3a63,63,0,0,1-2.94-11.19,32.4,32.4,0,0,1-.24-8,22.93,22.93,0,0,1,2.63-8.82c1.54-2.87,3.74-5.52,4.86-8.79s.58-7,1.64-10.71a8.53,8.53,0,0,1,3.26-4.57,39.45,39.45,0,0,1,4.71-2.62,13,13,0,0,0,4-3,20.07,20.07,0,0,0,2.65-4.08c.72-1.43,1.36-2.87,2-4.25a41.76,41.76,0,0,1,2.16-3.92,40.31,40.31,0,0,1,4.93-6.31A39,39,0,0,1,197,208a29,29,0,0,1,2.82-1.41A6.78,6.78,0,0,1,200.82,206.14Z"/></g><g id="Character"><path class="cls-7" d="M337.88,249.21c11.5-1,23.18-2,34.6-.61s22.75,5.46,28.94,12.62c5.21,6,6.23,13.42,7.12,20.52l7.56,60.81c.65,5.17,1.26,10.52-1.05,15.42-5.05,10.72-23.63,15.77-38.44,12.43a45.62,45.62,0,0,1-30.81-23.84c-5.28-10.65-5.95-22.19-6.57-33.51l-3.37-61.62,1.5-1"/><polygon class="cls-7" points="18.57 354.29 22.14 366.83 362.54 465.68 479.62 388.41 479.62 377.87 18.57 354.29"/><polygon class="cls-8" points="140.68 297.58 479.62 377.87 362.54 454.27 18.57 354.29 140.68 297.58"/><polygon class="cls-7" points="319.51 366.52 254.68 397.85 135.83 365.44 194.18 333.57 319.51 366.52"/><polygon class="cls-8" points="248.03 365.19 265.24 370.88 281.17 362.21 254.65 353.71 239.16 361.73 248.03 365.19"/><path class="cls-7" d="M120.71,277.92c.54,2.16,15.12,87.52,15.12,87.52l118.85,32.41L239,306.55Z"/><path class="cls-8" d="M246,347.45c.17,0,2.25,11.23,4.64,25.14s4.18,25.23,4,25.26-2.25-11.23-4.64-25.15S245.86,347.48,246,347.45Z"/><path class="cls-8" d="M190.88,335.63c1.44,3.74,0,7.77-3.21,9s-7-.78-8.43-4.51,0-7.77,3.2-9S189.43,331.9,190.88,335.63Z"/><path class="cls-9" d="M239,306.55c5.29-6.1,8.37-47.82,8.37-47.82l39.23,4.42h0s-5.64,61-23.56,68.34l-17.92,7.32"/><path class="cls-10" d="M367.78,319.62s17.36,19.43,16.31,35.62L353.31,348l11.87-28.33"/><path class="cls-5" d="M392.5,265.21c-.75-34-14.2-50.7-14.75-52.86a53.09,53.09,0,0,0-39.16-17.22l-36.54.59A85.27,85.27,0,0,0,275,203.59l-.9.26V204c-10.33,5.4-21.43,13.81-23.19,28l-4.41,27.59,25.4,1.21h0c-2.58,9.24-5.44,10.43-2.47,19.55l9.69,16.05c0,12.81-.87,5.06-4.8,32.82l98.15,23.25c5.69-5.61,1.36-20.81-13.83-48.47-2.27-4.13,9.5-45.78,9.5-45.78l22,7.69"/><path class="cls-7" d="M277.62,250.34a11.52,11.52,0,0,1-.89,1.73c-.6,1.1-1.49,2.67-2.52,4.65-2,3.92-4.82,9.62-5.09,16.42a20.6,20.6,0,0,0,1.68,9.25A30.14,30.14,0,0,0,275,289c1.4,1.73,2.63,3.06,3.47,4a13.6,13.6,0,0,1,1.26,1.48,10.31,10.31,0,0,1-1.44-1.31c-.89-.88-2.18-2.16-3.63-3.87a29,29,0,0,1-4.35-6.61,20.89,20.89,0,0,1-1.78-9.51,30.51,30.51,0,0,1,2-9.47,52.11,52.11,0,0,1,3.35-7.15c1.09-2,2-3.5,2.71-4.56A10.44,10.44,0,0,1,277.62,250.34Z"/><path class="cls-7" d="M389,235.76s-.09.09-.28.25-.48.4-.87.67a15,15,0,0,1-3.82,1.85c-3.49,1.2-9.07,1.41-15.4-.5-3.16-.93-6.49-2.3-10.09-3.66a42.87,42.87,0,0,0-11.8-3.06,38.17,38.17,0,0,0-13.36,1.36,134.6,134.6,0,0,0-13.77,4.73A108.53,108.53,0,0,1,305.65,242a36.72,36.72,0,0,1-13.61.79A50.49,50.49,0,0,1,280.26,239c-3.55-1.51-6.82-3-9.93-4a33.11,33.11,0,0,0-8.6-1.68,21.11,21.11,0,0,0-6.58.66,17.15,17.15,0,0,0-5.09,2.42s.09-.09.28-.24.49-.38.89-.66a15.93,15.93,0,0,1,3.85-1.76,21.24,21.24,0,0,1,6.66-.78,32.85,32.85,0,0,1,8.73,1.61c3.15,1,6.44,2.46,10,3.94a50.08,50.08,0,0,0,11.65,3.63,36.25,36.25,0,0,0,13.39-.82,107.76,107.76,0,0,0,13.83-4.54,134.11,134.11,0,0,1,13.84-4.74,38.53,38.53,0,0,1,13.57-1.33,43,43,0,0,1,11.94,3.14c3.6,1.39,6.91,2.78,10,3.73,6.25,1.94,11.73,1.8,15.2.7A17.6,17.6,0,0,0,389,235.76Z"/><path class="cls-7" d="M358.83,296.62a4.15,4.15,0,0,1-.79.3l-2.31.74a61.83,61.83,0,0,1-8.67,2.08,31.83,31.83,0,0,1-6.17.36,29.55,29.55,0,0,1-7-1.23c-4.81-1.41-9.69-4-15-6a54.57,54.57,0,0,0-8-2.29,58,58,0,0,0-7.68-1,54.69,54.69,0,0,0-13.07.89,54.14,54.14,0,0,0-8.54,2.36c-1,.33-1.73.68-2.25.86a4.55,4.55,0,0,1-.81.28,4.51,4.51,0,0,1,.75-.4c.51-.22,1.23-.61,2.22-1a48,48,0,0,1,8.54-2.57,53.49,53.49,0,0,1,13.19-1,57.52,57.52,0,0,1,7.77,1,54.71,54.71,0,0,1,8.09,2.3c5.38,2.05,10.23,4.61,15,6a29.6,29.6,0,0,0,6.85,1.26,32.18,32.18,0,0,0,6.09-.28,70.92,70.92,0,0,0,8.66-1.87l2.34-.62A4,4,0,0,1,358.83,296.62Z"/><path class="cls-7" d="M314.32,332.57a7.29,7.29,0,0,1-1.63-.18,36.31,36.31,0,0,1-4.36-1c-3.65-1-8.45-3.09-13.94-4.71s-10.78-1.74-14.39-.78a21.44,21.44,0,0,0-5.53,2.38s.09-.12.31-.3a9.56,9.56,0,0,1,1-.71,15.08,15.08,0,0,1,4.12-1.81c3.67-1.09,9.11-1,14.68.61s10.31,3.78,13.9,4.89c1.78.58,3.25,1,4.27,1.22A8.5,8.5,0,0,1,314.32,332.57Z"/><g class="cls-11"><path d="M359.62,257.7s-16,35.26-2,58.32l6.53-2.45L358.64,304a10.57,10.57,0,0,1-.18-4.43c.8-5,2.36-13.22,4.44-21.48Z"/></g><path class="cls-7" d="M332.91,130.4c7.89,6.88,11.41,17.71,11.67,28.17s-.67,22.33-.42,33.24l16-.31c10.58.31,22.56-.8,32.68-1.58a9.79,9.79,0,0,0,4.84-1.24c2.33-1.58,2.85-4.73,3.17-7.52.5-4.4,1-8.94-.28-13.19s-4.76-8.14-9.18-8.45c-1.56-.11-3.19.21-4.63-.38a5.83,5.83,0,0,1-3.12-4.27c-.41-1.79-.35-3.65-.62-5.46a15.3,15.3,0,0,0-10-11.95c-3.28-1.11-7.24-1.26-9.4-4-2.62-3.29-.9-8.05-.76-12.26a15.28,15.28,0,0,0-24.75-12.49"/><path class="cls-9" d="M320.54,215.17h0a18.74,18.74,0,0,1-18.72-17.94c-.34-8-.62-15.69-.62-15.69s-15.37-1.43-16.49-16.63-.65-50.31-.65-50.31h0a53,53,0,0,1,53.55,3.4l2.36,1.6-.7,77A18.73,18.73,0,0,1,320.54,215.17Z"/><path class="cls-7" d="M290.8,143.45a2.21,2.21,0,1,0-3.13,0A2.22,2.22,0,0,0,290.8,143.45Z"/><path class="cls-7" d="M285.38,138.79c.26.25,1.68-1,3.78-1.13s3.68.85,3.9.56c.1-.12-.17-.58-.86-1.05a5.17,5.17,0,0,0-6.12.45C285.46,138.18,285.26,138.68,285.38,138.79Z"/><path class="cls-7" d="M309.63,140.09a2.21,2.21,0,1,0,3.08.54A2.21,2.21,0,0,0,309.63,140.09Z"/><path class="cls-7" d="M308.25,139.26c.25.25,1.68-1,3.77-1.14s3.68.85,3.9.57c.1-.13-.16-.59-.86-1.05a5.18,5.18,0,0,0-6.12.45C308.32,138.65,308.12,139.15,308.25,139.26Z"/><path class="cls-7" d="M300.81,155.54c0-.17-1.31-.35-3.43-.51-.55,0-1-.13-1.05-.42a3,3,0,0,1,.3-1.59l1.39-4.36c1.92-6.21,3.21-11.32,2.9-11.42s-2.12,4.86-4,11.07l-1.3,4.38a3.46,3.46,0,0,0-.16,2.3,1.47,1.47,0,0,0,1,.82,3.51,3.51,0,0,0,.94.06C299.49,155.82,300.81,155.7,300.81,155.54Z"/><path class="cls-3" d="M307.76,157.43c2.11-1.43-5.81,3.57-10.09,3.62a5.8,5.8,0,0,0,7,1.88C309.1,161,307.76,157.43,307.76,157.43Z"/><path class="cls-12" d="M301.16,181.32a35.46,35.46,0,0,0,19.49-6.86s-4,11.24-19.28,10.8Z"/><path class="cls-7" d="M338.93,150.91c-5.51,4.43-12.16-7-15.11-14.24s-3.87-15.15-4.3-23c-.14-2.58-.16-5.39,1.33-7.42s2.12.34,4-1.52c3.25-3.2.16-3.22,3.4-2.82,5.55.67,17.65,10.29,18.67,16.1s.19,11.8-.63,17.66c-.38,2.67-.75,5.34-1.13,8a13.23,13.23,0,0,1-1.58,5.42c-1,1.57-3,2.59-4.65,1.8"/><path class="cls-9" d="M339.13,138.4a2.28,2.28,0,0,1,2.19-2.3c2.84-.08,7.48,1,7.92,8.88.62,11.19-10.14,8.4-10.18,8.08S339.1,142.75,339.13,138.4Z"/><path class="cls-12" d="M341.53,148.66s.2.13.54.26a2,2,0,0,0,1.46,0c1.15-.5,2.05-2.43,2-4.45a6.63,6.63,0,0,0-.7-2.77,2.25,2.25,0,0,0-1.55-1.41,1,1,0,0,0-1.12.6c-.14.32,0,.54-.11.56s-.25-.17-.19-.64a1.31,1.31,0,0,1,.4-.73,1.52,1.52,0,0,1,1.07-.34,2.75,2.75,0,0,1,2.13,1.62,6.66,6.66,0,0,1,.85,3.08c.05,2.26-1,4.44-2.58,5a2.12,2.12,0,0,1-1.8-.19C341.56,148.93,341.49,148.68,341.53,148.66Z"/><path class="cls-7" d="M320.78,106.4a35.82,35.82,0,0,1-21.3,22.76,2.78,2.78,0,0,1-2.64,0c-.93-.73-.57-2.27.21-3.17s1.87-1.52,2.45-2.56l-5.7,3.22a9,9,0,0,1-2.94,1.24,3.07,3.07,0,0,1-2.92-.92,1.9,1.9,0,0,1,.39-2.78c-1.29,2.11-4.59,2.31-6.48.72a6.7,6.7,0,0,1-1.78-6.78,13.72,13.72,0,0,1,4-6.12c7.89-7.67,19.33-10.44,30.3-11.2a35.44,35.44,0,0,1,10.13.44c3.31.74,8.42.47,14.39,7"/><path class="cls-7" d="M293.86,133.07c-.12.35-2.12-.1-4.58,0s-4.45.56-4.59.21,1.82-1.44,4.56-1.49S294,132.76,293.86,133.07Z"/><path class="cls-7" d="M316.24,133.32c-.12.34-2.05-.08-4.43-.19s-4.34.09-4.43-.27,1.89-1.14,4.49-1S316.37,133,316.24,133.32Z"/><path class="cls-8" d="M345.53,126.75c-.18-.1.42-1.21.85-3.13a13,13,0,0,0-4.85-13.47c-1.55-1.21-2.72-1.68-2.65-1.87s1.36,0,3.17,1.13a12.32,12.32,0,0,1,5.2,14.45C346.55,125.86,345.65,126.84,345.53,126.75Z"/><path class="cls-9" d="M359.62,257.7l8.72,54.3-70.22,26.22,11.36,23.42,73.9-23.08a25.08,25.08,0,0,0,17.21-28.38l-9.44-52.48Z"/><path class="cls-9" d="M298.54,338.06s-13.07-4.17-19.34-5.77c-2.44-.62-12.9,4.9-20.12,9.49,0,0-9.95,5.9-9.15,7.71.89,2,4.56,1.6,10.41-1.16,0,0-2,5.93,2,5.8,0,0-2,6.41,1.77,7.07s4.64-7.51,7.95-7.95,10.17-.88,10.17-.88,5.7,9.44,10.12,10.1,17.59-.83,17.59-.83Z"/><path class="cls-12" d="M272.09,340.65c.09.15-2.13,1.72-5,3.51s-5.21,3.12-5.3,3,2.13-1.72,5-3.51S272,340.51,272.09,340.65Z"/><path class="cls-12" d="M273.21,344.3c.07.16-2.63,1.56-6,3.13s-6.21,2.71-6.29,2.55,2.63-1.56,6-3.13S273.13,344.14,273.21,344.3Z"/><path class="cls-12" d="M271.18,353.13c0,.17-1.85.57-4.19.89s-4.26.44-4.28.27,1.85-.58,4.19-.9S271.16,353,271.18,353.13Z"/></g></svg>