<?xml version="1.0" encoding="utf-8"?>
<!-- Generator: Adobe Illustrator 23.0.2, SVG Export Plug-In . SVG Version: 6.00 Build 0)  -->
<svg version="1.1" id="Grupo_491" xmlns="http://www.w3.org/2000/svg" xmlns:xlink="http://www.w3.org/1999/xlink" x="0px" y="0px"
	 viewBox="0 0 74.7 49.7" style="enable-background:new 0 0 74.7 49.7;" xml:space="preserve">
<style type="text/css">
	.st0{fill:#FFFFFF;}
</style>
<path class="st0" d="M64.8,0H6.4C2.9,0,0,2.9,0,6.4v21.3c0,0.4,0.3,0.7,0.7,0.7L3,27.6c0.2-0.1,0.7-0.2,0.7-0.7V6.4
	C3.7,6,3.8,5.6,4,5.2l22.7,22.6L7.4,42.7c-2.2-2.2-3.5-5-3.7-8.1c0-0.4-0.3-0.7-0.7-0.7l-2.3,0.8C0.2,34.8,0,35.2,0,35.5
	c0.3,8.1,7,14.1,15.6,14.1h52.6c3.5,0,6.4-2.9,6.4-6.4V9.9C74.7,4.4,70.3,0,64.8,0z M71,9.9v33.3c0,0.6-0.2,1.3-0.6,1.8L48,27.8
	L69.8,6.1C70.6,7.2,71,8.5,71,9.9z M37.4,37.4c0.6,0,1.2-0.2,1.7-0.7l5.7-5.6L64,46H15.6c-1.4,0-2.7-0.2-4-0.7L30,31.1l5.7,5.6
	C36.1,37.2,36.7,37.4,37.4,37.4z M9.1,3.7h55.7c0.2,0,0.5,0,0.7,0l-28.2,28L9.1,3.7z"/>
</svg>
