<?xml version="1.0" encoding="utf-8"?>
<!-- Generator: Adobe Illustrator 25.0.0, SVG Export Plug-In . SVG Version: 6.00 Build 0)  -->
<svg version="1.1" id="Grupo_491" xmlns="http://www.w3.org/2000/svg" xmlns:xlink="http://www.w3.org/1999/xlink" x="0px" y="0px"
	 viewBox="0 0 74.7 49.7" style="enable-background:new 0 0 74.7 49.7;" xml:space="preserve">
<style type="text/css">
	.st0{fill:#FFFFFF;}
</style>
<path class="st0" d="M59.9,4.5H12c-2.9,0-5.3,2.4-5.3,5.3v17.5c0,0.3,0.2,0.6,0.6,0.6l1.9-0.7c0.2-0.1,0.6-0.2,0.6-0.6V9.7
	c0-0.3,0.1-0.7,0.2-1l18.7,18.6L12.8,39.6c-1.8-1.8-2.9-4.1-3-6.7c0-0.3-0.2-0.6-0.6-0.6L7.3,33c-0.4,0.1-0.6,0.4-0.6,0.7
	c0.2,6.7,5.8,11.6,12.8,11.6h43.2c2.9,0,5.3-2.4,5.3-5.3V12.6C68.1,8.1,64.5,4.5,59.9,4.5z M65,12.6V40c0,0.5-0.2,1.1-0.5,1.5
	L46.1,27.3L64.1,9.5C64.7,10.4,65,11.5,65,12.6z M37.4,35.2c0.5,0,1-0.2,1.4-0.6l4.7-4.6l15.8,12.2H19.5c-1.2,0-2.2-0.2-3.3-0.6
	L31.4,30l4.7,4.6C36.4,35,36.9,35.2,37.4,35.2z M14.2,7.5h45.8c0.2,0,0.4,0,0.6,0l-23.2,23L14.2,7.5z"/>
</svg>
