<svg id="Capa_1" data-name="Capa 1" xmlns="http://www.w3.org/2000/svg" viewBox="0 0 689.81 128.75"><defs><style>.cls-1{fill:#fff;}</style></defs><path class="cls-1" d="M165.77,46.27a16.32,16.32,0,0,0-6.31-3.72A26.88,26.88,0,0,0,151,41.32c-1.31,0-2.62,0-3.94.09s-2.59.14-3.79.22-2.29.18-3.28.29-1.8.22-2.43.34a1.93,1.93,0,0,0-1.83,2.21v41.7a2.28,2.28,0,0,0,.47,1.58,2.2,2.2,0,0,0,1.36.63c.63.13,1.44.24,2.43.35s2.08.2,3.28.28,2.46.16,3.79.22,2.63.1,3.94.1a26.88,26.88,0,0,0,8.45-1.23,15.8,15.8,0,0,0,10.28-10,25,25,0,0,0,1.39-8.74V61.25a25,25,0,0,0-1.39-8.73A16.36,16.36,0,0,0,165.77,46.27Zm-5.42,23.12a17.82,17.82,0,0,1-.67,5.3A7.93,7.93,0,0,1,157.79,78a6.63,6.63,0,0,1-2.93,1.71,14.66,14.66,0,0,1-3.85.47l-2.49,0c-.87,0-1.53-.05-2-.09V50.59c.46,0,1.12-.07,2-.09s1.69,0,2.49,0a14.64,14.64,0,0,1,3.85.48,6.52,6.52,0,0,1,2.93,1.7A8.06,8.06,0,0,1,159.68,56a17.86,17.86,0,0,1,.67,5.3Z"/><path class="cls-1" d="M185.08,40.12h-8.21a1.22,1.22,0,0,0-.88.38,1.2,1.2,0,0,0-.38.88v5.87a1.2,1.2,0,0,0,.38.88,1.22,1.22,0,0,0,.88.38h8.21a1.22,1.22,0,0,0,.88-.38,1.2,1.2,0,0,0,.38-.88V41.38a1.2,1.2,0,0,0-.38-.88A1.22,1.22,0,0,0,185.08,40.12Z"/><path class="cls-1" d="M184.82,52.61h-7.69a1.24,1.24,0,0,0-.89.38,1.22,1.22,0,0,0-.38.88V87.5a1.2,1.2,0,0,0,.38.88,1.24,1.24,0,0,0,.89.38h7.69a1.24,1.24,0,0,0,.89-.38,1.19,1.19,0,0,0,.37-.88V53.87a1.21,1.21,0,0,0-.37-.88A1.24,1.24,0,0,0,184.82,52.61Z"/><path class="cls-1" d="M222.42,52.61H206.71q-8.27,0-12,3.28a10.91,10.91,0,0,0-3.76,8.64V65a13,13,0,0,0,.7,4,7.6,7.6,0,0,0,2.2,3.47,8,8,0,0,0-2,2.27,5.87,5.87,0,0,0-.79,3.09,7.8,7.8,0,0,0,.76,3.25,5.52,5.52,0,0,0,2.45,2.61,10.21,10.21,0,0,0-2.9,3.35,8.21,8.21,0,0,0-.88,3.72v.51A8.56,8.56,0,0,0,194.57,99q4.06,2.65,12,2.65,16.53,0,16.53-10.28v-.51A8.73,8.73,0,0,0,222.3,87a6.7,6.7,0,0,0-2.5-2.65,18.73,18.73,0,0,0-4.57-2c-1.89-.57-4.21-1.14-6.94-1.74l-7.13-1.57a3.27,3.27,0,0,1-1.51-.63,1.83,1.83,0,0,1-.19-1.93,1.91,1.91,0,0,1,.69-.66,13.69,13.69,0,0,0,2.65.66,24,24,0,0,0,3.91.28c5,0,8.8-.93,11.52-2.8s4.07-4.87,4.07-9v-.51a8.54,8.54,0,0,0-.41-2.46,9.23,9.23,0,0,0-1-2.2l2-.63a2.38,2.38,0,0,0,.85-.45,1.23,1.23,0,0,0,.29-.94v-3.6a1.68,1.68,0,0,0-.44-1.17A1.51,1.51,0,0,0,222.42,52.61Zm-22.2,38.23a7.46,7.46,0,0,1,.34-2.55,8.07,8.07,0,0,1,.92-1.74l4.67,1c1.42.3,2.56.58,3.4.85a13.28,13.28,0,0,1,2,.79,2.15,2.15,0,0,1,.91.79,1.74,1.74,0,0,1,.22.85v.51a3.64,3.64,0,0,1-.22,1.29,2.11,2.11,0,0,1-.88,1,5,5,0,0,1-1.86.66,17.86,17.86,0,0,1-3.16.22c-2.44,0-4.1-.26-5-.79a2.62,2.62,0,0,1-1.32-2.42ZM212.33,65a4.48,4.48,0,0,1-1.14,3.22c-.76.8-2.25,1.2-4.48,1.2a9.44,9.44,0,0,1-2.9-.38,4.53,4.53,0,0,1-1.77-1,3.28,3.28,0,0,1-.85-1.42A5.84,5.84,0,0,1,201,65v-.51a4.61,4.61,0,0,1,1.2-3.25c.8-.86,2.31-1.29,4.54-1.29s3.72.43,4.48,1.29a4.76,4.76,0,0,1,1.14,3.25Z"/><path class="cls-1" d="M236.11,40.12h-8.2a1.2,1.2,0,0,0-.88.38,1.17,1.17,0,0,0-.38.88v5.87a1.17,1.17,0,0,0,.38.88,1.2,1.2,0,0,0,.88.38h8.2a1.24,1.24,0,0,0,.89-.38,1.19,1.19,0,0,0,.37-.88V41.38a1.19,1.19,0,0,0-.37-.88A1.24,1.24,0,0,0,236.11,40.12Z"/><path class="cls-1" d="M235.86,52.61h-7.7a1.3,1.3,0,0,0-1.26,1.26V87.5a1.2,1.2,0,0,0,.38.88,1.22,1.22,0,0,0,.88.38h7.7a1.2,1.2,0,0,0,.88-.38,1.17,1.17,0,0,0,.38-.88V53.87a1.18,1.18,0,0,0-.38-.88A1.2,1.2,0,0,0,235.86,52.61Z"/><path class="cls-1" d="M261.85,81.63h-3.09q-1.45,0-1.77-.54a5.75,5.75,0,0,1-.31-2.42V60.31h5.17a1.18,1.18,0,0,0,.88-.39,1.21,1.21,0,0,0,.38-.89V53.88a1.24,1.24,0,0,0-.38-.89,1.2,1.2,0,0,0-.88-.38h-5.17V45.92a1,1,0,0,0-.32-.79,1.16,1.16,0,0,0-.81-.28h-.19l-7.65,1.33a2.15,2.15,0,0,0-.88.44,1,1,0,0,0-.37.82v5.17h-5.05a1.43,1.43,0,0,0-1.33,1.32V58.1a1.07,1.07,0,0,0,.42.85,2.15,2.15,0,0,0,.91.47l5.05.83V78.54a18,18,0,0,0,.69,5.46,7.27,7.27,0,0,0,2,3.28,7.42,7.42,0,0,0,3.29,1.61,21.34,21.34,0,0,0,4.55.44,22,22,0,0,0,2.46-.13c.72-.08,1.56-.21,2.53-.37.79-.13,1.19-.54,1.19-1.25V82.69C263.17,82,262.73,81.63,261.85,81.63Z"/><path class="cls-1" d="M290.36,55.1a12,12,0,0,0-4.63-2.27,24.26,24.26,0,0,0-6.15-.72,41.45,41.45,0,0,0-6.16.44c-2,.29-3.58.59-4.76.88a1.37,1.37,0,0,0-1.2,1.39v5.11a1.06,1.06,0,0,0,.32.88,1.25,1.25,0,0,0,.82.25h.32l1.89-.15c.76-.07,1.6-.12,2.55-.16l3-.1,3.06,0a6.41,6.41,0,0,1,3.47.82q1.26.83,1.26,3.54v2.27h-3.41q-8.13,0-11.83,2.55c-2.46,1.7-3.69,4.41-3.69,8.11v.57a12.86,12.86,0,0,0,.92,5.17A8.73,8.73,0,0,0,272,88.79a14.69,14.69,0,0,0,4,.54,14,14,0,0,0,4.89-.76,16,16,0,0,0,3.88-2.08v1A1.3,1.3,0,0,0,286,88.76h7.07a1.3,1.3,0,0,0,1.26-1.26V65a15,15,0,0,0-1-5.9A10.14,10.14,0,0,0,290.36,55.1Zm-6.05,25.14a16.44,16.44,0,0,1-2.43,1,8.82,8.82,0,0,1-2.74.41,6.12,6.12,0,0,1-3-.57c-.66-.38-1-1.24-1-2.58v-.57a4.75,4.75,0,0,1,1.13-3.47c.76-.76,2.23-1.14,4.42-1.14h3.6Z"/><path class="cls-1" d="M308.41,40.37h-7.7a1.31,1.31,0,0,0-.91.38,1.16,1.16,0,0,0-.42.88v45.8a1.43,1.43,0,0,0,1.33,1.33h7.7a1.09,1.09,0,0,0,.85-.41,1.39,1.39,0,0,0,.35-.92V41.63a1.27,1.27,0,0,0-.35-.88A1.12,1.12,0,0,0,308.41,40.37Z"/><path class="cls-1" d="M345.32,46.27A16.36,16.36,0,0,0,339,42.55a26.83,26.83,0,0,0-8.45-1.23c-1.3,0-2.62,0-3.94.09s-2.59.14-3.79.22-2.29.18-3.28.29-1.79.22-2.43.34a2.26,2.26,0,0,0-1.35.64,2.2,2.2,0,0,0-.47,1.57v41.7a2.23,2.23,0,0,0,.47,1.58,2.2,2.2,0,0,0,1.35.63c.64.13,1.45.24,2.43.35s2.09.2,3.28.28,2.47.16,3.79.22,2.64.1,3.94.1A26.83,26.83,0,0,0,339,88.1a16.25,16.25,0,0,0,6.32-3.73,16.44,16.44,0,0,0,4-6.24,25,25,0,0,0,1.39-8.74V61.25a25,25,0,0,0-1.39-8.73A16.48,16.48,0,0,0,345.32,46.27Zm-5.43,23.12a17.85,17.85,0,0,1-.66,5.3,7.83,7.83,0,0,1-1.9,3.31,6.63,6.63,0,0,1-2.93,1.71,14.66,14.66,0,0,1-3.85.47l-2.49,0q-1.29,0-2-.09V50.59q.69-.06,2-.09c.86,0,1.69,0,2.49,0a14.64,14.64,0,0,1,3.85.48,6.52,6.52,0,0,1,2.93,1.7,8,8,0,0,1,1.9,3.31,17.9,17.9,0,0,1,.66,5.3Z"/><path class="cls-1" d="M381.68,56.55a13.54,13.54,0,0,0-4.92-3.28,20.39,20.39,0,0,0-13.56,0,13.45,13.45,0,0,0-8,8.42,21.1,21.1,0,0,0-1,6.82v4.42a21,21,0,0,0,1,6.81,13.88,13.88,0,0,0,3.07,5.14,13.7,13.7,0,0,0,4.95,3.28,20.23,20.23,0,0,0,13.56,0,13.41,13.41,0,0,0,4.92-3.28,13.93,13.93,0,0,0,3-5.14,21,21,0,0,0,1-6.81V68.51a21.09,21.09,0,0,0-1-6.82A14,14,0,0,0,381.68,56.55Zm-6.15,16.38q0,7.75-5.55,7.75a4.87,4.87,0,0,1-4.18-2,9.73,9.73,0,0,1-1.43-5.8V68.51c0-2.57.47-4.49,1.43-5.77A4.88,4.88,0,0,1,370,60.81q5.55,0,5.55,7.7Z"/><path class="cls-1" d="M418.65,56.27a8.37,8.37,0,0,0-3.41-3.06,12.24,12.24,0,0,0-5.58-1.1,17.91,17.91,0,0,0-5.36.73,17.56,17.56,0,0,0-4.92,2.57V53.88A1.24,1.24,0,0,0,399,53a1.22,1.22,0,0,0-.88-.38h-7.07a1.2,1.2,0,0,0-.88.38,1.22,1.22,0,0,0-.38.88V87.43a1.41,1.41,0,0,0,1.33,1.33h7.63a1.16,1.16,0,0,0,.88-.41,1.32,1.32,0,0,0,.38-.91V62.63a29.63,29.63,0,0,1,3.09-1.44,7.77,7.77,0,0,1,2.84-.57,8,8,0,0,1,2.36.29,2.63,2.63,0,0,1,1.43,1,4.38,4.38,0,0,1,.69,1.83,16.69,16.69,0,0,1,.19,2.77v21a1.32,1.32,0,0,0,.38.91,1.16,1.16,0,0,0,.88.41h7.63a1.41,1.41,0,0,0,1.33-1.33v-21a32,32,0,0,0-.47-5.59A12.85,12.85,0,0,0,418.65,56.27Z"/><path class="cls-1" d="M454.65,40.37H447a1.2,1.2,0,0,0-.88.38,1.18,1.18,0,0,0-.38.88V52.55c-.93-.13-1.86-.23-2.81-.32s-1.74-.12-2.36-.12c-5.35,0-9.32,1.44-11.93,4.35s-3.91,6.83-3.91,11.8v4.92q0,7.69,4.07,11.92t11.77,4.23a53.49,53.49,0,0,0,7.19-.48A54,54,0,0,0,454,87.69a3.66,3.66,0,0,0,1.61-.69,1.67,1.67,0,0,0,.35-1.14V41.63a1.18,1.18,0,0,0-.41-.88A1.34,1.34,0,0,0,454.65,40.37Zm-8.9,40.19c-.59.08-1.34.17-2.24.25s-1.88.13-2.93.13a5.89,5.89,0,0,1-2.78-.57,4.31,4.31,0,0,1-1.7-1.61,7.17,7.17,0,0,1-.89-2.46,17.77,17.77,0,0,1-.25-3.12V68.26a17.23,17.23,0,0,1,.25-3.06,7.1,7.1,0,0,1,.89-2.46,4.31,4.31,0,0,1,1.7-1.61,5.89,5.89,0,0,1,2.78-.57q1.13,0,2.58.09c1,.07,1.83.14,2.59.22Z"/><path class="cls-1" d="M487.7,56.84a13.6,13.6,0,0,0-4.86-3.47A16.79,16.79,0,0,0,476,52.11a18.51,18.51,0,0,0-6.75,1.16,13.65,13.65,0,0,0-5,3.32,14.21,14.21,0,0,0-3.13,5.23,20.78,20.78,0,0,0-1.07,6.88v4.42a18.76,18.76,0,0,0,1.39,7.66,13.63,13.63,0,0,0,3.65,5,14.19,14.19,0,0,0,5.12,2.71,20.2,20.2,0,0,0,5.67.82,55.74,55.74,0,0,0,7-.38,53.3,53.3,0,0,0,5.93-1.15,1.66,1.66,0,0,0,1.07-.57,2.1,2.1,0,0,0,.25-1.14V81.25c0-.67-.4-1-1.2-1h-.19c-.63,0-1.43.11-2.39.19s-2,.15-3.13.19l-3.37.13c-1.14,0-2.21.06-3.22.06a7.44,7.44,0,0,1-3.12-.56,5.45,5.45,0,0,1-2-1.5,5.54,5.54,0,0,1-1.07-2.19,10.5,10.5,0,0,1-.32-2.56v-.13h20.13c.88,0,1.32-.5,1.32-1.51V68.7a21.55,21.55,0,0,0-1-6.63A14.59,14.59,0,0,0,487.7,56.84Zm-6.06,10.72H470.16v-.25a7.67,7.67,0,0,1,1.58-5.24A5.41,5.41,0,0,1,476,60.31,5.26,5.26,0,0,1,480.13,62a7.86,7.86,0,0,1,1.51,5.27Z"/><path class="cls-1" d="M523.79,42.14c-.55-.08-1.17-.17-1.86-.25s-1.53-.17-2.5-.26-2.08-.16-3.34-.22-2.75-.09-4.48-.09a33.78,33.78,0,0,0-5.85.5,12.66,12.66,0,0,0-4.94,2,10.13,10.13,0,0,0-3.4,4.1,16.28,16.28,0,0,0-1.26,6.94V75.76a16.25,16.25,0,0,0,1.26,6.94,10.39,10.39,0,0,0,3.4,4.14,12.31,12.31,0,0,0,4.91,2,32.32,32.32,0,0,0,5.82.51c3.4,0,6-.1,7.85-.29s3.29-.36,4.39-.53c.84-.13,1.26-.57,1.26-1.33V81.31a1.28,1.28,0,0,0-1.26-1.25H511a4.32,4.32,0,0,1-3.12-.92,4.78,4.78,0,0,1-.92-3.38V69.08h16.34a1.3,1.3,0,0,0,1.26-1.27v-6a1.18,1.18,0,0,0-.38-.88,1.15,1.15,0,0,0-.88-.38H506.94V54.82a4.78,4.78,0,0,1,.92-3.38,4.37,4.37,0,0,1,3.12-.91h12.81a1.3,1.3,0,0,0,1.26-1.26V43.4C525.05,42.69,524.63,42.26,523.79,42.14Z"/><path class="cls-1" d="M553.84,73.72a10.94,10.94,0,0,0-2-2.4,17.1,17.1,0,0,0-3.2-2.31l-7.85-4.48a8.46,8.46,0,0,1-1.46-1,1.51,1.51,0,0,1-.51-1.16,1.49,1.49,0,0,1,.76-1.46,6.35,6.35,0,0,1,2.59-.38c.79,0,1.71,0,2.74.1s2,.14,3,.22l2.75.25c.83.09,1.48.17,1.95.26h.19c.71,0,1.08-.4,1.08-1.2V55a1.43,1.43,0,0,0-1.2-1.46c-1.61-.41-3.25-.76-5-1a39.63,39.63,0,0,0-6.28-.41q-6.54,0-9.7,2.49a8.71,8.71,0,0,0-3.17,7.28,10,10,0,0,0,1.49,5.46,11.51,11.51,0,0,0,4.15,3.88L542.51,76a7.16,7.16,0,0,1,1.84,1.36,2,2,0,0,1,.51,1.29,2.32,2.32,0,0,1-.73,1.87,5.24,5.24,0,0,1-3,.59c-.51,0-1.19,0-2.06-.06s-1.81-.1-2.82-.19-2-.18-3.07-.28-2-.23-2.82-.35h-.25a1.15,1.15,0,0,0-.89.35,1.2,1.2,0,0,0-.31.85v5.11a1.4,1.4,0,0,0,1.2,1.45c.79.21,1.68.4,2.64.57s2,.31,3,.44,2,.22,3,.28,1.93.1,2.81.1a19.36,19.36,0,0,0,6-.82,12.51,12.51,0,0,0,4.2-2.24,9,9,0,0,0,2.49-3.38,10.57,10.57,0,0,0,.82-4.16,12.68,12.68,0,0,0-.26-2.52A7.78,7.78,0,0,0,553.84,73.72Z"/><path class="cls-1" d="M578.42,81.63h-3.09q-1.46,0-1.77-.54a5.75,5.75,0,0,1-.31-2.42V60.31h5.17A1.32,1.32,0,0,0,579.68,59V53.88a1.3,1.3,0,0,0-1.26-1.27h-5.17V45.92a1,1,0,0,0-.32-.79,1.14,1.14,0,0,0-.81-.28h-.19l-7.65,1.33a2.15,2.15,0,0,0-.88.44,1,1,0,0,0-.37.82v5.17h-5a1.26,1.26,0,0,0-.91.41,1.24,1.24,0,0,0-.41.91V58.1a1.06,1.06,0,0,0,.41.85,2.15,2.15,0,0,0,.91.47l5,.83V78.54a18.33,18.33,0,0,0,.68,5.46,7.28,7.28,0,0,0,2,3.28,7.41,7.41,0,0,0,3.3,1.61,21.18,21.18,0,0,0,4.54.44A22.17,22.17,0,0,0,576,89.2c.72-.08,1.56-.21,2.53-.37.79-.13,1.2-.54,1.2-1.25V82.69C579.75,82,579.3,81.63,578.42,81.63Z"/><path class="cls-1" d="M592.61,49h6.76a1.61,1.61,0,0,0,.88-.18,8.28,8.28,0,0,0,.63-.57l7.7-7.7a.77.77,0,0,0,.25-.5c0-.3-.24-.44-.7-.44h-8.26a1.61,1.61,0,0,0-1,.22,4.78,4.78,0,0,0-.72.72l-5.87,7.38a1,1,0,0,0-.25.63C592.05,48.87,592.24,49,592.61,49Z"/><path class="cls-1" d="M609.71,56.84a13.6,13.6,0,0,0-4.86-3.47A16.82,16.82,0,0,0,598,52.11a18.51,18.51,0,0,0-6.75,1.16,13.77,13.77,0,0,0-5,3.32,14.32,14.32,0,0,0-3.12,5.23,20.78,20.78,0,0,0-1.07,6.88v4.42a18.94,18.94,0,0,0,1.38,7.66,13.76,13.76,0,0,0,3.66,5,14.19,14.19,0,0,0,5.12,2.71,20.2,20.2,0,0,0,5.67.82,55.85,55.85,0,0,0,7-.38,53.3,53.3,0,0,0,5.93-1.15,1.66,1.66,0,0,0,1.07-.57,2.19,2.19,0,0,0,.25-1.14V81.25c0-.67-.4-1-1.2-1h-.19c-.63,0-1.43.11-2.39.19s-2,.15-3.13.19l-3.37.13c-1.14,0-2.21.06-3.22.06a7.44,7.44,0,0,1-3.12-.56,5.45,5.45,0,0,1-2-1.5,5.68,5.68,0,0,1-1.07-2.19,10.5,10.5,0,0,1-.32-2.56v-.13H612.3c.88,0,1.32-.5,1.32-1.51V68.7a21.55,21.55,0,0,0-1-6.63A14.74,14.74,0,0,0,609.71,56.84Zm-6.06,10.72H592.17v-.25a7.67,7.67,0,0,1,1.58-5.24A5.41,5.41,0,0,1,598,60.31,5.26,5.26,0,0,1,602.14,62a7.86,7.86,0,0,1,1.51,5.27Z"/><path class="cls-1" d="M641.79,73.72a10.72,10.72,0,0,0-2-2.4,16.77,16.77,0,0,0-3.2-2.31l-7.85-4.48a8.88,8.88,0,0,1-1.46-1,1.54,1.54,0,0,1-.5-1.16,1.49,1.49,0,0,1,.75-1.46,6.35,6.35,0,0,1,2.59-.38c.8,0,1.72,0,2.75.1s2,.14,3,.22l2.75.25c.84.09,1.49.17,2,.26h.19q1.08,0,1.08-1.2V55a1.42,1.42,0,0,0-1.2-1.46c-1.6-.41-3.25-.76-5-1a39.8,39.8,0,0,0-6.28-.41q-6.54,0-9.71,2.49t-3.16,7.28a10,10,0,0,0,1.48,5.46,11.59,11.59,0,0,0,4.15,3.88L630.46,76a7.16,7.16,0,0,1,1.84,1.36,2,2,0,0,1,.5,1.29,2.29,2.29,0,0,1-.73,1.87,5.22,5.22,0,0,1-3,.59c-.5,0-1.19,0-2-.06s-1.81-.1-2.82-.19-2-.18-3.08-.28-2-.23-2.81-.35H618a1.17,1.17,0,0,0-.89.35,1.2,1.2,0,0,0-.31.85v5.11a1.41,1.41,0,0,0,1.2,1.45c.8.21,1.68.4,2.65.57s2,.31,3,.44,2,.22,3,.28,1.93.1,2.81.1a19.36,19.36,0,0,0,6-.82,12.42,12.42,0,0,0,4.2-2.24,9,9,0,0,0,2.49-3.38,10.57,10.57,0,0,0,.82-4.16,12.67,12.67,0,0,0-.25-2.52A8,8,0,0,0,641.79,73.72Z"/><path class="cls-1" d="M52.09,70.57a1,1,0,0,0-1.06.9l-.9,5.69v.15c0,.65.35,1,1,1h6.44L56.56,91v.16a1.32,1.32,0,0,0,.34.9,1.1,1.1,0,0,0,.87.38h7.8a1.18,1.18,0,0,0,1-.41,2,2,0,0,0,.42-1l1.13-12.72h8.56L75.57,91v.16a1.4,1.4,0,0,0,.3.9,1.09,1.09,0,0,0,.91.38h7.73a1.19,1.19,0,0,0,.95-.41,2,2,0,0,0,.41-1l1.06-12.72H93.3a1.09,1.09,0,0,0,.75-.38,1.53,1.53,0,0,0,.46-.75l.83-5.38v-.15a.87.87,0,0,0-.46-.76,1.61,1.61,0,0,0-.9-.3H87.62l1.13-12.2h6.44a1,1,0,0,0,1.13-.83l.91-5.76v-.15a.83.83,0,0,0-.41-.72,1.66,1.66,0,0,0-.87-.26H89.36l1.21-13v-.15a1.51,1.51,0,0,0-.27-.91,1,1,0,0,0-.87-.38H81.71a1.26,1.26,0,0,0-1,.42,1.77,1.77,0,0,0-.45,1l-1.21,13H70.5l1.13-13v-.15a1.4,1.4,0,0,0-.3-.91,1,1,0,0,0-.83-.38H62.7a1.26,1.26,0,0,0-1,.42,1.77,1.77,0,0,0-.45,1l-1.14,13H54.06a1.44,1.44,0,0,0-.75.22.89.89,0,0,0-.46.61l-.91,5.83v.15c0,.61.35.91,1.06.91h6.44l-1.06,12.2Zm17.8-12.2h8.56l-1.14,12.2H68.76Z"/><path class="cls-1" d="M639.09,25.7H123.55a23.39,23.39,0,0,0-21-13.15H24V62.16a3.19,3.19,0,0,0,6.38,0V19.05h69.85a19.27,19.27,0,0,1,19.27,19.27V109.7H49.21a18.8,18.8,0,0,1-18.8-18.8V76.46a3.19,3.19,0,0,0-6.38,0V92.79a23.41,23.41,0,0,0,23.4,23.41h78.49v-4.29H639.09a26.72,26.72,0,0,0,26.69-26.69V52.38A26.71,26.71,0,0,0,639.09,25.7Zm23.09,59.52a23.12,23.12,0,0,1-23.09,23.09H125.92V36a23.2,23.2,0,0,0-1-6.65H639.09a23.11,23.11,0,0,1,23.09,23.08Z"/></svg>