<?xml version="1.0" encoding="utf-8"?>
<!-- Generator: Adobe Illustrator 23.0.2, SVG Export Plug-In . SVG Version: 6.00 Build 0)  -->
<svg version="1.1" id="Layer_1" xmlns="http://www.w3.org/2000/svg" xmlns:xlink="http://www.w3.org/1999/xlink" x="0px" y="0px"
	 viewBox="0 0 100 100" style="enable-background:new 0 0 100 100;" xml:space="preserve">
<style type="text/css">
	.st0{fill:#D7282F;}
	.st1{fill:#FFFFFF;}
</style>
<title>iconos</title>
<path class="st0" d="M92.5,70.3c-0.1,0-0.3-0.2-14.4-0.2s-14.1,0-14.3,0.2l-0.1,0.2v0.1c0,0.1-0.1,0.4-0.2,0.8
	c-0.7,0.3-4.8,0.8-11.2,0.8s-10.5-0.4-11.2-0.8l-0.2-0.8l0,0c0-0.5,0-0.5-4.5-0.5h-9.9c-14.1,0-14.3,0.1-14.4,0.2
	c-0.6,0.3-0.1,2,0.4,3.4c1,2.7,39.5,2.7,39.9,2.7s38.7,0,39.6-2.7C92.6,72.3,93,70.6,92.5,70.3z"/>
<path class="st0" d="M19.5,60l0.2-0.1V26.2c0-2.2,1.8-4,4-4h57.2c2.2,0,3.9,1.8,3.9,4v33.7c0,2.2-1.8,3.9-3.9,4H23.4l-0.1,0.3
	C22.8,65,22.8,66,23.1,67l0.2,0.3h57.5c4.1,0,7.4-3.3,7.4-7.4c0,0,0,0,0,0V26.2c0-4.1-3.3-7.4-7.4-7.4H23.6c-4.1,0-7.4,3.3-7.4,7.4
	v33.7l0.2,0.1C17.4,60.5,18.6,60.5,19.5,60z"/>
<circle class="st0" cx="19.1" cy="67.3" r="15.2"/>
<g>
	<path class="st1" d="M20.6,75.1c-0.1,0.1-0.2,0.1-0.3,0.1h-2.2c-0.1,0-0.2,0-0.3-0.1c-0.1-0.1-0.1-0.2-0.1-0.3V61.9l-2.6,0.9
		c-0.1,0-0.2,0-0.3,0c-0.2,0-0.2-0.1-0.2-0.3v-2.1c0-0.1,0.1-0.2,0.2-0.2l3.6-1.3c0.1,0,0.1-0.1,0.2-0.1c0.1,0,0.2,0,0.3,0h1.5
		c0.3,0,0.4,0.1,0.4,0.4v15.6C20.7,74.9,20.7,75,20.6,75.1z"/>
</g>
</svg>
