<?xml version="1.0" encoding="utf-8"?>
<!-- Generator: Adobe Illustrator 23.0.2, SVG Export Plug-In . SVG Version: 6.00 Build 0)  -->
<svg version="1.1" id="Layer_1" xmlns="http://www.w3.org/2000/svg" xmlns:xlink="http://www.w3.org/1999/xlink" x="0px" y="0px"
	 viewBox="0 0 100 100" style="enable-background:new 0 0 100 100;" xml:space="preserve">
<style type="text/css">
	.st0{fill:#D7282F;}
	.st1{fill:#FFFFFF;}
</style>
<title>iconos</title>
<path class="st0" d="M73.8,36.5H16.2c-3.8,0-6.8,3.1-6.8,6.8l0,0l0,0v19.8c0,9.3,7.5,16.9,16.9,16.9h57.6c3.8,0,6.8-3.1,6.8-6.8l0,0
	V53.5C90.7,44.1,83.1,36.6,73.8,36.5z M29.6,76.5h-3.4c-7.4,0-13.4-6-13.4-13.4V60l0,0V43.3c0-1.8,1.4-3.3,3.2-3.3c0,0,0.1,0,0.1,0
	h57.6c7.4,0,13.4,6,13.4,13.4v3.1l0,0v16.7c0,1.8-1.4,3.3-3.2,3.3c0,0,0,0,0,0H29.6z"/>
<path class="st0" d="M50,45.1c-7.3,0-13.2,5.9-13.2,13.2S42.7,71.5,50,71.5s13.2-5.9,13.2-13.2l0,0C63.2,51,57.3,45.1,50,45.1z
	 M50,68c-5.4,0-9.7-4.3-9.7-9.7c0-5.4,4.3-9.7,9.7-9.7s9.7,4.3,9.7,9.7c0,0,0,0,0,0C59.7,63.6,55.3,68,50,68z"/>
<polygon class="st0" points="40.2,14.9 40.2,30.1 35.8,25.7 34.9,26.7 40.8,32.7 46.8,26.8 45.9,25.8 41.6,30.1 41.6,14.9 "/>
<polygon class="st0" points="62.4,32.7 62.4,17.5 66.8,21.9 67.7,21 61.8,14.9 55.8,20.8 56.7,21.8 61,17.5 61,32.7 "/>
<circle class="st0" cx="16.9" cy="70.4" r="14.7"/>
<g>
	<path class="st1" d="M21.6,65.6c0,0.8-0.2,1.5-0.6,2.1c-0.4,0.6-1,1.2-1.9,1.7l-1.8,1.2c-0.9,0.6-1.6,1.2-2.1,1.8
		c-0.5,0.6-0.7,1.3-0.7,2.1v0.1H21c0.1,0,0.2,0,0.3,0.1c0.1,0.1,0.1,0.2,0.1,0.3v1.5c0,0.1,0,0.2-0.1,0.3c-0.1,0.1-0.2,0.1-0.3,0.1
		h-8.4c-0.1,0-0.2,0-0.3-0.1c-0.1-0.1-0.1-0.2-0.1-0.3v-1.9c0-0.5,0.1-1.1,0.2-1.6s0.4-1,0.7-1.4c0.3-0.4,0.6-0.9,1-1.2
		c0.4-0.4,0.8-0.7,1.2-1l2-1.3c0.4-0.3,0.7-0.5,0.9-0.7c0.2-0.2,0.4-0.4,0.6-0.5c0.1-0.2,0.2-0.3,0.3-0.5c0-0.2,0.1-0.4,0.1-0.7
		c0-0.5-0.2-0.9-0.5-1.1c-0.4-0.2-1-0.3-1.8-0.3c-0.3,0-0.6,0-0.9,0c-0.3,0-0.7,0-1,0.1c-0.4,0-0.7,0.1-1,0.1c-0.3,0-0.7,0.1-1,0.1
		h0c-0.1,0-0.2,0-0.3-0.1c-0.1-0.1-0.1-0.2-0.1-0.3v-1.2c0-0.1,0-0.2,0.1-0.2c0.1-0.1,0.2-0.1,0.3-0.1c0.3-0.1,0.6-0.1,0.9-0.2
		c0.3-0.1,0.7-0.1,1-0.2c0.4,0,0.7-0.1,1.1-0.1c0.4,0,0.7,0,1,0c1.7,0,3,0.3,3.7,0.9C21.2,63.5,21.6,64.4,21.6,65.6z"/>
</g>
<circle class="st0" cx="-43.9" cy="87.7" r="13.6"/>
<text transform="matrix(1 0 0 1 -50.4462 94.8331)" class="st1" style="font-family:'NeoSans-Medium'; font-size:19.844px;">1</text>
</svg>
