<?xml version="1.0" encoding="utf-8"?>
<!-- Generator: Adobe Illustrator 23.0.2, SVG Export Plug-In . SVG Version: 6.00 Build 0)  -->
<svg version="1.1" id="Layer_1" xmlns="http://www.w3.org/2000/svg" xmlns:xlink="http://www.w3.org/1999/xlink" x="0px" y="0px"
	 viewBox="0 0 100 100" style="enable-background:new 0 0 100 100;" xml:space="preserve">
<style type="text/css">
	.st0{fill:#D7282F;}
	.st1{fill:#FFFFFF;}
</style>
<title>iconos</title>
<path class="st0" d="M87.1,40.2l-0.4-0.4c-2.1-2.1-5.5-2.1-7.6,0L67.9,51h-7.5c0.4-0.7,0.6-1.5,0.6-2.4c0-3-2.4-5.4-5.4-5.4H36.1
	c-0.8,0-1.5,0.3-2,0.8L22.7,55.5c-1.5-0.8-3.4-0.6-4.7,0.6l-5.6,5.6c-1.5,1.5-1.5,4,0,5.5l10.2,10.2c0.2,0.2,0.4,0.1,0.8,0l1.9-0.7
	c0.2-0.2,0.3-0.5,0.1-0.7c0,0,0-0.1-0.1-0.1L14.5,65.1c-0.3-0.3-0.3-0.9,0-1.2l5.6-5.6c0.3-0.3,0.9-0.3,1.2,0l17.2,17.2
	c0.3,0.3,0.3,0.9,0,1.2L33,82.3c-0.3,0.3-0.9,0.3-1.2,0l-2-2c-0.2-0.2-0.4-0.1-0.8,0l-2,0.6c-0.2,0.1-0.3,0.4-0.3,0.6
	c0,0.1,0.1,0.1,0.1,0.2l2.7,2.7c1.5,1.5,4,1.5,5.5,0c0,0,0,0,0,0l5.6-5.6c1.1-1.1,1.4-2.8,0.8-4.3l6.6-6.8h18c0.8,0,1.7-0.4,2.3-1
	l18.8-18.9C89.3,45.7,89.2,42.3,87.1,40.2z M85.1,45.8L66.1,64.7H46.9l-7.3,7.5L24.9,57.5l11.2-11.1h19.4c1.3-0.1,2.4,0.9,2.5,2.2
	c0.1,1.3-0.9,2.4-2.2,2.5c-0.1,0-0.2,0-0.3,0h-9.7v3h23.3L81.3,42c1-0.9,2.5-0.9,3.4,0l0.4,0.3C86,43.3,86,44.8,85.1,45.8L85.1,45.8
	z"/>
<path class="st0" d="M57.1,14.4c-6.3,0-11.4,5.1-11.4,11.4s5.1,11.4,11.4,11.4c6.3,0,11.4-5.1,11.4-11.4c0,0,0,0,0,0
	C68.5,19.5,63.4,14.4,57.1,14.4z M57.1,34.1c-4.6,0-8.4-3.8-8.3-8.4s3.8-8.4,8.4-8.3c4.6,0,8.3,3.7,8.3,8.4
	C65.5,30.4,61.7,34.1,57.1,34.1z"/>
<circle class="st0" cx="18.6" cy="64.8" r="15.1"/>
<g>
	<path class="st1" d="M23.9,70.3c-0.3,0.6-0.7,1.1-1.2,1.5c-0.5,0.4-1.1,0.7-1.8,0.9c-0.7,0.2-1.4,0.3-2.2,0.3
		c-0.8,0-1.6-0.1-2.3-0.2s-1.3-0.2-2-0.4c-0.1,0-0.2-0.1-0.3-0.1c-0.1-0.1-0.1-0.2-0.1-0.3v-1.4c0-0.1,0-0.2,0.1-0.3
		c0.1-0.1,0.2-0.1,0.3-0.1h0c0.9,0.1,1.7,0.2,2.4,0.2s1.3,0.1,1.8,0.1c0.9,0,1.5-0.2,1.9-0.6c0.4-0.4,0.6-1,0.6-1.8v-0.5
		c0-0.3,0-0.6-0.1-0.8c-0.1-0.3-0.2-0.5-0.3-0.7s-0.4-0.4-0.6-0.5s-0.6-0.2-1-0.2h-3.9c-0.3,0-0.4-0.1-0.4-0.4v-1.4
		c0-0.3,0.1-0.4,0.4-0.4h3.9c0.4,0,0.8-0.1,1-0.2s0.5-0.3,0.6-0.5c0.2-0.2,0.3-0.4,0.3-0.7c0.1-0.3,0.1-0.5,0.1-0.8v-0.4
		c0-0.3,0-0.5-0.1-0.8c-0.1-0.3-0.2-0.5-0.4-0.7c-0.2-0.2-0.4-0.3-0.7-0.5c-0.3-0.1-0.7-0.2-1.2-0.2c-0.4,0-0.7,0-1,0
		c-0.3,0-0.6,0-0.9,0.1c-0.3,0-0.6,0.1-1,0.1s-0.8,0.1-1.3,0.1h0c-0.1,0-0.2,0-0.3-0.1c-0.1-0.1-0.1-0.2-0.1-0.3v-1.3
		c0-0.1,0-0.2,0.1-0.3c0.1-0.1,0.2-0.1,0.3-0.1c0.6-0.2,1.3-0.3,2-0.4s1.4-0.2,2.3-0.2c0.8,0,1.5,0.1,2.2,0.2s1.3,0.4,1.7,0.8
		c0.5,0.4,0.9,0.8,1.2,1.4s0.4,1.3,0.4,2.1v0.4c0,0.8-0.2,1.4-0.5,2c-0.3,0.5-0.8,1-1.4,1.3c0.6,0.3,1.1,0.8,1.4,1.4
		c0.3,0.6,0.5,1.2,0.5,1.9v0.5C24.3,69,24.2,69.7,23.9,70.3z"/>
</g>
</svg>
