<?xml version="1.0" encoding="utf-8"?>
<!-- Generator: Adobe Illustrator 23.0.2, SVG Export Plug-In . SVG Version: 6.00 Build 0)  -->
<svg version="1.1" id="Layer_1" xmlns="http://www.w3.org/2000/svg" xmlns:xlink="http://www.w3.org/1999/xlink" x="0px" y="0px"
	 viewBox="0 0 100 100" style="enable-background:new 0 0 100 100;" xml:space="preserve">
<style type="text/css">
	.st0{fill:#D7282F;}
	.st1{fill:#FFFFFF;}
</style>
<title>iconos</title>
<path class="st0" d="M89.5,39.5l-0.4-0.4c-2.2-2.2-5.9-2.2-8.1,0c0,0,0,0,0,0L69,51.1h-8c1.4-2.8,0.2-6.3-2.6-7.7
	c-0.8-0.4-1.6-0.6-2.5-0.6H35.2c-0.8,0-1.6,0.3-2.2,0.9L20.9,55.8c-1.6-0.9-3.6-0.6-5,0.7l-6,6c-1.6,1.6-1.6,4.2,0,5.9c0,0,0,0,0,0
	l10.9,10.9c0.2,0.2,0.5,0.2,0.8,0l2-0.8c0.3-0.2,0.3-0.5,0.1-0.8c0,0,0,0-0.1-0.1L12.2,66c-0.3-0.4-0.3-0.9,0-1.3l6-6
	c0.4-0.3,0.9-0.3,1.3,0l18.4,18.3c0.3,0.4,0.3,0.9,0,1.3l-6,6c-0.4,0.3-0.9,0.3-1.3,0l-2.2-2.1c-0.2-0.2-0.5-0.1-0.8,0l-2.1,0.7
	c-0.2,0.1-0.4,0.4-0.3,0.6c0,0.1,0.1,0.1,0.1,0.2l2.9,2.9c1.6,1.6,4.3,1.6,5.9,0l6-6c1.2-1.2,1.5-3,0.9-4.6l7-7.2h19.1
	c0.9,0,1.8-0.4,2.4-1l20-20.2C91.8,45.4,91.8,41.7,89.5,39.5C89.5,39.5,89.5,39.5,89.5,39.5z M87.3,45.4L67.2,65.6H46.7L39,73.6
	L23.3,58L35.2,46h20.6c1.4,0.2,2.3,1.6,2.1,3c-0.2,1.1-1,1.9-2.1,2.1H45.6v3.2h24.7l12.9-12.8c1-1,2.6-1,3.6,0.1c0,0,0,0,0,0
	l0.4,0.4C88.2,42.9,88.2,44.4,87.3,45.4z"/>
<path class="st0" d="M41.4,12.1c-6.7,0-12.1,5.4-12.1,12.1s5.4,12.1,12.1,12.1s12.1-5.4,12.1-12.1v0C53.6,17.5,48.1,12.1,41.4,12.1z
	 M41.4,33.1c-4.9,0-8.9-4-8.9-8.9s4-8.9,8.9-8.9s8.9,4,8.9,8.9C50.3,29.1,46.3,33.1,41.4,33.1z"/>
<path class="st0" d="M44.1,28.7c-0.1,0-0.1,0.1-0.2,0.1l-0.4,0.1H43h-0.6h-0.5c-0.4,0-0.7,0-1.1-0.1c-0.3-0.1-0.6-0.2-0.9-0.4
	c-0.3-0.2-0.5-0.4-0.6-0.7c-0.2-0.4-0.2-0.8-0.2-1.3v-6.1c0-0.1,0-0.1,0.1-0.2c0,0,0.1-0.1,0.2-0.1h1.2c0.1,0,0.1,0,0.2,0.1
	c0,0,0.1,0.1,0.1,0.2v6.3c0,0.3,0,0.6,0.2,0.8c0.2,0.2,0.5,0.2,0.7,0.2h2.2c0.1,0,0.1,0,0.2,0.1c0,0,0.1,0.1,0.1,0.2v0.8
	C44.1,28.6,44.1,28.6,44.1,28.7z"/>
<path class="st0" d="M69.9,12.6c-6.6,0-11.9,5.3-11.9,11.8c0,6.6,5.3,11.9,11.8,11.9s11.9-5.3,11.9-11.8c0,0,0,0,0,0
	C81.7,18,76.4,12.7,69.9,12.6z M69.9,33.2c-4.8,0-8.7-3.9-8.7-8.7c0-4.8,3.9-8.7,8.7-8.7c4.8,0,8.7,3.9,8.7,8.7c0,0,0,0,0,0
	C78.6,29.3,74.7,33.2,69.9,33.2L69.9,33.2z"/>
<path class="st0" d="M72.4,25.2c-0.1-0.2-0.3-0.4-0.5-0.6c-0.3-0.2-0.5-0.4-0.8-0.6l-1.5-0.8L69.2,23c-0.1-0.1-0.2-0.2-0.3-0.3
	c-0.1-0.1-0.1-0.2-0.2-0.3c0-0.1,0-0.2,0-0.3c0-0.2,0.1-0.5,0.3-0.6c0.3-0.2,0.6-0.3,1-0.2c0.4,0,0.8,0,1.2,0c0.4,0,0.8,0,1.2,0.1
	l0,0c0.1,0,0.1,0,0.2-0.1c0,0,0-0.1,0-0.2v-0.9c0,0,0-0.1,0-0.1c0,0-0.1-0.1-0.2-0.1l-0.7-0.1l-1-0.1v-0.9c0-0.1,0-0.1-0.1-0.2
	c0-0.1-0.1-0.1-0.2-0.1h-1.2c-0.1,0-0.1,0-0.2,0.1c0,0-0.1,0.1-0.1,0.2v1c-0.3,0-0.7,0.1-1,0.3c-0.2,0.1-0.5,0.3-0.6,0.5
	c-0.2,0.2-0.3,0.4-0.3,0.7C67,21.6,67,21.9,67,22.2c0,0.2,0,0.4,0,0.6c0.1,0.2,0.1,0.4,0.2,0.6c0.1,0.2,0.3,0.4,0.4,0.5
	c0.2,0.2,0.4,0.4,0.7,0.5l1.6,0.9l0.6,0.3l0.3,0.3c0.1,0.1,0.1,0.2,0.2,0.3c0,0.1,0,0.2,0,0.3c0,0.3-0.1,0.6-0.3,0.8
	c-0.3,0.2-0.7,0.3-1.1,0.3h-0.4h-0.6H68h-0.5l0,0c-0.1,0-0.1,0-0.2,0c0,0-0.1,0.1-0.1,0.2v0.9c0,0.1,0,0.1,0.1,0.2
	c0,0,0.1,0.1,0.2,0.1l0.7,0.1c0.3,0,0.6,0.1,0.8,0.1v1c0,0.1,0,0.1,0.1,0.2c0,0.1,0.1,0.1,0.2,0.1h1.1c0.1,0,0.1,0,0.2-0.1
	c0,0,0.1-0.1,0.1-0.2v-1.1c0.4-0.1,0.7-0.2,1-0.4c0.3-0.2,0.5-0.3,0.7-0.6c0.2-0.2,0.3-0.5,0.4-0.7c0.1-0.3,0.1-0.5,0.1-0.8
	c0-0.2,0-0.5,0-0.7C72.8,25.6,72.6,25.4,72.4,25.2z"/>
<circle class="st0" cx="18.6" cy="64.8" r="15.1"/>
<g>
	<path class="st1" d="M22.4,71.7c-0.9,1-2.3,1.5-4.3,1.5c-0.7,0-1.4-0.1-2.1-0.2c-0.8-0.1-1.5-0.2-2.1-0.4c-0.1,0-0.2-0.1-0.3-0.1
		c-0.1-0.1-0.1-0.2-0.1-0.3v-1.3c0-0.1,0-0.2,0.1-0.3c0.1-0.1,0.2-0.1,0.3-0.1h0c0.9,0.1,1.7,0.2,2.4,0.2s1.3,0.1,1.8,0.1
		c0.5,0,0.9-0.1,1.3-0.2c0.3-0.1,0.6-0.3,0.8-0.6c0.2-0.3,0.3-0.6,0.4-0.9s0.1-0.8,0.1-1.2v-0.1c0-0.9-0.3-1.6-0.9-1.9
		c-0.6-0.4-1.6-0.6-3-0.6h-3c-0.1,0-0.1,0-0.2-0.1c0-0.1-0.1-0.1-0.1-0.2v0l0.7-7.8c0-0.1,0.1-0.2,0.1-0.3s0.2-0.1,0.3-0.1h8
		c0.1,0,0.2,0,0.3,0.1c0.1,0.1,0.1,0.2,0.1,0.3v1.7c0,0.1,0,0.2-0.1,0.3c-0.1,0.1-0.2,0.1-0.3,0.1h-6l-0.3,3.6h0.4
		c0.8,0,1.7,0.1,2.5,0.2c0.8,0.1,1.6,0.3,2.2,0.7c0.7,0.3,1.2,0.8,1.6,1.5c0.4,0.6,0.6,1.5,0.6,2.5v0.1
		C23.8,69.4,23.3,70.7,22.4,71.7z"/>
</g>
</svg>
