<?xml version="1.0" encoding="utf-8"?>
<!-- Generator: Adobe Illustrator 23.0.2, SVG Export Plug-In . SVG Version: 6.00 Build 0)  -->
<svg version="1.1" id="Layer_1" xmlns="http://www.w3.org/2000/svg" xmlns:xlink="http://www.w3.org/1999/xlink" x="0px" y="0px"
	 viewBox="0 0 100 100" style="enable-background:new 0 0 100 100;" xml:space="preserve">
<style type="text/css">
	.st0{fill:#D7282F;}
	.st1{fill:#FFFFFF;}
</style>
<title>iconos</title>
<path class="st0" d="M33.1,37.2h28.4c0.7,0,1.4-0.6,1.4-1.4c0-0.7-0.6-1.4-1.4-1.4H33.1c-0.7,0-1.4,0.6-1.4,1.4
	C31.7,36.6,32.3,37.2,33.1,37.2z"/>
<path class="st0" d="M33.1,46.6h28.4c0.7,0,1.3-0.6,1.3-1.3c0-0.7-0.6-1.3-1.3-1.3H33.1c-0.7,0-1.3,0.6-1.3,1.3S32.3,46.6,33.1,46.6
	z"/>
<path class="st0" d="M33.1,27.7h21.6c0.7,0,1.4-0.6,1.4-1.4c0-0.7-0.6-1.4-1.4-1.4H33.1c-0.7,0-1.4,0.6-1.4,1.4
	C31.7,27.1,32.3,27.7,33.1,27.7z"/>
<path class="st0" d="M45.2,76c-0.7,0-1.3,0.6-1.3,1.3c0,0.7,0.6,1.3,1.3,1.3h21.6c0.7,0,1.3-0.6,1.3-1.3c0-0.7-0.6-1.3-1.3-1.3H45.2
	z"/>
<path class="st0" d="M90.3,24.2L87,21.7c-1.5-1.1-3.6-0.8-4.7,0.7L76,30.6v-3.2c0-9.7-7.8-17.5-17.5-17.5c0,0,0,0-0.1,0H27.2
	c-3.9,0-7.1,3.2-7.1,7.1v22.8l0,0v7c0,0.1,0,0.1,0,0.2V66l0,0v3c0,9.7,7.8,17.5,17.5,17.5c0,0,0.1,0,0.1,0H69c3.9,0,7.1-3.2,7.1-7.1
	V63c0-0.3-0.3-0.6-0.6-0.6L73,63.4c-0.4,0.1-0.6,0.3-0.6,0.6v15.4c0,1.9-1.5,3.4-3.4,3.4c0,0,0,0,0,0H37.7
	c-7.6,0-13.9-6.1-13.9-13.8c0,0,0,0,0-0.1V38.1l0,0V17c0-1.9,1.5-3.4,3.4-3.4c0,0,0,0,0,0h31.3c7.6,0,13.9,6.2,13.9,13.8
	c0,0,0,0,0,0.1v8.1L59.6,52.3H33.1c-0.7,0-1.4,0.6-1.4,1.4c0,0.7,0.6,1.4,1.4,1.4h24.5l-2.1,2.8l-1.1,8.2l-1,1.3
	c-0.4,0.6-0.3,1.4,0.3,1.9c0.6,0.4,1.4,0.3,1.9-0.3l1-1.3l7.6-3.3l8.2-10.9v6.5l3.7-1.7v-9.7l14.9-19.7
	C92.1,27.4,91.8,25.3,90.3,24.2C90.3,24.2,90.3,24.2,90.3,24.2z M57.3,64.4l0.6-4.3l3.4,2.6L57.3,64.4z M83.6,34.1l-4.4-3.3l1.7-2.2
	l4.4,3.3L83.6,34.1z M88.8,27.3l-2.7,3.6l-4.4-3.3l2.7-3.6c0.2-0.3,0.7-0.4,1-0.1l3.3,2.5C89,26.5,89,27,88.8,27.3L88.8,27.3z"/>
<circle class="st0" cx="18.6" cy="69.8" r="15.1"/>
<g>
	<path class="st1" d="M23.7,74.6c-0.2,0.7-0.6,1.2-1.1,1.7c-0.5,0.5-1.1,0.8-1.8,1.1c-0.7,0.3-1.5,0.4-2.4,0.4
		c-0.8,0-1.6-0.1-2.3-0.4c-0.7-0.3-1.3-0.7-1.8-1.2c-0.5-0.5-0.9-1.3-1.2-2.1c-0.3-0.9-0.4-1.9-0.4-3.1v-2.5c0-1.3,0.1-2.4,0.4-3.4
		c0.3-0.9,0.6-1.7,1.2-2.3c0.5-0.6,1.1-1,1.9-1.3s1.6-0.4,2.6-0.4c1,0,1.8,0.1,2.5,0.2c0.7,0.1,1.2,0.2,1.6,0.3
		c0.2,0,0.3,0.1,0.4,0.1c0.1,0.1,0.1,0.2,0.1,0.3v1.4c0,0.3-0.1,0.5-0.4,0.5h-0.1c-0.2,0-0.5-0.1-0.8-0.1c-0.3,0-0.7-0.1-1.1-0.1
		s-0.8-0.1-1.1-0.1c-0.4,0-0.7,0-1.1,0c-0.6,0-1,0.1-1.4,0.2s-0.7,0.4-0.9,0.7c-0.2,0.3-0.4,0.7-0.5,1.2c-0.1,0.5-0.2,1.1-0.2,1.9
		c0.4-0.1,0.8-0.1,1.3-0.2s1.1-0.1,1.7-0.1c0.7,0,1.4,0.1,2.1,0.3c0.7,0.2,1.2,0.4,1.7,0.8c0.5,0.4,0.9,0.9,1.2,1.5
		c0.3,0.6,0.4,1.4,0.4,2.3v0.2C24.1,73.2,23.9,74,23.7,74.6z M21.1,72.2c0-0.5-0.1-0.9-0.2-1.3c-0.2-0.3-0.4-0.6-0.7-0.8
		c-0.3-0.2-0.6-0.3-1-0.4c-0.4-0.1-0.7-0.1-1.1-0.1c-0.3,0-0.7,0-1.2,0.1c-0.5,0-0.9,0.1-1.2,0.2v1.2c0,0.9,0.1,1.7,0.2,2.2
		s0.3,1,0.6,1.3c0.2,0.3,0.5,0.5,0.9,0.7c0.3,0.1,0.7,0.2,1.1,0.2c0.4,0,0.7,0,1.1-0.1c0.3-0.1,0.6-0.3,0.8-0.5
		c0.2-0.2,0.4-0.5,0.6-0.9c0.1-0.4,0.2-0.9,0.2-1.5V72.2z"/>
</g>
</svg>
