<?xml version="1.0" encoding="utf-8"?>
<!-- Generator: Adobe Illustrator 23.0.2, SVG Export Plug-In . SVG Version: 6.00 Build 0)  -->
<svg version="1.1" id="Layer_1" xmlns="http://www.w3.org/2000/svg" xmlns:xlink="http://www.w3.org/1999/xlink" x="0px" y="0px"
	 viewBox="0 0 100 100" style="enable-background:new 0 0 100 100;" xml:space="preserve">
<style type="text/css">
	.st0{fill:#D7282F;}
	.st1{fill:#FFFFFF;}
</style>
<title>iconos</title>
<path class="st0" d="M54,16.7l-1.5,2.4c-0.3,0.4-0.7,0.7-1.2,0.6C34.5,19.8,21,33.5,21.1,50.2c0.1,15.2,11.4,28,26.5,30
	c14.2,1.2,28.9-9.7,32-23.6c0.7-3.1,0.9-6.4,0.6-9.6c0-0.3,0.1-0.6,0.4-0.8l2.5-1.5c0.3-0.2,0.7-0.1,0.9,0.2c0,0.1,0.1,0.2,0.1,0.3
	C86.7,63.9,73.7,81.3,54.9,84S18.7,73.6,16,54.8S26.4,18.7,45.2,16c2.8-0.4,5.6-0.5,8.5-0.2c0.3,0,0.5,0.3,0.5,0.6
	c0,0.1,0,0.2-0.1,0.2"/>
<path class="st0" d="M46.2,65.6L35.4,51.9c-0.2-0.2-0.1-0.6,0.1-0.7c0,0,0.1,0,0.1-0.1l2.9-1.3c0.5-0.2,1-0.1,1.3,0.3L48,60.6
	l24.8-43c0.3-0.5,0.8-0.8,1.3-0.8h3.3c0.3,0,0.6,0.3,0.6,0.6c0,0.1,0,0.2-0.1,0.3L50.4,65.4c-0.2,0.3-0.5,0.5-0.8,0.5H47
	C46.7,65.9,46.4,65.8,46.2,65.6"/>
<g>
	<path class="st0" d="M18.6,92.5c-8.9,0-16.1-7.2-16.1-16.1s7.2-16.1,16.1-16.1c8.9,0,16.1,7.2,16.1,16.1S27.5,92.5,18.6,92.5z"/>
	<path class="st1" d="M18.6,61.3c8.3,0,15.1,6.8,15.1,15.1c0,8.3-6.8,15.1-15.1,15.1c-8.3,0-15.1-6.8-15.1-15.1
		C3.5,68.1,10.3,61.3,18.6,61.3 M18.6,59.3C9.2,59.3,1.5,67,1.5,76.4s7.7,17.1,17.1,17.1s17.1-7.7,17.1-17.1S28.1,59.3,18.6,59.3
		L18.6,59.3z"/>
</g>
<g>
	<path class="st1" d="M23.5,81.8c-0.3,0.6-0.7,1.1-1.2,1.5c-0.5,0.4-1.1,0.7-1.8,0.9c-0.7,0.2-1.4,0.3-2.1,0.3h-0.2
		c-0.7,0-1.5-0.1-2.1-0.3c-0.7-0.2-1.3-0.5-1.8-0.9c-0.5-0.4-0.9-0.9-1.2-1.5c-0.3-0.6-0.5-1.4-0.5-2.2v-0.2c0-0.7,0.2-1.4,0.5-2
		c0.4-0.6,0.8-1.1,1.5-1.5c-0.7-0.4-1.2-0.9-1.5-1.5c-0.3-0.6-0.5-1.2-0.5-1.9v-0.1c0-0.8,0.1-1.5,0.4-2.1c0.3-0.6,0.7-1,1.2-1.4
		c0.5-0.4,1.1-0.6,1.8-0.8c0.7-0.2,1.4-0.2,2.1-0.2h0.2c0.7,0,1.5,0.1,2.1,0.2s1.3,0.4,1.8,0.8s0.9,0.8,1.2,1.4
		c0.3,0.6,0.5,1.3,0.5,2.1v0.1c0,0.7-0.2,1.3-0.5,1.9s-0.8,1.1-1.5,1.5c0.6,0.4,1.1,0.9,1.5,1.5c0.4,0.6,0.5,1.3,0.5,2v0.2
		C24,80.4,23.8,81.2,23.5,81.8z M21.1,72.4c0-0.7-0.2-1.3-0.6-1.7C20,70.2,19.3,70,18.3,70h-0.2c-1,0-1.7,0.2-2.1,0.6
		c-0.4,0.4-0.6,1-0.6,1.7v0.1c0,0.6,0.2,1.2,0.5,1.6c0.4,0.4,1,0.6,1.8,0.6h0.9c0.8,0,1.5-0.2,1.8-0.6
		C20.9,73.6,21.1,73.1,21.1,72.4L21.1,72.4z M21,79.4c0-0.3,0-0.5-0.1-0.8c-0.1-0.3-0.2-0.5-0.4-0.8c-0.2-0.2-0.4-0.4-0.7-0.6
		c-0.3-0.2-0.7-0.2-1.1-0.2h-0.9c-0.4,0-0.8,0.1-1.1,0.2c-0.3,0.2-0.5,0.3-0.7,0.6s-0.3,0.5-0.4,0.8c-0.1,0.3-0.1,0.6-0.1,0.8v0.2
		c0,0.7,0.2,1.4,0.7,1.9s1.1,0.7,2,0.7h0.2c0.9,0,1.6-0.2,2-0.7c0.4-0.5,0.7-1.1,0.7-1.9V79.4z"/>
</g>
</svg>
