<?xml version="1.0" encoding="utf-8"?>
<!-- Generator: Adobe Illustrator 23.0.2, SVG Export Plug-In . SVG Version: 6.00 Build 0)  -->
<svg version="1.1" id="Layer_1" xmlns="http://www.w3.org/2000/svg" xmlns:xlink="http://www.w3.org/1999/xlink" x="0px" y="0px"
	 viewBox="0 0 100 100" style="enable-background:new 0 0 100 100;" xml:space="preserve">
<style type="text/css">
	.st0{fill:#D7282F;}
	.st1{fill:#FFFFFF;}
</style>
<title>iconos</title>
<g>
	<path class="st0" d="M50,84.6c19.1,0,34.6-15.5,34.6-34.6S69.1,15.4,50,15.4S15.4,30.9,15.4,50S30.9,84.6,50,84.6z M51.4,81.6V65.9
		c4.8-0.1,9.4-0.6,14.1-1.6C62.9,73.9,57.6,80.7,51.4,81.6z M51.4,63V37c5,0.1,10,0.7,14.9,1.8c0.7,3.7,1.1,7.4,1.1,11.2
		s-0.4,7.5-1.1,11.2C61.5,62.4,56.4,63,51.4,63z M60.3,80c3.8-3.7,6.8-9.4,8.5-16.5c1.7-0.5,3.2-1,4.8-1.7c0.7-0.2,1.3-0.6,1.9-0.8
		c1.9-1,3.7-2.1,5.3-3.5l0,0l0,0C78.3,68,70.5,76.5,60.3,80z M69.5,60.3c1.2-6.8,1.2-13.8,0-20.7c7.4,2.4,12.3,6.1,12.3,10.3
		S76.9,57.9,69.5,60.3z M80.8,42.5L80.8,42.5L80.8,42.5c-1.7-1.4-3.5-2.6-5.4-3.5c-0.6-0.4-1.3-0.6-1.9-0.8
		c-1.6-0.6-3.1-1.2-4.8-1.7l0,0l0,0c-1.7-6.9-4.7-12.7-8.5-16.5C70.5,23.5,78.3,32,80.8,42.5z M51.4,18.4c6.2,1,11.5,7.8,14.1,17.3
		c-4.7-1-9.4-1.6-14.1-1.6V18.4z M48.6,81.6c-6.2-1-11.5-7.8-14.1-17.3c4.7,1,9.4,1.6,14.1,1.6V81.6z M33.6,61.2
		c-0.7-3.7-1.1-7.4-1.1-11.2s0.4-7.5,1.1-11.2c2.4-0.6,4.9-1.1,7.4-1.3c2.5-0.4,5-0.5,7.5-0.5v26.1C43.6,63,38.5,62.4,33.6,61.2z
		 M48.6,18.4L48.6,18.4V34c-4.8,0.1-9.4,0.6-14.1,1.6C37.1,26.1,42.4,19.3,48.6,18.4z M39.6,20L39.6,20h0.1
		c-3.8,3.7-6.8,9.4-8.5,16.5c-1.6,0.5-3.2,1-4.8,1.6c-2.6,1.1-5.1,2.5-7.3,4.4v-0.1l-0.1,0.1C21.7,32,29.5,23.6,39.6,20z M30.5,39.7
		c-1.2,6.8-1.2,13.8,0,20.7c-7.4-2.4-12.3-6.1-12.3-10.3S23.1,42.1,30.5,39.7z M19.2,57.6L19.2,57.6L19.2,57.6
		C19.2,57.5,19.2,57.5,19.2,57.6c2.1,1.8,4.7,3.3,7.3,4.3c1.6,0.6,3.1,1.2,4.8,1.7c1.7,6.9,4.7,12.7,8.5,16.5l0,0l0,0
		C29.5,76.5,21.8,68,19.2,57.6L19.2,57.6z"/>
</g>
<circle class="st0" cx="18.6" cy="77.1" r="15.1"/>
<g>
	<path class="st1" d="M24.4,72.1c-0.1,0.2-0.2,0.4-0.3,0.6l-5.9,12.8c-0.1,0.2-0.2,0.3-0.2,0.3s-0.2,0.1-0.4,0.1h-2.3
		c-0.1,0-0.2,0-0.2-0.1C15,85.8,15,85.7,15,85.6c0,0,0-0.1,0-0.2l6.3-13.1v0c0-0.1,0-0.1-0.1-0.1h-6.8c-0.1,0-0.2,0-0.3-0.1
		S14,71.8,14,71.7V70c0-0.1,0-0.2,0.1-0.3c0.1-0.1,0.2-0.1,0.3-0.1h9.2c0.2,0,0.5,0.1,0.6,0.3c0.2,0.2,0.3,0.4,0.3,0.6v1.2
		C24.5,71.8,24.4,71.9,24.4,72.1z"/>
</g>
</svg>
