<?xml version="1.0" encoding="utf-8"?>
<!-- Generator: Adobe Illustrator 23.0.2, SVG Export Plug-In . SVG Version: 6.00 Build 0)  -->
<svg version="1.1" id="Layer_1" xmlns="http://www.w3.org/2000/svg" xmlns:xlink="http://www.w3.org/1999/xlink" x="0px" y="0px"
	 viewBox="0 0 100 100" style="enable-background:new 0 0 100 100;" xml:space="preserve">
<style type="text/css">
	.st0{fill:#D7282F;}
	.st1{fill:#FFFFFF;}
</style>
<title>iconos</title>
<path class="st0" d="M87.7,52.9c0,3.4-2.8,6.1-6.2,6.1c-1.3,0-2.6-0.4-3.7-1.2c-1.3,5.7-4.7,10.6-9.6,13.8v9.1c0,1.4,0,3.1-2.4,4
	l-5.3,1.6c-0.4,0.1-0.7,0.2-1.1,0.2c-0.8,0-1.6-0.3-2.3-0.7c-0.9-0.7-1.5-1.8-1.5-2.9v-6.2c-2.6,0.4-5.3,0.6-8,0.5
	c0,0.7,0,1.6,0,2.4v1.1c0,1.4,0,3.1-2.4,4L40,86.3c-1,0.3-2.1,0.3-3.1-0.2c-1.2-0.7-1.9-1.9-1.9-3.2v-6.8c0-0.7,0-1.4,0-2
	c-3.8-1.7-7.2-4.3-9.9-7.6h-6.9c-2.1,0-3.9-1.6-4.1-3.7l-2-10.7c0-0.1,0-0.2,0-0.3c0.1-2.2,1.9-3.9,4.1-3.8h5.2
	c1.9-5.5,5.8-10.1,10.8-12.9c0.2-0.1,0.5-0.1,0.6,0.1c0,0,0,0,0,0l0.7,2.4c0,0.3,0,0.4-0.1,0.6c-4.4,2.4-7.7,6.5-9.1,11.4
	c0,0,0,0.1,0,0.2l-0.2,0.5c-0.2,0.6-0.8,1-1.5,1h-6.4c-0.4,0-0.7,0.2-0.9,0.5l2,10.6c0,0.1,0,0.2,0,0.3c0,0.3,0.4,0.6,0.9,0.6h7.6
	c0.5,0,0.9,0.2,1.2,0.6l0.5,0.6c2.5,3.1,5.8,5.6,9.6,7.1c1.1,0.5,1.1,1.3,1,4.6v6.7c0,0.2,0.1,0.3,0.2,0.4c0.2,0.1,0.4,0.1,0.5,0.1
	l5.2-1.6l0.2-0.1c0-0.3,0-0.6,0-0.8v-1.1c-0.2-4.8-0.1-4.8,0.5-5.4c0.3-0.3,0.8-0.5,1.3-0.4c3.6,0.4,7.2,0.1,10.6-0.7
	c0.5-0.1,1,0,1.4,0.3c0.4,0.3,0.6,0.8,0.6,1.4v1v7.1c0,0.2,0.1,0.3,0.2,0.4c0.2,0.1,0.4,0.1,0.6,0.1l5.2-1.6l0.2-0.1
	c0-0.3,0-0.6,0-0.8v-10c0-0.6,0.3-1.1,0.8-1.4c5.9-3.8,9.3-9.5,9.3-15.5c0-0.4,0-0.8-0.1-1.2c0-0.2,0-0.4,0-0.6
	c-1.2-10.2-12.2-18.2-25.5-18.2c-3.6,0.2-7.1-1.6-9.1-4.7c-0.5-0.9-1.3-1.7-2.2-2.2v4.9c0,0.2-0.2,0.3-0.3,0.3l-2.5,0.3
	c-0.2,0-0.3-0.1-0.3-0.3c0,0,0,0,0,0v-7.1c0-0.9,0.7-1.6,1.6-1.6c0,0,0,0,0,0c3.5,0,5.1,2.1,6.4,3.7c1.3,2.3,3.8,3.7,6.5,3.4
	c14.9,0,27.2,9.2,28.6,20.9l0,0c-0.1,1.2,0.3,2.4,1.1,3.3c0.6,0.6,1.4,1,2.3,1c1.6,0,3-1.3,3-3c0,0,0,0,0,0c0-0.3,0.3-0.5,0.6-0.5h2
	C87.5,52.3,87.7,52.6,87.7,52.9C87.7,52.9,87.7,52.9,87.7,52.9z M31.8,45.9h2.7c0.2,0,0.3,0.1,0.4,0.2c0.1,0.1,0.2,0.3,0.2,0.4V49
	c0,0.1-0.1,0.3-0.2,0.4c-0.1,0.1-0.3,0.2-0.4,0.2h-2.7c-0.2,0-0.3-0.1-0.4-0.2c-0.1-0.1-0.2-0.2-0.2-0.4v-2.4c0-0.2,0.1-0.3,0.2-0.4
	C31.5,46,31.6,45.9,31.8,45.9z M69.7,30.2v-5.5h-5.5c-0.4,0-0.6-0.3-0.7-0.7c0,0-0.9-2.1-1-2.5c-0.1-0.4,0.3-0.7,0.7-0.7h6.5v-6.5
	c0-0.4,0.3-0.8,0.7-0.7c0.4,0.1,2.5,1,2.5,1c0.5,0.2,0.7,0.3,0.7,0.7v5.5h5.5c0.4,0,0.6,0.3,0.7,0.7c0,0,0.9,2.1,1,2.5
	s-0.3,0.7-0.7,0.7h-6.5v6.5c0,0.4-0.4,0.9-0.7,0.7S70.4,31,70.4,31C70,30.8,69.7,30.7,69.7,30.2L69.7,30.2z"/>
<circle class="st0" cx="18.6" cy="78.7" r="15.1"/>
<g>
	<path class="st1" d="M24.6,82.5c-0.1,0.1-0.2,0.1-0.3,0.1h-1.6v3.5c0,0.1,0,0.2-0.1,0.3s-0.2,0.1-0.3,0.1H20c-0.1,0-0.2,0-0.3-0.1
		c-0.1-0.1-0.1-0.2-0.1-0.3v-3.5H13c-0.1,0-0.2,0-0.3-0.1s-0.1-0.2-0.1-0.3v-1.8c0-0.3,0.1-0.5,0.2-0.7l6.8-9.1
		c0.1-0.1,0.2-0.2,0.3-0.3s0.2-0.1,0.4-0.1h2c0.1,0,0.2,0,0.3,0.1s0.1,0.2,0.1,0.3v9.6h1.6c0.1,0,0.2,0,0.3,0.1s0.1,0.2,0.1,0.3v1.5
		C24.7,82.3,24.6,82.4,24.6,82.5z M19.6,74.6c0-0.1,0-0.1-0.1-0.1s-0.1,0-0.2,0.1L15.5,80c0,0-0.1,0.1-0.1,0.1
		c0,0.1,0.1,0.1,0.2,0.1h4V74.6z"/>
</g>
</svg>
