<?xml version="1.0" encoding="utf-8"?>
<!-- Generator: Adobe Illustrator 23.0.2, SVG Export Plug-In . SVG Version: 6.00 Build 0)  -->
<svg version="1.1" id="Layer_1" focusable="false" xmlns="http://www.w3.org/2000/svg" xmlns:xlink="http://www.w3.org/1999/xlink"
	 x="0px" y="0px" viewBox="0 0 500 500" style="enable-background:new 0 0 500 500;" xml:space="preserve">
<style type="text/css">
	.st0{fill:#FFFFFF;}
</style>
<path class="st0" d="M250,168.1c-45.3,0-81.9,36.6-81.9,81.9s36.6,81.9,81.9,81.9s81.9-36.6,81.9-81.9S295.4,168.1,250,168.1z
	 M250,303.2c-29.3,0-53.2-23.9-53.2-53.2s23.9-53.2,53.2-53.2c29.4,0,53.2,23.9,53.2,53.2S279.3,303.2,250,303.2L250,303.2z
	 M354.4,164.7c0,10.6-8.6,19.1-19.1,19.1c-10.6,0-19.1-8.6-19.1-19.1s8.6-19.1,19.1-19.1C345.8,145.6,354.4,154.2,354.4,164.7z
	 M408.6,184.1c-1.2-25.6-7.1-48.3-25.8-66.9c-18.7-18.7-41.3-24.5-66.9-25.8c-26.4-1.5-105.4-1.5-131.8,0
	c-25.5,1.2-48.2,7.1-66.9,25.7s-24.5,41.3-25.8,66.9c-1.5,26.4-1.5,105.4,0,131.8c1.2,25.6,7.1,48.3,25.8,66.9
	c18.7,18.7,41.3,24.5,66.9,25.8c26.4,1.5,105.4,1.5,131.8,0c25.6-1.2,48.3-7.1,66.9-25.8c18.7-18.7,24.5-41.3,25.8-66.9
	C410.1,289.5,410.1,210.5,408.6,184.1L408.6,184.1z M374.6,344.2c-5.6,14-16.3,24.7-30.4,30.4c-21,8.3-70.9,6.4-94.2,6.4
	s-73.2,1.9-94.2-6.4c-14-5.6-24.7-16.3-30.4-30.4c-8.3-21-6.4-70.9-6.4-94.2s-1.9-73.2,6.4-94.2c5.6-14,16.3-24.7,30.4-30.4
	c21-8.3,70.9-6.4,94.2-6.4s73.2-1.9,94.2,6.4c14,5.6,24.7,16.3,30.4,30.4c8.3,21,6.4,70.9,6.4,94.2S382.9,323.2,374.6,344.2z"/>
</svg>
