<?xml version="1.0" encoding="utf-8"?>
<!-- Generator: Adobe Illustrator 23.0.2, SVG Export Plug-In . SVG Version: 6.00 Build 0)  -->
<svg version="1.1" id="Layer_1" focusable="false" xmlns="http://www.w3.org/2000/svg" xmlns:xlink="http://www.w3.org/1999/xlink"
	 x="0px" y="0px" viewBox="0 0 500 500" style="enable-background:new 0 0 500 500;" xml:space="preserve">
<style type="text/css">
	.st0{fill:#FFFFFF;}
</style>
<path class="st0" d="M384.4,93.1h-269c-12.3,0-22.3,10.2-22.3,22.6v268.5c0,12.5,10,22.6,22.3,22.6h269c12.3,0,22.4-10.2,22.4-22.6
	V115.8C406.9,103.3,396.8,93.1,384.4,93.1z M188,362h-46.5V212.3H188L188,362L188,362z M164.7,191.9c-14.9,0-27-12.1-27-27
	s12-27,27-27c14.8,0,27,12.1,27,27C191.7,179.8,179.6,191.9,164.7,191.9z M362.2,362h-46.5v-72.8c0-17.4-0.4-39.7-24.2-39.7
	c-24.2,0-27.9,18.9-27.9,38.4V362h-46.5V212.3h44.6v20.4h0.6c6.2-11.8,21.4-24.2,44-24.2c47.1,0,55.8,31,55.8,71.4V362z"/>
</svg>
