<svg id="Layer_1" data-name="Layer 1" xmlns="http://www.w3.org/2000/svg" viewBox="0 0 534.83 114.08"><defs><style>.cls-1{fill:#fff;}</style></defs><title>logo</title><path class="cls-1" d="M246.21,59.19l14-41c1.91-5.53,4.59-7.77,8.66-7.77s6.81,2.48,8.59,7.77l13.84,41h-12l-3.27-11H261l-3.17,11Zm27.3-19.77-5-17-4.91,17Z"/><path class="cls-1" d="M330.6,10.51v37.2c0,2.53,1.08,3.83,3.82,3.83a11,11,0,0,0,3.18-.42l1,7.82a40.37,40.37,0,0,1-7.11.75c-8.06,0-11.48-3.56-11.48-10.74V10.51Z"/><path class="cls-1" d="M341.25,47.65c0-6.65,2.92-10.7,10.53-11.94a84,84,0,0,1,10.48-.87c0-3.34-1.69-4.58-5.63-4.58a110.46,110.46,0,0,0-13.24,1l-.87-8a88.52,88.52,0,0,1,14.75-1.47c8.35,0,15.36,2.38,15.36,12.13V48.81c0,2.59-.1,4.77-.32,7.25-4.43,2.65-10.05,3.63-16.49,3.63-10.41,0-14.57-4-14.57-12m21-5.87a41.63,41.63,0,0,0-6.9.77c-2.61.64-3.69,1.53-3.69,5,0,3.11,1.87,4,5.12,4A15.3,15.3,0,0,0,362,50.8a49,49,0,0,0,.22-4.95Zm-.91-23.94H353.3l5.42-9.24h10.51Z"/><path class="cls-1" d="M391.22,59.19H380.69V32.67c0-2.59.08-4.77.31-7.26,4.43-2.57,10.32-3.62,16.35-3.62,13.64,0,15.19,5.81,15.19,14.09V59.19H402V36.69c0-4.48-.85-6.3-6-6.33a13.49,13.49,0,0,0-4.58.73,49,49,0,0,0-.22,4.95Z"/><path class="cls-1" d="M445.21,13.45c0-3.82,1.41-5.28,5.71-5.28s5.71,1.46,5.71,5.28-1.39,5.28-5.71,5.28-5.71-1.47-5.71-5.28m.39,8.34h10.71v37.4H445.6Z"/><path class="cls-1" d="M486.15,10.51h10.63v38.3c0,2.59-.08,4.77-.31,7.25-4.19,2.55-10.05,3.63-15.23,3.63-12.5,0-17.74-4.41-17.74-19,0-14.37,5.24-18.93,16.7-18.93a34.21,34.21,0,0,1,5.95.55Zm-4,19.77c-7.71,0-8,4.52-8,10.44,0,5.23.23,10.53,7.11,10.53a14.24,14.24,0,0,0,4.68-.7,48.8,48.8,0,0,0,.23-4.95V30.84a16.34,16.34,0,0,0-4-.56"/><path class="cls-1" d="M503.45,47.65c0-6.65,2.94-10.7,10.53-11.94a84.29,84.29,0,0,1,10.51-.87c0-3.34-1.72-4.58-5.66-4.58a110.78,110.78,0,0,0-13.24,1l-.85-8a89.44,89.44,0,0,1,14.73-1.46c8.36,0,15.36,2.38,15.36,12.14V48.81c0,2.59-.09,4.76-.32,7.25-4.43,2.65-10,3.63-16.47,3.63-10.42,0-14.59-4-14.59-12m21-5.87a41.63,41.63,0,0,0-6.91.77c-2.62.64-3.7,1.53-3.7,5,0,3.11,1.88,4,5.13,4a15.36,15.36,0,0,0,5.25-.73,48.94,48.94,0,0,0,.23-4.95Z"/><path class="cls-1" d="M430.56,10.51V21.79h9.17v8.74h-9.17V47.71c0,2.53,1.08,3.83,3.81,3.83,1.1,0,2.22,0,3.4-.14l.83,7.54a40.47,40.47,0,0,1-7.11.75C423.43,59.69,420,56.13,420,49V10.51Z"/><path class="cls-1" d="M305.15,10.51V21.79h9.17v8.74h-9.17V47.71c0,2.53,1.08,3.83,3.81,3.83,1.1,0,2.22,0,3.4-.14l.83,7.54a40.47,40.47,0,0,1-7.11.75C298,59.69,294.6,56.13,294.6,49V10.51Z"/><path class="cls-1" d="M104.57,59.69l14.05-41c1.91-5.54,4.58-7.77,8.66-7.77s6.8,2.48,8.58,7.77l13.85,41h-12l-3.28-11H119.39l-3.18,11Zm27.29-19.77-5-17-4.91,17Z"/><path class="cls-1" d="M154.1,59.69V23.44c0-11.71,8.15-12.16,17-12.16,3.69,0,10.43.25,13.56.37v8.89H170.94c-4.75,0-5.56,1-5.56,5.54v4.53h18.45V39.7H165.38v20Z"/><path class="cls-1" d="M202.08,59.69H190.83V12.31a87.17,87.17,0,0,1,16-1.4c10.93,0,19.61,2.15,19.61,15.64,0,13-7.88,15.86-19.13,15.86-1.72,0-3.73-.09-5.25-.17Zm0-26.49a37.42,37.42,0,0,0,4.85.23c5.35,0,8.36-1.41,8.36-6.88,0-4.81-1.93-6.69-8.19-6.69a37.22,37.22,0,0,0-5,.33Z"/><path class="cls-1" d="M2,0A2,2,0,0,0,0,2v32.1C0,49.61,10,59.75,25.54,59.75H38.76a2,2,0,0,0,2-2V42a2,2,0,0,0-2-2H30.32c-1.08,0-6.13-.18-6.13-6.13V2a2,2,0,0,0-2-2Z"/><path class="cls-1" d="M29.07,8.63a2,2,0,0,0-2,2V28.71a2,2,0,0,0,2,2h9.65c1.08,0,4.88.17,4.88,6.14v21a2,2,0,0,0,2,2H65.82a2,2,0,0,0,2-2V34.31c0-15.55-10-25.68-25.54-25.68Z"/><path class="cls-1" d="M106.39,108h-1.82V86.44a45.9,45.9,0,0,1,6.52-.48c4.59,0,8.38.92,8.38,6.45S116.11,99,111.34,99c-1.22,0-3.84-.12-5-.18Zm0-10.72a41.25,41.25,0,0,0,4.7.23c4.18,0,6.55-1,6.55-5,0-3.46-1.73-4.88-6.44-4.88a37.1,37.1,0,0,0-4.81.33Z"/><path class="cls-1" d="M121.67,99.63c0-6,1.8-8.54,7.23-8.54S136,93.94,136,98.32c0,.5,0,1.21,0,1.72-1.91.31-5.83.68-8.17.77l-4.35.18c.31,3.48,1.08,5.64,5.93,5.64a41.37,41.37,0,0,0,5.83-.48l.18,1.49a41.34,41.34,0,0,1-6.89.53c-5.39,0-6.83-3.61-6.83-8.54m6.56-.3c1.55-.08,4.29-.29,6-.5,0-.38,0-.92,0-1.32,0-3-1.37-4.91-5.36-4.91-4.45,0-5.49,2.13-5.49,7Z"/><path class="cls-1" d="M141.4,108h-1.73V95.21c0-.93,0-1.88.06-2.76a20.66,20.66,0,0,1,7.51-1.36c5.6,0,6.16,2.66,6.16,6V108h-1.74V97.51c0-3.35-.61-4.88-5.09-4.88a16.66,16.66,0,0,0-5.12.9c0,.85,0,2,0,2.77Z"/><path class="cls-1" d="M158.69,95.22c0,2.43,1.59,2.64,4.38,3.48,3.55,1.08,5.28,2,5.28,4.89,0,3.59-2.69,4.58-6.3,4.58a24.4,24.4,0,0,1-5.11-.5l.17-1.43a26.06,26.06,0,0,0,4.23.36c2.2,0,5.21,0,5.21-2.88,0-2.21-1.37-2.66-4.39-3.56-2.6-.77-5.22-1.36-5.22-4.72s2.33-4.35,5.71-4.35a24.91,24.91,0,0,1,5.22.51L167.69,93a25.81,25.81,0,0,0-4.18-.38c-2.13,0-4.82.06-4.82,2.59"/><path class="cls-1" d="M171.36,86.13c0-1.07.23-1.47,1-1.47s1.05.4,1.05,1.47-.22,1.43-1.05,1.43-1-.38-1-1.43m.18,5.18h1.73V108h-1.73Z"/><path class="cls-1" d="M177.1,99.63c0-6.22,1.92-8.54,7.25-8.54s7.26,2.4,7.26,8.54-1.92,8.54-7.26,8.54-7.25-2.31-7.25-8.54m12.76,0c0-5.33-1.34-7-5.51-7s-5.5,1.44-5.5,7,1.45,7,5.5,7,5.51-1.67,5.51-7"/><path class="cls-1" d="M197.29,108h-1.73V95.21c0-.93,0-1.88.06-2.76a20.66,20.66,0,0,1,7.51-1.36c5.6,0,6.16,2.66,6.16,6V108h-1.74V97.51c0-3.35-.61-4.88-5.09-4.88a16.72,16.72,0,0,0-5.12.9c0,.85-.05,2-.05,2.77Z"/><path class="cls-1" d="M213.19,99.63c0-6,1.81-8.54,7.23-8.54s7.11,2.85,7.11,7.23c0,.5,0,1.21,0,1.72-1.91.31-5.83.68-8.17.77L215,101c.31,3.48,1.08,5.64,5.93,5.64a41.37,41.37,0,0,0,5.83-.48l.18,1.49a41.34,41.34,0,0,1-6.89.53c-5.39,0-6.83-3.61-6.83-8.54m6.56-.3c1.55-.08,4.29-.29,6-.5,0-.38,0-.92,0-1.32,0-3-1.37-4.91-5.36-4.91-4.45,0-5.49,2.13-5.49,7Z"/><path class="cls-1" d="M232.39,95.22c0,2.43,1.59,2.64,4.38,3.48,3.55,1.08,5.28,2,5.28,4.89,0,3.59-2.69,4.58-6.31,4.58a24.53,24.53,0,0,1-5.11-.5l.18-1.43a25.85,25.85,0,0,0,4.22.36c2.21,0,5.22,0,5.22-2.88,0-2.21-1.38-2.66-4.4-3.56-2.59-.77-5.22-1.36-5.22-4.72s2.34-4.35,5.72-4.35a24.75,24.75,0,0,1,5.21.51L241.39,93a25.81,25.81,0,0,0-4.18-.38c-2.13,0-4.82.06-4.82,2.59"/><polygon class="cls-1" points="264.47 91.31 266.24 91.31 258.49 114.08 256.72 114.08 259.23 106.76 252.49 91.31 254.38 91.31 260.03 104.38 264.47 91.31"/><path class="cls-1" d="M290.91,107.72a25.24,25.24,0,0,1-4.76.45c-7,0-8.65-3.38-8.65-11.1S279.19,86,286.15,86a25.78,25.78,0,0,1,4.76.43l-.18,1.51a25.23,25.23,0,0,0-3.61-.34c-7,0-7.77,3.14-7.77,9.51s.9,9.51,7.77,9.51a26.07,26.07,0,0,0,3.62-.34Z"/><path class="cls-1" d="M292.87,99.63c0-6,1.8-8.54,7.23-8.54s7.11,2.85,7.11,7.23c0,.5,0,1.21,0,1.72-1.9.31-5.83.68-8.16.77l-4.36.18c.31,3.48,1.09,5.64,5.94,5.64a41.09,41.09,0,0,0,5.82-.48l.18,1.49a41.11,41.11,0,0,1-6.88.53c-5.39,0-6.83-3.61-6.83-8.54m6.56-.3c1.55-.08,4.28-.29,6-.5,0-.38,0-.92,0-1.32,0-3-1.36-4.91-5.35-4.91-4.46,0-5.49,2.13-5.49,7Z"/><path class="cls-1" d="M312.07,95.22c0,2.43,1.58,2.64,4.38,3.48,3.55,1.08,5.28,2,5.28,4.89,0,3.59-2.69,4.58-6.31,4.58a24.4,24.4,0,0,1-5.11-.5l.18-1.43a25.85,25.85,0,0,0,4.22.36c2.2,0,5.21,0,5.21-2.88,0-2.21-1.37-2.66-4.39-3.56-2.6-.77-5.22-1.36-5.22-4.72s2.33-4.35,5.72-4.35a24.75,24.75,0,0,1,5.21.51L321.06,93a25.58,25.58,0,0,0-4.17-.38c-2.13,0-4.82.06-4.82,2.59"/><path class="cls-1" d="M325.67,91.66a36.35,36.35,0,0,1,6.09-.57c3.5,0,6.21.87,6.21,5v8.07c0,.92,0,1.88-.07,2.75a15.81,15.81,0,0,1-6.76,1.29c-4.44,0-6.57-1.2-6.57-4.88,0-2.87,1.2-4.7,4.06-5.13a73.88,73.88,0,0,1,7.61-.52v-1c0-2.9-.89-4-4.94-4a37.83,37.83,0,0,0-5.47.49Zm5.6,15a14.25,14.25,0,0,0,4.92-.83c0-.84.05-2,.05-2.76v-4a48.68,48.68,0,0,0-7,.47c-2,.37-2.88,1.22-2.88,3.66,0,2.76,1.42,3.43,4.95,3.43"/><path class="cls-1" d="M344.09,108h-1.73V95.21c0-.93,0-1.88.06-2.76a20.66,20.66,0,0,1,7.51-1.36c5.6,0,6.16,2.66,6.16,6V108h-1.74V97.51c0-3.35-.6-4.88-5.09-4.88a16.72,16.72,0,0,0-5.12.9c0,.85-.05,2-.05,2.77Z"/><path class="cls-1" d="M363.71,86.61v4.7h3.81v1.45h-3.81v10.82c0,2.69.86,3.1,3.08,3.1a6.33,6.33,0,0,0,.76-.05l.15,1.39a8.67,8.67,0,0,1-1.5.15c-3,0-4.22-1.27-4.22-4.27V92.76h-3.13V91.31H362V86.89Z"/><path class="cls-1" d="M370.74,91.31h1.74V108h-1.74Zm2.88-6.94h2.27l-3.48,4.28H371Z"/><path class="cls-1" d="M376.75,91.66a36.14,36.14,0,0,1,6.09-.57c3.5,0,6.2.87,6.2,5v8.07c0,.92,0,1.88-.06,2.75a15.83,15.83,0,0,1-6.77,1.29c-4.43,0-6.56-1.2-6.56-4.88,0-2.87,1.19-4.7,4.06-5.13a73.68,73.68,0,0,1,7.61-.52v-1c0-2.9-.89-4-4.93-4a37.84,37.84,0,0,0-5.48.49Zm5.59,15a14.31,14.31,0,0,0,4.93-.83c0-.84.05-2,.05-2.76v-4a48.82,48.82,0,0,0-7.05.47c-1.95.37-2.88,1.22-2.88,3.66,0,2.76,1.42,3.43,4.95,3.43"/><path class="cls-1" d="M394.32,95.22c0,2.43,1.59,2.64,4.38,3.48,3.55,1.08,5.28,2,5.28,4.89,0,3.59-2.69,4.58-6.31,4.58a24.53,24.53,0,0,1-5.11-.5l.18-1.43a25.85,25.85,0,0,0,4.22.36c2.21,0,5.22,0,5.22-2.88,0-2.21-1.38-2.66-4.4-3.56-2.59-.77-5.22-1.36-5.22-4.72s2.34-4.35,5.72-4.35a24.75,24.75,0,0,1,5.21.51L403.32,93a25.81,25.81,0,0,0-4.18-.38c-2.13,0-4.82.06-4.82,2.59"/></svg>