<?xml version="1.0" encoding="utf-8"?>
<!-- Generator: Adobe Illustrator 23.0.2, SVG Export Plug-In . SVG Version: 6.00 Build 0)  -->
<svg version="1.1" id="Layer_1" xmlns="http://www.w3.org/2000/svg" xmlns:xlink="http://www.w3.org/1999/xlink" x="0px" y="0px"
	 viewBox="0 0 430 397.3" style="enable-background:new 0 0 430 397.3;" xml:space="preserve">
<style type="text/css">
	.st0{fill:#CD0F21;}
</style>
<g id="Grupo_489" transform="translate(-1638.367 994.814)">
	<path id="Trazado_284" class="st0" d="M1989.7-812.7l-116.7-116.7c-7.6-7.6-20-7.6-27.6,0l-47.1,47.1c-0.7,0.7-0.7,1.7,0,2.4l6.6,3
		c1,0.4,1.7,0.7,2.4,0l10.8-10.8l72.3,72.2c1.6,0.1,3.2,0.2,4.8,0.5h0l0.3,0c22.6,3.4,40.3,21.2,43.8,43.8l0,0.3v0
		c0.2,1.6,0.4,3.2,0.4,4.8l28.6,28.6l-28.5,28.5v14.4l49.8-49.8C2008.4-763.1,2008.2-793.6,1989.7-812.7z M1979.9-748.8L1829.6-899
		l23.1-23.1c3.6-3.6,9.5-3.7,13.2,0c0,0,0,0,0,0l116.7,116.7c14.9,14.9,14.9,39.1,0,54L1979.9-748.8z"/>
	<path id="Trazado_285" class="st0" d="M1790.4-859.8c0.6-0.6,0.6-1.7,0-2.3l-6.6-3c-0.9-0.5-2-0.4-2.7,0.3
		c-13.1,14.1-15.1,33-7.6,49.4h11.8C1777.2-829.8,1779.3-847.7,1790.4-859.8z"/>
	<path id="Trazado_286" class="st0" d="M1895-810.8L1895-810.8c-2.5-0.4-5-0.6-7.4-0.6h-165c-10.8,0-19.5,8.7-19.5,19.5c0,0,0,0,0,0
		v66.6c0,0.9,0.7,1.7,1.7,1.7l6.8-2.6c1-0.3,1.7-0.7,1.7-1.7v-15.3h212.5v66.6c0,5.2-4.2,9.3-9.3,9.3h-165
		c-20.5,0-37.3-16.1-38.2-36.6c0-0.9-0.7-1.6-1.6-1.6l-6.8,2.5c-1.1,0.4-1.7,1.2-1.7,2.1c0.9,25.9,22.3,43.7,48.4,43.7h165
		c10.8,0,19.5-8.7,19.5-19.5c0,0,0,0,0,0V-763c0-2.5-0.2-5-0.5-7.4v0C1932.1-791.3,1915.8-807.6,1895-810.8z M1925.7-759.2h-212.5
		v-32.7c0-5.1,4.2-9.3,9.3-9.3c0,0,0,0,0,0h165c21.1,0,38.2,17.1,38.2,38.2c0,0,0,0,0,0V-759.2z"/>
</g>
</svg>
