<?xml version="1.0" encoding="utf-8"?>
<!-- Generator: Adobe Illustrator 25.0.0, SVG Export Plug-In . SVG Version: 6.00 Build 0)  -->
<svg version="1.1" id="Grupo_491" xmlns="http://www.w3.org/2000/svg" xmlns:xlink="http://www.w3.org/1999/xlink" x="0px" y="0px"
	 viewBox="0 0 74.7 49.7" style="enable-background:new 0 0 74.7 49.7;" xml:space="preserve">
<style type="text/css">
	.st0{fill:#FFFFFF;}
</style>
<g>
	<path class="st0" d="M60.1,22.1c-0.3-2.2-0.9-4.3-1.7-6.4l-0.2-0.4c-1.2-2.5-2.8-4.8-4.7-6.8C48.9,4.1,43,1.6,36.8,1.6
		c-6.3,0-12.2,2.4-16.6,6.9s-6.9,10.3-6.9,16.6c0,6.3,2.4,12.2,6.9,16.6c4.4,4.4,10.3,6.9,16.6,6.9c6.3,0,12.2-2.4,16.6-6.9
		c2.1-2.1,3.7-4.5,4.9-7.2c0.1-0.2,0.1-0.4-0.1-0.6c-0.1-0.2-0.4-0.3-0.7-0.3l-1.4,0.3c-0.4,0.1-0.7,0.3-0.9,0.7
		c-1.2,2.3-2.8,4.4-4.8,6.2c-3.8,3.3-8.6,5.2-13.6,5.2c-5.7,0-11.1-2.3-15-6.5c-7.5-7.9-7.6-20.3-0.3-28.3c3.8-4.2,9-6.5,14.7-6.7
		c5.6-0.2,11,1.9,15,5.8c3.1,3,5.2,6.8,6,11.1c0,0.1,0,0.1,0,0.1c0.1,0.4,0.1,0.8,0.2,1.1c0.3,2.1,0.2,4.3-0.2,6.5
		c0,0.2-0.1,0.5-0.1,0.7c0,0.2,0,0.4,0.1,0.6c0.2,0.2,0.4,0.3,0.7,0.3l1.1-0.2c0.4-0.1,0.8-0.4,0.9-0.9
		C60.3,27.1,60.4,24.6,60.1,22.1z"/>
	<path class="st0" d="M55.3,26.5l-3.2-3.2c1-2,1.6-4,1.9-5.8c0.1-0.5-0.1-0.9-0.4-1.3c-0.2-0.2-0.5-0.4-0.8-0.4
		c-0.8-0.1-1.5,0.4-1.7,1.2c-0.2,1.3-0.6,2.7-1.2,4.1l-3.8-3.8l4-4c0.6-0.6,0.6-1.5,0-2.1c-0.5-0.5-1.5-0.5-2.1,0l-4,4l-3.8-3.8
		c1.4-0.6,2.8-1,4.1-1.2c0.4-0.1,0.7-0.3,0.9-0.6c0.2-0.3,0.3-0.7,0.3-1.1c-0.1-0.3-0.2-0.6-0.4-0.8c-0.3-0.3-0.8-0.5-1.3-0.4
		c-1.8,0.3-3.8,1-5.8,1.9L35,6.1c-0.5-0.5-1.5-0.5-2.1,0c-0.3,0.3-0.4,0.6-0.4,1c0,0.4,0.2,0.8,0.4,1l2.6,2.6
		c-2.3,1.4-4.5,3.1-6.6,5l-4.5-4.5c-0.5-0.5-1.5-0.5-2.1,0c-0.6,0.6-0.6,1.5,0,2.1l4.5,4.5c-1.9,2.1-3.7,4.3-5,6.6l-2.6-2.6
		c-0.5-0.5-1.5-0.5-2.1,0c-0.6,0.6-0.6,1.5,0,2.1l3.2,3.2c-1,2-1.6,4-1.9,5.8c-0.1,0.4,0,0.8,0.3,1.1c0.2,0.3,0.6,0.5,0.9,0.6
		c0.4,0.1,0.8,0,1.1-0.3c0.3-0.2,0.5-0.6,0.6-0.9c0.2-1.3,0.6-2.7,1.2-4.1l3.8,3.8l-4,4c-0.6,0.6-0.6,1.5,0,2.1
		c0.6,0.5,1.5,0.5,2.1,0l4-4l3.8,3.8c-1.4,0.6-2.8,1-4.1,1.2c-0.4,0.1-0.7,0.3-0.9,0.6c-0.2,0.3-0.3,0.7-0.3,1.1
		c0.1,0.8,0.9,1.3,1.7,1.2c1.8-0.3,3.8-0.9,5.8-1.9l3.2,3.2c0.3,0.3,0.6,0.4,1,0.4c0.4,0,0.8-0.2,1-0.4c0.3-0.3,0.4-0.6,0.4-1
		c0-0.4-0.2-0.8-0.4-1L37,39.7c2.3-1.4,4.5-3.1,6.6-5l4.5,4.5c0.5,0.5,1.5,0.5,2.1,0c0.3-0.3,0.4-0.6,0.4-1c0-0.4-0.2-0.8-0.4-1
		l-4.5-4.5c1.9-2.1,3.7-4.3,5-6.6l2.6,2.6c0.5,0.5,1.5,0.5,2.1,0C55.9,28,55.9,27.1,55.3,26.5z M48.6,23.9c-1.3,2.3-3,4.6-5,6.7
		l-5.3-5.3l5.8-5.8L48.6,23.9z M41.5,32.6c-2.1,2-4.4,3.7-6.7,5l-4.4-4.4l5.8-5.8L41.5,32.6z M31,17.9c2.1-2,4.4-3.7,6.7-5l4.4,4.4
		l-5.8,5.8L31,17.9z M34.2,25.2L28.4,31l-4.4-4.4c1.3-2.3,3-4.6,5-6.7L34.2,25.2z"/>
</g>
</svg>
