<?xml version="1.0" encoding="utf-8"?>
<!-- Generator: Adobe Illustrator 23.0.2, SVG Export Plug-In . SVG Version: 6.00 Build 0)  -->
<svg version="1.1" id="Layer_1" focusable="false" xmlns="http://www.w3.org/2000/svg" xmlns:xlink="http://www.w3.org/1999/xlink"
	 x="0px" y="0px" viewBox="0 0 500 500" style="enable-background:new 0 0 500 500;" xml:space="preserve">
<style type="text/css">
	.st0{fill:#FFFFFF;}
</style>
<path class="st0" d="M426.4,161.1c-4.2-15.9-16.7-28.5-32.5-32.8c-28.7-7.7-143.8-7.7-143.8-7.7s-115.1,0-143.8,7.7
	c-15.8,4.3-28.3,16.8-32.5,32.8C66,190,66,250.3,66,250.3s0,60.3,7.7,89.2c4.2,15.9,16.7,28,32.5,32.2c28.7,7.7,143.8,7.7,143.8,7.7
	s115.1,0,143.8-7.7c15.8-4.3,28.3-16.3,32.5-32.2c7.7-28.9,7.7-89.2,7.7-89.2S434,190,426.4,161.1z M212.4,305V195.5l96.2,54.7
	L212.4,305L212.4,305z"/>
</svg>
